<?xml version="1.0" encoding="utf-8"?>
<!-- Generator: Adobe Illustrator 24.1.3, SVG Export Plug-In . SVG Version: 6.00 Build 0)  -->
<svg version="1.1" id="Layer_1" xmlns="http://www.w3.org/2000/svg" xmlns:xlink="http://www.w3.org/1999/xlink" x="0px" y="0px"
	 viewBox="0 0 16 16" style="enable-background:new 0 0 16 16;" xml:space="preserve">
<path d="M1.1,11l1.8-1.1L9.8,14L8,15.1L1.1,11z M3.7,9.5l1.8-1.1l4.7,2.8v2.1L3.7,9.5z M10.9,8.2l1.8-1.1v2.1l-1.8,1.1V8.2z
	 M5.8,7.8V5.6l4.3,2.6v2.1L5.8,7.8z M10.9,11.2l2.5-1.5v-3l1.8-1.1v5.2l-4.3,2.6V11.2z M3.3,6.7l1.8-1.1v2.1L3.3,8.9V6.7z M0.8,5.2
	l4.3-2.6v2.1L2.6,6.3v3l-1.8,1.1V5.2z M5.8,4.8V2.6l6.5,3.9l-1.8,1.1L5.8,4.8z M6.2,2L8,0.9l6.9,4.1l-1.8,1.1L6.2,2z M8,0L0,4.8v6.5
	L8,16l8-4.8V4.8L8,0z"/>
</svg>
