<?xml version="1.0" encoding="utf-8"?>
<!-- Generator: Adobe Illustrator 20.1.0, SVG Export Plug-In . SVG Version: 6.00 Build 0)  -->
<svg version="1.1" id="Layer_1" xmlns="http://www.w3.org/2000/svg" xmlns:xlink="http://www.w3.org/1999/xlink" x="0px" y="0px"
	 viewBox="0 0 24 24" style="enable-background:new 0 0 24 24;" xml:space="preserve">
<path d="M12,17.8l3.5,0.7l0,0L12,17.8l-3.5,0.7l0,0L12,17.8z M12,16.2c-2.8,0-5,0.8-5,1.9V20h10v-1.9C17,17.1,14.8,16.2,12,16.2
	L12,16.2z M18.9,16.3l2.6,0.4l0,0L18.9,16.3L18.9,16.3L18.9,16.3z M18,14.8c-1.4,0-2.7,0.2-3.8,0.4c-0.1,0.1-0.2,0.2-0.3,0.2
	c2.2,0.3,4.1,1.2,4.1,2.7V20h5v-4.5C21.7,15.1,20,14.8,18,14.8L18,14.8z M5.7,15.5L5.7,15.5L5.7,15.5L2.5,16l0,0L5.7,15.5z M7,14
	c-2.4,0-4.5,0.4-6,1v5h5v-1.9c0-1.5,1.9-2.4,4.1-2.7c-0.5-0.3-0.9-0.8-1.2-1.3C8.3,14,7.7,14,7,14L7,14z M7,4C4.8,4,3,5.8,3,8
	s1.8,4,4,4c0.6,0,1.1-0.1,1.6-0.3c0.3-1.1,1.1-2,2.2-2.4C10.9,8.8,11,8.4,11,8C11,5.8,9.2,4,7,4z M8.3,6.6L7,5.5L5.7,6.7l0,0L7,5.5
	L8.3,6.6L8.3,6.6z M12,10c-1.4,0-2.5,1.1-2.5,2.5S10.6,15,12,15s2.5-1.1,2.5-2.5S13.4,10,12,10z M12,11.5L11.5,12L12,11.5l0.5,0.5
	L12,11.5z M18,6c-1.9,0-3.5,1.6-3.5,3.5c0,0.2,0,0.4,0.1,0.6c0.4,0.5,0.8,1.1,0.9,1.7C16.1,12.6,17,13,18,13c1.9,0,3.5-1.6,3.5-3.5
	S19.9,6,18,6z M18,7.5l-1,1l0,0L18,7.5l1,1L18,7.5z"/>
</svg>
