<?xml version="1.0" encoding="utf-8"?>
<!-- Generator: Adobe Illustrator 20.1.0, SVG Export Plug-In . SVG Version: 6.00 Build 0)  -->
<svg version="1.1" id="Layer_1" xmlns="http://www.w3.org/2000/svg" xmlns:xlink="http://www.w3.org/1999/xlink" x="0px" y="0px"
	 viewBox="0 0 24 24" style="enable-background:new 0 0 24 24;" xml:space="preserve">
<path d="M12,17.8c1.9,0,3.1,0.4,3.5,0.7v0.1H12H8.5v-0.1C8.9,18.2,10.1,17.8,12,17.8z M12,16.2c-2.8,0-5,0.8-5,1.9V20h10v-1.9
	C17,17.1,14.8,16.2,12,16.2L12,16.2z M18.9,16.3c0.9,0.1,1.8,0.2,2.6,0.4v1.9h-2v-0.4C19.5,17.4,19.3,16.8,18.9,16.3z M18,14.8
	c-1.4,0-2.7,0.2-3.8,0.4c-0.1,0.1-0.2,0.2-0.3,0.2c2.2,0.3,4.1,1.2,4.1,2.7V20h5v-4.5C21.7,15.1,20,14.8,18,14.8L18,14.8z M5.7,15.5
	c-0.8,0.7-1.2,1.6-1.2,2.6v0.4h-2v-2.4C3.4,15.8,4.5,15.6,5.7,15.5z M7,14c-2.4,0-4.5,0.4-6,1v5h5v-1.9c0-1.5,1.9-2.4,4.1-2.7
	c-0.5-0.3-0.9-0.8-1.2-1.3C8.3,14,7.7,14,7,14L7,14z M7,4C4.8,4,3,5.8,3,8s1.8,4,4,4c0.6,0,1.1-0.1,1.6-0.3c0.3-1.1,1.1-2,2.2-2.4
	C10.9,8.8,11,8.4,11,8C11,5.8,9.2,4,7,4z M9.5,8.2c-0.9,0.5-1.6,1.3-2,2.3c-0.1,0-0.3,0-0.4,0c-1.4,0-2.5-1.1-2.5-2.5s1-2.5,2.4-2.5
	S9.5,6.6,9.5,8C9.5,8.1,9.5,8.1,9.5,8.2z M12,10c-1.4,0-2.5,1.1-2.5,2.5S10.6,15,12,15s2.5-1.1,2.5-2.5S13.4,10,12,10z M12,13.5
	c-0.6,0-1-0.4-1-1s0.4-1,1-1s1,0.4,1,1S12.6,13.5,12,13.5z M18,6c-1.9,0-3.5,1.6-3.5,3.5c0,0.2,0,0.4,0.1,0.6
	c0.4,0.5,0.8,1.1,0.9,1.7C16.1,12.6,17,13,18,13c1.9,0,3.5-1.6,3.5-3.5S19.9,6,18,6z M18,11.5c-0.4,0-0.9-0.1-1.2-0.4
	c-0.2-0.6-0.4-1.1-0.8-1.6c0-1.1,0.9-2,2-2s2,0.9,2,2S19.1,11.5,18,11.5z"/>
</svg>
