<?xml version="1.0" encoding="utf-8"?>
<!-- Generator: Adobe Illustrator 20.1.0, SVG Export Plug-In . SVG Version: 6.00 Build 0)  -->
<svg version="1.1" id="Layer_1" xmlns="http://www.w3.org/2000/svg" xmlns:xlink="http://www.w3.org/1999/xlink" x="0px" y="0px"
	 viewBox="0 0 24 24" style="enable-background:new 0 0 24 24;" xml:space="preserve">
<path d="M16.3,14.5c-1.3-1.5-2.4-4.1-4.4-4.1s-3,2.7-4.4,4.1c-1,1.1-2.8,1.9-3,3.4C4.3,19,5,20.3,6,20.8c1.8,0.9,3.9-0.9,5.9-0.9
	s4.1,1.7,5.9,0.9c0.8-0.4,1.5-1.5,1.5-2.4C19.3,16.7,17.4,15.7,16.3,14.5z M8.6,15.5c0.5-0.5,1-1.1,1.4-1.7c0.7-0.9,1.3-1.9,1.9-1.9
	c0.7,0,1.6,1.2,2.2,2.1c0.7,1,1.5,1.9,2.3,2.6c0.8,0.6,1.8,1.5,1.2,2.5c-0.5,0.8-2,0.2-2.7,0c-0.9-0.3-1.9-0.6-3-0.6s-2,0.4-3,0.7
	c-0.6,0.1-2.1,0.7-2.6-0.3C5.7,17.7,7.4,16.8,8.6,15.5z M9.7,9.4c1.2-0.1,1.9-1.7,1.5-3.5S9.6,2.8,8.4,3S6.5,4.8,6.9,6.5
	C7.2,8.3,8.5,9.6,9.7,9.4z M9.5,7.9C9.4,8,8.7,7.5,8.4,6.3c-0.2-1,0-1.7,0.2-1.8c0.2,0,0.9,0.5,1.2,1.7C10,7.3,9.7,7.9,9.5,7.9z
	 M5.9,13.3c1.1-0.5,1.4-2.1,0.6-3.7S4.1,7.1,3,7.6s-1.4,2.2-0.6,3.7C3.2,12.9,4.8,13.8,5.9,13.3z M5.3,11.9c-0.2,0.1-1-0.2-1.6-1.3
	C3.3,9.9,3.4,9.1,3.6,9s1,0.3,1.6,1.3C5.6,11,5.5,11.8,5.3,11.9z M21,7.6c-1.1-0.5-2.7,0.4-3.5,2c-0.8,1.5-0.5,3.2,0.6,3.7
	c1.2,0.4,2.7-0.4,3.5-2C22.4,9.8,22.1,8.1,21,7.6z M18.7,11.9c-0.1-0.1-0.3-0.9,0.2-1.6c0.5-1,1.5-1.4,1.6-1.3
	c0.2,0.1,0.3,0.8-0.2,1.6C19.8,11.6,18.8,12,18.7,11.9z M14.2,9.4c1.2,0.2,2.4-1.1,2.8-2.9c0.3-1.7-0.3-3.3-1.5-3.5
	s-2.4,1.1-2.8,2.9C12.4,7.6,13,9.2,14.2,9.4z M15.2,4.5c0.2,0,0.4,0.7,0.3,1.7c-0.3,1.2-0.9,1.8-1.1,1.7c-0.2,0-0.5-0.7-0.3-1.7
	C14.4,5,15.1,4.4,15.2,4.5z"/>
</svg>
