<?xml version="1.0" encoding="utf-8"?>
<!-- Generator: Adobe Illustrator 23.0.4, SVG Export Plug-In . SVG Version: 6.00 Build 0)  -->
<svg version="1.1" id="Layer_1" xmlns="http://www.w3.org/2000/svg" xmlns:xlink="http://www.w3.org/1999/xlink" x="0px" y="0px"
	 viewBox="0 0 24 24" style="enable-background:new 0 0 24 24;" xml:space="preserve">
<path d="M19,7.5c0.3,0,0.5,0.2,0.5,0.5v12c0,0.3-0.2,0.5-0.5,0.5H5c-0.3,0-0.5-0.2-0.5-0.5V8c0-0.3,0.2-0.5,0.5-0.5h0.5V8
	c0,3.6,2.9,6.5,6.5,6.5s6.5-2.9,6.5-6.5V7.5H19z M13.5,8c0,0.8-0.7,1.5-1.5,1.5S10.5,8.8,10.5,8V7.5h3V8z M12,1C9.2,1,7,3.2,7,6H5
	C3.9,6,3,6.9,3,8v12c0,1.1,0.9,2,2,2h14c1.1,0,2-0.9,2-2V8c0-1.1-0.9-2-2-2h-2C17,3.2,14.8,1,12,1z M9,6c0-1.7,1.3-3,3-3s3,1.3,3,3
	H9z M12,11c1.7,0,3-1.3,3-3V7.5h2V8c0,2.8-2.2,5-5,5s-5-2.2-5-5V7.5h2V8C9,9.7,10.3,11,12,11z"/>
</svg>
