<?xml version="1.0" encoding="utf-8"?>
<!-- Generator: Adobe Illustrator 23.0.4, SVG Export Plug-In . SVG Version: 6.00 Build 0)  -->
<svg version="1.1" id="Layer_1" xmlns="http://www.w3.org/2000/svg" xmlns:xlink="http://www.w3.org/1999/xlink" x="0px" y="0px"
	 viewBox="0 0 24 24" style="enable-background:new 0 0 24 24;" xml:space="preserve">
<path d="M13.5,5.5L13.5,5.5H20h0.5l0,0H13.5z M10.5,5.5h-7l0,0H4H10.5L10.5,5.5z M16.2,13l2.4-2l0,0l0,0l0,0l0,0L16.2,13L16.2,13z
	 M7.8,13L7.8,13l-2.4-2l0,0l0,0l0,0l0,0L7.8,13z M12,16l3.5,2.5L12,16l-3.5,2.5L12,16z M4,4C2.9,4,2,4.9,2,6v4c1.1,0,2,0.9,2,2
	s-0.9,2-2,2v4c0,1.1,0.9,2,2,2h16c1.1,0,2-0.9,2-2v-4c-1.1,0-2-0.9-2-2s0.9-2,2-2V6c0-1.1-0.9-2-2-2H4z M8.4,16.8l1.1-4L6.2,10
	l4.3-0.2l1.5-4l1.5,4l4.2,0.2l-3.2,2.7l1.1,4.1L12,14.5L8.4,16.8L8.4,16.8z"/>
</svg>
