<?xml version="1.0" encoding="utf-8"?>
<!-- Generator: Adobe Illustrator 23.0.4, SVG Export Plug-In . SVG Version: 6.00 Build 0)  -->
<svg version="1.1" id="Layer_1" xmlns="http://www.w3.org/2000/svg" xmlns:xlink="http://www.w3.org/1999/xlink" x="0px" y="0px"
	 viewBox="0 0 24 24" style="enable-background:new 0 0 24 24;" xml:space="preserve">
<path d="M16,5h3l0,0H16L16,5z M5,5L5,5h3l0,0H5z M16,16h3l0,0H16L16,16z M8,16L8,16H5l0,0H8z M5,3C3.9,3,3,3.9,3,5v14
	c0,1.1,0.9,2,2,2h14c1.1,0,2-0.9,2-2V5c0-1.1-0.9-2-2-2H5z M6,10h4V6h4v4h4v4h-4v4h-4v-4H6V10z"/>
</svg>
