<?xml version="1.0" encoding="utf-8"?>
<!-- Generator: Adobe Illustrator 23.0.4, SVG Export Plug-In . SVG Version: 6.00 Build 0)  -->
<svg version="1.1" id="Layer_1" xmlns="http://www.w3.org/2000/svg" xmlns:xlink="http://www.w3.org/1999/xlink" x="0px" y="0px"
	 viewBox="0 0 24 24" style="enable-background:new 0 0 24 24;" xml:space="preserve">
<path d="M16.5,5.5h-9v-1h9V5.5z M3.5,15.5V11c0-0.8,0.7-1.5,1.5-1.5h12c-0.3,0.4-0.5,0.9-0.5,1.5s0.2,1.1,0.5,1.5H6.5v3H3.5z
	 M17.5,15.5V13c0.4,0.3,0.9,0.5,1.5,0.5s1.1-0.2,1.5-0.5v2.5H17.5z M6,3v4h12V3H6z M5,8c-1.7,0-3,1.3-3,3v6h4v4h12v-4h4v-6
	c0-1.7-1.3-3-3-3H5z M19,12c-0.5,0-1-0.4-1-1s0.5-1,1-1s1,0.4,1,1S19.5,12,19,12z M8,14h8v5H8V14z"/>
</svg>
