<?xml version="1.0" encoding="utf-8"?>
<!-- Generator: Adobe Illustrator 23.0.4, SVG Export Plug-In . SVG Version: 6.00 Build 0)  -->
<svg version="1.1" id="Layer_1" xmlns="http://www.w3.org/2000/svg" xmlns:xlink="http://www.w3.org/1999/xlink" x="0px" y="0px"
	 viewBox="0 0 24 24" style="enable-background:new 0 0 24 24;" xml:space="preserve">
<path d="M6.5,8.5h-3l0,0H6.5v5h6v-2h1v2h4v-5h3l0,0h-3v5h-4v-2h-1v2h-6V8.5z M5,4v3H2v13h8v-4h4v4h8V7h-3V4H5z M15,9V7h1v5h-1v-2h-2
	V7h1v2H15z M8,7h3v3H9v1h2v1H8V9h2V8H8V7z"/>
</svg>
