<?xml version="1.0" encoding="utf-8"?>
<!-- Generator: Adobe Illustrator 23.0.4, SVG Export Plug-In . SVG Version: 6.00 Build 0)  -->
<svg version="1.1" id="Layer_1" xmlns="http://www.w3.org/2000/svg" xmlns:xlink="http://www.w3.org/1999/xlink" x="0px" y="0px"
	 viewBox="0 0 24 24" style="enable-background:new 0 0 24 24;" xml:space="preserve">
<path d="M13.5,3L14,3.5L13.5,3L13,3.5L13.5,3z M12.5,7.9L12.5,7.9h-1l0,0H12.5z M13.5,1.5c-1.1,0-2,0.9-2,2s0.9,2,2,2s2-0.9,2-2
	S14.6,1.5,13.5,1.5z M12,6c-0.1,0-0.2,0-0.3,0c-0.4,0.1-0.8,0.3-1.1,0.6c-0.3,0.3-0.5,0.6-0.6,1L9.8,8.9L7,23h2.1l1.8-8l2.1,2v6h2
	v-7.5l-2.1-2l0.6-3c1.1,1.3,2.8,2.3,4.7,2.5L16,23h1l3-14l-1-0.2L18.5,11c-1.7-0.1-3.1-1.1-3.8-2.4l-1-1.6c-0.2-0.4-0.4-0.6-0.8-0.8
	C12.6,6.1,12.3,6,12,6z M6,12l2.4,0.5l1-5.1L7,7L6,12z"/>
</svg>
