<?xml version="1.0" encoding="utf-8"?>
<!-- Generator: Adobe Illustrator 23.0.4, SVG Export Plug-In . SVG Version: 6.00 Build 0)  -->
<svg version="1.1" id="Layer_1" xmlns="http://www.w3.org/2000/svg" xmlns:xlink="http://www.w3.org/1999/xlink" x="0px" y="0px"
	 viewBox="0 0 24 24" style="enable-background:new 0 0 24 24;" xml:space="preserve">
<path d="M12,3.5L13.5,5L12,3.5L10.5,5L12,3.5z M12,13.6l7.5-4l0,0L12,13.6l-7.5-4l0,0L12,13.6z M12,2c-1.7,0-3,1.3-3,3s1.3,3,3,3
	s3-1.3,3-3S13.7,2,12,2z M21,8c-3.5,0-6.6,1.3-9,3.5C9.6,9.3,6.5,8,3,8v11c3.5,0,6.6,1.3,9,3.5c2.4-2.2,5.5-3.5,9-3.5V8z"/>
</svg>
