<?xml version="1.0" encoding="utf-8"?>
<!-- Generator: Adobe Illustrator 23.0.4, SVG Export Plug-In . SVG Version: 6.00 Build 0)  -->
<svg version="1.1" id="Layer_1" xmlns="http://www.w3.org/2000/svg" xmlns:xlink="http://www.w3.org/1999/xlink" x="0px" y="0px"
	 viewBox="0 0 24 24" style="enable-background:new 0 0 24 24;" xml:space="preserve">
<path d="M16,7h2h2l0,0h-2H16h-4H9H6H4l0,0h2h3h3H16z M15.2,6.8c1,0.7,2.1,1.2,3.2,1.5L20,8.5V12l-1.6-0.2c-1.1-0.2-2.3-1-3.2-1.8
	c-0.7,0.9-1.9,1.5-3.2,1.5c-1.3,0-2.5-0.6-3.2-1.5c-0.9,0.8-2.2,1.6-3.2,1.8L4,12V8.5l1.6-0.2C6.8,8,8.3,7.1,8.8,6.8
	C9.5,7.7,11,8,12,8C13.1,8,14.5,7.7,15.2,6.8z M15.2,12.3c1.1,0.7,2.1,1.2,3.2,1.5L20,14v3.5l-1.6-0.2c-1.1-0.2-2.1-0.9-3.2-1.8
	C14.5,16.4,13.3,17,12,17c-1.2,0-2.5-0.6-3.2-1.5c-0.9,0.8-2.2,1.6-3.2,1.8L4,17.5V14l1.6-0.2c1.1-0.3,2.4-1,3.2-1.5
	c0.8,1,2.2,1.3,3.2,1.3C13.1,13.6,14.4,13.3,15.2,12.3z M5.6,19.3c1.7-0.4,2.3-1,3.2-1.5C9.3,18.3,10,19,12,19
	c2.1,0,2.8-0.8,3.2-1.2c1,0.5,1.7,1.1,3.2,1.5l1.6,0.2v-13l-1.6-0.2c-1.1-0.2-2.5-1.2-3.2-1.8l0,0l0,0C14.8,5,13.7,6,12,6
	c-1.8,0-2.8-1-3.2-1.5l0,0l0,0C8.1,5.2,6.6,6.1,5.6,6.3L4,6.5v13L5.6,19.3z"/>
</svg>
