<?xml version="1.0" encoding="utf-8"?>
<!-- Generator: Adobe Illustrator 23.0.4, SVG Export Plug-In . SVG Version: 6.00 Build 0)  -->
<svg version="1.1" id="Layer_1" xmlns="http://www.w3.org/2000/svg" xmlns:xlink="http://www.w3.org/1999/xlink" x="0px" y="0px"
	 viewBox="0 0 24 24" style="enable-background:new 0 0 24 24;" xml:space="preserve">
<path d="M17,5c0.8,0,1.5-0.7,1.5-1.5c0-1-1.5-2.7-1.5-2.7s-1.5,1.7-1.5,2.7C15.5,4.3,16.2,5,17,5z M12,5c0.8,0,1.5-0.7,1.5-1.5
	c0-1-1.5-2.7-1.5-2.7s-1.5,1.7-1.5,2.7C10.5,4.3,11.2,5,12,5z M7,5c0.8,0,1.5-0.7,1.5-1.5c0-1-1.5-2.7-1.5-2.7S5.5,2.5,5.5,3.5
	C5.5,4.3,6.2,5,7,5z M18.9,9L18,8.1L17.1,9L18,8.1L18.9,9z M6.5,12.5h7.1L14,12l0,0l-0.4,0.5H7.2H6.5L6.5,12.5z M15,9l3,3l1-1l1,1
	l2-2l-3-3V5L15,9z M3,9c0,0,0.1,1.3,0.5,2C3.9,11.6,5,13,5,13v3l-1,1v6h2v-3l2-3h7v6h2V13l-3-3l-1,1H5L3,9z"/>
</svg>
