<?xml version="1.0" encoding="utf-8"?>
<!-- Generator: Adobe Illustrator 19.2.1, SVG Export Plug-In . SVG Version: 6.00 Build 0)  -->
<svg version="1.1" id="Layer_1" xmlns="http://www.w3.org/2000/svg" xmlns:xlink="http://www.w3.org/1999/xlink" x="0px" y="0px"
	 viewBox="0 0 24 24" style="enable-background:new 0 0 24 24;" xml:space="preserve">
<path d="M12.7,3.3c0-0.6,0-1.3-0.7-1.3s-0.7,0.6-0.7,1.3C5.8,3.8,1,7.4,1,11.9c0.8-1.3,2.1-2.1,3.7-2.1c1.6,0,3,0.8,3.7,2.1
	c0.5-0.9,1.9-1.6,2.9-1.9v8.1C5.4,19.3,1,21.2,1,22h20.8v-5c-3.1,0-6.5,0.5-9.1,0.9V10c1,0.3,2.4,1,2.9,1.9c0.8-1.3,2.1-2.1,3.7-2.1
	c1.6,0,3,0.8,3.7,2.1C23,7.5,18.2,3.8,12.7,3.3z M20.3,18.5v2H7.7C10.7,19.6,16.7,18.5,20.3,18.5z M12,8.4c-1.1,0-2.5,0.6-3.5,1.3
	c-1-0.9-2.4-1.4-3.8-1.4c-0.3,0-0.5,0-0.8,0C5.6,6.2,9.3,4.8,12,4.8c2.8,0,6.4,1.5,8.1,3.5c-0.2,0-0.5,0-0.8,0
	c-1.4,0-2.8,0.5-3.8,1.4C14.5,9,13,8.4,12,8.4z"/>
</svg>
