<?xml version="1.0" encoding="utf-8"?>
<!-- Generator: Adobe Illustrator 23.0.4, SVG Export Plug-In . SVG Version: 6.00 Build 0)  -->
<svg version="1.1" id="Layer_1" xmlns="http://www.w3.org/2000/svg" xmlns:xlink="http://www.w3.org/1999/xlink" x="0px" y="0px"
	 viewBox="0 0 24 24" style="enable-background:new 0 0 24 24;" xml:space="preserve">
<path d="M10,5h4l0,0H10L10,5z M18,3v2h-2V3H8v2H6V3H4v18h2v-2h2v2h8v-2h2v2h2V3H18z M16,7h2v2h-2V7z M6,7h2v2H6V7z M16,11h2v2h-2V11
	z M6,11h2v2H6V11z M16,15h2v2h-2V15z M6,15h2v2H6V15z"/>
</svg>
