<?xml version="1.0" encoding="utf-8"?>
<!-- Generator: Adobe Illustrator 23.0.4, SVG Export Plug-In . SVG Version: 6.00 Build 0)  -->
<svg version="1.1" id="Layer_1" xmlns="http://www.w3.org/2000/svg" xmlns:xlink="http://www.w3.org/1999/xlink" x="0px" y="0px"
	 viewBox="0 0 24 24" style="enable-background:new 0 0 24 24;" xml:space="preserve">
<path d="M11,3.4c0-0.5,0.5-0.9,1-0.9s1,0.4,1,0.9l-0.1,0.7C12.6,4,12.3,4,12,4s-0.6,0-0.9,0.1L11,3.4z M15.9,4.8c0.6,0,1,0.4,1,1
	c0,0.5-0.3,0.8-0.6,0.9l-0.5,0.2c-0.2-0.6-0.5-1.2-1-1.6l0.4-0.3C15.5,4.8,15.7,4.8,15.9,4.8z M8.1,4.8c0.2,0,0.4,0.1,0.6,0.2
	l0.5,0.3c-0.4,0.5-0.8,1-1,1.6L7.7,6.6C7.4,6.5,7.1,6.2,7.1,5.8C7.1,5.2,7.5,4.8,8.1,4.8z M15.8,9.1l0.5,0.2
	c0.3,0.1,0.6,0.4,0.6,0.9c0,0.6-0.4,1-1,1c-0.2,0-0.4-0.1-0.6-0.2l-0.5-0.3C15.3,10.3,15.7,9.7,15.8,9.1z M8.2,9.1
	c0.2,0.6,0.5,1.2,1,1.6l-0.4,0.3c-0.2,0.1-0.4,0.2-0.6,0.2c-0.6,0-1-0.4-1-1c0-0.5,0.3-0.8,0.6-0.9L8.2,9.1z M11.1,11.9
	C11.4,12,11.7,12,12,12s0.6,0,0.9-0.1l0.1,0.6l0,0.1c0,0.5-0.5,0.9-1,0.9s-1-0.4-1-0.9l0-0.1L11.1,11.9z M19.3,14.7
	c-0.6,2.8-2.8,5-5.6,5.6C14.3,17.5,16.5,15.3,19.3,14.7z M4.7,14.7c2.8,0.6,5,2.8,5.6,5.6C7.5,19.7,5.3,17.5,4.7,14.7z M12,1
	c-1.4,0-2.5,1.1-2.5,2.5v0.2C9.1,3.4,8.6,3.2,8.1,3.2c-1.4,0-2.5,1.1-2.5,2.5c0,1,0.6,1.9,1.4,2.2c-0.8,0.4-1.4,1.2-1.4,2.2
	c0,1.4,1.1,2.5,2.5,2.5c0.5,0,1-0.2,1.4-0.4v0.2c0,1.4,1.1,2.5,2.5,2.5s2.5-1.1,2.5-2.5v-0.2c0.4,0.3,0.9,0.4,1.4,0.4
	c1.4,0,2.5-1.1,2.5-2.5c0-1-0.6-1.9-1.4-2.2c0.8-0.4,1.4-1.2,1.4-2.2c0-1.4-1.1-2.5-2.5-2.5c-0.5,0-1,0.2-1.4,0.5V3.5
	C14.5,2.1,13.4,1,12,1z M12,10.5c-1.4,0-2.5-1.1-2.5-2.5s1.1-2.5,2.5-2.5s2.5,1.1,2.5,2.5S13.4,10.5,12,10.5z M21,13c-5,0-9,4-9,9
	C17,22,21,18,21,13z M3,13c0,5,4,9,9,9C12,17,8,13,3,13z"/>
</svg>
