<?xml version="1.0" encoding="utf-8"?>
<!-- Generator: Adobe Illustrator 20.1.0, SVG Export Plug-In . SVG Version: 6.00 Build 0)  -->
<svg version="1.1" id="Layer_1" xmlns="http://www.w3.org/2000/svg" xmlns:xlink="http://www.w3.org/1999/xlink" x="0px" y="0px"
	 viewBox="0 0 24 24" style="enable-background:new 0 0 24 24;" xml:space="preserve">
<path d="M4.1,3.8c0,0,1.3,4.3,6.9,1.2C6.8,0.2,4.1,3.8,4.1,3.8z M6.1,4.1L6.1,4.1L6.7,4l0,0L6.1,4.1z M11,8c-2-1-5-1-7,2s3,12,5,12
	s2-1,3-1s1,1,3,1s7-9,5-12s-5-3-7-2V3h-2V8z M15.5,8.9l-1.8,0.4l-1.2,0.6h-1l-1.2-0.6L8.5,8.9l0,0l0,0l0,0l1.8,0.4l1.2,0.6h1
	l1.2-0.6L15.5,8.9L15.5,8.9L15.5,8.9z"/>
</svg>
