<?xml version="1.0" encoding="utf-8"?>
<!-- Generator: Adobe Illustrator 23.0.4, SVG Export Plug-In . SVG Version: 6.00 Build 0)  -->
<svg version="1.1" id="Layer_1" xmlns="http://www.w3.org/2000/svg" xmlns:xlink="http://www.w3.org/1999/xlink" x="0px" y="0px"
	 viewBox="0 0 24 24" style="enable-background:new 0 0 24 24;" xml:space="preserve">
<path d="M19.5,6.5 M14.5,10.5v-3h-5v3h-3v2.2l-2-6V6.5h15v0.2l-2,6v-2.2H14.5z M6.5,13.2v2.3h3v3h5v-3h3v-2.2l2,6v0.2h-5h-5h-5v-0.2
	L6.5,13.2z M15.7,5H3v2l2,6l-2,6v2h18v-2l-2-6l2-6V5h-2.6l1.1-3.1L17.1,1L15.7,5z M8,12h3V9h2v3h3v2h-3v3h-2v-3H8V12z"/>
</svg>
