<?xml version="1.0" encoding="utf-8"?>
<!-- Generator: Adobe Illustrator 20.1.0, SVG Export Plug-In . SVG Version: 6.00 Build 0)  -->
<svg version="1.1" id="Layer_1" xmlns="http://www.w3.org/2000/svg" xmlns:xlink="http://www.w3.org/1999/xlink" x="0px" y="0px"
	 viewBox="0 0 24 24" style="enable-background:new 0 0 24 24;" xml:space="preserve">
<path d="M10.5,13c0.6,0,1,0.2,1.4,0.5H3.1C3.5,13.2,4,13,4.5,13H10.5z M10.5,11.5h-6C2.5,11.5,1,13,1,15h13
	C14,13,12.5,11.5,10.5,11.5L10.5,11.5z M2.2,16h5.9l1.8,1.5l1.8-1.5h1.2c0.7,0,1.2,0.4,1.2,1s-0.5,1-1.2,1H2.2C1.5,18,1,17.6,1,17
	S1.5,16,2.2,16z M18,7V6.2l3.5-3.9L20,1l-3.8,4.2C16.1,5.3,16,5.6,16,5.8V7h-5v2h1.2l0.2,1.9c1.5,0.7,2.6,2.2,2.6,4.1v1h-0.3
	c0.2,0.3,0.3,0.6,0.3,1s-0.1,0.7-0.3,1H15v1c0,1.2-0.6,2.2-1.5,3l0,0h7l1.3-13H23V7H18z M16.5,15c0-2.1-1-3.9-2.7-5l-0.1-1.5h6.7
	l-1.2,12h-2.9c0.1-0.5,0.2-1,0.2-1.5V15z M1,19c0,1.7,1.5,3,3.5,3h5.9c2,0,3.5-1.3,3.5-3H1z M10.5,20.8h-6c-0.6,0-1-0.2-1.4-0.5h8.7
	C11.5,20.6,11,20.8,10.5,20.8z"/>
</svg>
