<?xml version="1.0" encoding="utf-8"?>
<!-- Generator: Adobe Illustrator 23.0.4, SVG Export Plug-In . SVG Version: 6.00 Build 0)  -->
<svg version="1.1" id="Layer_1" xmlns="http://www.w3.org/2000/svg" xmlns:xlink="http://www.w3.org/1999/xlink" x="0px" y="0px"
	 viewBox="0 0 24 24" style="enable-background:new 0 0 24 24;" xml:space="preserve">
<path d="M16.5,4.5h-9l0,0H16.5L16.5,4.5z M3.5,9.5L3.5,9.5H5h12l0,0l0,0H6.5l0,0H3.5z M17.5,13L17.5,13H19h1.5l0,0H17.5z M6,3v4h12
	V3H6z M5,8c-1.7,0-3,1.3-3,3v6h4v4h12v-4h4v-6c0-1.7-1.3-3-3-3H5z M19,12c-0.5,0-1-0.4-1-1s0.5-1,1-1s1,0.4,1,1S19.5,12,19,12z
	 M8,14h8v5H8V14z"/>
</svg>
