<?xml version="1.0" encoding="utf-8"?>
<!-- Generator: Adobe Illustrator 23.0.4, SVG Export Plug-In . SVG Version: 6.00 Build 0)  -->
<svg version="1.1" id="Layer_1" xmlns="http://www.w3.org/2000/svg" xmlns:xlink="http://www.w3.org/1999/xlink" x="0px" y="0px"
	 viewBox="0 0 24 24" style="enable-background:new 0 0 24 24;" xml:space="preserve">
<path d="M12,3.5c0.8,0,1.5,0.7,1.5,1.5S12.8,6.5,12,6.5S10.5,5.8,10.5,5S11.2,3.5,12,3.5z M12,13.6c1.5-1.8,5.1-3.7,7.5-4v7.9
	c-2.7,0.3-5.3,1.3-7.5,3c-2.2-1.7-4.7-2.7-7.5-3V9.6C6.9,9.9,10.5,11.8,12,13.6z M12,2c-1.7,0-3,1.3-3,3s1.3,3,3,3s3-1.3,3-3
	S13.7,2,12,2z M21,8c-3.5,0-6.6,1.3-9,3.5C9.6,9.3,6.5,8,3,8v11c3.5,0,6.6,1.3,9,3.5c2.4-2.2,5.5-3.5,9-3.5V8z"/>
</svg>
