<?xml version="1.0" encoding="utf-8"?>
<!-- Generator: Adobe Illustrator 23.0.4, SVG Export Plug-In . SVG Version: 6.00 Build 0)  -->
<svg version="1.1" id="Layer_1" xmlns="http://www.w3.org/2000/svg" xmlns:xlink="http://www.w3.org/1999/xlink" x="0px" y="0px"
	 viewBox="0 0 24 24" style="enable-background:new 0 0 24 24;" xml:space="preserve">
<path d="M8.6,5.5H6H3.4H2.5l0,0H3h12.5v8h6l0,0l0,0h-6v-8H8.6z M3,4C1.9,4,1,4.9,1,6v11h2c0,1.7,1.3,3,3,3s3-1.3,3-3h6
	c0,1.7,1.3,3,3,3s3-1.3,3-3h2v-5l-3-4h-3V4H3z M17,9.5h2.5l2,2.5H17V9.5z M18,18.5c-0.8,0-1.5-0.7-1.5-1.5s0.7-1.5,1.5-1.5
	s1.5,0.7,1.5,1.5S18.8,18.5,18,18.5L18,18.5z M6,18.5c-0.8,0-1.5-0.7-1.5-1.5s0.7-1.5,1.5-1.5s1.5,0.7,1.5,1.5S6.8,18.5,6,18.5
	L6,18.5z"/>
</svg>
