<?xml version="1.0" encoding="utf-8"?>
<!-- Generator: Adobe Illustrator 20.1.0, SVG Export Plug-In . SVG Version: 6.00 Build 0)  -->
<svg version="1.1" id="Layer_1" xmlns="http://www.w3.org/2000/svg" xmlns:xlink="http://www.w3.org/1999/xlink" x="0px" y="0px"
	 viewBox="0 0 24 24" style="enable-background:new 0 0 24 24;" xml:space="preserve">
<path d="M4.1,3.8c0,0,1.3,4.3,6.9,1.2C6.8,0.2,4.1,3.8,4.1,3.8z M7.4,4.6c-0.6,0-1-0.2-1.3-0.5C6.3,4.1,6.5,4,6.7,4
	c0.5,0,1,0.2,1.5,0.5C7.9,4.6,7.7,4.6,7.4,4.6z M11,8c-2-1-5-1-7,2s3,12,5,12s2-1,3-1s1,1,3,1s7-9,5-12s-5-3-7-2V3h-2V8z M18.6,14
	c-0.9,3.1-2.8,6.2-3.7,6.5c-0.6,0.1-0.8-0.1-1-0.4c-0.4-0.3-0.9-0.6-1.8-0.6s-1.4,0.4-1.8,0.6c-0.3,0.2-0.5,0.4-1,0.3
	c-0.9-0.2-2.8-3.3-3.8-6.4c-0.5-1.8-0.4-2.8-0.2-3.2c0.9-1.3,1.9-1.9,3.3-1.9c0.6,0,1.3,0.2,1.8,0.4c0,0,0.9,0.5,1.2,0.6
	c0.2,0.1,0.8,0.1,1,0c0.3-0.1,1.2-0.6,1.2-0.6C14.4,9,15,8.9,15.6,8.9c1.3,0,2.4,0.6,3.3,1.9C19,11.2,19.1,12.3,18.6,14z"/>
</svg>
