<?xml version="1.0" encoding="utf-8"?>
<!-- Generator: Adobe Illustrator 23.0.4, SVG Export Plug-In . SVG Version: 6.00 Build 0)  -->
<svg version="1.1" id="Layer_1" xmlns="http://www.w3.org/2000/svg" xmlns:xlink="http://www.w3.org/1999/xlink" x="0px" y="0px"
	 viewBox="0 0 24 24" style="enable-background:new 0 0 24 24;" xml:space="preserve">
<path d="M18.5,7.5L18.5,7.5v3l-6.5,4l0,0l-6.5-4v-3l0,0l0,0v3l6.5,4l6.5-4V7.5L18.5,7.5z M13.5,7.5H12h-1.5l0,0H13.5L13.5,7.5z
	 M12,1C9.2,1,7,3.2,7,6H5C3.9,6,3,6.9,3,8v12c0,1.1,0.9,2,2,2h14c1.1,0,2-0.9,2-2V8c0-1.1-0.9-2-2-2h-2C17,3.2,14.8,1,12,1z M9,6
	c0-1.7,1.3-3,3-3s3,1.3,3,3H9z M12,11c1.7,0,3-1.3,3-3l0,0h2l0,0c0,2.8-2.2,5-5,5s-5-2.2-5-5l0,0h2l0,0C9,9.7,10.3,11,12,11z"/>
</svg>
