<?xml version="1.0" encoding="utf-8"?>
<!-- Generator: Adobe Illustrator 20.1.0, SVG Export Plug-In . SVG Version: 6.00 Build 0)  -->
<svg version="1.1" id="Layer_1" xmlns="http://www.w3.org/2000/svg" xmlns:xlink="http://www.w3.org/1999/xlink" x="0px" y="0px"
	 viewBox="0 0 24 24" style="enable-background:new 0 0 24 24;" xml:space="preserve">
<path d="M5.4,5.5L5.4,5.5h13.8l0,0l0,0H5.4z M1,2v1.5h1.8l3.8,7.9c0,0-1.3,2.4-1.4,2.5c-0.1,0.3-0.2,0.7-0.2,1c0,1.1,0.9,2,2,2h12
	v-1.5H7.4c-0.5,0-0.7-0.4-0.7-0.8c0-0.2,0.9-1.6,0.9-1.6h8c0.7,0,1.4-0.4,1.7-1l3.6-6.5C21,5.3,21,5.2,21,5c0-0.6-0.4-1-1-1H4.7
	L3.8,2H1z M17,18c-1.1,0-2,0.9-2,2s0.9,2,2,2s2-0.9,2-2S18.1,18,17,18z M17,19.5L17,19.5L17,19.5L17,19.5L17,19.5z M7,18
	c-1.1,0-2,0.9-2,2s0.9,2,2,2s2-0.9,2-2S8.1,18,7,18z M7,19.5L7,19.5L7,19.5L7,19.5L7,19.5z"/>
</svg>
