<?xml version="1.0" encoding="utf-8"?>
<!-- Generator: Adobe Illustrator 23.0.4, SVG Export Plug-In . SVG Version: 6.00 Build 0)  -->
<svg version="1.1" id="Layer_1" xmlns="http://www.w3.org/2000/svg" xmlns:xlink="http://www.w3.org/1999/xlink" x="0px" y="0px"
	 viewBox="0 0 24 24" style="enable-background:new 0 0 24 24;" xml:space="preserve">
<path d="M11.1,4.1L12,4l0.9,0.1l0,0L12,4L11.1,4.1L11.1,4.1z M14.9,5.2l0.9,1.7l0,0l0,0L14.9,5.2L14.9,5.2L14.9,5.2z M9.1,5.2
	L9.1,5.2L9.1,5.2L8.2,6.9l0,0l0,0L9.1,5.2z M15.8,9.1L15.8,9.1L15.8,9.1l-0.9,1.7l0,0l0,0L15.8,9.1z M8.2,9.1l0.9,1.7l0,0l0,0
	L8.2,9.1L8.2,9.1L8.2,9.1z M11.1,11.9L12,12l0.9-0.1l0,0l0,0L12,12L11.1,11.9L11.1,11.9L11.1,11.9z M19.3,14.7l-5.6,5.6L19.3,14.7z
	 M4.7,14.7l5.6,5.6L4.7,14.7z M12,1c-1.4,0-2.5,1.1-2.5,2.5v0.2C9.1,3.4,8.6,3.2,8.1,3.2c-1.4,0-2.5,1.1-2.5,2.5
	c0,1,0.6,1.9,1.4,2.2c-0.8,0.4-1.4,1.2-1.4,2.2c0,1.4,1.1,2.5,2.5,2.5c0.5,0,1-0.2,1.4-0.4v0.2c0,1.4,1.1,2.5,2.5,2.5
	s2.5-1.1,2.5-2.5v-0.2c0.4,0.3,0.9,0.4,1.4,0.4c1.4,0,2.5-1.1,2.5-2.5c0-1-0.6-1.9-1.4-2.2c0.8-0.4,1.4-1.2,1.4-2.2
	c0-1.4-1.1-2.5-2.5-2.5c-0.5,0-1,0.2-1.4,0.5V3.5C14.5,2.1,13.4,1,12,1z M12,10.5c-1.4,0-2.5-1.1-2.5-2.5s1.1-2.5,2.5-2.5
	s2.5,1.1,2.5,2.5S13.4,10.5,12,10.5z M21,13c-5,0-9,4-9,9C17,22,21,18,21,13z M3,13c0,5,4,9,9,9C12,17,8,13,3,13z"/>
</svg>
