<?xml version="1.0" encoding="utf-8"?>
<!-- Generator: Adobe Illustrator 23.0.4, SVG Export Plug-In . SVG Version: 6.00 Build 0)  -->
<svg version="1.1" id="Layer_1" xmlns="http://www.w3.org/2000/svg" xmlns:xlink="http://www.w3.org/1999/xlink" x="0px" y="0px"
	 viewBox="0 0 24 24" style="enable-background:new 0 0 24 24;" xml:space="preserve">
<path d="M14.6,8.3l-1.1-2.8H20c0.3,0,0.5,0.2,0.5,0.5v2.7L14.6,8.3z M9.5,8.3l-6,0.4V6c0-0.3,0.2-0.5,0.5-0.5h6.5L9.5,8.3z
	 M16.2,13.2l2.4-2c-0.1,0.2-0.1,0.5-0.1,0.8c0,1.4,0.8,2.6,2,3.2V18c0,0.3-0.2,0.5-0.5,0.5h-2.5L16.2,13.2z M7.8,13.2l-1.3,5.2H4
	c-0.3,0-0.5-0.2-0.5-0.5v-2.8c1.2-0.6,2-1.8,2-3.2c0-0.2-0.1-0.5-0.1-0.8L7.8,13.2z M12,16l3.5,2.5H12H8.5L12,16z M4,4
	C2.9,4,2,4.9,2,6v4c1.1,0,2,0.9,2,2s-0.9,2-2,2v4c0,1.1,0.9,2,2,2h16c1.1,0,2-0.9,2-2v-4c-1.1,0-2-0.9-2-2s0.9-2,2-2V6
	c0-1.1-0.9-2-2-2H4z M8.4,16.8l1.1-4L6.2,10l4.3-0.2l1.5-4l1.5,4l4.2,0.2l-3.2,2.7l1.1,4.1L12,14.5L8.4,16.8L8.4,16.8z"/>
</svg>
