<?xml version="1.0" encoding="utf-8"?>
<!-- Generator: Adobe Illustrator 23.0.4, SVG Export Plug-In . SVG Version: 6.00 Build 0)  -->
<svg version="1.1" id="Layer_1" xmlns="http://www.w3.org/2000/svg" xmlns:xlink="http://www.w3.org/1999/xlink" x="0px" y="0px"
	 viewBox="0 0 24 24" style="enable-background:new 0 0 24 24;" xml:space="preserve">
<path d="M16,13c0,1.1-0.9,2-2,2H8c-1.1,0-2-0.9-2-2V5h10V13z M4,3v10c0,2.2,1.8,4,4,4h6c2.2,0,4-1.8,4-4v-3h2c1.1,0,2-0.9,2-2V5
	c0-1.1-0.9-2-2-2H4z M18,5h2v3h-2V5z M2,21h18v-2H2V21z"/>
</svg>
