<?xml version="1.0" encoding="utf-8"?>
<!-- Generator: Adobe Illustrator 19.2.1, SVG Export Plug-In . SVG Version: 6.00 Build 0)  -->
<svg version="1.1" id="Layer_1" xmlns="http://www.w3.org/2000/svg" xmlns:xlink="http://www.w3.org/1999/xlink" x="0px" y="0px"
	 viewBox="0 0 24 24" style="enable-background:new 0 0 24 24;" xml:space="preserve">
<path d="M12.1,6L12.1,6l2.5-2.5l2.5,1.8l0,0l0,0l-2.5-1.8l0,0L12.1,6L12.1,6z M3.7,7.6l1.8,1.1l0,0l0,0L3.7,7.6L3.7,7.6L3.4,10l0,0
	L3.7,7.6z M6,13.3c2,0.1,3.3-1.4,3.3-3.1c0-1.7-1.3-3-3-3H6.2C5.7,6.4,4.9,6,4.1,6C2.7,6,1.6,7.2,1.6,8.6c0,0.3,0.1,0.7,0.2,1
	C1.3,10,1,10.7,1,11.4C1,12.8,2.1,14,4,14v2.2c-2.7,1.8-2.9,4.1-2.9,4.1s2.4-1.8,5.9-1.8c1.8,0,3.8,0.4,6,1.8
	c1.2,0.7,2.5,1.7,4.9,1.7c0.6,0,1.2-0.1,1.9-0.2c3.3-0.7,3.2-3.3,3.2-3.3c-0.8,0.6-1.7,0.8-2.6,0.8c-1,0-2-0.3-2.9-0.6v-5.1
	c0.2,0,0.4,0.1,0.6,0.1c2.7,0,4.9-2.2,4.9-4.9s-2.2-4.9-4.9-4.9c-0.1,0-0.2,0-0.2,0c-0.7-1.1-2-1.8-3.3-1.8l0,0c-2.2,0-4,1.8-4,4
	c0,0.6,0.1,1.1,0.3,1.6c-0.7,0.7-1.2,1.7-1.2,2.9c0,2.2,1.8,4,4,4c0.3,0,0.6,0,0.8-0.1v2.7c-1.3-0.7-4-1.8-6.7-1.8
	c-0.8,0-1.3,0.1-1.8,0.2V13.3z M20.9,20.4L8,16.4L3.6,18L8,16.4L20.9,20.4L20.9,20.4z"/>
</svg>
