<?xml version="1.0" encoding="utf-8"?>
<!-- Generator: Adobe Illustrator 23.0.4, SVG Export Plug-In . SVG Version: 6.00 Build 0)  -->
<svg version="1.1" id="Layer_1" xmlns="http://www.w3.org/2000/svg" xmlns:xlink="http://www.w3.org/1999/xlink" x="0px" y="0px"
	 viewBox="0 0 24 24" style="enable-background:new 0 0 24 24;" xml:space="preserve">
<path d="M16,4l2,2l2,2h-4V4z M4,8l2-2l2-2v4H4z M16,16h4l-2,2l-2,2V16z M8,16v4l-2-2l-2-2H8z M8,4L4,8v8l4,4h8l4-4V8l-4-4H8z M6,10
	h4V6h4v4h4v4h-4v4h-4v-4H6V10z"/>
</svg>
