<?xml version="1.0" encoding="utf-8"?>
<!-- Generator: Adobe Illustrator 23.0.4, SVG Export Plug-In . SVG Version: 6.00 Build 0)  -->
<svg version="1.1" id="Layer_1" xmlns="http://www.w3.org/2000/svg" xmlns:xlink="http://www.w3.org/1999/xlink" x="0px" y="0px"
	 viewBox="0 0 24 24" style="enable-background:new 0 0 24 24;" xml:space="preserve">
<path d="M18.6,4.6l1.3,0.5l0,0L18.6,4.6l-2.8,1.3l0,0l0,0L18.6,4.6z M4.2,5.9l4.6,4.6L4.2,5.9L4.2,5.9L4.2,5.9z M18.6,3.1
	c-1.3,0-2.7,0.6-3.8,1.7c-1.6,1.6-2,3.8-1.3,5.3l-9.8,9.8l1.4,1.3l6.9-6.8l6.9,6.9l1.4-1.4L13.4,13l1.5-1.5c0.5,0.2,1,0.3,1.6,0.3
	c1.2,0,2.6-0.5,3.7-1.6C22.1,8.3,22.5,5.5,21,4C20.4,3.4,19.6,3.1,18.6,3.1z M3.9,3.5c-1.6,1.6-1.6,4.1,0,5.7l4.2,4.1l2.9-2.8
	L3.9,3.5z"/>
</svg>
