<?xml version="1.0" encoding="utf-8"?>
<!-- Generator: Adobe Illustrator 23.0.4, SVG Export Plug-In . SVG Version: 6.00 Build 0)  -->
<svg version="1.1" id="Layer_1" xmlns="http://www.w3.org/2000/svg" xmlns:xlink="http://www.w3.org/1999/xlink" x="0px" y="0px"
	 viewBox="0 0 24 24" style="enable-background:new 0 0 24 24;" xml:space="preserve">
<path d="M12,12H6l0,0H12L12,12z M6,3C4.9,3,4,3.9,4,5v16h10v-7.5h1.5v5c0,1.4,1.1,2.5,2.5,2.5s2.5-1.1,2.5-2.5V9
	c0-0.7-0.3-1.3-0.8-1.8L16,3.5l-1,1l2.1,2.2c-0.9,0.4-1.6,1.2-1.6,2.3c0,1.4,1.1,2.5,2.5,2.5c0.4,0,0.7-0.1,1-0.2v7.2
	c0,0.5-0.5,1-1,1s-1-0.5-1-1V14c0-1.1-0.9-2-2-2h-1V5c0-1.1-0.9-2-2-2H6z M6,5h6v5H6V5z M18,10c-0.5,0-1-0.4-1-1s0.5-1,1-1
	s1,0.4,1,1S18.5,10,18,10z"/>
</svg>
