<?xml version="1.0" encoding="utf-8"?>
<!-- Generator: Adobe Illustrator 19.2.1, SVG Export Plug-In . SVG Version: 6.00 Build 0)  -->
<svg version="1.1" id="Layer_1" xmlns="http://www.w3.org/2000/svg" xmlns:xlink="http://www.w3.org/1999/xlink" x="0px" y="0px"
	 viewBox="0 0 24 24" style="enable-background:new 0 0 24 24;" xml:space="preserve">
<path d="M12.7,7.9C12.1,7,12.1,6.4,12.1,6c0-1.4,1.1-2.5,2.5-2.5c0.8,0,2,0.6,2.5,1.8c2.7-0.2,4.4,1.5,4.4,3.4
	c0,1.9-1.5,3.4-3.4,3.4c-1.1,0-1.4-0.3-2.8,0.4c-0.2,0.1-1.2,0.5-1.6,0.5c-1.4,0-2.5-1.1-2.5-2.5C11.2,9.6,12,8.5,12.7,7.9z
	 M3.7,7.6C4.3,7.2,5.2,8,5.5,8.6c1.7-0.5,2.3,0.7,2.3,1.5c0,0.9-0.7,1.6-1.6,1.6c-0.2,0-0.6,0.1-0.9,0.1c-0.6,0.1-1.1,0.5-1.8,0.5
	c-0.6,0-1-0.4-1-1c0-1,0.9-1.4,0.9-1.4S2.4,8.4,3.7,7.6z M6,13.3c2,0.1,3.3-1.4,3.3-3.1c0-1.7-1.3-3-3-3H6.2C5.7,6.4,4.9,6,4.1,6
	C2.7,6,1.6,7.2,1.6,8.6c0,0.3,0.1,0.7,0.2,1C1.3,10,1,10.7,1,11.4C1,12.8,2.1,14,4,14v2.2c-2.7,1.8-2.9,4.1-2.9,4.1s2.4-1.8,5.9-1.8
	c1.8,0,3.8,0.4,6,1.8c1.2,0.7,2.5,1.7,4.9,1.7c0.6,0,1.2-0.1,1.9-0.2c3.3-0.7,3.2-3.3,3.2-3.3c-0.8,0.6-1.7,0.8-2.6,0.8
	c-1,0-2-0.3-2.9-0.6v-5.1c0.2,0,0.4,0.1,0.6,0.1c2.7,0,4.9-2.2,4.9-4.9s-2.2-4.9-4.9-4.9c-0.1,0-0.2,0-0.2,0c-0.7-1.1-2-1.8-3.3-1.8
	l0,0c-2.2,0-4,1.8-4,4c0,0.6,0.1,1.1,0.3,1.6c-0.7,0.7-1.2,1.7-1.2,2.9c0,2.2,1.8,4,4,4c0.3,0,0.6,0,0.8-0.1v2.7
	c-1.3-0.7-4-1.8-6.7-1.8c-0.8,0-1.3,0.1-1.8,0.2V13.3z M16.5,20.9c-1.5-0.4-2.8-1.2-4.1-2C9.7,17.5,6.5,17,3.6,18
	c1.1-1.1,2.9-1.5,4.4-1.5c4.8,0,8.2,3.9,12.9,3.9C19.7,21.2,17.9,21.2,16.5,20.9z"/>
</svg>
