<?xml version="1.0" encoding="utf-8"?>
<!-- Generator: Adobe Illustrator 23.0.4, SVG Export Plug-In . SVG Version: 6.00 Build 0)  -->
<svg version="1.1" id="Layer_1" xmlns="http://www.w3.org/2000/svg" xmlns:xlink="http://www.w3.org/1999/xlink" x="0px" y="0px"
	 viewBox="0 0 24 24" style="enable-background:new 0 0 24 24;" xml:space="preserve">
<path d="M15.2,4.5c1,0.9,2.1,1.5,3.2,1.8L20,6.5v2l-1.6-0.2c-1.1-0.2-2.2-0.8-3.2-1.5C14.5,7.7,13.3,8,12,8c-1.2,0-2.5-0.3-3.2-1.2
	c-1,0.7-2.2,1.3-3.2,1.5L4,8.5v-2l1.6-0.2C6.7,6,7.8,5.4,8.8,4.5c0.8,1,2,1.5,3.2,1.5C13.2,6,14.4,5.5,15.2,4.5z M15.2,10
	c1,0.9,2.1,1.5,3.2,1.8L20,12v2l-1.6-0.2c-1.1-0.2-2.2-0.8-3.2-1.5c-0.7,0.9-1.9,1.3-3.2,1.3c-1.2,0-2.5-0.4-3.2-1.3
	c-1,0.7-2.2,1.3-3.2,1.5L4,14v-2l1.6-0.2c1.1-0.3,2.2-0.9,3.2-1.8c0.8,1,2,1.5,3.2,1.5C13.2,11.5,14.4,11,15.2,10z M15.2,15.5
	c1,0.9,2.1,1.5,3.2,1.8l1.6,0.2v2l-1.6-0.2c-1.1-0.2-2.2-0.8-3.2-1.5C14.5,18.7,13.3,19,12,19c-1.2,0-2.5-0.3-3.2-1.2
	c-1,0.7-2.2,1.3-3.2,1.5L4,19.5v-2l1.6-0.2c1.1-0.3,2.2-0.9,3.2-1.8c0.8,1,2,1.5,3.2,1.5C13.2,17,14.4,16.5,15.2,15.5z M6,21.3
	c0.8-0.2,1.6-0.5,2.6-1C9.6,20.8,10.7,21,12,21c1.3,0,2.4-0.2,3.4-0.8c1,0.5,1.8,0.8,2.6,1l4,0.5V4.7l-3-0.4
	c-0.7-0.2-1.8-0.7-2.5-1.3L15,1.6l-1.3,1.6C13.3,3.7,12.7,4,12,4c-0.7,0-1.3-0.3-1.7-0.8L9,1.6L7.5,3C6.8,3.6,5.7,4.1,5,4.3L2,4.7
	v17.1L6,21.3z"/>
</svg>
