<?xml version="1.0" encoding="utf-8"?>
<!-- Generator: Adobe Illustrator 23.0.4, SVG Export Plug-In . SVG Version: 6.00 Build 0)  -->
<svg version="1.1" id="Layer_1" xmlns="http://www.w3.org/2000/svg" xmlns:xlink="http://www.w3.org/1999/xlink" x="0px" y="0px"
	 viewBox="0 0 24 24" style="enable-background:new 0 0 24 24;" xml:space="preserve">
<path d="M12,8.6L7.8,6h8.5L12,8.6z M12,15.4l8-5V18h-8H4v-7.6L12,15.4z M4,4C2.9,4,2,4.9,2,6v12c0,1.1,0.9,2,2,2h16c1.1,0,2-0.9,2-2
	V6c0-1.1-0.9-2-2-2H4z M20,6v2l-8,5L4,8V6l8,5L20,6z"/>
</svg>
