<?xml version="1.0" encoding="utf-8"?>
<!-- Generator: Adobe Illustrator 23.0.4, SVG Export Plug-In . SVG Version: 6.00 Build 0)  -->
<svg version="1.1" id="Layer_1" xmlns="http://www.w3.org/2000/svg" xmlns:xlink="http://www.w3.org/1999/xlink" x="0px" y="0px"
	 viewBox="0 0 24 24" style="enable-background:new 0 0 24 24;" xml:space="preserve">
<path d="M11.5,4.5L11.5,4.5H12h0.5l0,0H11.5z M5.5,4.5L5.5,4.5H6h3.1l0,0H5.5z M12.5,13.1L12.5,13.1l-3.6,6.4L12.5,13.1z M6.5,15
	L6.5,15h-1l0,0H6.5z M6,3C4.9,3,4,3.9,4,5v16h10v-7.5h1.5v5c0,1.4,1.1,2.5,2.5,2.5s2.5-1.1,2.5-2.5V9c0-0.7-0.3-1.3-0.8-1.8L16,3.5
	l-1,1l2.1,2.2c-0.9,0.4-1.6,1.2-1.6,2.3c0,1.4,1.1,2.5,2.5,2.5c0.4,0,0.7-0.1,1-0.2v7.2c0,0.5-0.5,1-1,1s-1-0.5-1-1V14
	c0-1.1-0.9-2-2-2h-1V5c0-1.1-0.9-2-2-2H6z M6,13.5L10,6v5h2l-4,7v-4.5H6L6,13.5z M18,10c-0.5,0-1-0.4-1-1s0.5-1,1-1s1,0.4,1,1
	S18.5,10,18,10z"/>
</svg>
