<?xml version="1.0" encoding="utf-8"?>
<!-- Generator: Adobe Illustrator 20.1.0, SVG Export Plug-In . SVG Version: 6.00 Build 0)  -->
<svg version="1.1" id="Layer_1" xmlns="http://www.w3.org/2000/svg" xmlns:xlink="http://www.w3.org/1999/xlink" x="0px" y="0px"
	 viewBox="0 0 24 24" style="enable-background:new 0 0 24 24;" xml:space="preserve">
<path d="M14.1,20c-1.5,2.2-3.5,2.5-4.6,2.5C6.5,22.5,4,20,4,17c0-1.1,0.3-2.1,0.9-3l2.9,2.9l-1.5,1.5c0.3,0.5,0.8,1.2,1.5,1.6
	l1.6-1.6l1.7,1.7c0.7-0.5,1.2-1,1.5-1.6L14.1,20z M19.3,11.6c-0.3-0.3-0.6-0.4-0.9-0.4l-4.1,0.2l2.3-2.6c0.2-0.3,0.3-0.8,0.2-1.3
	c-0.1-0.3-0.2-0.6-0.5-0.8l-5.4-3.2c-0.4-0.3-1-0.2-1.4,0.1L6.8,6.1C6.3,6.6,6.2,7.3,6.7,7.8c0.4,0.5,1.2,0.5,1.7,0.1l2-1.8l1.9,1.1
	l-4.2,4.3C8,11.6,8,11.7,7.9,11.7c-0.5,0.2-1.9,0.7-3,2.3l1.5,1.5c0.3-0.6,1-1.3,1.6-1.6l1.5,1.5l1.5-1.5c0.6,0.3,1.3,0.9,1.6,1.5
	L11,16.9l3.1,3.1c0.6-0.9,0.9-1.9,0.9-3c0-1.2-0.4-2.4-1.1-3.3l3.3-0.3L17,18.2c-0.1,0.7,0.4,1.2,1.1,1.3h0.1c0.6,0,1.1-0.5,1.2-1.1
	l0.2-5.9C19.6,12.2,19.5,11.8,19.3,11.6z M15.4,7.9L15.4,7.9l-1.1-0.6l0,0L15.4,7.9z M18,1.5c-1.1,0-2,0.9-2,2s0.9,2,2,2s2-0.9,2-2
	S19.1,1.5,18,1.5z M18,3l-0.2,0.2L18,3l0.2,0.2L18,3z"/>
</svg>
