<?xml version="1.0" encoding="utf-8"?>
<!-- Generator: Adobe Illustrator 20.1.0, SVG Export Plug-In . SVG Version: 6.00 Build 0)  -->
<svg version="1.1" id="Layer_1" xmlns="http://www.w3.org/2000/svg" xmlns:xlink="http://www.w3.org/1999/xlink" x="0px" y="0px"
	 viewBox="0 0 24 24" style="enable-background:new 0 0 24 24;" xml:space="preserve">
<path d="M13.1,8.1L13.1,8.1L18,4.8l-1.7-2.3l-6.1,4.2C9.5,7.2,9.4,8.3,9.9,8.9l0.7,0.8l-9.1,6.4v0.3c2.4-1,4.9-1.9,7.2-1.9
	c1.4,0,2.7,0.5,3.9,1.1c0.9,0.4,2,0.9,2.7,0.9s1.8-0.5,2.7-0.9c0.3-0.2,0.7-0.3,1.1-0.5L13.1,8.1z M12.4,10.3l-1.7-2
	c-0.2-0.3-0.2-0.6,0.1-0.8l5.3-3.6l0.5,0.7l-5.4,3.6l5.5,6.4c-0.5,0.2-1.1,0.5-1.3,0.5c-0.4,0-1.5-0.5-2.1-0.8
	c-1.3-0.6-2.8-1.3-4.7-1.2L12.4,10.3z M18,6.4c-1.4,0-2.5,1.1-2.5,2.5s1.1,2.5,2.5,2.5s2.5-1.1,2.5-2.5S19.4,6.4,18,6.4z M18,9.9
	c-0.6,0-1-0.4-1-1s0.4-1,1-1s1,0.4,1,1S18.6,9.9,18,9.9z M18.4,16.5c-1.1,0.5-2.1,1-3.1,1s-2-0.5-3.1-1s-2.3-1-3.5-1
	c-2.3,0-4.9,1-7.2,2v4c2.1-1,5.1-2.1,7.2-2.1c1,0,2,0.5,3.1,1s2.3,1,3.5,1s2.4-0.5,3.5-1s2.6-0.9,3.6-0.9v-4
	C21.2,15.5,19.5,15.9,18.4,16.5z M20.9,18.2c-1,0.2-2,0.5-2.7,0.9c-1,0.5-2,0.9-2.9,0.9s-1.9-0.4-2.9-0.9C11.5,18.7,9.9,18,8.7,18
	c-1.8,0-4,0.7-5.7,1.3v-0.8C4.9,17.6,7,17,8.7,17c0.9,0,2.2,0.5,3.2,1c1.1,0.5,2.2,1,3.4,1s2.8-0.7,3.8-1.2c0.5-0.2,1.1-0.5,1.8-0.6
	C20.9,17.2,20.9,18.2,20.9,18.2z"/>
</svg>
