<?xml version="1.0" encoding="utf-8"?>
<!-- Generator: Adobe Illustrator 20.1.0, SVG Export Plug-In . SVG Version: 6.00 Build 0)  -->
<svg version="1.1" id="Layer_1" xmlns="http://www.w3.org/2000/svg" xmlns:xlink="http://www.w3.org/1999/xlink" x="0px" y="0px"
	 viewBox="0 0 24 24" style="enable-background:new 0 0 24 24;" xml:space="preserve">
<path d="M13.1,8.1L13.1,8.1L18,4.8l-1.7-2.3l-6.1,4.2C9.5,7.2,9.4,8.3,9.9,8.9l0.7,0.8l-9.1,6.4v0.3c2.4-1,4.9-1.9,7.2-1.9
	c1.4,0,2.7,0.5,3.9,1.1c0.9,0.4,2,0.9,2.7,0.9s1.8-0.5,2.7-0.9c0.3-0.2,0.7-0.3,1.1-0.5L13.1,8.1z M12.9,10l-2.1-2.5l0,0l5.3-3.6
	l0,0l-5.3,3.6L12.9,10L12.9,10L12.9,10l-4.3,3.1L12.9,10z M18,6.4c-1.4,0-2.5,1.1-2.5,2.5s1.1,2.5,2.5,2.5s2.5-1.1,2.5-2.5
	S19.4,6.4,18,6.4z M18,7.9L18,7.9L18,7.9L18,7.9L18,7.9z M18.4,16.5c-1.1,0.5-2.1,1-3.1,1s-2-0.5-3.1-1s-2.3-1-3.5-1
	c-2.3,0-4.9,1-7.2,2v4c2.1-1,5.1-2.1,7.2-2.1c1,0,2,0.5,3.1,1s2.3,1,3.5,1s2.4-0.5,3.5-1s2.6-0.9,3.6-0.9v-4
	C21.2,15.5,19.5,15.9,18.4,16.5z M20.9,17.2l-1.8,0.6L15.3,19l-3.4-1l-3.2-1L3,18.5l0,0L8.7,17l3.2,1l3.4,1l3.8-1.2L20.9,17.2
	L20.9,17.2z"/>
</svg>
