<?xml version="1.0" encoding="utf-8"?>
<!-- Generator: Adobe Illustrator 20.1.0, SVG Export Plug-In . SVG Version: 6.00 Build 0)  -->
<svg version="1.1" id="Layer_1" xmlns="http://www.w3.org/2000/svg" xmlns:xlink="http://www.w3.org/1999/xlink" x="0px" y="0px"
	 viewBox="0 0 24 24" style="enable-background:new 0 0 24 24;" xml:space="preserve">
<path d="M7.2,21.4c-0.4-0.8-1.1-1.5-1.6-2.1c-0.9-0.8-2.2-2-2.8-2.9c-0.4-0.7-0.8-1.5-1-2.3c0.4,0.5,0.9,1,1.6,1.4
	c0.8,0.4,1.7,0.7,2.6,0.9c1.9,0.5,3.2,1,3.4,1.9c0.3,1.3,0.2,2.5,0,2.8c0,0-0.1,0.1-1.1,0.2C7.6,21.5,7.2,21.4,7.2,21.4z M1.3,8
	C0,8,0.1,11.4,0.1,12.1c0,1.8,0.5,3.7,1.5,5.2c0.8,1.2,2,2.2,3,3.1c0.5,0.5,1,1,1.3,1.6C6,22.2,6,22.8,6.1,22.9
	C6.1,23,6.2,23,6.4,23c0.3,0,0.9-0.1,1-0.1c0.3,0,0.6,0,0.9,0c1,0,2-0.1,2.5-1c0.5-1,0.3-2.8,0.1-3.8c-0.6-2.8-4.7-2.8-6.7-3.9
	c-1.4-0.7-1.8-2-1.9-3.4C2.3,10.2,2.2,8,1.3,8L1.3,8z M15.7,21.4c-1,0-1.1-0.2-1.1-0.2c-0.2-0.4-0.2-1.5,0-2.8
	c0.2-1,1.5-1.4,3.4-1.9c0.9-0.3,1.8-0.5,2.6-0.9c0.7-0.4,1.3-0.9,1.6-1.4c-0.2,0.9-0.5,1.6-1,2.3c-0.6,0.9-1.9,2.1-2.8,2.9
	c-0.5,0.5-1.2,1.3-1.6,2.1C16.8,21.4,16.4,21.5,15.7,21.4z M22.7,8c-0.9,0-1,2.2-1,2.8c-0.1,1.4-0.5,2.7-1.9,3.4
	c-2.1,1.1-6.1,1.1-6.7,3.9c-0.2,1-0.4,2.8,0.1,3.8c0.4,0.9,1.5,1,2.5,1c0.3,0,0.6,0,0.9,0c0.2,0,0.7,0.1,1,0.1c0.2,0,0.3,0,0.3-0.1
	c0.1-0.1,0.1-0.7,0.2-0.9c0.3-0.6,0.8-1.1,1.3-1.6c1-0.9,2.2-1.9,3-3.1c1-1.5,1.5-3.4,1.5-5.2C23.9,11.4,24,8,22.7,8L22.7,8z M12,4
	l3.5,3v5.5h-1v-4H12H9.5v4h-1V7L12,4z M12,2L5,8h2v6h4v-4h2v4h4V8h2L12,2L12,2z"/>
</svg>
