<?xml version="1.0" encoding="utf-8"?>
<!-- Generator: Adobe Illustrator 20.1.0, SVG Export Plug-In . SVG Version: 6.00 Build 0)  -->
<svg version="1.1" id="Layer_1" xmlns="http://www.w3.org/2000/svg" xmlns:xlink="http://www.w3.org/1999/xlink" x="0px" y="0px"
	 viewBox="0 0 24 24" style="enable-background:new 0 0 24 24;" xml:space="preserve">
<path d="M8.5,12.5H10v3H7v-3H8.5l0.6-5.1l-4.5,3.5V18h-3l0,0h3v-7.1l4.5-3.5l4,2.6H19l1.1,1h-0.6v7h3l0,0h-3v-7h0.6L19,10h-4.5v2.5
	H16v3h-3v-3h1.5V10h-1.4l-4-2.6L8.5,12.5z M9,5.5l-8.9,7h3v4h-3v4h23.8v-4h-3v-4h3l-4.4-4h-6L9,5.5L9,5.5z M10,15.5H7v-3h3V15.5z
	 M7,12.5v3h3v-3H7z M16,15.5h-3v-3h3V15.5z M13,12.5v3h3v-3H13z"/>
</svg>
