<?xml version="1.0" encoding="utf-8"?>
<!-- Generator: Adobe Illustrator 20.1.0, SVG Export Plug-In . SVG Version: 6.00 Build 0)  -->
<svg version="1.1" id="Layer_1" xmlns="http://www.w3.org/2000/svg" xmlns:xlink="http://www.w3.org/1999/xlink" x="0px" y="0px"
	 viewBox="0 0 24 24" style="enable-background:new 0 0 24 24;" xml:space="preserve">
<path d="M4.8,17.7c0,1.7,2.5,1.7,2.5,0C7.4,16,4.8,16,4.8,17.7z M7.2,14.2c0-1.6-2.3-1.5-2.2,0.1C5.2,15.8,7.2,15.7,7.2,14.2z
	 M6.1,10c-3.3,0-6,2.7-6,6s2.7,6,6,6s6-2.7,6-6S9.4,10,6.1,10z M8.6,18.5C8.3,19.6,7.2,20,6.1,20c-1,0-2-0.4-2.4-1.4
	c-0.4-1.1,0.1-2.2,1.1-2.7c-1.5-0.8-1.4-2.9,0.1-3.6c1.5-0.7,3.6,0.1,3.6,1.9c0,0.8-0.4,1.4-1.1,1.7C8.4,16.4,8.9,17.4,8.6,18.5z
	 M13.9,3L8.6,7.8L13.9,3l5.5,5l0,0l0,0l0,0L13.9,3z M5,9c0.4-0.1,0.7-0.1,1.1-0.1c2.4,0,4.6,1.2,5.8,3.1h4v6h5v-8h3l-10-9L5,9z"/>
</svg>
