<?xml version="1.0" encoding="utf-8"?>
<!-- Generator: Adobe Illustrator 23.0.4, SVG Export Plug-In . SVG Version: 6.00 Build 0)  -->
<svg version="1.1" id="Layer_1" xmlns="http://www.w3.org/2000/svg" xmlns:xlink="http://www.w3.org/1999/xlink" x="0px" y="0px"
	 viewBox="0 0 24 24" style="enable-background:new 0 0 24 24;" xml:space="preserve">
<path d="M11.5,9.5v-5H12c0.3,0,0.5,0.2,0.5,0.5v4.5H11.5z M5.5,11.3V5c0-0.3,0.2-0.5,0.5-0.5h3.1L5.5,11.3L5.5,11.3z M12.5,13.1v6.4
	H8.9L12.5,13.1z M6.5,15v4.5h-1V15H6.5z M6,3C4.9,3,4,3.9,4,5v16h10v-7.5h1.5v5c0,1.4,1.1,2.5,2.5,2.5s2.5-1.1,2.5-2.5V9
	c0-0.7-0.3-1.3-0.8-1.8L16,3.5l-1,1l2.1,2.2c-0.9,0.4-1.6,1.2-1.6,2.3c0,1.4,1.1,2.5,2.5,2.5c0.4,0,0.7-0.1,1-0.2v7.2
	c0,0.5-0.5,1-1,1s-1-0.5-1-1V14c0-1.1-0.9-2-2-2h-1V5c0-1.1-0.9-2-2-2H6z M6,13.5L10,6v5h2l-4,7v-4.5H6L6,13.5z M18,10
	c-0.5,0-1-0.4-1-1s0.5-1,1-1s1,0.4,1,1S18.5,10,18,10z"/>
</svg>
