<?xml version="1.0" encoding="utf-8"?>
<!-- Generator: Adobe Illustrator 20.1.0, SVG Export Plug-In . SVG Version: 6.00 Build 0)  -->
<svg version="1.1" id="Layer_1" xmlns="http://www.w3.org/2000/svg" xmlns:xlink="http://www.w3.org/1999/xlink" x="0px" y="0px"
	 viewBox="0 0 24 24" style="enable-background:new 0 0 24 24;" xml:space="preserve">
<path d="M6.1,9.9c-3.3,0-6,2.7-6,6s2.7,6,6,6s6-2.7,6-6S9.4,9.9,6.1,9.9z M5.4,14.9c0.2,0.2,1.3,0.7,1.9,0.9c1,0.4,1.3,1.1,1.3,1.8
	c0,1.2-0.8,1.9-1.8,2V21H5.5v-1.4c-1.1-0.2-1.9-0.9-1.8-2.3H5c0,0.9,0.4,1.3,1.3,1.3c0.8,0,1.2-0.5,1.2-1c0-0.8-0.6-1-1.3-1.2
	C5.8,16.3,5,16,4.6,15.6c-0.6-0.4-1-1.2-0.6-2.1c0.1-0.2,0.4-0.9,1.5-1.1v-1.7H7v1.7c0.4,0.1,0.9,0.4,1,0.6c0.3,0.4,0.5,1,0.5,1.6
	H7.2c0-1.1-0.6-1.3-1.1-1.3c-0.6,0-0.9,0.3-1,0.6C5.1,14.4,5.2,14.7,5.4,14.9z M12.7,10.5c-1.1-1.3-2.5-2.2-4.1-2.7L13.9,3l5.5,5
	v8.5h-2v-6H12.7z M5,9c0.4-0.1,0.7-0.1,1.1-0.1c2.4,0,4.6,1.2,5.8,3.1h4v6h5v-8h3l-10-9L5,9z"/>
</svg>
