<?xml version="1.0" encoding="utf-8"?>
<!-- Generator: Adobe Illustrator 23.0.4, SVG Export Plug-In . SVG Version: 6.00 Build 0)  -->
<svg version="1.1" id="Layer_1" xmlns="http://www.w3.org/2000/svg" xmlns:xlink="http://www.w3.org/1999/xlink" x="0px" y="0px"
	 viewBox="0 0 24 24" style="enable-background:new 0 0 24 24;" xml:space="preserve">
<path d="M18,3.5c0.3,0,0.5,0.2,0.5,0.5v6.2C17.2,8,14.8,6.5,12,6.5c0.3-0.4,0.5-0.9,0.5-1.5c0-0.6-0.2-1.1-0.5-1.5H18z M5.5,7
	C5.9,7.3,6.4,7.5,7,7.5S8.1,7.3,8.5,7c0.1,0.1,0.2,0.1,0.3,0.2c-1.4,0.7-2.5,1.7-3.3,3.1V7z M14.5,13.6c0.1,0.8-0.1,1.6-0.7,2.2
	c-0.5,0.5-1.1,0.7-1.8,0.7c-0.1,0-0.3,0-0.4,0L14.5,13.6z M18.5,20c0,0.3-0.2,0.5-0.5,0.5h-2.2c1.1-0.7,2.1-1.6,2.8-2.8V20z
	 M5.5,17.8c0.7,1.1,1.6,2.1,2.8,2.8H6c-0.3,0-0.5-0.2-0.5-0.5V17.8z M6,2C4.9,2,4,2.9,4,4v16c0,1.1,0.9,2,2,2h12c1.1,0,2-0.9,2-2V4
	c0-1.1-0.9-2-2-2H6z M10,6C9.4,6,9,5.5,9,5s0.4-1,1-1s1,0.5,1,1S10.6,6,10,6z M7,6C6.4,6,6,5.5,6,5s0.4-1,1-1s1,0.5,1,1S7.6,6,7,6z
	 M12,20c-3.3,0-6-2.7-6-6s2.7-6,6-6s6,2.7,6,6S15.3,20,12,20z M9.2,16.8C10,17.6,11,18,12,18s2-0.4,2.8-1.2c1.6-1.6,1.6-4,0-5.6
	L9.2,16.8z"/>
</svg>
