<?xml version="1.0" encoding="utf-8"?>
<!-- Generator: Adobe Illustrator 20.1.0, SVG Export Plug-In . SVG Version: 6.00 Build 0)  -->
<svg version="1.1" id="Layer_1" xmlns="http://www.w3.org/2000/svg" xmlns:xlink="http://www.w3.org/1999/xlink" x="0px" y="0px"
	 viewBox="0 0 24 24" style="enable-background:new 0 0 24 24;" xml:space="preserve">
<path d="M12.5,21.6c-0.9,0.6-1.9,0.9-3,0.9C6.5,22.5,4,20,4,17c0-1.1,0.3-2.1,0.9-3l1.5,1.5C6.2,16,6,16.5,6,17
	c0,1.9,1.6,3.5,3.5,3.5c0.6,0,1.1-0.1,1.5-0.4l0,0L12.5,21.6L12.5,21.6z M19.3,11.6c-0.3-0.3-0.6-0.4-0.9-0.4l-4.1,0.2l2.3-2.6
	c0.2-0.3,0.3-0.8,0.2-1.3c-0.1-0.3-0.2-0.6-0.5-0.8l-5.4-3.2c-0.4-0.3-1-0.2-1.4,0.1L6.8,6.1C6.3,6.6,6.2,7.3,6.7,7.8
	c0.4,0.5,1.2,0.5,1.7,0.1l2-1.8l1.9,1.1l-4.2,4.3C8,11.6,8,11.7,7.9,11.7c-0.5,0.2-1,0.4-1.4,0.7l0,0L8,13.9l0,0
	c0.5-0.2,1-0.4,1.5-0.4c1.9,0,3.5,1.6,3.5,3.5c0,0.6-0.1,1.1-0.4,1.5l1.5,1.5c0.6-0.9,0.9-1.9,0.9-3c0-1.2-0.4-2.4-1.1-3.3l3.3-0.3
	L17,18.2c-0.1,0.7,0.4,1.2,1.1,1.3h0.1c0.6,0,1.1-0.5,1.2-1.1l0.2-5.9C19.6,12.2,19.5,11.8,19.3,11.6z M15.4,7.9l-4,4.5
	c-0.5-0.2-1.1-0.4-1.7-0.4l4.6-4.7L15.4,7.9z M18,1.5c-1.1,0-2,0.9-2,2s0.9,2,2,2s2-0.9,2-2S19.1,1.5,18,1.5z M18,4
	c-0.3,0-0.5-0.2-0.5-0.5S17.7,3,18,3s0.5,0.2,0.5,0.5S18.3,4,18,4z"/>
</svg>
