<?xml version="1.0" encoding="utf-8"?>
<!-- Generator: Adobe Illustrator 20.1.0, SVG Export Plug-In . SVG Version: 6.00 Build 0)  -->
<svg version="1.1" id="Layer_1" xmlns="http://www.w3.org/2000/svg" xmlns:xlink="http://www.w3.org/1999/xlink" x="0px" y="0px"
	 viewBox="0 0 24 24" style="enable-background:new 0 0 24 24;" xml:space="preserve">
<path d="M6,16.4L6,16.4l-2.6-0.9l-1.6-1.4l1.6,1.4L6,16.4l3.4,1.9l0,0l0,0L6,16.4z M1.3,8C0,8,0.1,11.4,0.1,12.1
	c0,1.8,0.5,3.7,1.5,5.2c0.8,1.2,2,2.2,3,3.1c0.5,0.5,1,1,1.3,1.6C6,22.2,6,22.8,6.1,22.9C6.1,23,6.2,23,6.4,23c0.3,0,0.9-0.1,1-0.1
	c0.3,0,0.6,0,0.9,0c1,0,2-0.1,2.5-1c0.5-1,0.3-2.8,0.1-3.8c-0.6-2.8-4.7-2.8-6.7-3.9c-1.4-0.7-1.8-2-1.9-3.4C2.3,10.2,2.2,8,1.3,8
	L1.3,8z M14.6,18.3L14.6,18.3L14.6,18.3l3.4-1.9l2.6-0.9l1.6-1.4l-1.6,1.4L18,16.4l0,0L14.6,18.3z M22.7,8c-0.9,0-1,2.2-1,2.8
	c-0.1,1.4-0.5,2.7-1.9,3.4c-2,1.1-6.1,1.1-6.7,3.9c-0.2,1-0.4,2.8,0.1,3.8c0.5,0.9,1.5,1,2.5,1c0.3,0,0.6,0,0.9,0
	c0.1,0,0.7,0.1,1,0.1c0.2,0,0.3,0,0.3-0.1c0.1-0.1,0.1-0.7,0.2-0.9c0.3-0.6,0.8-1.1,1.3-1.6c1-0.9,2.2-1.9,3-3.1
	c1-1.5,1.5-3.4,1.5-5.2C23.9,11.4,24,8,22.7,8L22.7,8z M12,4l3.5,3l0,0l-1,1.5l1-1.5L12,4L8.5,7l1,1.5L8.5,7l0,0L12,4z M12,2L5,8h2
	v6h4v-4h2v4h4V8h2L12,2L12,2z"/>
</svg>
