<?xml version="1.0" encoding="utf-8"?>
<!-- Generator: Adobe Illustrator 20.1.0, SVG Export Plug-In . SVG Version: 6.00 Build 0)  -->
<svg version="1.1" id="Layer_1" xmlns="http://www.w3.org/2000/svg" xmlns:xlink="http://www.w3.org/1999/xlink" x="0px" y="0px"
	 viewBox="0 0 24 24" style="enable-background:new 0 0 24 24;" xml:space="preserve">
<path d="M21.2,7.1c0.4,0.4,0.4,1,0,1.4s-1,0.4-1.4,0l-4.2-4.2c-0.4-0.4-0.4-1,0-1.4c0.4-0.4,1-0.4,1.4,0L21.2,7.1z M2.8,16.9
	c-0.4-0.4-0.4-1,0-1.4s1-0.4,1.4,0l4.2,4.2c0.4,0.4,0.4,1,0,1.4c-0.4,0.4-1,0.4-1.4,0L2.8,16.9z M18.7,12.4l-7.1-7.1
	c-0.2-0.2-0.2-0.5,0-0.7s0.5-0.2,0.7,0l7.1,7.1c0.2,0.2,0.2,0.5,0,0.7C19.2,12.6,18.8,12.6,18.7,12.4z M12.3,18.8
	c0.2,0.2,0.2,0.5,0,0.7s-0.4,0.2-0.7,0l-7.1-7.1c-0.2-0.2-0.2-0.5,0-0.7s0.5-0.2,0.7,0L12.3,18.8z M3.5,10.6c-0.8,0.8-0.8,2,0,2.8
	l7.1,7.1c1,1,2,0.8,2.8,0s0.8-2,0-2.8l-2.6-2.6l4.2-4.2l2.6,2.6c0.8,0.8,1.9,0.9,2.8,0c0.8-0.8,0.8-2,0-2.8l-7.1-7.1
	c-0.7-0.7-2.1-0.7-2.8,0c-0.8,0.8-0.8,2,0,2.8L13.1,9l-4.2,4.2l-2.6-2.6C5.5,9.8,4.2,9.9,3.5,10.6z"/>
</svg>
