<?xml version="1.0" encoding="utf-8"?>
<!-- Generator: Adobe Illustrator 23.0.4, SVG Export Plug-In . SVG Version: 6.00 Build 0)  -->
<svg version="1.1" id="Layer_1" xmlns="http://www.w3.org/2000/svg" xmlns:xlink="http://www.w3.org/1999/xlink" x="0px" y="0px"
	 viewBox="0 0 24 24" style="enable-background:new 0 0 24 24;" xml:space="preserve">
<path d="M12,2C7.6,2,4,2.5,4,6v10c0,0.9,0.4,1.7,1,2.2V20c0,0.5,0.5,1,1,1h1c0.5,0,1-0.5,1-1v-1h8v1c0,0.5,0.5,1,1,1h1
	c0.5,0,1-0.5,1-1v-1.8c0.6-0.5,1-1.3,1-2.2V6C20,2.5,16.4,2,12,2z M12,3.5c3.4,0,5.1,0.4,5.9,1H12H6.1C6.9,3.9,8.6,3.5,12,3.5z M6,6
	h12v5H6V6z M18.5,12.5V14c-0.5-0.6-1.2-1-2-1c-1.4,0-2.5,1.1-2.5,2.5c0,0.8,0.4,1.5,1,2h-1h-1h-1h-1h-1H9c0.6-0.5,1-1.2,1-2
	c0-1.4-1.1-2.5-2.5-2.5c-0.8,0-1.5,0.4-2,1v-1.5H18.5z M15,15.5c0-0.8,0.7-1.5,1.5-1.5s1.5,0.7,1.5,1.5S17.3,17,16.5,17
	S15,16.3,15,15.5z M6,15.5C6,14.7,6.7,14,7.5,14S9,14.7,9,15.5S8.3,17,7.5,17S6,16.3,6,15.5z"/>
</svg>
