<?xml version="1.0" encoding="utf-8"?>
<!-- Generator: Adobe Illustrator 23.0.4, SVG Export Plug-In . SVG Version: 6.00 Build 0)  -->
<svg version="1.1" id="Layer_1" xmlns="http://www.w3.org/2000/svg" xmlns:xlink="http://www.w3.org/1999/xlink" x="0px" y="0px"
	 viewBox="0 0 24 24" style="enable-background:new 0 0 24 24;" xml:space="preserve">
<path d="M12,2C7.6,2,4,2.5,4,6v9.5C4,17.4,5.6,19,7.5,19L6,20.5V21h12v-0.5L16.5,19c1.9,0,3.5-1.6,3.5-3.5V6C20,2.5,16.4,2,12,2z
	 M6,4.5c0.8-0.6,2.6-1,6-1s5.2,0.4,6,1h-6H6z M18,6v5h-5V6H18z M6,6h5v5H6V6z M6.5,15.5c0-0.6,0.4-1,1-1s1,0.4,1,1s-0.4,1-1,1
	S6.5,16.1,6.5,15.5z M16.5,16.5c-0.6,0-1-0.4-1-1s0.4-1,1-1s1,0.4,1,1S17.1,16.5,16.5,16.5z M9,19.5l2-2H9H7.5c1.1,0,2-0.9,2-2
	s-0.9-2-2-2s-2,0.9-2,2v-3h13v3c0-1.1-0.9-2-2-2s-2,0.9-2,2s0.9,2,2,2H15h-2l2,2H9z"/>
</svg>
