<?xml version="1.0" encoding="utf-8"?>
<!-- Generator: Adobe Illustrator 23.0.4, SVG Export Plug-In . SVG Version: 6.00 Build 0)  -->
<svg version="1.1" id="Layer_1" xmlns="http://www.w3.org/2000/svg" xmlns:xlink="http://www.w3.org/1999/xlink" x="0px" y="0px"
	 viewBox="0 0 24 24" style="enable-background:new 0 0 24 24;" xml:space="preserve">
<path d="M18.9,6c-0.2-0.6-0.8-1-1.4-1h-11C5.8,5,5.3,5.4,5.1,6L3,12v8c0,0.5,0.5,1,1,1h1c0.5,0,1-0.5,1-1v-1h12v1c0,0.5,0.5,1,1,1h1
	c0.5,0,1-0.5,1-1v-8L18.9,6z M19,14.5c0,0.8-0.7,1.5-1.5,1.5S16,15.3,16,14.5s0.7-1.5,1.5-1.5S19,13.7,19,14.5z M6.5,6.5h11L19,11H5
	L6.5,6.5z M8,14.5C8,15.3,7.3,16,6.5,16S5,15.3,5,14.5S5.7,13,6.5,13S8,13.7,8,14.5z M17.5,17.5H14h-1h-2h-1H6.5h-2v-0.8
	c0.5,0.5,1.2,0.8,2,0.8c1.7,0,3-1.3,3-3c0-0.8-0.3-1.5-0.8-2h6.6c-0.5,0.5-0.8,1.2-0.8,2C14.5,16.2,15.8,17.5,17.5,17.5
	c0.8,0,1.5-0.3,2-0.8v0.8H17.5z"/>
</svg>
