<?xml version="1.0" encoding="utf-8"?>
<!-- Generator: Adobe Illustrator 23.0.4, SVG Export Plug-In . SVG Version: 6.00 Build 0)  -->
<svg version="1.1" id="Layer_1" xmlns="http://www.w3.org/2000/svg" xmlns:xlink="http://www.w3.org/1999/xlink" x="0px" y="0px"
	 viewBox="0 0 24 24" style="enable-background:new 0 0 24 24;" xml:space="preserve">
<path d="M13,5l0.8-1.5H17V2H7v1.5h4.8L11,5C7.9,5.1,5,5.7,5,8.5V17c0,1.5,1.1,2.7,2.5,3L6,21.5V22h2l2-2h4l2,2h2v-0.5L16.5,20
	c1.7-0.3,2.5-1.3,2.5-3V8.5C19,5.7,16.4,5.1,13,5z M12,6.5L12,6.5L12,6.5l5.1,1L12,6.5l-5.1,1L12,6.5z M12,18c-0.6,0-1-0.4-1-1
	s0.4-1,1-1s1,0.4,1,1S12.6,18,12,18z M17,9v5H7V9H17z M10,17l0.7-1.5H7.8H6.5l0,0h4.2L10,17l0.7,1.5L10,17z M13.3,18.5L14,17
	l-0.7-1.5h4.2l0,0h-1.2h-3L14,17L13.3,18.5z"/>
</svg>
