<?xml version="1.0" encoding="utf-8"?>
<!-- Generator: Adobe Illustrator 23.0.4, SVG Export Plug-In . SVG Version: 6.00 Build 0)  -->
<svg version="1.1" id="Layer_1" xmlns="http://www.w3.org/2000/svg" xmlns:xlink="http://www.w3.org/1999/xlink" x="0px" y="0px"
	 viewBox="0 0 24 24" style="enable-background:new 0 0 24 24;" xml:space="preserve">
<path d="M11.5,6.5L11.5,6.5l1.3,0.1l0,0L11.5,6.5z M12,5c-0.6,0-1.1,0.2-1.4,0.6L7.8,8.4C7.4,8.8,7.2,9.3,7.2,9.8
	c0,0.6,0.2,1.1,0.6,1.4L11,14v5h2v-6.2l-2.2-2.3l2.4-2.4L14,8.9c1.3,1.3,3,2.1,5.1,2.1V9c-1.5,0-2.7-0.6-3.6-1.5l-1.9-1.9
	C13.1,5.2,12.6,5,12,5L12,5z M16.3,3.5l-0.8-0.8l-0.8,0.8l0.8-0.8L16.3,3.5z M15.5,1.5c-1.1,0-2,0.9-2,2s0.9,2,2,2s2-0.9,2-2
	S16.6,1.5,15.5,1.5L15.5,1.5z M5.1,13.5L1.6,17L5.1,13.5L8.6,17L5.1,13.5z M5.1,12c-2.8,0-5,2.2-5,5s2.2,5,5,5s5-2.2,5-5
	S7.9,12,5.1,12z M18.9,12c-2.8,0-5,2.2-5,5s2.2,5,5,5s5-2.2,5-5S21.7,12,18.9,12z M18.9,13.5L15.4,17L18.9,13.5l3.5,3.5L18.9,13.5z"
	/>
</svg>
