<?xml version="1.0" encoding="utf-8"?>
<!-- Generator: Adobe Illustrator 23.0.4, SVG Export Plug-In . SVG Version: 6.00 Build 0)  -->
<svg version="1.1" id="Layer_1" xmlns="http://www.w3.org/2000/svg" xmlns:xlink="http://www.w3.org/1999/xlink" x="0px" y="0px"
	 viewBox="0 0 24 24" style="enable-background:new 0 0 24 24;" xml:space="preserve">
<path d="M12,3.5c3.4,0,5.2,0.4,6,1h-6H6C6.8,4,8.6,3.5,12,3.5z M7.5,17.5c-1.1,0-2-0.9-2-2V13l0,0v-1.5h13V13l0,0v2.5
	c0,1.1-0.9,2-2,2h-2l0,0H13h-1h-1H9.5l0,0H7.5z M12,2C8,2,4,2.5,4,6v9.5C4,17.4,5.6,19,7.5,19L6,20.5V21h2.2l2-2H14l2,2h2v-0.5
	L16.5,19c1.9,0,3.5-1.6,3.5-3.5V6C20,2.5,16.4,2,12,2z M13,6h5v4h-5V6z M6,6h5v4H6V6z M16.5,13.5c-1.1,0-2,0.9-2,2s0.9,2,2,2
	s2-0.9,2-2S17.6,13.5,16.5,13.5z M16.5,16.5c-0.6,0-1-0.4-1-1s0.4-1,1-1s1,0.4,1,1S17.1,16.5,16.5,16.5z M7.5,13.5c-1.1,0-2,0.9-2,2
	s0.9,2,2,2s2-0.9,2-2S8.6,13.5,7.5,13.5z M7.5,16.5c-0.6,0-1-0.4-1-1s0.4-1,1-1s1,0.4,1,1S8.1,16.5,7.5,16.5z"/>
</svg>
