<?xml version="1.0" encoding="utf-8"?>
<!-- Generator: Adobe Illustrator 23.0.4, SVG Export Plug-In . SVG Version: 6.00 Build 0)  -->
<svg version="1.1" id="Layer_1" xmlns="http://www.w3.org/2000/svg" xmlns:xlink="http://www.w3.org/1999/xlink" x="0px" y="0px"
	 viewBox="0 0 24 24" style="enable-background:new 0 0 24 24;" xml:space="preserve">
<path d="M12,3.5l6,1L12,3.5l-6,1L12,3.5z M7.5,17.5l-2-2l2-2v-2h-2h13h-2v2l2,2l-2,2l-2-2l2-2v-2H12H7.5v2l2,2L7.5,17.5z M12,2
	C8,2,4,2.5,4,6v9.5C4,17.4,5.6,19,7.5,19L6,20.5V21h2.2l2-2H14l2,2h2v-0.5L16.5,19c1.9,0,3.5-1.6,3.5-3.5V6C20,2.5,16.4,2,12,2z
	 M13,6h5v4h-5V6z M6,6h5v4H6V6z M16.5,13.5l-2,2l2,2l2-2L16.5,13.5z M16.5,16.5c-0.6,0-1-0.4-1-1s0.4-1,1-1s1,0.4,1,1
	S17.1,16.5,16.5,16.5z M7.5,13.5l-2,2l2,2l2-2L7.5,13.5z M7.5,16.5c-0.6,0-1-0.4-1-1s0.4-1,1-1s1,0.4,1,1S8.1,16.5,7.5,16.5z"/>
</svg>
