<?xml version="1.0" encoding="utf-8"?>
<!-- Generator: Adobe Illustrator 23.0.4, SVG Export Plug-In . SVG Version: 6.00 Build 0)  -->
<svg version="1.1" id="Layer_1" xmlns="http://www.w3.org/2000/svg" xmlns:xlink="http://www.w3.org/1999/xlink" x="0px" y="0px"
	 viewBox="0 0 24 24" style="enable-background:new 0 0 24 24;" xml:space="preserve">
<path d="M12,14l-2,2l2,2l2-2L12,14z M12,17c-0.6,0-1-0.4-1-1s0.4-1,1-1s1,0.4,1,1S12.6,17,12,17z M16,10H8V7h8V10z M17.5,11.5v-8
	h-11v8H17.5z M12,11.5H6.5v-8H12h5.5v8H12V14l2,2l-2,2l0,0l0,0l0,0l-2-2l2-2V11.5z M12,2C7.6,2,4,2.5,4,6v10.5C4,18.4,5.6,20,7.5,20
	L6,21.5V22h12v-0.5L16.5,20c1.9,0,3.5-1.6,3.5-3.5V6C20,2.5,16.4,2,12,2z"/>
</svg>
