<?xml version="1.0" encoding="utf-8"?>
<!-- Generator: Adobe Illustrator 23.0.4, SVG Export Plug-In . SVG Version: 6.00 Build 0)  -->
<svg version="1.1" id="Layer_1" xmlns="http://www.w3.org/2000/svg" xmlns:xlink="http://www.w3.org/1999/xlink" x="0px" y="0px"
	 viewBox="0 0 24 24" style="enable-background:new 0 0 24 24;" xml:space="preserve">
<path d="M20,21c-1.4,0-2.8-0.5-4-1.3c-2.4,1.7-5.6,1.7-8,0C6.8,20.5,5.4,21,4,21H2v2h2c1.4,0,2.7-0.4,4-1c2.5,1.3,5.5,1.3,8,0
	c1.3,0.6,2.6,1,4,1h2v-2H20z M13.5,4h-3V2.5h3V4z M12,9.6 M12,9.6l8.4,2.7l-1.4,5c-0.7-0.2-1.3-0.7-1.9-1.3L16,14.7L14.9,16
	C14,17,13,17.5,12,17.5S10,17,9.1,16L8,14.7L6.9,16c-0.5,0.6-1.2,1.1-1.9,1.3l-1.4-5L12,9.6z M15,1H9v3H6C4.9,4,4,4.9,4,6v4.6
	L2.7,11c-0.3,0.1-0.5,0.3-0.6,0.5C2,11.8,2,12.1,2,12.3L4,19C5.6,19,7,18.1,8,17c1,1.1,2.4,2,4,2s3-0.9,4-2c1,1.1,2.4,2,4,2l1.9-6.7
	c0.1-0.3,0.1-0.5-0.1-0.8c-0.1-0.2-0.3-0.4-0.6-0.5L20,10.6V6c0-1.1-0.9-2-2-2h-3V1z M6,10V6h12v4l-6-2L6,10L6,10z"/>
</svg>
