<?xml version="1.0" encoding="utf-8"?>
<!-- Generator: Adobe Illustrator 23.0.4, SVG Export Plug-In . SVG Version: 6.00 Build 0)  -->
<svg version="1.1" id="Layer_1" xmlns="http://www.w3.org/2000/svg" xmlns:xlink="http://www.w3.org/1999/xlink" x="0px" y="0px"
	 viewBox="0 0 24 24" style="enable-background:new 0 0 24 24;" xml:space="preserve">
<path d="M15.9,12.5h-1.4l0,0H15.9L15.9,12.5z M9.5,12.5H8.1l0,0H9.5L9.5,12.5z M13,2v6h3l-2-6H13z M10,2L8,8h3V2H10z M2,9v1h2v1h2
	v-1h12l0.1,1H20v-1h2V9H2z M13,11v11h8l-4-11H13z M7,11L3,22h8V11H7z"/>
</svg>
