<?xml version="1.0" encoding="utf-8"?>
<!-- Generator: Adobe Illustrator 23.0.4, SVG Export Plug-In . SVG Version: 6.00 Build 0)  -->
<svg version="1.1" id="Layer_1" xmlns="http://www.w3.org/2000/svg" xmlns:xlink="http://www.w3.org/1999/xlink" x="0px" y="0px"
	 viewBox="0 0 24 24" style="enable-background:new 0 0 24 24;" xml:space="preserve">
<path d="M19,6c-0.2-0.6-0.8-1-1.5-1H15V3H9v2H6.5C5.8,5,5.2,5.4,5,6l-2,6v8c0,0.5,0.5,1,1,1h1c0.5,0,1-0.5,1-1v-1h12v1
	c0,0.5,0.5,1,1,1h1c0.5,0,1-0.5,1-1v-8L19,6z M19,14.5c0,0.8-0.7,1.5-1.5,1.5S16,15.3,16,14.5s0.7-1.5,1.5-1.5S19,13.7,19,14.5z
	 M10.5,4.5h3l0,0H10.5L10.5,4.5z M6.5,6.5h11L19,11H5L6.5,6.5z M8,14.5C8,15.3,7.3,16,6.5,16S5,15.3,5,14.5S5.7,13,6.5,13
	S8,13.7,8,14.5z M17.5,17.5l-3-3l0.8-2H12H8.7l0.8,2l-3,3l-2-0.8l0,0l2,0.8l3-3l-0.8-2h6.6l-0.8,2L17.5,17.5l2-0.8l0,0L17.5,17.5z"
	/>
</svg>
