<?xml version="1.0" encoding="utf-8"?>
<!-- Generator: Adobe Illustrator 23.0.4, SVG Export Plug-In . SVG Version: 6.00 Build 0)  -->
<svg version="1.1" id="Layer_1" xmlns="http://www.w3.org/2000/svg" xmlns:xlink="http://www.w3.org/1999/xlink" x="0px" y="0px"
	 viewBox="0 0 24 24" style="enable-background:new 0 0 24 24;" xml:space="preserve">
<path d="M12,2C7.6,2,4,2.5,4,6v9.5C4,17.4,5.6,19,7.5,19L6,20.5V21h12v-0.5L16.5,19c1.9,0,3.5-1.6,3.5-3.5V6C20,2.5,16.4,2,12,2z
	 M6,4.5l6-1l6,1l-6-1L6,4.5z M18,6v5h-5V6H18z M6,6h5v5H6V6z M6.5,15.5c0-0.6,0.4-1,1-1s1,0.4,1,1s-0.4,1-1,1S6.5,16.1,6.5,15.5z
	 M16.5,16.5c-0.6,0-1-0.4-1-1s0.4-1,1-1s1,0.4,1,1S17.1,16.5,16.5,16.5z M9,12.5L9,12.5l0.5,3l-2,2l2-2L9,12.5H5.5l0,0h13l0,0H15
	l-0.5,3l2,2l-2-2l0.5-3l0,0H9z"/>
</svg>
