<?xml version="1.0" encoding="utf-8"?>
<!-- Generator: Adobe Illustrator 23.0.4, SVG Export Plug-In . SVG Version: 6.00 Build 0)  -->
<svg version="1.1" id="Layer_1" xmlns="http://www.w3.org/2000/svg" xmlns:xlink="http://www.w3.org/1999/xlink" x="0px" y="0px"
	 viewBox="0 0 24 24" style="enable-background:new 0 0 24 24;" xml:space="preserve">
<path d="M13,5l0.8-1.5H17V2H7v1.5h4.8L11,5C7.9,5.1,5,5.7,5,8.5V17c0,1.5,1.1,2.7,2.5,3L6,21.5V22h2l2-2h4l2,2h2v-0.5L16.5,20
	c1.7-0.3,2.5-1.3,2.5-3V8.5C19,5.7,16.4,5.1,13,5z M11,6.5l1,0l1,0c2.7,0.1,3.7,0.5,4.1,1H12H6.9C7.4,7,8.4,6.6,11,6.5z M12,18
	c-0.6,0-1-0.4-1-1s0.4-1,1-1s1,0.4,1,1S12.6,18,12,18z M17,9v5H7V9H17z M9.4,18.5l-0.3,0.3l-1.2-0.3c-0.8-0.2-1.3-0.8-1.3-1.5v-1.5
	h4.2C10.3,15.9,10,16.4,10,17s0.3,1.1,0.7,1.5H9.4z M13.3,18.5c0.4-0.4,0.7-0.9,0.7-1.5s-0.3-1.1-0.7-1.5h4.2V17
	c0,1-0.3,1.4-1.2,1.5l-1.4,0.2l-0.3-0.3H13.3z"/>
</svg>
