<?xml version="1.0" encoding="utf-8"?>
<!-- Generator: Adobe Illustrator 23.0.4, SVG Export Plug-In . SVG Version: 6.00 Build 0)  -->
<svg version="1.1" id="Layer_1" xmlns="http://www.w3.org/2000/svg" xmlns:xlink="http://www.w3.org/1999/xlink" x="0px" y="0px"
	 viewBox="0 0 24 24" style="enable-background:new 0 0 24 24;" xml:space="preserve">
<path d="M21,16v-2l-8-5V3.5C13,2.7,12.3,2,11.5,2S10,2.7,10,3.5V9l-8,5v2l8-2.5V19l-2,1.5V22l3.5-1l3.5,1v-1.5L13,19v-5.5L21,16z
	 M11.8,19h-0.5v-7.5L6,13.2l5.2-3.2V3.8c0-0.1,0.1-0.2,0.2-0.2s0.2,0.1,0.2,0.2V10l5.2,3.2l-5.2-1.7V19z"/>
</svg>
