<?xml version="1.0" encoding="utf-8"?>
<!-- Generator: Adobe Illustrator 19.2.1, SVG Export Plug-In . SVG Version: 6.00 Build 0)  -->
<svg version="1.1" id="Layer_1" xmlns="http://www.w3.org/2000/svg" xmlns:xlink="http://www.w3.org/1999/xlink" x="0px" y="0px"
	 viewBox="0 0 24 24" style="enable-background:new 0 0 24 24;" xml:space="preserve">
<path d="M18.5,12.5v5h3.9v3h-3.9h-1l0,0h-1h-4h-1l0,0h-1h-4H6H5.5H5l0,0H4.5H1.6v-3h2.9v-5h1v4h1v1h4v-10h2v10h4v-5H18.5z M0.1,22
	h23.8v-7H21v1h-1v-5h-1v-1h-3v1h-1v5h-1V6h-1V5h-1V2l0,0h-1v3h-1v1H9v10H8v-1H7v-4H3v5H2v-1H0.1V22z"/>
</svg>
