<svg xmlns="http://www.w3.org/2000/svg" viewBox="0 0 288 64"><path d="M27.28,31.75q5.53,0,8.8-2.68a8.87,8.87,0,0,0,3.27-7.25v-.17c0-3.23-1.06-5.67-3.19-7.34s-5.11-2.51-9-2.51h-15v20ZM2,2.42H28.07A28.29,28.29,0,0,1,37.84,4,19.73,19.73,0,0,1,45,8.34,17.32,17.32,0,0,1,48.54,14a19.5,19.5,0,0,1,1.25,7.1v.17a19.53,19.53,0,0,1-1,6.55,17.06,17.06,0,0,1-7.27,9,21.28,21.28,0,0,1-5.64,2.41l15.79,22.4H39.52L25.1,41H12.19V61.58H2Z" style="fill:#fff"/><path d="M81.87,2.42h43.28V11.8H92.06V27h29.32v9.38H92.06V52.2h33.5v9.38H81.87Z" style="fill:#fff"/><path d="M152.48,2.42h11.36l17.63,45.47L199,2.42h11.11L185.81,62h-9Z" style="fill:#fff"/><path d="M229.7,38.4H283l3.35,8.5h-60Z" style="fill:#fff"/><path d="M237.26,35.9,251.9,2h9.53l14.64,33.9H265.65l-9.16-21.48-9.1,21.48Zm-5.84,13.5-5.25,12.17h10.51l5.14-12.17Zm39.83,0,5.05,12.17h10.85L281.9,49.4Z" style="fill:#fff"/></svg>