<svg xmlns="http://www.w3.org/2000/svg" xmlns:xlink="http://www.w3.org/1999/xlink" viewBox="0 0 304 304"><defs><linearGradient id="a" x1="153" y1="2" x2="153" y2="166" gradientUnits="userSpaceOnUse"><stop offset="0.2" stop-color="#1464af"/><stop offset="1" stop-color="#4974b9"/></linearGradient></defs><path d="M34.28,225.75q5.53,0,8.8-2.68a8.87,8.87,0,0,0,3.27-7.25v-.17c0-3.23-1.06-5.67-3.19-7.34s-5.11-2.51-9-2.51h-15v19.95ZM9,196.42H35.07A28.29,28.29,0,0,1,44.84,198,19.73,19.73,0,0,1,52,202.34,17.32,17.32,0,0,1,55.54,208a19.5,19.5,0,0,1,1.25,7.1v.17a19.53,19.53,0,0,1-1,6.55,17.06,17.06,0,0,1-7.27,9,21.28,21.28,0,0,1-5.64,2.41l15.79,22.4H46.52L32.1,235H19.19v20.62H9Z" style="fill:#263238"/><path d="M88.87,196.42h43.28v9.38H99.06V221h29.32v9.38H99.06V246.2h33.5v9.38H88.87Z" style="fill:#263238"/><path d="M159.48,196.42h11.36l17.63,45.47L206,196.42h11.11L192.81,256h-9Z" style="fill:#263238"/><path d="M236.7,232.4H290l3.35,8.5h-60Z" style="fill:#4974b9"/><path d="M244.26,229.9,258.9,196h9.53l14.64,33.9H272.65l-9.16-21.48-9.1,21.48Zm-5.84,13.5-5.25,12.17h10.51l5.14-12.17Zm39.83,0,5.05,12.17h10.85L288.9,243.4Z" style="fill:#263238"/><path d="M13.13,283H9v-2.88H20.37V283h-4.1v18.57H13.13Z" style="fill:#263238"/><path d="M35.22,280.13H46.81V283H38.36v6.31h8.45v2.88H38.36v6.5h8.45v2.88H35.22Z" style="fill:#263238"/><path d="M79.88,296.3a11,11,0,0,1-9.74,5.7,11.18,11.18,0,0,1-11-11.21A11.1,11.1,0,0,1,80,285.61H76.26a7.56,7.56,0,0,0-6-3,8.08,8.08,0,0,0-8,8.19,8.22,8.22,0,0,0,7.9,8.33A7.52,7.52,0,0,0,76,296.3Z" style="fill:#263238"/><path d="M92.89,280.13H96v9.25h8.83v-9.25H108v21.45h-3.14v-9.32H96v9.32H92.89Z" style="fill:#263238"/><path d="M125.39,280.13h3.43l10.5,16.33V280.13h3.14v21.45h-3.23L128.53,285v16.58h-3.14Z" style="fill:#263238"/><path d="M167,299.12a7.6,7.6,0,0,0,5.6-2.31A8.81,8.81,0,0,0,175,291a8.61,8.61,0,0,0-2-5.63,7.91,7.91,0,0,0-11.94,0,8.66,8.66,0,0,0-2.05,5.54,8.78,8.78,0,0,0,2.4,5.95A7.66,7.66,0,0,0,167,299.12Zm0-19.41a11.15,11.15,0,1,1-11.15,11.15A11.06,11.06,0,0,1,167,279.71Z" style="fill:#263238"/><path d="M191.21,280.13h3.14V298.7h7.43v2.88H191.21Z" style="fill:#263238"/><path d="M224.47,299.12a7.6,7.6,0,0,0,5.6-2.31,8.81,8.81,0,0,0,2.4-5.86,8.61,8.61,0,0,0-2.05-5.63,7.91,7.91,0,0,0-11.94,0,8.66,8.66,0,0,0-2,5.54,8.78,8.78,0,0,0,2.4,5.95A7.66,7.66,0,0,0,224.47,299.12Zm0-19.41a11.15,11.15,0,1,1-11.15,11.15A11.06,11.06,0,0,1,224.44,279.71Z" style="fill:#263238"/><path d="M267.88,290.89a10.53,10.53,0,0,1-2,6.44,11.11,11.11,0,0,1-9.06,4.67,11.15,11.15,0,1,1,9.57-16.52h-3.62c-1.92-2.05-3.62-2.88-5.86-2.88a8.27,8.27,0,0,0,0,16.52A8,8,0,0,0,262,297.2a7.19,7.19,0,0,0,2.34-3.43h-10v-2.88Z" style="fill:#263238"/><path d="M284.39,293.87l-6.66-13.74h3.52L286,290.22l4.7-10.09h3.49l-6.62,13.74v7.71h-3.14Z" style="fill:#263238"/><path d="M123,72v94H81V96.4Zm37,1.71,25-14.42V2L128,35V166h32Zm25-8.64L165,76.6V166h20Zm5-2.89V166h35V42Z" style="fill-rule:evenodd;fill:url(#a)"/></svg>