<svg xmlns="http://www.w3.org/2000/svg" viewBox="0 0 480 168"><path d="M215.28,87.75q5.53,0,8.8-2.68a8.87,8.87,0,0,0,3.27-7.25v-.17c0-3.23-1.06-5.67-3.19-7.34s-5.11-2.51-9-2.51h-15v20ZM190,58.42h26.07A28.29,28.29,0,0,1,225.84,60,19.73,19.73,0,0,1,233,64.34,17.32,17.32,0,0,1,236.54,70a19.5,19.5,0,0,1,1.25,7.1v.17a19.53,19.53,0,0,1-1,6.55,17.06,17.06,0,0,1-7.27,9,21.28,21.28,0,0,1-5.64,2.41l15.79,22.4H227.52L213.1,97H200.19v20.62H190Z" style="fill:#2f2f2f"/><path d="M269.87,58.42h43.28V67.8H280.06V83h29.32v9.38H280.06V108.2h33.5v9.38H269.87Z" style="fill:#2f2f2f"/><path d="M340.48,58.42h11.36l17.63,45.47L387,58.42h11.11L373.81,118h-9Z" style="fill:#2f2f2f"/><path d="M417.7,94.4H471l3.35,8.5h-60Z" style="fill:#707070"/><path d="M425.26,91.9,439.9,58h9.53l14.64,33.9H453.65l-9.16-21.48-9.1,21.48Zm-5.84,13.5-5.25,12.17h10.51l5.14-12.17Zm39.83,0,5.05,12.17h10.85L469.9,105.4Z" style="fill:#2f2f2f"/><path d="M194.13,145H190v-2.88h11.37V145h-4.1v18.57h-3.14Z" style="fill:#2f2f2f"/><path d="M216.22,142.13h11.59V145h-8.45v6.31h8.45v2.88h-8.45v6.5h8.45v2.88H216.22Z" style="fill:#2f2f2f"/><path d="M260.88,158.3a11,11,0,0,1-9.74,5.7,11.18,11.18,0,0,1-11-11.21A11.1,11.1,0,0,1,261,147.61h-3.78a7.56,7.56,0,0,0-6-3,8.08,8.08,0,0,0-8,8.19,8.22,8.22,0,0,0,7.9,8.33A7.52,7.52,0,0,0,257,158.3Z" style="fill:#2f2f2f"/><path d="M273.89,142.13H277v9.25h8.83v-9.25H289v21.45h-3.14v-9.32H277v9.32h-3.14Z" style="fill:#2f2f2f"/><path d="M306.39,142.13h3.43l10.5,16.33V142.13h3.14v21.45h-3.23L309.53,147v16.58h-3.14Z" style="fill:#2f2f2f"/><path d="M348,161.12a7.6,7.6,0,0,0,5.6-2.31A8.81,8.81,0,0,0,356,153a8.61,8.61,0,0,0-2.05-5.63,7.91,7.91,0,0,0-11.94,0,8.66,8.66,0,0,0-2.05,5.54,8.78,8.78,0,0,0,2.4,5.95A7.66,7.66,0,0,0,348,161.12Zm0-19.41a11.15,11.15,0,1,1-11.15,11.15A11.06,11.06,0,0,1,348,141.71Z" style="fill:#2f2f2f"/><path d="M372.21,142.13h3.14V160.7h7.43v2.88H372.21Z" style="fill:#2f2f2f"/><path d="M405.47,161.12a7.6,7.6,0,0,0,5.6-2.31,8.81,8.81,0,0,0,2.4-5.86,8.61,8.61,0,0,0-2.05-5.63,7.91,7.91,0,0,0-11.94,0,8.66,8.66,0,0,0-2.05,5.54,8.78,8.78,0,0,0,2.4,5.95A7.66,7.66,0,0,0,405.47,161.12Zm0-19.41a11.15,11.15,0,1,1-11.15,11.15A11.06,11.06,0,0,1,405.44,141.71Z" style="fill:#2f2f2f"/><path d="M448.88,152.89a10.53,10.53,0,0,1-2,6.44,11.11,11.11,0,0,1-9.06,4.67,11.15,11.15,0,1,1,9.57-16.52h-3.62c-1.92-2-3.62-2.88-5.86-2.88a8.27,8.27,0,0,0,0,16.52A8,8,0,0,0,443,159.2a7.19,7.19,0,0,0,2.34-3.43h-10v-2.88Z" style="fill:#2f2f2f"/><path d="M465.39,155.87l-6.66-13.74h3.52L467,152.22l4.7-10.09h3.49l-6.62,13.74v7.71h-3.14Z" style="fill:#2f2f2f"/><path d="M44,72v94H2V96.4Zm37,1.71,25-14.42V2L49,35V166H81Zm25-8.64L86,76.6V166h20Zm5-2.89V166h35V42Z" style="fill:#707070;fill-rule:evenodd"/></svg>