<svg xmlns="http://www.w3.org/2000/svg" viewBox="0 0 288 112"><path d="M27.28,32.75q5.53,0,8.8-2.68a8.87,8.87,0,0,0,3.27-7.25v-.17c0-3.23-1.06-5.67-3.19-7.34s-5.11-2.51-9-2.51h-15v20ZM2,3.42H28.07A28.29,28.29,0,0,1,37.84,5,19.73,19.73,0,0,1,45,9.34,17.32,17.32,0,0,1,48.54,15a19.5,19.5,0,0,1,1.25,7.1v.17a19.53,19.53,0,0,1-1,6.55,17.06,17.06,0,0,1-7.27,9,21.28,21.28,0,0,1-5.64,2.41l15.79,22.4H39.52L25.1,42H12.19V62.58H2Z" style="fill:#2f2f2f"/><path d="M81.87,3.42h43.28V12.8H92.06V28h29.32v9.38H92.06V53.2h33.5v9.38H81.87Z" style="fill:#2f2f2f"/><path d="M152.48,3.42h11.36l17.63,45.47L199,3.42h11.11L185.81,63h-9Z" style="fill:#2f2f2f"/><path d="M229.7,39.4H283l3.35,8.5h-60Z" style="fill:#707070"/><path d="M237.26,36.9,251.9,3h9.53l14.64,33.9H265.65l-9.16-21.48-9.1,21.48Zm-5.84,13.5-5.25,12.17h10.51l5.14-12.17Zm39.83,0,5.05,12.17h10.85L281.9,50.4Z" style="fill:#2f2f2f"/><path d="M6.13,90H2V87.13H13.37V90H9.27v18.57H6.13Z" style="fill:#2f2f2f"/><path d="M28.22,87.13H39.81V90H31.36v6.31h8.45V99.2H31.36v6.5h8.45v2.88H28.22Z" style="fill:#2f2f2f"/><path d="M72.88,103.3a11,11,0,0,1-9.74,5.7,11.18,11.18,0,0,1-11-11.21A11.1,11.1,0,0,1,73,92.61H69.26a7.56,7.56,0,0,0-6-3,8.08,8.08,0,0,0-8,8.19,8.22,8.22,0,0,0,7.9,8.33A7.52,7.52,0,0,0,69,103.3Z" style="fill:#2f2f2f"/><path d="M85.89,87.13H89v9.25h8.83V87.13H101v21.45H97.86V99.26H89v9.32H85.89Z" style="fill:#2f2f2f"/><path d="M118.39,87.13h3.43l10.5,16.33V87.13h3.14v21.45h-3.23L121.53,92v16.58h-3.14Z" style="fill:#2f2f2f"/><path d="M160,106.12a7.6,7.6,0,0,0,5.6-2.31A8.81,8.81,0,0,0,168,98a8.61,8.61,0,0,0-2-5.63,7.91,7.91,0,0,0-11.94,0A8.66,8.66,0,0,0,152,97.86a8.78,8.78,0,0,0,2.4,6A7.66,7.66,0,0,0,160,106.12Zm0-19.41a11.15,11.15,0,1,1-11.15,11.15A11.06,11.06,0,0,1,160,86.71Z" style="fill:#2f2f2f"/><path d="M184.21,87.13h3.14V105.7h7.43v2.88H184.21Z" style="fill:#2f2f2f"/><path d="M217.47,106.12a7.6,7.6,0,0,0,5.6-2.31,8.81,8.81,0,0,0,2.4-5.86,8.61,8.61,0,0,0-2.05-5.63,7.91,7.91,0,0,0-11.94,0,8.66,8.66,0,0,0-2,5.54,8.78,8.78,0,0,0,2.4,6A7.66,7.66,0,0,0,217.47,106.12Zm0-19.41a11.15,11.15,0,1,1-11.15,11.15A11.06,11.06,0,0,1,217.44,86.71Z" style="fill:#2f2f2f"/><path d="M260.88,97.89a10.53,10.53,0,0,1-2,6.44,11.11,11.11,0,0,1-9.06,4.67,11.15,11.15,0,1,1,9.57-16.52h-3.62c-1.92-2-3.62-2.88-5.86-2.88a8.27,8.27,0,0,0,0,16.52A8,8,0,0,0,255,104.2a7.19,7.19,0,0,0,2.34-3.43h-10V97.89Z" style="fill:#2f2f2f"/><path d="M277.39,100.87l-6.66-13.74h3.52L279,97.22l4.7-10.09h3.49l-6.62,13.74v7.71h-3.14Z" style="fill:#2f2f2f"/></svg>