<?xml version="1.0" encoding="utf-8"?>
<!-- Generator: Adobe Illustrator 20.1.0, SVG Export Plug-In . SVG Version: 6.00 Build 0)  -->
<svg version="1.1" id="Layer_1" xmlns="http://www.w3.org/2000/svg" xmlns:xlink="http://www.w3.org/1999/xlink" x="0px" y="0px"
	 viewBox="0 0 24 24" style="enable-background:new 0 0 24 24;" xml:space="preserve">
<path d="M6,15L6,15H4l0,0l0,0l0,0l0,0l0,0H6L6,15L6,15L6,15L6,15z M12,4c2.2,0,4,1.8,4,4s-1.8,4-4,4s-4-1.8-4-4S9.8,4,12,4z M12,14
	c4.4,0,8,1.8,8,4v2H4v-2C4,15.8,7.6,14,12,14z"/>
</svg>
