<?xml version="1.0" encoding="utf-8"?>
<!-- Generator: Adobe Illustrator 19.2.1, SVG Export Plug-In . SVG Version: 6.00 Build 0)  -->
<svg version="1.1" id="Layer_1" xmlns="http://www.w3.org/2000/svg" xmlns:xlink="http://www.w3.org/1999/xlink" x="0px" y="0px"
	 viewBox="0 0 24 24" style="enable-background:new 0 0 24 24;" xml:space="preserve">
<path d="M12,6c1.1,0,2-0.9,2-2c0-0.4-0.1-0.7-0.3-1L12,0l-1.7,3C10.1,3.3,10,3.6,10,4C10,5.1,10.9,6,12,6z M16.6,16l-1.1-1.1
	L14.4,16c-1.3,1.3-3.6,1.3-4.9,0l-1.1-1.1L7.4,16c-0.7,0.6-1.5,1-2.4,1c-0.7,0-1.4-0.2-2-0.6V21c0,0.5,0.5,1,1,1h16c0.6,0,1-0.5,1-1
	v-4.6c-0.6,0.4-1.2,0.6-2,0.6C18.1,17,17.3,16.6,16.6,16z M18,9h-5V7h-2v2H6c-1.7,0-3,1.3-3,3v1.5c0,1.1,0.9,2,2,2
	c0.5,0,1-0.2,1.4-0.6l2.1-2.1l2.1,2.1c0.7,0.7,2,0.7,2.8,0l2.1-2.1l2.1,2.1c0.4,0.4,0.9,0.6,1.4,0.6c1.1,0,2-0.9,2-2V12
	C21,10.3,19.7,9,18,9z"/>
</svg>
