<?xml version="1.0" encoding="utf-8"?>
<!-- Generator: Adobe Illustrator 20.1.0, SVG Export Plug-In . SVG Version: 6.00 Build 0)  -->
<svg version="1.1" id="Layer_1" xmlns="http://www.w3.org/2000/svg" xmlns:xlink="http://www.w3.org/1999/xlink" x="0px" y="0px"
	 viewBox="0 0 24 24" style="enable-background:new 0 0 24 24;" xml:space="preserve">
<path d="M12,2.5L9.5,5l5,0L12,2.5z M4,7v13h16V7H4z M12,0l5,5h0h3c1.1,0,2,0.9,2,2v13c0,1.1-0.9,2-2,2H4c-1.1,0-2-0.9-2-2V7
	c0-1.1,0.9-2,2-2h3h0L12,0z M7,18v-4h5v4H7z M14,17v-7h4v7H14z M6,12V9h5v3H6z"/>
</svg>
