<?xml version="1.0" encoding="utf-8"?>
<!-- Generator: Adobe Illustrator 23.0.2, SVG Export Plug-In . SVG Version: 6.00 Build 0)  -->
<svg version="1.1" id="Layer_1" xmlns="http://www.w3.org/2000/svg" xmlns:xlink="http://www.w3.org/1999/xlink" x="0px" y="0px"
	 viewBox="0 0 24 24" style="enable-background:new 0 0 24 24;" xml:space="preserve">
<path d="M12,8.8c1.8,0,3.2,1.4,3.2,3.2s-1.4,3.2-3.2,3.2S8.8,13.8,8.8,12S10.2,8.8,12,8.8z"/>
<path d="M9,2L7.2,4H4C2.9,4,2,4.9,2,6v12c0,1.1,0.9,2,2,2h16c1.1,0,2-0.9,2-2V6c0-1.1-0.9-2-2-2h-3.2L15,2H9z M12,17
	c-2.8,0-5-2.2-5-5s2.2-5,5-5s5,2.2,5,5S14.8,17,12,17z"/>
</svg>
