<?xml version="1.0" encoding="utf-8"?>
<!-- Generator: Adobe Illustrator 21.0.0, SVG Export Plug-In . SVG Version: 6.00 Build 0)  -->
<svg version="1.1" id="Layer_1" xmlns="http://www.w3.org/2000/svg" xmlns:xlink="http://www.w3.org/1999/xlink" x="0px" y="0px"
	 viewBox="0 0 24 24" style="enable-background:new 0 0 24 24;" xml:space="preserve">
<path d="M15,23v-2.5H9V23l-3.5-3.5L9,16v2.5h6V16l3.5,3.5L15,23z M8,7.5c1.7,0,3-1.3,3-3s-1.3-3-3-3s-3,1.3-3,3S6.3,7.5,8,7.5z
	 M16,7.5c1.7,0,3-1.3,3-3s-1.3-3-3-3s-3,1.3-3,3S14.3,7.5,16,7.5z M16,9.5h-0.8c1.1,0.9,1.8,1.9,1.8,3v2.7l0.3,0.3H23v-3
	C23,10.8,19.9,9.5,16,9.5z M15,14v-1.5c0-1.7-3.1-3-7-3s-7,1.3-7,3v3h5.7L8.2,14H15z"/>
</svg>
