<?xml version="1.0" encoding="utf-8"?>
<!-- Generator: Adobe Illustrator 24.1.2, SVG Export Plug-In . SVG Version: 6.00 Build 0)  -->
<svg version="1.1" id="mdi-chat-alert-outline" xmlns="http://www.w3.org/2000/svg" xmlns:xlink="http://www.w3.org/1999/xlink"
	 x="0px" y="0px" viewBox="0 0 24 24" style="enable-background:new 0 0 24 24;" xml:space="preserve">
<path d="M12,3C6.5,3,2,6.6,2,11c0,2.1,1.1,4.2,2.8,5.5c0,0.6-0.4,2.2-2.8,4.5c2.4-0.1,4.6-1,6.5-2.5C9.6,18.8,10.8,19,12,19
	c5.5,0,10-3.6,10-8S17.5,3,12,3 M12,17c-4.4,0-8-2.7-8-6s3.6-6,8-6s8,2.7,8,6S16.4,17,12,17 M11,13v2h2v-2H11 M11,11h2V7h-2V11z"/>
</svg>
