<?xml version="1.0" encoding="utf-8"?>
<!-- Generator: Adobe Illustrator 20.1.0, SVG Export Plug-In . SVG Version: 6.00 Build 0)  -->
<svg version="1.1" id="Layer_1" xmlns="http://www.w3.org/2000/svg" xmlns:xlink="http://www.w3.org/1999/xlink" x="0px" y="0px"
	 viewBox="0 0 24 24" style="enable-background:new 0 0 24 24;" xml:space="preserve">
<path d="M19.4,10c-0.7-3.4-3.7-6-7.4-6C9.1,4,6.6,5.6,5.4,8C2.3,8.4,0,10.9,0,14c0,3.3,2.7,6,6,6h13c2.8,0,5-2.2,5-5
	C24,12.4,21.9,10.2,19.4,10z M10,14.2V17l-3.5-3.5l1.4-1.4L10,14.2z M16.6,10.4L10,17v-2.8L15.2,9L16.6,10.4z M10,17L10,17l6.6-6.6
	l0,0L10,17z"/>
</svg>
