<?xml version="1.0" encoding="utf-8"?>
<!-- Generator: Adobe Illustrator 24.2.3, SVG Export Plug-In . SVG Version: 6.00 Build 0)  -->
<svg version="1.1" id="mdi-credit-card-outline" xmlns="http://www.w3.org/2000/svg" xmlns:xlink="http://www.w3.org/1999/xlink"
	 x="0px" y="0px" viewBox="0 0 24 24" style="enable-background:new 0 0 24 24;" xml:space="preserve">
<path d="M3.8,10.5c-0.2,0-0.8,0-0.8,0v2.9c0,0,0.6,0,0.8,0c0.4,0,0.8-0.1,1-0.3c0.3-0.3,0.5-0.7,0.5-1.1C5.4,11.1,4.7,10.5,3.8,10.5
	z M4.5,12.7c-0.2,0.2-0.4,0.2-0.8,0.2H3.6V11h0.2c0.4,0,0.5,0,0.7,0.2s0.4,0.4,0.4,0.7C4.9,12.3,4.7,12.5,4.5,12.7z M5.6,10.5h0.6
	v2.9H5.6V10.5z M8.4,12.6c0,0.6-0.4,0.9-1,0.9c-0.4,0-0.7-0.2-1-0.5l0.4-0.4C6.9,12.9,7.1,13,7.4,13s0.4-0.2,0.4-0.4
	c0-0.1,0-0.2-0.2-0.3c-0.1,0-0.4-0.2-0.6-0.3c-0.3-0.2-0.5-0.3-0.5-0.7c0-0.5,0.4-0.8,0.9-0.8c0.3,0,0.6,0.1,0.8,0.3L8,11.2
	C7.9,11,7.7,11,7.6,11c-0.2,0-0.4,0.1-0.4,0.3s0.1,0.2,0.4,0.4C8.2,12,8.4,12.1,8.4,12.6z M10.1,10.5c0.2,0,0.4,0.1,0.7,0.2v0.7
	c-0.2-0.2-0.4-0.3-0.7-0.3c-0.5,0-0.9,0.4-0.9,1s0.4,1,1,1c0.3,0,0.5-0.1,0.7-0.3v0.7c-0.3,0.1-0.5,0.2-0.7,0.2
	c-0.9,0-1.5-0.7-1.5-1.5C8.6,11.2,9.3,10.5,10.1,10.5z M16.1,10.5h0.6l-1.2,3h-0.3l-1.2-3h0.6l0.8,1.9L16.1,10.5z M16.9,10.5h1.6V11
	h-1v0.6h1v0.5h-1v0.8h1v0.5h-1.6V10.5z M20.7,11.4c0-0.5-0.4-0.9-1-0.9h-0.8v2.9h0.6v-1.2h0.1l0.8,1.2H21l-0.9-1.2
	C20.5,12.1,20.7,11.8,20.7,11.4z M19.6,11.9h-0.2V11h0.2c0.4,0,0.5,0.1,0.5,0.4C20.1,11.7,20,11.9,19.6,11.9z M14.1,12
	c0,0.8-0.7,1.5-1.5,1.5s-1.5-0.7-1.5-1.5s0.7-1.5,1.5-1.5C13.4,10.5,14.1,11.2,14.1,12z M22,13.1V6c0-1.1-0.9-2-2-2H4
	C2.9,4,2,4.9,2,6v3.5h1.8c0.1,0,0.1,0,0.2,0V6h16v3.6c1.1,0.1,1.7,0.8,1.7,1.8c0,0.4-0.1,0.7-0.3,1L22,13.1z M20,14.4V18H4v-3.6
	c-0.1,0-0.1,0-0.2,0H2V18c0,1.1,0.9,2,2,2h16c1.1,0,2-0.9,2-2v-3.6H20z"/>
</svg>
