<?xml version="1.0" encoding="utf-8"?>
<!-- Generator: Adobe Illustrator 24.2.3, SVG Export Plug-In . SVG Version: 6.00 Build 0)  -->
<svg version="1.1" id="mdi-credit-card" xmlns="http://www.w3.org/2000/svg" xmlns:xlink="http://www.w3.org/1999/xlink" x="0px"
	 y="0px" viewBox="0 0 24 24" style="enable-background:new 0 0 24 24;" xml:space="preserve">
<path d="M17.6,12.8h1.2l-0.5-2L17.6,12.8z M20,4H4C2.9,4,2,4.9,2,6v12c0,1.1,0.9,2,2,2h16c1.1,0,2-0.9,2-2V6C22,4.9,21.1,4,20,4z
	 M6.3,14.6l-1-3.6c-0.2-0.8-0.9-1.4-1.7-1.5V9.3h2.8l0.7,3.6l1.4-3.6H10l-2.3,5.3C7.7,14.6,6.3,14.6,6.3,14.6z M9.4,14.6l1.1-5.3
	h1.3l-1.1,5.3H9.4z M14.7,14.4c-0.1,0.1-0.3,0.2-0.5,0.3c-0.8,0.3-1.8,0.2-2.5-0.2l0.3-1.2c0.5,0.4,1.1,0.5,1.7,0.3
	c0.9-0.2,0.5-0.7,0.3-0.8c-0.1-0.1-0.5-0.3-0.6-0.4c-0.3-0.2-0.9-0.5-1-1c-0.1-0.7,0.2-1.5,0.9-1.8c0.8-0.4,1.7-0.4,2.5-0.1
	l-0.3,1.1c0,0-1.7-0.8-1.8,0.2c0,0.2,0.2,0.4,1.3,1C16,12.3,15.5,13.7,14.7,14.4z M19.1,14.6l-0.2-0.9h-1.7l-0.3,0.9h-1.5l2.3-5.3
	h1.5l1.1,5.3H19.1z"/>
</svg>
