<?xml version="1.0" encoding="utf-8"?>
<!-- Generator: Adobe Illustrator 24.2.3, SVG Export Plug-In . SVG Version: 6.00 Build 0)  -->
<svg version="1.1" id="mdi-credit-card-outline" xmlns="http://www.w3.org/2000/svg" xmlns:xlink="http://www.w3.org/1999/xlink"
	 x="0px" y="0px" viewBox="0 0 24 24" style="enable-background:new 0 0 24 24;" xml:space="preserve">
<path d="M3.6,9.3v0.2c0.8,0.1,1.5,0.7,1.7,1.5l1,3.6h1.4L10,9.3H8.5l-1.4,3.6L6.4,9.3H3.6z M19.2,9.3h-1.5l-2.3,5.3h1.5l0.3-0.9h1.7
	l0.2,0.9h1.2L19.2,9.3z M17.6,12.8l0.7-2l0.4,2H17.6z M14.9,14.3c0.7-0.4,1.1-2,0-2.5c-1-0.5-1.3-0.8-1.3-1c0.1-1,1.8-0.2,1.8-0.2
	l0.3-1.1c-0.8-0.3-1.7-0.3-2.5,0.1c-0.7,0.3-1,1.1-0.9,1.8c0.1,0.3,0.6,0.8,0.9,1c0.2,0.1,0.5,0.3,0.7,0.4c0.2,0.1,0.6,0.6-0.3,0.8
	c-0.6,0.1-1.2,0-1.6-0.4l-0.3,1.2c0.8,0.4,1.6,0.4,2.4,0.2C14.3,14.6,14.7,14.4,14.9,14.3z M10.5,9.3l-1.1,5.3h1.3l1.1-5.3H10.5z
	 M20,4H4C2.9,4,2,4.9,2,6v12c0,1.1,0.9,2,2,2h16c1.1,0,2-0.9,2-2V6C22,4.9,21.1,4,20,4z M4,8.3V6h16v2.3h0.1l0.2,0.8l1.1,5.3
	l0.3,1.2H20V18H4v-7.3c-0.1-0.1-0.3-0.2-0.5-0.2l-0.9-0.1V8.3H4z"/>
</svg>
