<?xml version="1.0" encoding="utf-8"?>
<!-- Generator: Adobe Illustrator 24.2.3, SVG Export Plug-In . SVG Version: 6.00 Build 0)  -->
<svg version="1.1" id="mdi-credit-card" xmlns="http://www.w3.org/2000/svg" xmlns:xlink="http://www.w3.org/1999/xlink" x="0px"
	 y="0px" viewBox="0 0 24 24" style="enable-background:new 0 0 24 24;" xml:space="preserve">
<path d="M14.9,9c-0.9,0-1.8,0.4-2.3,1.1c0.3,0.6,0.5,1.2,0.5,1.9s-0.2,1.3-0.5,1.9c0.6,0.7,1.4,1.1,2.3,1.1c1.7,0,3-1.3,3-3
	S16.6,9,14.9,9z M20,4H4C2.9,4,2,4.9,2,6v12c0,1.1,0.9,2,2,2h16c1.1,0,2-0.9,2-2V6C22,4.9,21.1,4,20,4z M14.9,16
	c-1.1,0-2.2-0.5-2.9-1.3c-0.7,0.8-1.8,1.3-2.9,1.3c-2.2,0-4-1.8-4-4s1.8-4,4-4c1.1,0,2.2,0.5,2.9,1.3C12.7,8.5,13.8,8,14.9,8
	c2.2,0,4,1.8,4,4S17.1,16,14.9,16z"/>
</svg>
