<?xml version="1.0" encoding="utf-8"?>
<!-- Generator: Adobe Illustrator 24.2.3, SVG Export Plug-In . SVG Version: 6.00 Build 0)  -->
<svg version="1.1" id="mdi-credit-card-outline" xmlns="http://www.w3.org/2000/svg" xmlns:xlink="http://www.w3.org/1999/xlink"
	 x="0px" y="0px" viewBox="0 0 24 24" style="enable-background:new 0 0 24 24;" xml:space="preserve">
<path d="M20,18H4V6h16V18z M20,4H4C2.9,4,2,4.9,2,6v12c0,1.1,0.9,2,2,2h16c1.1,0,2-0.9,2-2V6C22,4.9,21.1,4,20,4z M14.9,8
	c-1.1,0-2.2,0.5-2.9,1.3C11.3,8.5,10.2,8,9.1,8c-2.2,0-4,1.8-4,4c0,2.2,1.8,4,4,4c1.1,0,2.2-0.5,2.9-1.3c0.7,0.8,1.8,1.3,2.9,1.3
	c2.2,0,4-1.8,4-4S17.1,8,14.9,8z M14.9,15c-0.9,0-1.8-0.4-2.3-1.1c0.3-0.6,0.5-1.2,0.5-1.9s-0.2-1.3-0.5-1.9C13.1,9.4,14,9,14.9,9
	c1.7,0,3,1.3,3,3S16.6,15,14.9,15z"/>
</svg>
