<?xml version="1.0" encoding="utf-8"?>
<!-- Generator: Adobe Illustrator 24.2.3, SVG Export Plug-In . SVG Version: 6.00 Build 0)  -->
<svg version="1.1" id="mdi-credit-card-outline" xmlns="http://www.w3.org/2000/svg" xmlns:xlink="http://www.w3.org/1999/xlink"
	 x="0px" y="0px" viewBox="0 0 24 24" style="enable-background:new 0 0 24 24;" xml:space="preserve">
<path d="M17.7,14l1.1-1.3L20,14h1.2l-1.7-2l1.7-2H20l-1.2,1.3L17.7,10h-3.9V14H17.7z M17.1,13.2h-2.3v-0.7h2.1v-0.9h-2.1v-0.7h2.4
	l1,1.1L17.1,13.2z M7.5,10v3.5L6,10H4.5L2.9,14h1l0.3-0.8h1.9L6.5,14h1.9v-3l1.4,3h1l1.3-2.9V14H13V10h-1.5l-1.2,2.7L9.1,10H7.5z
	 M4.5,12.3l0.6-1.5l0.7,1.5H4.5z M20,9V6H4v3H3.8L2,13.4V6c0-1.1,0.9-2,2-2h16c1.1,0,2,0.9,2,2v3H20z M22,10.6v2.8L20.8,12L22,10.6z
	 M22,15v3c0,1.1-0.9,2-2,2H4c-1.1,0-2-0.9-2-2v-3h2v3h16v-3H22z"/>
</svg>
