<?xml version="1.0" encoding="utf-8"?>
<!-- Generator: Adobe Illustrator 24.2.3, SVG Export Plug-In . SVG Version: 6.00 Build 0)  -->
<svg version="1.1" id="mdi-credit-card" xmlns="http://www.w3.org/2000/svg" xmlns:xlink="http://www.w3.org/1999/xlink" x="0px"
	 y="0px" viewBox="0 0 24 24" style="enable-background:new 0 0 24 24;" xml:space="preserve">
<path d="M3.7,11L3.7,11l-0.1,1.9h0.2c0.4,0,0.6-0.1,0.8-0.2c0.2-0.2,0.3-0.5,0.3-0.7c0-0.3-0.1-0.5-0.3-0.7C4.3,11.1,4.1,11,3.7,11z
	 M19.6,11c-0.1,0-0.2,0-0.2,0v0.9c0,0,0.1,0,0.2,0c0.4,0,0.6-0.2,0.6-0.4C20.2,11.2,20,11,19.6,11z M20,4H4C2.9,4,2,4.9,2,6v12
	c0,1.1,0.9,2,2,2h16c1.1,0,2-0.9,2-2V6C22,4.9,21.1,4,20,4z M4.9,13.1c-0.3,0.2-0.6,0.3-1,0.3c-0.2,0-0.9,0-0.9,0v-2.9
	c0,0,0.6,0,0.8,0c0.9,0,1.5,0.6,1.5,1.4C5.3,12.4,5.2,12.8,4.9,13.1z M6.2,13.4H5.6v-2.9h0.6V13.4z M7.4,13.5c-0.4,0-0.7-0.2-1-0.5
	l0.4-0.4C6.9,12.9,7.1,13,7.4,13s0.4-0.2,0.4-0.4c0-0.1-0.1-0.2-0.2-0.3c-0.1,0-0.2-0.1-0.4-0.2c-0.5-0.2-0.7-0.4-0.7-0.8
	c0-0.5,0.4-0.8,0.9-0.8c0.3,0,0.6,0.1,0.8,0.3L8,11.2C7.9,11,7.7,11,7.6,11c-0.2,0-0.4,0.1-0.4,0.3s0.1,0.2,0.4,0.4
	c0.6,0.3,0.8,0.4,0.8,0.9C8.4,13.1,8,13.5,7.4,13.5z M10.8,11.3c-0.2-0.2-0.4-0.3-0.7-0.3c-0.5,0-0.9,0.4-0.9,1s0.4,1,1,1
	c0.3,0,0.5-0.1,0.7-0.3v0.7c-0.3,0.1-0.5,0.2-0.7,0.2c-0.9,0-1.5-0.7-1.5-1.5s0.6-1.5,1.4-1.5c0.2,0,0.5,0.1,0.8,0.2v0.5
	C10.9,11.3,10.8,11.3,10.8,11.3z M12.5,13.5c-0.8,0-1.5-0.7-1.5-1.5s0.7-1.5,1.5-1.5S14,11.2,14,12S13.4,13.5,12.5,13.5z M15.4,13.5
	h-0.3l-1.2-3h0.6l0.8,1.9l0.8-1.9h0.6L15.4,13.5z M18.5,11h-1v0.6h1v0.5h-1v0.8h1v0.5h-1.6v-2.9h1.6V11z M20.3,13.4l-0.8-1.2h-0.1
	v1.2h-0.6v-2.9h0.8c0.6,0,1,0.3,1,0.9c0,0.4-0.2,0.7-0.7,0.8l0.9,1.2H20.3z"/>
</svg>
