<?xml version="1.0" encoding="utf-8"?>
<!-- Generator: Adobe Illustrator 24.2.3, SVG Export Plug-In . SVG Version: 6.00 Build 0)  -->
<svg version="1.1" id="mdi-credit-card" xmlns="http://www.w3.org/2000/svg" xmlns:xlink="http://www.w3.org/1999/xlink" x="0px"
	 y="0px" viewBox="0 0 24 24" style="enable-background:new 0 0 24 24;" xml:space="preserve">
<path d="M4.5,12.3h1.3l-0.7-1.5L4.5,12.3z M14.8,10.9v0.7h2.1v0.8h-2.1v0.8h2.3l1.1-1.2l-0.9-1.1H14.8z M20,4H4C2.9,4,2,4.9,2,6v12
	c0,1.1,0.9,2,2,2h16c1.1,0,2-0.9,2-2V6C22,4.9,21.1,4,20,4z M9.8,14l-1.4-3v3H6.5l-0.4-0.8H4.2L3.9,14h-1l1.6-4H6l1.5,3.5V10h1.7
	l1.1,2.7l1.2-2.7H13v4h-0.9v-3l-1.3,3 M13.9,14v-4h3.9l1.1,1.3L20,10h1.1l-1.7,2l1.7,2H20l-1.1-1.3L17.7,14H13.9z"/>
</svg>
