<?xml version="1.0" encoding="utf-8"?>
<!-- Generator: Adobe Illustrator 24.1.2, SVG Export Plug-In . SVG Version: 6.00 Build 0)  -->
<svg version="1.1" id="mdi-emoticon" xmlns="http://www.w3.org/2000/svg" xmlns:xlink="http://www.w3.org/1999/xlink" x="0px"
	 y="0px" viewBox="0 0 24 24" style="enable-background:new 0 0 24 24;" xml:space="preserve">
<path d="M12,2C6.5,2,2,6.5,2,12c0,5.5,4.5,10,10,10s10-4.5,10-10S17.5,2,12,2 M15.5,8C16.3,8,17,8.7,17,9.5S16.3,11,15.5,11
	c-0.8,0-1.5-0.7-1.5-1.5S14.7,8,15.5,8 M8.5,8C9.3,8,10,8.7,10,9.5S9.3,11,8.5,11S7,10.3,7,9.5S7.7,8,8.5,8 M12,17.5
	c-2.3,0-4.3-1.5-5.1-3.5h10.2C16.3,16,14.3,17.5,12,17.5z"/>
</svg>
