<?xml version="1.0" encoding="utf-8"?>
<!-- Generator: Adobe Illustrator 20.1.0, SVG Export Plug-In . SVG Version: 6.00 Build 0)  -->
<svg version="1.1" id="Layer_1" xmlns="http://www.w3.org/2000/svg" xmlns:xlink="http://www.w3.org/1999/xlink" x="0px" y="0px"
	 viewBox="0 0 24 24" style="enable-background:new 0 0 24 24;" xml:space="preserve">
<path d="M11.7,8.9l3.2,3.2c0-0.1,0-0.1,0-0.2c0-1.7-1.3-3-3-3C11.7,8.9,11.7,8.9,11.7,8.9z M14.2,16.4
	C13.5,16.8,12.8,17,12,17c-2.8,0-5-2.2-5-5c0-0.8,0.2-1.5,0.5-2.2l1.1-1.5L3.3,3L2,4.3L4.7,7c-1.6,1.3-3,3-3.7,5
	c1.7,4.4,6,7.5,11,7.5c1.6,0,3-0.3,4.4-0.8l3.3,3.3l1.3-1.3l-5.5-5.5L14.2,16.4z M15.5,15.2L8.6,8.3L7.5,9.8L9,11.3
	c0,0.3,0,0.5,0,0.7c0,1.7,1.3,3,3,3c0.2,0,0.4,0,0.7-0.1l1.5,1.5L15.5,15.2z M12,7c2.8,0,5,2.2,5,5c0,0.6-0.1,1.3-0.4,1.8l2.9,2.9
	c1.5-1.3,2.8-2.9,3.5-4.7c-1.7-4.4-6.1-7.5-11.1-7.5c-1.4,0-2.7,0.3-4,0.7l2.2,2.2C10.7,7.1,11.4,7,12,7z"/>
</svg>
