<?xml version="1.0" encoding="utf-8"?>
<!-- Generator: Adobe Illustrator 20.1.0, SVG Export Plug-In . SVG Version: 6.00 Build 0)  -->
<svg version="1.1" id="Layer_1" xmlns="http://www.w3.org/2000/svg" xmlns:xlink="http://www.w3.org/1999/xlink" x="0px" y="0px"
	 viewBox="0 0 24 24" style="enable-background:new 0 0 24 24;" xml:space="preserve">
<path d="M10,9.7l4.3,4.3c0.4-0.4,0.7-1.2,0.7-2.1c0-1.5-1.2-2.9-3-2.9C11.4,9,10.5,9.2,10,9.7z M15.7,15.4
	C14.3,16.8,12.8,17,12,17c-2.8,0-5-2.2-5-5c0-0.8,0.3-2.5,1.6-3.7l0,0L6.3,6l0,0l0,0C3.7,7.3,1.7,10,1,12c1.7,4.4,6,7.5,11,7.5
	c1.6,0,3.9-0.4,6.1-1.7l0,0l0,0L15.7,15.4L15.7,15.4z M14.3,14L10,9.7l0,0l0,0c-0.4,0.4-1,1-1,2.3c0,1.7,1.3,3,3,3
	C12.8,15,13.4,14.8,14.3,14L14.3,14L14.3,14z M12,7c2.8,0,5,2.2,5,5c0,0.6-0.1,2.2-1.3,3.4l2.4,2.4c2.8-1.7,4.2-4,4.9-5.8
	c-1.7-4.4-6.1-7.5-11.1-7.5c-1.4,0-3.3,0.2-5.6,1.5l2.3,2.3C10.1,7,11.4,7,12,7z"/>
</svg>
