<?xml version="1.0" encoding="utf-8"?>
<!-- Generator: Adobe Illustrator 20.1.0, SVG Export Plug-In . SVG Version: 6.00 Build 0)  -->
<svg version="1.1" id="Layer_1" xmlns="http://www.w3.org/2000/svg" xmlns:xlink="http://www.w3.org/1999/xlink" x="0px" y="0px"
	 viewBox="0 0 24 24" style="enable-background:new 0 0 24 24;" xml:space="preserve">
<path d="M12.6,15.2c-1,0.1-2.7,0.5-3.4,0.8c0.5-1.1,1.3-2.6,1.5-3.3C11,13.3,11.7,14.6,12.6,15.2z M6.4,18.2
	c-0.6,0.8-0.6,1.1-0.6,1.1c0.5-0.2,1-0.8,1.7-2C7.5,17.3,7,17.5,6.4,18.2z M10.8,9.3c0.1-0.6,0.1-1.1-0.2-1.2
	c-0.3,0.3-0.2,1.4,0,2.2C10.7,10.2,10.8,9.5,10.8,9.3z M14.6,15.6c0.4,0.3,1.8,0.5,2.3,0.4c-0.5-0.5-1.3-0.5-1.8-0.5
	C15,15.5,14.7,15.5,14.6,15.6z M20,8v12c0,1.1-0.9,2-2,2H6c-1.1,0-2-0.9-2-2V4c0-1.1,0.9-2,2-2h8L20,8z M17.5,15.9
	c0.1-1-1.1-1.4-3.7-1.2c-1.2-0.5-2.2-2.2-2.5-3.2c0.2-0.8,1.1-4-0.6-4c-0.8,0-1.1,0.3-1.2,2.1c0,0.5,0.2,1.5,0.4,2
	c-0.3,1.4-1.4,3.7-2.1,4.8c-0.3,0.2-1.3,0.5-2.3,1.6c-0.2,0.2-1.1,1.3,0.1,1.9c1.2,0.6,2.6-1.7,3.4-3c1.4-0.5,3.2-0.8,4.3-0.9
	C15.4,16.9,17.4,17.3,17.5,15.9z M18.5,9L13,3.5V9H18.5z"/>
</svg>
