<?xml version="1.0" encoding="utf-8"?>
<!-- Generator: Adobe Illustrator 24.1.2, SVG Export Plug-In . SVG Version: 6.00 Build 0)  -->
<svg version="1.1" id="mdi-form-select" xmlns="http://www.w3.org/2000/svg" xmlns:xlink="http://www.w3.org/1999/xlink" x="0px"
	 y="0px" viewBox="0 0 24 24" style="enable-background:new 0 0 24 24;" xml:space="preserve">
<path d="M15,5h3l-1.5,2L15,5 M5,2h14c1.1,0,2,0.9,2,2v16c0,1.1-0.9,2-2,2H5c-1.1,0-2-0.9-2-2V4C3,2.9,3.9,2,5,2 M5,4v4h14V4H5 M5,20
	h14V10H5V20 M7,12h10v2H7V12 M7,16h10v2H7V16z"/>
</svg>
