<?xml version="1.0" encoding="utf-8"?>
<!-- Generator: Adobe Illustrator 24.2.3, SVG Export Plug-In . SVG Version: 6.00 Build 0)  -->
<svg version="1.1" id="mdi-hammer-screwdriver" xmlns="http://www.w3.org/2000/svg" xmlns:xlink="http://www.w3.org/1999/xlink"
	 x="0px" y="0px" viewBox="0 0 24 24" style="enable-background:new 0 0 24 24;" xml:space="preserve">
<path d="M16.1,13.1l5.6,5.6L18.4,22l-5.6-5.6v-0.9l2.4-2.4H16.1z M17,10.6l-1-1l-4.8,4.8v2L5.6,22l-3.3-3.3l5.6-5.6h2l0.8-0.8
	L6.8,8.5H5.5L2.7,5.6L5.3,3l2.8,2.8v1.3l3.9,3.8l2.7-2.7l-1-1L15,6h-2.7l-0.7-0.6L15,2l0.7,0.7v2.7L17,4l3.3,3.3
	c1.1,1.1,1.1,2.9,0,4l-2-2L17,10.6z"/>
</svg>
