<?xml version="1.0" encoding="utf-8"?>
<!-- Generator: Adobe Illustrator 24.2.3, SVG Export Plug-In . SVG Version: 6.00 Build 0)  -->
<svg version="1.1" id="mdi-hammer-wrench" xmlns="http://www.w3.org/2000/svg" xmlns:xlink="http://www.w3.org/1999/xlink" x="0px"
	 y="0px" viewBox="0 0 24 24" style="enable-background:new 0 0 24 24;" xml:space="preserve">
<path d="M13.8,15.3l6,6l2.1-2.2l-6-6L13.8,15.3z M17.5,10.1c-0.4,0-0.8-0.1-1.1-0.2L5,21.2l-2.1-2.1l7.4-7.4L8.5,10l-0.7,0.7
	L6.3,9.2v2.9l-0.7,0.7L2.1,9.2l0.7-0.7h2.8L4.2,7.1l3.6-3.6c1.2-1.2,3-1.2,4.2,0L9.9,5.7l1.4,1.4l-0.7,0.7l1.8,1.8l1.8-1.9
	C14.1,7.4,14,7,14,6.6c0-2,1.6-3.5,3.5-3.5c0.6,0,1.1,0.1,1.6,0.4l-2.7,2.7l1.5,1.5L20.6,5C20.9,5.5,21,6,21,6.6
	C21,8.6,19.5,10.1,17.5,10.1z"/>
</svg>
