<?xml version="1.0" encoding="utf-8"?>
<!-- Generator: Adobe Illustrator 20.1.0, SVG Export Plug-In . SVG Version: 6.00 Build 0)  -->
<svg version="1.1" id="Layer_1" xmlns="http://www.w3.org/2000/svg" xmlns:xlink="http://www.w3.org/1999/xlink" x="0px" y="0px"
	 viewBox="0 0 24 24" style="enable-background:new 0 0 24 24;" xml:space="preserve">
<path d="M12,18.6c-4.8-4.3-8-7.2-8-10.1C4,6.5,5.5,5,7.5,5c1.5,0,3,1,3.6,2.4H13C13.5,6,15,5,16.5,5c2,0,3.5,1.5,3.5,3.5
	c0,2.9-3.1,5.7-7.9,10.1H12z M16.5,3c-1.7,0-3.4,0.8-4.5,2.1C10.9,3.8,9.2,3,7.5,3C4.4,3,2,5.4,2,8.5c0,3.8,3.4,6.9,8.6,11.5
	l1.4,1.3l1.4-1.3c5.1-4.7,8.6-7.8,8.6-11.5C22,5.4,19.6,3,16.5,3z"/>
</svg>
