<?xml version="1.0" encoding="utf-8"?>
<!-- Generator: Adobe Illustrator 21.0.0, SVG Export Plug-In . SVG Version: 6.00 Build 0)  -->
<svg version="1.1" id="Layer_1" xmlns="http://www.w3.org/2000/svg" xmlns:xlink="http://www.w3.org/1999/xlink" x="0px" y="0px"
	 viewBox="0 0 24 24" style="enable-background:new 0 0 24 24;" xml:space="preserve">
<path d="M20.5,15.2v1.6c0,1.1-0.9,2-2,2h-4.3L20.5,15.2z M9.4,20.8l3.7,2.1c1,0.6,2.2,0.2,2.7-0.7l0.8-1.4H9.4z M17.4,2l4.5,7.8
	c0.6,1,0.2,2.2-0.7,2.7L9,19.5c-1,0.6-2.2,0.2-2.7-0.7L1.8,11c-0.6-1-0.2-2.2,0.7-2.7l0,0l12.1-7C15.6,0.7,16.8,1,17.4,2z M9.3,17
	l4.3-2.5l-5-8.7L5.8,11L9.3,17z M18.8,11.5l-2.2-3.9l-4.3,2.5l2.2,3.9L18.8,11.5L18.8,11.5z M10,14.3l-0.9,0.5l-0.5-0.9l0.9-0.5
	L10,14.3z M8.8,12.1l-0.9,0.5l-0.5-0.9l0.9-0.5L8.8,12.1z M11.8,13.3l-0.9,0.5l-0.5-0.9l0.9-0.5L11.8,13.3z M10.5,11.1l-0.9,0.5
	l-0.5-0.9l0.9-0.5L10.5,11.1z M9.3,9L8.4,9.5L7.9,8.6l0.9-0.5L9.3,9z M15.2,11.3l-0.9,0.5l-0.5-0.9l0.9-0.5L15.2,11.3z M17,10.3
	l-0.9,0.5l-0.5-0.9l0.9-0.5L17,10.3z"/>
</svg>
