<?xml version="1.0" encoding="utf-8"?>
<!-- Generator: Adobe Illustrator 21.0.0, SVG Export Plug-In . SVG Version: 6.00 Build 0)  -->
<svg version="1.1" id="Layer_1" xmlns="http://www.w3.org/2000/svg" xmlns:xlink="http://www.w3.org/1999/xlink" x="0px" y="0px"
	 viewBox="0 0 24 24" style="enable-background:new 0 0 24 24;" xml:space="preserve">
<path d="M18,8c1.1,0,2,0.9,2,2v10c0,1.1-0.9,2-2,2H6c-1.1,0-2-0.9-2-2V10c0-1.1,0.9-2,2-2l9,0V6c0-1.7-1.3-3-3-3S9,4.3,9,6l0,0L7,6
	l0,0c0-2.8,2.2-5,5-5c2.8,0,5,2.2,5,5v2H18z M12,17c1.1,0,2-0.9,2-2s-0.9-2-2-2c-1.1,0-2,0.9-2,2S10.9,17,12,17z"/>
</svg>
