<?xml version="1.0" encoding="utf-8"?>
<!-- Generator: Adobe Illustrator 20.1.0, SVG Export Plug-In . SVG Version: 6.00 Build 0)  -->
<svg version="1.1" id="Layer_1" xmlns="http://www.w3.org/2000/svg" xmlns:xlink="http://www.w3.org/1999/xlink" x="0px" y="0px"
	 viewBox="0 0 24 24" style="enable-background:new 0 0 24 24;" xml:space="preserve">
<path d="M19,11h-1.7c0,0.7-0.2,1.4-0.4,2.1l1.2,1.2C18.7,13.3,19,12.2,19,11z M15,11.2c0-0.1,0-0.1,0-0.2V5c0-1.7-1.3-3-3-3
	S9,3.3,9,5v0.2L15,11.2z M12.6,13.9l1.7,1.7c-0.7,0.3-1.5,0.5-2.3,0.5c-2.8,0-5.3-2.1-5.3-5.1H5c0,3.4,2.7,6.2,6,6.7V21h2v-3.3
	c0.9-0.1,1.8-0.5,2.5-0.9l4.2,4.2l1.3-1.3l-7-7L12.6,13.9z M14,12.7L4.3,3L3,4.3l6,6V11c0,1.7,1.3,3,3,3c0.2,0,0.4,0,0.6-0.1
	L14,12.7z"/>
</svg>
