<?xml version="1.0" encoding="utf-8"?>
<!-- Generator: Adobe Illustrator 19.2.1, SVG Export Plug-In . SVG Version: 6.00 Build 0)  -->
<svg version="1.1" id="Layer_1" xmlns="http://www.w3.org/2000/svg" xmlns:xlink="http://www.w3.org/1999/xlink" x="0px" y="0px"
	 viewBox="0 0 24 24" style="enable-background:new 0 0 24 24;" xml:space="preserve">
<path d="M12,2C6.5,2,2,6.5,2,12s4.5,10,10,10s10-4.5,10-10S17.5,2,12,2z M4,12c0-1.8,0.6-3.5,1.7-4.9l11.2,11.2
	C15.5,19.4,13.8,20,12,20C7.6,20,4,16.4,4,12z M18.3,16.9L7.1,5.7C8.5,4.6,10.2,4,12,4c4.4,0,8,3.6,8,8C20,13.8,19.4,15.5,18.3,16.9
	z"/>
</svg>
