<?xml version="1.0" encoding="utf-8"?>
<!-- Generator: Adobe Illustrator 19.2.1, SVG Export Plug-In . SVG Version: 6.00 Build 0)  -->
<svg version="1.1" id="Layer_1" xmlns="http://www.w3.org/2000/svg" xmlns:xlink="http://www.w3.org/1999/xlink" x="0px" y="0px"
	 viewBox="0 0 24 24" style="enable-background:new 0 0 24 24;" xml:space="preserve">
<path d="M19,13.5c-0.8,0-1.5-0.7-1.5-1.5s0.7-1.5,1.5-1.5c0.8,0,1.5,0.7,1.5,1.5S19.8,13.5,19,13.5z M14,13.5
	c-0.8,0-1.5-0.7-1.5-1.5s0.7-1.5,1.5-1.5s1.5,0.7,1.5,1.5S14.8,13.5,14,13.5z M9,13.5c-0.8,0-1.5-0.7-1.5-1.5s0.7-1.5,1.5-1.5
	c0.8,0,1.5,0.7,1.5,1.5S9.8,13.5,9,13.5z M22,3H7C6.3,3,5.8,3.3,5.4,3.9L0,12l5.4,8.1c0.4,0.5,1,0.9,1.7,0.9H22c1.1,0,2-0.9,2-2V5
	C24,3.9,23.1,3,22,3z"/>
</svg>
