<?xml version="1.0" encoding="utf-8"?>
<!-- Generator: Adobe Illustrator 19.2.1, SVG Export Plug-In . SVG Version: 6.00 Build 0)  -->
<svg version="1.1" id="Layer_1" xmlns="http://www.w3.org/2000/svg" xmlns:xlink="http://www.w3.org/1999/xlink" x="0px" y="0px"
	 viewBox="0 0 24 24" style="enable-background:new 0 0 24 24;" xml:space="preserve">
<path d="M6.5,3C7.3,3,8,3.7,8,4.5S7.3,6,6.5,6S5,5.3,5,4.5S5.7,3,6.5,3z M12,3c0.8,0,1.5,0.7,1.5,1.5S12.8,6,12,6s-1.5-0.7-1.5-1.5
	S11.2,3,12,3z M17.5,3C18.3,3,19,3.7,19,4.5S18.3,6,17.5,6S16,5.3,16,4.5S16.7,3,17.5,3z M6.5,8C7.3,8,8,8.7,8,9.5S7.3,11,6.5,11
	S5,10.3,5,9.5S5.7,8,6.5,8z M12,8c0.8,0,1.5,0.7,1.5,1.5S12.8,11,12,11s-1.5-0.7-1.5-1.5S11.2,8,12,8z M17.5,8C18.3,8,19,8.7,19,9.5
	S18.3,11,17.5,11S16,10.3,16,9.5S16.7,8,17.5,8z M6.5,13C7.3,13,8,13.7,8,14.5S7.3,16,6.5,16S5,15.3,5,14.5S5.7,13,6.5,13z M12,13
	c0.8,0,1.5,0.7,1.5,1.5S12.8,16,12,16s-1.5-0.7-1.5-1.5S11.2,13,12,13z M17.5,13c0.8,0,1.5,0.7,1.5,1.5S18.3,16,17.5,16
	S16,15.3,16,14.5S16.7,13,17.5,13z M12,18c0.8,0,1.5,0.7,1.5,1.5S12.8,21,12,21s-1.5-0.7-1.5-1.5S11.2,18,12,18z"/>
</svg>
