<?xml version="1.0" encoding="utf-8"?>
<!-- Generator: Adobe Illustrator 24.3.0, SVG Export Plug-In . SVG Version: 6.00 Build 0)  -->
<svg version="1.1" id="mdi-credit-card-outline" xmlns="http://www.w3.org/2000/svg" xmlns:xlink="http://www.w3.org/1999/xlink"
	 x="0px" y="0px" viewBox="0 0 24 24" style="enable-background:new 0 0 24 24;" xml:space="preserve">
<path d="M20,19H4c-0.6,0-1-0.4-1-1V6c0-0.6,0.4-1,1-1h16c0.6,0,1,0.4,1,1v12C21,18.6,20.6,19,20,19z M20,4H4C2.9,4,2,4.9,2,6v12
	c0,1.1,0.9,2,2,2h16c1.1,0,2-0.9,2-2V6C22,4.9,21.1,4,20,4z M7,9.5c0.2-0.2,0.3-0.6,0.3-0.9C7,8.6,6.7,8.8,6.5,9S6.2,9.6,6.2,9.9
	C6.5,9.9,6.8,9.7,7,9.5 M7.3,9.9c-0.4,0-0.8,0.3-1,0.3S5.8,10,5.4,10c-0.5,0-0.9,0.3-1.1,0.7c-0.5,0.8-0.1,2.1,0.3,2.7
	c0.2,0.3,0.5,0.7,0.9,0.7c0.3,0,0.5-0.2,0.9-0.2s0.5,0.2,0.9,0.2s0.6-0.3,0.8-0.7c0.2-0.3,0.4-0.8,0.4-0.8s-0.7-0.3-0.7-1.1
	c0-0.7,0.6-1,0.6-1C8,10,7.5,9.9,7.3,9.9z M11.2,9c1,0,1.7,0.7,1.7,1.7s-0.7,1.7-1.7,1.7h-1.1V14H9.3V9H11.2L11.2,9z M10.1,11.6H11
	c0.7,0,1.1-0.4,1.1-1s-0.4-1-1.1-1h-0.9V11.6z M13.1,13c0-0.6,0.5-1,1.4-1.1l1-0.1v-0.3c0-0.4-0.3-0.7-0.7-0.7S14.1,11,14,11.3h-0.7
	c0-0.7,0.6-1.2,1.5-1.2s1.5,0.5,1.5,1.2V14h-0.7v-0.6l0,0c-0.2,0.4-0.7,0.7-1.2,0.7C13.6,14.1,13.1,13.6,13.1,13z M15.4,12.7v-0.3
	c0,0-0.7,0.1-0.9,0.1c-0.5,0-0.7,0.2-0.7,0.5s0.3,0.5,0.7,0.5C15,13.5,15.4,13.1,15.4,12.7z M16.9,15.4v-0.6c0.1,0,0.2,0,0.2,0
	c0.3,0,0.5-0.1,0.7-0.5l0.1-0.2l-1.3-3.7h0.8l0.9,3l0,0l0.9-3H20l-1.4,3.9c-0.3,0.9-0.8,1.1-1.4,1.1C17.1,15.4,16.9,15.4,16.9,15.4z
	"/>
</svg>
