<?xml version="1.0" encoding="utf-8"?>
<!-- Generator: Adobe Illustrator 24.2.3, SVG Export Plug-In . SVG Version: 6.00 Build 0)  -->
<svg version="1.1" id="mdi-credit-card" xmlns="http://www.w3.org/2000/svg" xmlns:xlink="http://www.w3.org/1999/xlink" x="0px"
	 y="0px" viewBox="0 0 24 24" style="enable-background:new 0 0 24 24;" xml:space="preserve">
<path d="M12.6,9.7c-0.2,0-1,0-1,0v1.6c0,0,0.8,0,1,0s0.4-0.1,0.6-0.2c0.3-0.2,0.4-0.9,0-1.2C13,9.8,12.8,9.7,12.6,9.7z M14.8,12.4
	c-0.1,0.1-0.2,0.3-0.2,0.4c0,0.2,0.1,0.3,0.2,0.4c0.1,0.1,0.3,0.2,0.5,0.2s0.5-0.1,0.7-0.3c0.2-0.2,0.3-0.4,0.3-0.7
	c-0.2-0.1-0.4-0.2-0.8-0.2C15.3,12.2,15,12.3,14.8,12.4z M20,4H4C2.9,4,2,4.9,2,6v12c0,1.1,0.9,2,2,2h16c1.1,0,2-0.9,2-2V6
	C22,4.9,21.1,4,20,4z M8.4,13.5c-0.4,0.4-1,0.6-1.8,0.6c-1,0-1.9-0.6-2.4-1.5l0,0c-0.4-0.8-0.4-1.6,0-2.4c0.4-0.9,1.4-1.5,2.4-1.5
	c0.7,0,1.3,0.2,1.8,0.7l-0.8,0.8C7.4,10,7,9.8,6.6,9.8c-0.7,0-1.3,0.5-1.5,1.1l0,0c-0.1,0.3-0.1,0.7,0,1C5.3,12.5,5.9,13,6.6,13
	c0.4,0,0.7-0.1,1-0.3C7.8,12.6,8,12.3,8.1,12H6.6v-1h2.5c0,0.2,0,0.4,0,0.5C9.1,12.3,8.9,13,8.4,13.5z M13.6,11.5
	c-0.3,0.3-0.6,0.4-1,0.4h-1v1.9H11V9.2h1.6c0.4,0,0.7,0.1,1,0.4C14.1,10.1,14.1,10.9,13.6,11.5L13.6,11.5z M16.8,13.8h-0.6v-0.4l0,0
	c-0.2,0.4-0.6,0.5-1,0.5c-0.3,0-0.6-0.1-0.9-0.3c-0.2-0.2-0.4-0.5-0.3-0.9c0-0.3,0.1-0.5,0.4-0.7c0.2-0.2,0.6-0.3,1-0.3
	s0.6,0.1,0.9,0.2v-0.1c0-0.2-0.1-0.4-0.2-0.5c-0.2-0.1-0.4-0.2-0.6-0.2c-0.3,0-0.6,0.1-0.8,0.4l-0.5-0.3c0.3-0.4,0.7-0.6,1.3-0.6
	c0.4,0,0.7,0.1,1,0.4s0.4,0.6,0.4,1L16.8,13.8L16.8,13.8z M18.4,12.7l0.8-2.1H20l-2,4.6h-0.6l0.7-1.6l-1.3-3h0.7L18.4,12.7z"/>
</svg>
