<?xml version="1.0" encoding="utf-8"?>
<!-- Generator: Adobe Illustrator 24.3.0, SVG Export Plug-In . SVG Version: 6.00 Build 0)  -->
<svg version="1.1" id="mdi-credit-card" xmlns="http://www.w3.org/2000/svg" xmlns:xlink="http://www.w3.org/1999/xlink" x="0px"
	 y="0px" viewBox="0 0 24 24" style="enable-background:new 0 0 24 24;" xml:space="preserve">
<path d="M13.8,13c0,0.3,0.3,0.5,0.7,0.5c0.5,0,0.9-0.4,0.9-0.8c0-0.1,0-0.3,0-0.3s-0.7,0.1-0.9,0.1C14.1,12.5,13.8,12.7,13.8,13z
	 M11,9.6h-0.9v2H11c0.7,0,1.1-0.4,1.1-1S11.7,9.6,11,9.6z M20,4H4C2.9,4,2,4.9,2,6v12c0,1.1,0.9,2,2,2h16c1.1,0,2-0.9,2-2V6
	C22,4.9,21.1,4,20,4z M6.5,9C6.7,8.8,7,8.6,7.3,8.6c0,0.3-0.1,0.6-0.3,0.9C6.8,9.7,6.5,9.9,6.2,9.9C6.2,9.6,6.3,9.2,6.5,9z
	 M8.1,13.4c-0.2,0.3-0.5,0.7-0.8,0.7c-0.4,0-0.5-0.2-0.9-0.2s-0.6,0.2-0.9,0.2c-0.4,0-0.6-0.4-0.9-0.7c-0.6-0.7-0.8-1.9-0.3-2.7
	C4.5,10.3,5,10,5.4,10s0.7,0.2,0.9,0.2c0.2,0,0.6-0.3,1-0.3c0.2,0,0.7,0.1,1,0.5c0,0-0.6,0.3-0.6,1c0,0.8,0.7,1.1,0.7,1.1
	C8.4,12.6,8.3,13,8.1,13.4z M11.2,12.3h-1.1V14H9.3V9h1.9c1,0,1.7,0.7,1.7,1.7C12.9,11.6,12.2,12.3,11.2,12.3z M16.2,14h-0.7v-0.6
	l0,0c-0.2,0.4-0.7,0.7-1.2,0.7c-0.7,0-1.2-0.4-1.2-1.1c0-0.6,0.5-1,1.4-1.1l1-0.1v-0.3c0-0.4-0.3-0.7-0.7-0.7S14.1,11,14,11.3h-0.7
	c0-0.7,0.6-1.2,1.5-1.2s1.5,0.5,1.5,1.2L16.2,14L16.2,14z M18.6,14.2c-0.3,0.9-0.7,1.2-1.4,1.2c-0.1,0-0.3,0-0.3,0v-0.6
	c0.1,0,0.2,0,0.2,0c0.3,0,0.5-0.1,0.7-0.5l0.1-0.2l-1.3-3.7h0.8l0.9,3l0,0l0.9-3H20L18.6,14.2z"/>
</svg>
