<?xml version="1.0" encoding="utf-8"?>
<!-- Generator: Adobe Illustrator 24.2.3, SVG Export Plug-In . SVG Version: 6.00 Build 0)  -->
<svg version="1.1" id="mdi-credit-card-outline" xmlns="http://www.w3.org/2000/svg" xmlns:xlink="http://www.w3.org/1999/xlink"
	 x="0px" y="0px" viewBox="0 0 24 24" style="enable-background:new 0 0 24 24;" xml:space="preserve">
<path d="M20,19H4c-0.6,0-1-0.4-1-1V6c0-0.6,0.4-1,1-1h16c0.6,0,1,0.4,1,1v12C21,18.6,20.6,19,20,19z M20,4H4C2.9,4,2,4.9,2,6v12
	c0,1.1,0.9,2,2,2h16c1.1,0,2-0.9,2-2V6C22,4.9,21.1,4,20,4z M11.6,13.8H11V9.2h1.6c0.4,0,0.7,0.1,1,0.4c0.5,0.5,0.6,1.3,0.2,1.8
	c-0.1,0.1-0.1,0.1-0.2,0.2C13.3,11.9,13,12,12.6,12h-1V13.8z M11.6,9.7v1.6c0,0,0.8,0,1,0c0.2,0,0.4-0.1,0.6-0.2
	c0.3-0.2,0.4-0.9,0-1.2c-0.2-0.1-0.4-0.2-0.6-0.2C12.4,9.7,11.6,9.7,11.6,9.7z M15.3,10.5c0.4,0,0.7,0.1,1,0.4s0.4,0.6,0.4,1
	c0,0.5,0,2,0,2h-0.6v-0.4l0,0c-0.2,0.4-0.6,0.5-1,0.5c-0.3,0-0.6-0.1-0.9-0.3c-0.2-0.2-0.4-0.5-0.3-0.8c0-0.3,0.1-0.6,0.4-0.8
	c0.2-0.2,0.6-0.3,1-0.3s0.6,0.1,0.9,0.2v-0.1c0-0.2-0.1-0.4-0.2-0.5c-0.2-0.1-0.4-0.2-0.6-0.2c-0.3,0-0.6,0.1-0.8,0.4l-0.5-0.3
	C14.4,10.7,14.8,10.5,15.3,10.5z M14.6,12.8c0,0.2,0.1,0.3,0.2,0.4c0.1,0.1,0.3,0.2,0.5,0.2s0.5-0.1,0.7-0.3
	c0.2-0.2,0.3-0.4,0.3-0.7c-0.2-0.1-0.4-0.2-0.8-0.2c-0.2,0-0.4,0.1-0.6,0.2C14.7,12.5,14.6,12.7,14.6,12.8z M18.4,12.7l0.8-2.1H20
	l-2,4.6h-0.6l0.7-1.6l-1.3-3h0.7L18.4,12.7z M9.1,11H6.6v1H8c-0.1,0.3-0.2,0.6-0.5,0.8C7.3,13,7,13.1,6.6,13.1
	c-0.7,0-1.3-0.5-1.5-1.1c-0.1-0.3-0.1-0.7,0-1l0,0C5.4,10.3,6,9.8,6.6,9.8c0.4,0,0.7,0.1,1,0.4l0.8-0.8C7.9,9,7.3,8.8,6.6,8.8
	c-1,0-1.9,0.6-2.4,1.5c-0.4,0.8-0.4,1.6,0,2.4l0,0c0.4,0.9,1.4,1.5,2.4,1.5c0.7,0,1.3-0.2,1.8-0.6c0.5-0.5,0.8-1.2,0.8-2
	C9.2,11.3,9.2,11.2,9.1,11z"/>
</svg>
