<?xml version="1.0" encoding="utf-8"?>
<!-- Generator: Adobe Illustrator 19.2.1, SVG Export Plug-In . SVG Version: 6.00 Build 0)  -->
<svg version="1.1" id="Layer_1" xmlns="http://www.w3.org/2000/svg" xmlns:xlink="http://www.w3.org/1999/xlink" x="0px" y="0px"
	 viewBox="0 0 24 24" style="enable-background:new 0 0 24 24;" xml:space="preserve">
<path d="M8,5c1.7,0,3,1.3,3,3c0,1.7-1.3,3-3,3S5,9.7,5,8C5,6.3,6.3,5,8,5z M16,5c1.7,0,3,1.3,3,3c0,1.7-1.3,3-3,3c-1.7,0-3-1.3-3-3
	C13,6.3,14.3,5,16,5z M8,13c3.9,0,7,1.3,7,3v3H1v-3C1,14.3,4.1,13,8,13z M16,13c3.9,0,7,1.3,7,3v3h-6v-3c0-1.1-0.7-2.1-1.8-3L16,13z
	"/>
</svg>
