<svg xmlns="http://www.w3.org/2000/svg" viewBox="0 0 24 24"><path d="M6.6,10.8a15.57,15.57,0,0,0,6.6,6.6l2.2-2.2a.8.8,0,0,1,1-.2,10.46,10.46,0,0,0,3.6.6.94.94,0,0,1,1,1V20a.94.94,0,0,1-1,1A17,17,0,0,1,3,4,.94.94,0,0,1,4,3H7.5a.94.94,0,0,1,1,1,11.33,11.33,0,0,0,.6,3.6,1.23,1.23,0,0,1-.2,1ZM20,7.5h-.9a5.16,5.16,0,0,1-.2,1.1l.6.6A2.79,2.79,0,0,0,20,7.5Zm-2,.1h0V4.5A1.42,1.42,0,0,0,16.5,3,1.42,1.42,0,0,0,15,4.5v.1ZM16.8,8.9l.9.8a2.34,2.34,0,0,1-1.1.2,2.67,2.67,0,0,1-2.7-2.6H13a3.35,3.35,0,0,0,3,3.3v1.7h1V10.7a4.23,4.23,0,0,0,1.2-.4l2.1,2.1.6-.6L17.4,8.3Zm.7-.5L12.6,3.5l-.6.7,3,3v.3A1.47,1.47,0,0,0,16.5,9a.37.37,0,0,0,.3-.1Z"/></svg>