<?xml version="1.0" encoding="utf-8"?>
<!-- Generator: Adobe Illustrator 21.0.0, SVG Export Plug-In . SVG Version: 6.00 Build 0)  -->
<svg version="1.1" id="Layer_1" xmlns="http://www.w3.org/2000/svg" xmlns:xlink="http://www.w3.org/1999/xlink" x="0px" y="0px"
	 viewBox="0 0 24 24" style="enable-background:new 0 0 24 24;" xml:space="preserve">
<path d="M19,16h-4v-2l4,0V16z M19,20h-4v-2h4V20z M9,8H7V6h2V8z M9,12H7v-2h2V12z M9,16H7v-2h2V16z M9,20H7v-2h2V20z M13,12.5V20h-2
	V4.5h-1V2.7H6v1.7H5V20H3v2h18v-9.5h-1c0,0-0.5-2.2-3-2.2s-3,2.2-3,2.2H13z"/>
</svg>
