<?xml version="1.0" encoding="utf-8"?>
<!-- Generator: Adobe Illustrator 20.1.0, SVG Export Plug-In . SVG Version: 6.00 Build 0)  -->
<svg version="1.1" id="Layer_1" xmlns="http://www.w3.org/2000/svg" xmlns:xlink="http://www.w3.org/1999/xlink" x="0px" y="0px"
	 viewBox="0 0 24 24" style="enable-background:new 0 0 24 24;" xml:space="preserve">
<path d="M17.4,4.6l3-3.6h-10L8,3.8C3,6,0.6,12,2.8,17S11,24.4,16,22.2s7.3-8.3,5.1-13.3C20.3,7.1,19.1,5.7,17.4,4.6z
	 M2.3,1l2.8,3.4c0.7-0.5,1.4-1,2.2-1.4L9,1H2.3z M12,21l-5-3L12,21l5-3L12,21z M13.3,18h-1.7v-8l-2.4,1V9.5L13,8.1h0.3V18z"/>
</svg>
