<?xml version="1.0" encoding="utf-8"?>
<!-- Generator: Adobe Illustrator 20.1.0, SVG Export Plug-In . SVG Version: 6.00 Build 0)  -->
<svg version="1.1" id="Layer_1" xmlns="http://www.w3.org/2000/svg" xmlns:xlink="http://www.w3.org/1999/xlink" x="0px" y="0px"
	 viewBox="0 0 24 24" style="enable-background:new 0 0 24 24;" xml:space="preserve">
<path d="M17.4,4.6l3-3.6h-10L8,3.8C3,6,0.6,12,2.8,17S11,24.4,16,22.2s7.3-8.3,5.1-13.3C20.3,7.1,19.1,5.7,17.4,4.6z
	 M2.3,1l2.8,3.4c0.7-0.5,1.4-1,2.2-1.4L9,1H2.3z M12,21l-5-3L12,21l5-3L12,21z M10.2,11.2H8.6c0-2.4,2-3.2,3.4-3.2
	c1,0,2.5,0.5,2.9,1.6c0.3,0.7,0.3,1.4,0.1,2.1c-0.1,0.4-0.5,1.1-1.3,2.1l-2.7,3h4.6v1.3H8.8V17l3.2-3.6c0.8-0.9,1.4-1.6,1.4-2.4
	c0-1.2-0.9-1.7-1.5-1.7C10.7,9.3,10.2,10.2,10.2,11.2z"/>
</svg>
