<?xml version="1.0" encoding="utf-8"?>
<!-- Generator: Adobe Illustrator 20.1.0, SVG Export Plug-In . SVG Version: 6.00 Build 0)  -->
<svg version="1.1" id="Layer_1" xmlns="http://www.w3.org/2000/svg" xmlns:xlink="http://www.w3.org/1999/xlink" x="0px" y="0px"
	 viewBox="0 0 24 24" style="enable-background:new 0 0 24 24;" xml:space="preserve">
<path d="M17.4,4.6l3-3.6h-10L8,3.8C3,6,0.6,12,2.8,17S11,24.4,16,22.2s7.3-8.3,5.1-13.3C20.3,7.1,19.1,5.7,17.4,4.6z
	 M2.3,1l2.8,3.4c0.7-0.5,1.4-1,2.2-1.4L9,1H2.3z M12,21l-5-3L12,21l5-3L12,21z M10.3,10.7H8.7c0-1.8,1.5-2.7,3.1-2.7
	c0.8,0,2.4,0.2,3,1.6C15,10,15,10.5,15,10.8c0,0.7-0.3,1.6-1.5,2.2c0.5,0.1,1.7,0.8,1.7,2.3c0,1.1-0.6,2.3-2.1,2.8
	c-0.8,0.3-1.7,0.3-2.5,0c-1.1-0.3-2-1.3-2-2.7h1.6c0,0.7,0.5,1.5,1.7,1.5c0.6,0,1.6-0.3,1.6-1.6c0-1.3-0.8-1.6-1.8-1.6h-1v-1.3h1
	c1.2,0,1.7-0.6,1.7-1.5c0-1.1-0.6-1.5-1.5-1.5C10.8,9.4,10.3,9.9,10.3,10.7z"/>
</svg>
