<?xml version="1.0" encoding="utf-8"?>
<!-- Generator: Adobe Illustrator 20.1.0, SVG Export Plug-In . SVG Version: 6.00 Build 0)  -->
<svg version="1.1" id="Layer_1" xmlns="http://www.w3.org/2000/svg" xmlns:xlink="http://www.w3.org/1999/xlink" x="0px" y="0px"
	 viewBox="0 0 24 24" style="enable-background:new 0 0 24 24;" xml:space="preserve">
<path d="M17.4,4.6l3-3.6h-10L8,3.8C3,6,0.6,12,2.8,17S11,24.4,16,22.2s7.3-8.3,5.1-13.3C20.3,7.1,19.1,5.7,17.4,4.6z
	 M2.3,1l2.8,3.4c0.7-0.5,1.4-1,2.2-1.4L9,1H2.3z M12,21l-5-3L12,21l5-3L12,21z M12.8,17.3c0,0.6-0.4,1-1,1s-1-0.4-1-1s0.4-1,1-1
	C12.4,16.3,12.8,16.7,12.8,17.3z M12.7,14.2c0,0.1-0.1,0.6-0.1,1H11c0-0.3,0-0.6,0-0.9c0.1-0.8,0.6-1.4,1.1-1.8
	c0.2-0.2,1.1-0.9,1.1-1.8c0-0.9-0.5-1.3-1.2-1.3c-0.6,0-1.3,0.3-1.3,1.2H9C9,9,10.2,8,12,8c1.9,0,2.9,1,2.9,2.7c0,1-0.5,1.6-1.1,2.2
	C13.3,13.4,12.8,13.8,12.7,14.2z"/>
</svg>
