<?xml version="1.0" encoding="utf-8"?>
<!-- Generator: Adobe Illustrator 24.1.2, SVG Export Plug-In . SVG Version: 6.00 Build 0)  -->
<svg version="1.1" id="mdi-send-clock" xmlns="http://www.w3.org/2000/svg" xmlns:xlink="http://www.w3.org/1999/xlink" x="0px"
	 y="0px" viewBox="0 0 24 24" style="enable-background:new 0 0 24 24;" xml:space="preserve">
<path d="M2,3v7l9,2l-9,2v7l7.3-3.1c0.8,3,3.6,5.1,6.7,5.1c3.9,0,7-3.1,7-7s-3.1-7-7-7L2,3 M16,11c2.8,0,5,2.2,5,5s-2.2,5-5,5
	s-5-2.2-5-5S13.2,11,16,11 M15,12.5v4l3,2l0.8-1.2l-2.2-1.5v-3.2H15z"/>
</svg>
