<?xml version="1.0" encoding="utf-8"?>
<!-- Generator: Adobe Illustrator 22.1.0, SVG Export Plug-In . SVG Version: 6.00 Build 0)  -->
<svg version="1.1" id="Layer_1" xmlns="http://www.w3.org/2000/svg" xmlns:xlink="http://www.w3.org/1999/xlink" x="0px" y="0px"
	 viewBox="0 0 24 24" style="enable-background:new 0 0 24 24;" xml:space="preserve">
<path d="M4,3h16c1.1,0,2,0.9,2,2v15c0,1.1-0.9,2-2,2H4c-1.1,0-2-0.9-2-2L2,5C2,3.9,2.9,3,4,3z M4,7l0,3h4V7L4,7z M10,7l0,3h4V7H10z
	 M20,10V7l-4,0v3H20z M4,12v3h4v-3H4z M4,20h4v-3H4L4,20z M10,12v3h4v-3H10z M10,20h4v-3h-4V20z M20,20v-3h-4v3H20z M20,12h-4v3h4
	V12z"/>
</svg>
