<?xml version="1.0" encoding="utf-8"?>
<!-- Generator: Adobe Illustrator 21.1.0, SVG Export Plug-In . SVG Version: 6.00 Build 0)  -->
<svg version="1.1" id="Layer_1" xmlns="http://www.w3.org/2000/svg" xmlns:xlink="http://www.w3.org/1999/xlink" x="0px" y="0px"
	 viewBox="0 0 24 24" style="enable-background:new 0 0 24 24;" xml:space="preserve">
<path d="M6,6.6v5.2h1.8V8.1l2.1-0.6L6,22.8h1.8l2.8-8.1l2.4,3.1v5h1.8v-6.4l-2.5-4.6L13,9l1.1,1.8H19V9h-3.6l-2-3.4
	c-0.3-0.5-0.8-0.9-1.4-0.8C10.1,5.3,6,6.6,6,6.6z M14,4.6c1,0,1.8-0.8,1.8-1.8C15.8,1.8,15,1,14,1c-1,0-1.8,0.8-1.8,1.8
	C12.2,3.8,13,4.6,14,4.6z"/>
</svg>
