<?xml version="1.0" encoding="UTF-8"?>
<svg xmlns="http://www.w3.org/2000/svg" xmlns:xlink="http://www.w3.org/1999/xlink" width="24pt" height="24pt" viewBox="0 0 24 24" version="1.1">
<g id="surface1">
<path style=" stroke:none;fill-rule:nonzero;fill:rgb(96.078431%,96.078431%,96.078431%);fill-opacity:1;" d="M 20.289062 20.289062 C 22.378906 18.238281 23.734375 15.289062 23.765625 12.035156 C 23.820312 5.53125 18.542969 0.160156 12.035156 0.101562 C 5.53125 0.046875 0.160156 5.324219 0.101562 11.832031 C 0.0546875 17.300781 3.710938 21.917969 8.875 23.292969 L 8.902344 20.1875 C 5.511719 18.976562 3.027344 15.703125 3.0625 11.855469 C 3.101562 6.976562 7.132812 3.019531 12.011719 3.0625 C 16.890625 3.101562 20.847656 7.132812 20.808594 12.011719 C 20.785156 14.523438 19.730469 16.585938 18.089844 18.199219 L 13.398438 13.425781 L 13.308594 23.777344 L 23.660156 23.867188 Z M 20.289062 20.289062 "/>
</g>
</svg>
