<?xml version="1.0" encoding="UTF-8"?>
<svg width="229px" height="250px" viewBox="0 0 229 250" version="1.1" xmlns="http://www.w3.org/2000/svg" xmlns:xlink="http://www.w3.org/1999/xlink">
    <g id="Comms-Panel-V3">
        <path fill="#EEEEEE" d="M219.8,216.9l-0.2,0.4c-2.3,3.6-4.6,7-6.8,10.1l-1.1,1.5c-0.9,1.2-1.9,2.4-3,3.4c-1.8,1.7-3.9,3-6.2,4
  c-0.7,0.3-1.3,0.5-2,0.7l-48,13.2c0.2-0.4,0.5-0.9,0.6-1.3c0.4-1,0.7-2.1,0.8-3.1c0.3-2.9,0-5.8-1-8.5c-0.2-0.6-0.8-1.9-1.2-2.8
  c0,0,25.6-6.4,34.1-8.6S219.8,216.9,219.8,216.9z"/>
<path fill="#D3D3D3" d="M18.2,228c1.9,0.5,6.2,0.3,8,0.3c5,0,10,0.4,14.9,1.2c3.6,0.8,4.4,1.3,14.4,8c8.2,5.5,13.6,7.9,19.7,7.9
  c5.7,0,9-1.9,12-5.7c0.5-0.7,2.2-3.1,2.6-3.5c1.6-2.1,3-3,5-3c2.3,0,4.1,1,6.4,2.9c0.4,0.4,1.6,1.4,1.8,1.6c3,2.5,4.9,3.6,7.8,4
  s5.1-0.1,8.9-1.6c4.4-1.6,7.4-2.6,10.9-2.2c4.7,0.5,8.5,3.4,11.6,7.1c1.5,2.2,2.9,4.5,4.1,6.9h0.1c1,0.4,2.2,0.2,3.1-0.3
  c1.2-0.8,2.1-2,2.5-3.4c0.4-0.9,0.6-1.9,0.7-2.9c0.3-2.7-0.1-5.4-1-8c-0.4-1-1.6-3.9-1.6-3.9l34.4-8.7c0-1-0.2-2.1-0.5-3.1
  c-0.7-2.1-1.9-3.3-4-3.4s-7.5,0.7-14.9,2.2l-3.4,0.7c-3,0.6-10.4,2.4-13.3,3.1c-1.1-0.8-4-2.9-5.1-3.6c-1.3-0.8-2.7-1.5-4.1-2.1
  c-1.3-0.6-2.6-1-4.1-1.1c-1.5,0-2.9,0.4-4.2,1.1c-1.4,0.7-4.3,2.2-5.7,2.9c-5.6,2.9-9.9,4.3-14.8,4.3s-8.2-1.5-12.1-4.9l-1.8-1.6
  c-2.4-2.1-3.8-2.8-6-2.8h-5.5"/>
<path fill="#EEEEEE" d="M78.8,201.3c-5.4,5.8,9.1,14,9.1,14l-69.5,11.6c0,0-11.6-8-11.6-21s13.7-15.6,20.3-17.1
  c8.2-1.8,18.9-2.1,21.5-25.8S16.8,80.5,11.8,57.2c-3.6-16.6-2-30.2,0-37.5c1.1-4.1,5.6-15.5,11.5-15.4c0.3,0,0.6,0,0.8,0.1l58.2,0.3
  c1.3-0.8,2.8-1.3,4.3-1.5c2.8-0.5,5.6,0.5,7.4,2.7c5,5.8,8.5,12.6,10.5,20c-3.3-1.4-6.6-2.6-10.1-3.5l-3.1-0.8
  c-3.2,2.2-13.9,11.2-12.4,26.7c1.7,18,19.9,78.7,29.8,98.1C127.8,184.4,84.6,195.2,78.8,201.3z"/>
<path fill="#CCCCCC" d="M27.1,4c1,0.9,1.9,1.9,2.7,3c1.1,1.3,0.3,3.4,0.3,3.4c12.5-1.1,25.1-1.2,37.6-0.3c12.2,1,24,4.1,35.1,9.2
  c0,0-1.8-8.1-7.8-13.6C91.8,2.6,86.9,1.9,83,4H27.1z"/>
<path fill="#90A4AE" d="M149.3,253c12.8-4,51.6-14.1,51.6-14.1c0.8-0.2,1.5-0.5,2.3-0.8c2.5-1.1,4.8-2.5,6.8-4.4
  c1.2-1.1,2.3-2.4,3.3-3.7l1.1-1.5c2.2-3.1,4.5-6.5,6.8-10.1c0.6-0.9,1.1-1.7,1.6-2.5l1.3-2.1l-38.5,9.9c-0.1-0.7-0.2-1.4-0.4-2.1
  c-0.8-2.6-2.5-4-4.9-4.1c-2.2-0.1-7.3,0.6-15.1,2.2l-3.5,0.7c-2.9,0.6-10,2.3-12.9,3c-1.3-1-3.7-2.7-4.8-3.4
  c-1.3-0.8-2.8-1.6-4.2-2.2c-1.4-0.6-2.9-1-4.4-1.2c-1.6,0-3.2,0.5-4.6,1.2c-1.1,0.5-3.1,1.6-4.6,2.3l-1.1,0.6
  c-5.7,3-9.9,4.2-14.4,4.2s-7.5-1.2-11.4-4.7l-0.4-0.4l-1.4-1.2c-1.2-1-2.4-1.9-3.8-2.5c-1.2-0.6-4.8-2.7-4.8-2.7
  c-3.3-1.9-8.8-6-9.2-9c-0.1-0.7,0.1-1.4,0.6-1.9c0.9-1,3.7-2.5,6.7-4.1c7-3.7,16.6-8.8,22.7-17.1c7.4-10,7.7-22.2,0.7-36
  c-9.6-19-27.8-79.1-29.5-97.4c-1.6-16.6,9.3-23.2,9.4-23.3l1.7-1c5.7,1.1,13.5,4.6,13.5,4.6l1.6,0.8l-0.2-1.8
  c-0.1-0.5-1.6-11.3-11.3-22.8c-5-6-12.3-2.7-13.8-2L23.3,2.3C14.5,2.3,9.9,19,9.8,19.2c-1.1,4-4.3,18.6,0,38.4
  c2,9.3,8.5,24,15.4,39.7c10.7,24.2,22.8,51.7,21.3,65.6c-2.2,20.4-10.2,22-18,23.6l-2.5,0.5c-6.9,1.5-21.2,4.7-21.2,18.9
  c0,13.9,11.8,22.2,13.1,23.1l0,0c2.2,0.4,4.4,0.5,6.6,0.4c0.6,0,1.2,0,1.6,0c4.9,0,9.8,0.4,14.7,1.2c3.4,0.7,4.1,1.1,14.1,7.8
  c8.9,6,14.2,8.1,20.3,8.1c5.7,0,9.4-1.8,12.8-6.1c0.3-0.4,1-1.4,1.6-2.2c0.4-0.6,0.8-1.1,0.9-1.3c1.5-1.9,2.6-2.6,4.2-2.6
  c1.9,0,3.5,0.8,5.8,2.7c0.3,0.2,0.9,0.7,1.3,1.1l0.5,0.4c2.9,2.4,5.1,3.8,8.3,4.2s5.7-0.2,9.4-1.6c4.2-1.6,7.1-2.5,10.5-2.1
  c4,0.4,7.7,2.7,11,6.8c1.5,2.1,2.8,4.4,4,6.7l0.2,0.4l0.6,0.2c0.5,0.2,1,0.2,1.6,0.2C148.3,253.2,148.8,253.2,149.3,253z M82.2,4.7
  c1.3-0.8,2.8-1.3,4.3-1.5c2.8-0.5,5.6,0.5,7.4,2.7c5,5.8,8.5,12.6,10.5,20c-3.3-1.4-6.6-2.6-10.1-3.5l-4.7-1.2
  c-1.3-0.3-32.5-7.8-46.2-7.9h-0.2c-5,0-9.9,0.8-14.6,2.4c1.3-1.7,2.1-3.8,2.3-5.9c0.1-2.1-0.8-4.1-2.5-5.4L82.2,4.7z M18.4,226.9
  c0,0-11.6-8-11.6-21s13.7-15.6,20.3-17.1c8.2-1.8,18.9-2.1,21.5-25.8S16.8,80.5,11.8,57.2c-3.6-16.6-2-30.2,0-37.5
  c1.1-4.1,5.6-15.5,11.5-15.4c1.5,0,2.8,0.6,3.9,1.7c6.6,5.7-7.9,16.3-7.9,16.3c7.2-4.5,15.5-6.9,24-7h0.2
  c13.7,0.1,45.8,7.8,45.8,7.8s-12,7.1-10.3,25.1s19.9,78.7,29.7,98.1c19.2,38-24,48.8-29.8,54.9c-5.4,5.8,9.1,14,9.1,14L18.4,226.9z
   M147,251.2c-1.2-2.3-2.5-4.6-4-6.7c-3.6-4.5-7.8-7-12.3-7.5c-3.8-0.4-7,0.6-11.4,2.2c-3.9,1.4-5.8,1.8-8.5,1.5
  c-2.5-0.3-4.2-1.2-7.3-3.7l-0.5-0.4l-1.3-1.1c-2.2-1.9-4.3-3.1-7-3.2c-2.2,0-3.9,0.9-5.8,3.4l-1,1.4c-0.6,0.8-1.3,1.8-1.6,2.1
  c-3,3.8-6.2,5.3-11.2,5.3c-5.6,0-10.7-2-19.2-7.7c-10-6.7-10.9-7.3-14.8-8.1c-4.6-0.8-9.2-1.2-13.8-1.2c0,0,57.3-10.1,59.7-10.1
  c1.2,0,2.4,0,3.6,0.1c2,0.5,3.9,1.5,5.3,2.9l1.4,1.2l0.4,0.4c3.7,3.1,7.1,5.1,12.8,5.1c4.8,0,9.3-1.3,15.3-4.4l1.1-0.6
  c1.4-0.8,3.4-1.8,4.5-2.3c1.1-0.6,2.4-1,3.7-1.1c1.3,0.1,2.5,0.5,3.7,1c1.4,0.6,2.7,1.3,3.9,2c1.1,0.7,3.8,2.6,4.9,3.4l0.6,0.4
  l0.4-0.1c2.5-0.6,10.2-2.4,13.3-3.1l3.4-0.7c9.6-2,13.2-2.3,14.6-2.2c1.6,0.1,2.5,0.9,3.1,2.7c0.2,0.7,0.3,1.3,0.4,2l-34.8,8.8
  l0.5,1.1c0,0,1.2,2.9,1.6,3.8c0.9,2.4,1.2,5,0.9,7.6c-0.1,0.9-0.3,1.8-0.6,2.6c-0.4,1.2-1.1,2.2-2.1,2.9
  C148.5,251.3,147.7,251.4,147,251.2z M219.8,216.9l-0.2,0.4c-2.3,3.6-4.6,7-6.8,10.1l-1.1,1.5c-0.9,1.2-1.9,2.4-3,3.4
  c-1.8,1.7-3.9,3-6.2,4c-0.7,0.3-1.3,0.5-2,0.7l-48,13.2c0.2-0.4,0.5-0.9,0.6-1.3c0.4-1,0.7-2.1,0.8-3.1c0.3-2.9,0-5.8-1-8.5
  c-0.2-0.6-0.8-1.9-1.2-2.8c0,0,25.6-6.4,34.1-8.6S219.8,216.9,219.8,216.9L219.8,216.9z"/>
<path fill="#B2B2B2" d="M138.1,237.3c7.5,6.4,9.9,16.1,11.3,9.9s-0.8-14.7-11.3-23.4c-1.1-0.9-1.8-1.9-3.6-1.6
  c-1.5,0.3-6.5,5.7-10.6,7.3s-18.2,6.3-17,7.7C112.6,243.7,130.6,231,138.1,237.3z"/>
<path fill="#90CAF9" d="M133.9,163.5c0,0,3.2-27.5,5.7-37.5c1.5-6.5,1.8-13.2,1.1-19.8c3.1,0.7,6.4,0.5,9.4-0.5
  c3.7-1.4,7.1-3.4,10.1-5.9c0,0,7.2,7.3,10.9,15.2c2.3,5.3,3.8,10.9,4.2,16.7c0.2,5.8-0.2,11.6-1.3,17.3c-1.2,5.5-3,10.9-5.4,16
  L133.9,163.5z"/>
<path fill="#7AB5DD" d="M135.1,163l-0.8-4.4c0,0,21.4,4.9,30.5-2.4s8.9-26.1,8.9-26.1c0.4,5.9,0.2,11.7-0.6,17.6
  c-1.1,5.7-2.9,11.2-5.3,16.4c0,0,1.9,0.9-9.9,0S135.1,163,135.1,163z"/>
<path fill="#F5F5F5" d="M168.2,165.2c0,0,2.7,3.1,1.4,10.8c-0.7,4.5-3.3,8.5-7.1,11l-3.5,34c0,0-0.6,5-2.7,5s-2.1-5-2.1-5l-1.8-37.3
  l8.9-19L168.2,165.2z"/>
<path fill="#F5F5F5" d="M163.1,165.3c0,0,5.5,1.2,3.7,9.6c-1,4.8-4.5,8.8-9.2,10.3l-6.7,42.1c0,0-1.7,10-5.9,10s-5-12.5-5-12.5l-3.7-39
  l-1.7-21.6L163.1,165.3z"/>
<path fill="#607D8B" d="M175.6,131.7c-0.5-5.9-2.1-11.6-4.6-17c-3.9-7.9-11.1-14.9-11.4-15.2l-0.7-0.7l-0.7,0.6c-1.5,1.2-3,2.4-4.7,3.4
  l-0.2-0.8c-3,1.8-6.5,2.9-10,3c-5.7,0.2-9-1.6-12.4-6.9s-3.7-11.2-2.4-17.2c1.2-6,2.5-6.2,4.5-8s5.6,4.1,9.9,3.2
  c0.8-0.2,1.5-0.3,2.1-0.5s-0.5,12.1-0.1,12c3.6-1,4-13.8,4-13.8l3.7,23.4l2.1,0.7l-4-26.5c0,0-2.1-9.6-8.2-11.6
  c-6-1.9-12.4,4.9-17.2,1.8s6.9,8.3,5.9,9.8c-1.8,2.6-3.6,4-4.4,9s-1.9,12.2,2.5,18.9c1.9,3,4.8,5.2,8.1,6.3l1.3,1.9
  c0.2,0.3,5.1,7.4-0.1,18.4s-5.1,33.2-5,37.2h-0.2l1.8,22.8l3.7,39c0.1,2.2,1.2,13.4,6,13.4s6.7-9.8,6.9-10.9l1.2-7.8l0.1,1.4
  c0,1,0.1,6,3.1,6s3.6-4.9,3.7-5.9l3.4-33.6c3.8-2.7,6.4-6.8,7.1-11.4c1-6-0.2-9.4-1-10.8c2.3-5.2,4-10.6,5.1-16.1
  C175.6,143.4,175.9,137.6,175.6,131.7z M135.6,165.2l13.9,0.6c-4.6,7.8-12.2,14-12.7,14.4L135.6,165.2z M149.8,227.2
  c-0.5,3-2.4,9.2-4.9,9.2c-2.2,0-3.7-6.9-4.1-11.6l-3.7-39l-0.4-5.1c0.1,0.5,0.5,1.1,1.6,0.3c1.4-1,9.3-7.2,14-15l10.5,0.4
  c0.6,0.2,4.4,1.6,2.9,8.4c-0.9,4.5-4.1,8.1-8.5,9.6l-0.6,0.2L149.8,227.2z M168.6,175.9c-0.7,4.2-3.1,7.9-6.6,10.3l-0.4,0.3
  l-3.6,34.5c-0.2,1.9-1,4.1-1.7,4.1s-1.1-2.2-1.1-4.1l-0.5-11l3.9-24.1c4.8-1.8,8.3-5.9,9.3-10.9c1-4.8-0.2-7.5-1.6-9l1.5,0.1
  C168.2,167.1,169.6,170.1,168.6,175.9L168.6,175.9z M172.7,148.9c-1,5.2-2.6,10.3-4.8,15.2l-14.3-0.6c0.4-0.8,0.7-1.6,1-2.4
  c4-9.3,4-37.5,4-37.5h-3.3c0,0,0.2,27.4-3.7,37.5c-0.3,0.8-0.6,1.5-1,2.2l-15.1-0.7c0-4.7,0.1-25.9,4.9-36
  c4.1-8.8,2.3-15.5,0.9-18.5c2.7,0.2,5.4-0.1,7.9-1c3.5-1.4,6.7-3.3,9.6-5.6c1.8,1.9,7.3,7.8,10.4,14.1c2.4,5.1,3.8,10.6,4.4,16.3
  C173.8,137.6,173.5,143.3,172.7,148.9L172.7,148.9z"/>
<path id="_x3C_Compound_Path_x3E_" fill="#607D8B" d="M131.4,97.1c0,0,4.1,0.7,7.1-0.5c0.7-0.3,1.3-0.7,1.7-1.3c0.4-0.5,1.2-2,2.1-1.3
  s-0.2,1.9-0.6,2.4c-1.4,1.2-3.2,1.8-5,1.8c-1.4,0.1-2.8,0-4.2-0.5C132.1,97.6,131.7,97.4,131.4,97.1z M130.2,88
  c-0.9,0.1-1.6-1.3-1.7-3.1s0.5-3.2,1.4-3.3s1.6,1.3,1.7,3.1S131.1,87.9,130.2,88z M135.2,89c-0.9,0-1.6-1.4-1.7-3.2s0.6-3.2,1.5-3.2
  s1.6,1.4,1.7,3.1S136,89,135.2,89z"/>
    </g>
</svg>