<svg xmlns="http://www.w3.org/2000/svg" viewBox="0 0 320 176"><path d="M102.87,47.88c3.89,9.08-2.64,15.79-7.28,19.63-6.36,5.25-11.29-4-11-12.48.05-1.25-4.08-7.82-4.39-9.29s2.82-5.46,6.7-8C92.56,34.1,99.52,40.06,102.87,47.88Z" style="fill:#c6c6c6;fill-rule:evenodd"/><path d="M57,165c27.06,0,49-2.69,49-6s-21.94-6-49-6-49,2.69-49,6S29.94,165,57,165Z" style="fill:#424242;fill-rule:evenodd;opacity:0.8;isolation:isolate"/><path d="M220.47,165c52.88,0,95.74-2.69,95.74-6s-42.86-6-95.74-6-95.73,2.69-95.73,6S167.6,165,220.47,165Z" style="fill:#424242;fill-rule:evenodd;opacity:0.8;isolation:isolate"/><path d="M83.58,101.46l-30.2-5.79s-1.42,3.78-.11,6.82c1,2.44,3.73,4.56,4.74,5.29l7.44,22.48L42.37,155.07s-.44,3.73,18.89-8.56c18.87-12,14.92-14.18,18.4-26.7l1.27.51-6.11,37.44s-.27,3.14,1.47,3.23,2.81-3,2.81-3,13.37-34.25,14-41.73S83.58,101.46,83.58,101.46Z" style="fill:#d8d8d8;fill-rule:evenodd"/><path d="M84.75,101.74c.08-.38.13-.61.13-.63l.12-.6H81l-28-5.41-.15.39c-.06.17-1.47,4-.1,7.2,1.06,2.48,3.66,4.58,4.77,5.4l7.31,22L42,154.73l-.11.12,0,.17a.92.92,0,0,0,.46.86,1.71,1.71,0,0,0,.92.22c2.57,0,8.71-3.08,18.28-9.16,15.13-9.62,15.76-13,17.14-20.39.33-1.76.72-3.75,1.34-6.06l.36.14-6.05,37.09a4.91,4.91,0,0,0,.72,3.17,1.67,1.67,0,0,0,1.22.6h.12c2,0,3.08-3,3.19-3.31.55-1.41,13.4-34.41,14-41.88C94.07,109.89,87.24,103.75,84.75,101.74Zm-7.06,24.63c-1.32,7.1-1.93,10.34-16.69,19.72-14,8.87-17.26,9.16-18,9l23-24.71L59,109.06c1.53,1.06,5,3.4,9.41,5.87a110.34,110.34,0,0,0,10.7,5.17C78.42,122.52,78,124.55,77.69,126.37Zm.94,31.47c-.25.71-1.22,2.73-2.31,2.66a.75.75,0,0,1-.52-.26,4,4,0,0,1-.49-2.4L81.49,120l-.38-.15a111.81,111.81,0,0,1-12.25-5.79c-5.87-3.31-10.13-6.38-10.19-6.42s-3.72-2.49-4.94-5.35c-1-2.26-.31-5,0-6.05l29.65,5.69c1,.74,9.73,7.54,9.19,14.3C92,123.55,78.77,157.48,78.63,157.84Zm-8.07-55.37a5.53,5.53,0,0,1-4.14,5.92l-.07-.5-.07-.49a4.55,4.55,0,0,0,3.3-4.72Z" style="fill:#455a64"/><path d="M84.46,100.81s6.5-8.32,9-15.92a38.41,38.41,0,0,0,1.25-15.61A14.14,14.14,0,0,1,88.61,65,28.19,28.19,0,0,1,84.3,57s-7.77,1.83-13.48,5.47a39,39,0,0,0-9.66,9.29,62.77,62.77,0,0,0-6.27,11.89,57.91,57.91,0,0,0-3,12.79Z" style="fill:#83bcdb;fill-rule:evenodd"/><path d="M94.28,69.07a12,12,0,0,1-2.68-1.19A11.5,11.5,0,0,1,89.39,66a51.24,51.24,0,0,1-2.28,17.45c-2.88,8.63-9,16.38-9,16.38l6.3.88s6-5.41,9-16.06S94.28,69.07,94.28,69.07Z" style="fill-rule:evenodd;opacity:0.119999997317791;isolation:isolate"/><path d="M130.27,73.68s-8.15,10.58-27.46,11.93A28,28,0,0,1,94,84.89a38.32,38.32,0,0,0,1.39-14.06c2.36.77,6.57,2,9.3,2a17.91,17.91,0,0,0,9-2.27c4.16-2.57,15.06-12.5,15.06-12.5s.32-1.91-.43-1.26-14.07,11.92-15.9,12.67a20.36,20.36,0,0,1-7.65,1.75A32.23,32.23,0,0,1,95.14,69l0-.15-.3-.09A13.71,13.71,0,0,1,89,64.71a27.61,27.61,0,0,1-4.21-7.91l-.15-.43-.44.1A51.2,51.2,0,0,0,70.55,62a39,39,0,0,0-9.8,9.43,64,64,0,0,0-6.33,12,59.44,59.44,0,0,0-3,12.91l0,.48,33,4.47.28,0,.18-.23c.06-.08,5.84-7.5,8.57-14.71a30.81,30.81,0,0,0,9.5.81c16.24-.95,23.56-8.15,27.54-10.84C131.3,75.79,130.27,73.68,130.27,73.68Zm-46,26.59L52.46,96a57.21,57.21,0,0,1,2.9-12.18A62.65,62.65,0,0,1,61.57,72a38.86,38.86,0,0,1,9.52-9.15A49.41,49.41,0,0,1,84,57.56a27.64,27.64,0,0,0,4.25,7.8,15,15,0,0,0,5.22,4l.12.89.73.26A38.05,38.05,0,0,1,93,84.63C81.07,81.15,76.54,70.28,76.54,70.28l-2.13.77s5.4,11.39,18,15.09C90,92.47,85.21,99,84.24,100.27Zm8.62-29.48s-2.6-.18-6.28-4.41-3.84-8.1-3.84-8.1l-1.53.49a18.27,18.27,0,0,0,4.63,8.67c4,4.28,7.34,4.79,7.34,4.79Z" style="fill:#455a64;fill-rule:evenodd"/><path d="M94,67.42a20,20,0,0,0,5.57-4.84c1.93-2.74,4.22-5.68,3.87-10.54s-3-8.73-6.63-11.89-4.47-2.71-6.6-2.93-1.53,5.14-4.62,6.6q-.87.42-1.56.72c-.44.19,6,7.32,5.71,7.46-2.71,1.06-9-6.72-9-6.72l6.06,11.88-1,1.4-7.31-14s-3.25-7-.38-11.09,10-2.69,11.55-6.92-.35,8.44.94,8.86c2.38.77,4.09.82,7,3.57s7,6.7,7.39,13-2.65,9.32-4.18,11.5a29.1,29.1,0,0,1-4.89,4.77Zm2.25-20.67c-.38.22-1.13-.36-1.7-1.3s-.72-1.88-.35-2.11,1.13.36,1.7,1.3S96.62,46.52,96.25,46.75Zm2.66-2c-.37.22-1.13-.36-1.7-1.3s-.72-1.88-.35-2.1,1.13.36,1.7,1.3S99.28,44.56,98.91,44.78Z" style="fill:#455a64;fill-rule:evenodd"/><path d="M283,32.23h0l-.17-.49-3.47,1.47s.31,1.33-.52,1.68-1.71-.72-1.71-.72l-3.31,1.4s.31,1.32-.52,1.68-1.71-.73-1.71-.73l-3.17,1.35s.31,1.32-.53,1.67-1.71-.72-1.71-.72l-3.3,1.4s.3,1.32-.53,1.68-1.71-.73-1.71-.73l-3.23,1.37.31.72h0l.79,1.86s1.47-.4,1.79.34-.95,1.64-.95,1.64L260.59,50s1.47-.41,1.79.33-.95,1.64-.95,1.64l1.19,2.8s1.47-.4,1.79.34-1,1.64-1,1.64l1.24,2.92s1.47-.41,1.79.33-.95,1.64-.95,1.64l1.44,3.4s1.48-.4,1.79.33-.95,1.64-.95,1.64l.6,1.41h0l.3.71,3.23-1.37s-.17-1.38.67-1.73,1.57.78,1.57.78l3.3-1.4s-.17-1.39.67-1.74,1.57.79,1.57.79l3.17-1.35s-.17-1.38.66-1.74,1.58.79,1.58.79l3.3-1.4s-.17-1.39.66-1.74,1.58.78,1.58.78l3.46-1.47L294,58h0l-.75-1.76s-1.53.28-1.84-.46,1-1.52,1-1.52L291,50.87s-1.53.28-1.84-.45,1-1.52,1-1.52L288.87,46s-1.53.28-1.84-.46S288,44,288,44l-1.19-2.79s-1.53.27-1.84-.46,1-1.52,1-1.52l-1.24-2.92s-1.53.28-1.84-.46,1-1.51,1-1.51Zm-2.68,1.42,2-.83.54,1.26s-1.2.94-.7,2.11,2,.93,2,.93l.79,1.85s-1.2.94-.7,2.11,2,.93,2,.93l.74,1.74s-1.2.94-.7,2.11,2,.92,2,.92l.79,1.86s-1.2.94-.7,2.11,2,.93,2,.93l1,2.33a2,2,0,0,0-.7,2.11c.5,1.18,2,.93,2,.93l.4,1-2,.84a2,2,0,0,0-2.24-.46,1.94,1.94,0,0,0-1.19,1.92l-2.11.89a2,2,0,0,0-2.24-.45,1.94,1.94,0,0,0-1.2,1.91l-2,.84a2,2,0,0,0-2.25-.45A1.92,1.92,0,0,0,276.66,65l-2.1.89a2,2,0,0,0-2.25-.45,1.93,1.93,0,0,0-1.19,1.91l-1.89.8-.4-.94a1.88,1.88,0,0,0,.71-2.08c-.5-1.17-2-1-2-1l-1-2.34s1.21-.9.71-2.07-2-1-2-1l-.79-1.86s1.21-.9.71-2.07-2-1-2-1l-.74-1.73a1.88,1.88,0,0,0,.71-2.08c-.5-1.17-2-1-2-1l-.79-1.86s1.21-.9.71-2.07-2-1-2-1l-.54-1.26,1.89-.8a1.91,1.91,0,0,0,2.2.47,2,2,0,0,0,1.23-1.93l2.11-.89a1.93,1.93,0,0,0,2.2.47,2,2,0,0,0,1.23-1.93l2-.84a2,2,0,0,0,2.21.47A2,2,0,0,0,274.8,36l2.1-.9a1.93,1.93,0,0,0,2.21.47A2,2,0,0,0,280.34,33.65Zm-.27,3.64-17,7.24,8.22,19.34,17-7.24ZM265.1,46l.74-1.11,13.7-5.83,7.11,16.72L271.92,62ZM272,53.43c-.43-.66-.87-1.34-1.31-2-2-2.95,1-.41,1-.41l2.65,2.16s3.13-10.75,3.72-9.61S276.81,57,275.72,57.49C274.88,57.85,273.54,55.77,272,53.43ZM166.09,156,131.17,73.77s0-7.23,1.64-7l89.92,15.35a1.89,1.89,0,0,0,1.89-.8L278.73,1.63l40,94.33L178.82,156Zm5.08-.66L136.94,76.85s-1.48-2.55-1.08-3.86,2.65-1.33,3.24-1.24l84.57,12.48a1.88,1.88,0,0,0,1.78-.76l51.8-72.73L313,95.05ZM133.24,66,131,62.67,273.79,2l-1.86,6.66L221.88,77.8Zm9.17-4.4L265.1,9.47,220.5,74.61Z" style="fill:#5d737f;fill-rule:evenodd"/></svg>