<svg xmlns="http://www.w3.org/2000/svg" viewBox="0 0 131 196"><path d="M96.61,35.67c-3,8.19-5.18,13.4-5.11,17.42,0,2.06-6.48,5.46-8.81,6.08-1.47.39,4.27-3.45-.78-8.71-4-4.11-7.73-9.78-7.73-16.18,0-12.12,12.32-19.15,17.91-17.75C102.3,19.08,100.63,24.82,96.61,35.67Z" style="fill:#c6c6c6;fill-rule:evenodd"/><path d="M80,192c20.71,0,37.5-2.24,37.5-5s-16.79-5-37.5-5-37.5,2.24-37.5,5S59.29,192,80,192Z" style="fill:#424242;fill-rule:evenodd;opacity:0.8;isolation:isolate"/><path d="M21.54,2.43C31.76,2.43,39,7.54,39,15S31.22,28.49,21,28.5C6.25,28.51,2,18.2,3.06,14.61,5.17,7.69,11.32,2.43,21.54,2.43Z" style="fill:#c6c6c6"/><path d="M55.53,113.35a139.06,139.06,0,0,1-1.26-17.28c1.3-11.27,4.25-16.91,8.5-24,.17-.7,2.68-2.13,5.65-5.65a21,21,0,0,1,7.66-4.23c2-.55,4.26-2.66,6.61-3.06,5-.85,8.81-5.19,8.81-5.19S91,65.65,91,67.84c0,2.82,0,8.13,0,14.09-.12,7.06,0,9.78,0,15.49a52.76,52.76,0,0,1-1.42,11.28Z" style="fill:#83bcdb;fill-rule:evenodd"/><path d="M92.35,50.92a.5.5,0,0,0-.58.33,11.94,11.94,0,0,1-5.23,5.86,61.57,61.57,0,0,1-8.71,3.74l-1.71.65a31.7,31.7,0,0,0-5,2.75,68.65,68.65,0,0,1-13.54-7.9C54.79,54.1,46.89,40.41,44.42,34.18c-6.07-15.29-3.49-2.31-2.81-.76.91,2.09,7.6,17.79,14,24,6,5.82,11.31,7.94,13,8.51a36.12,36.12,0,0,0-6.31,5.89C58,79,55.59,84.76,54.28,96.16c0,8.38.74,17.15.75,17.24a.47.47,0,0,0,.19.34.45.45,0,0,0,.31.11h.07l34-4.66a.48.48,0,0,0,.42-.37,54,54,0,0,0,1.44-11.39c0-2,0-3.57,0-5.12,0-3,0-5.73,0-10.37l0-14.09c0-2.15,1.25-16.26,1.26-16.4A.5.5,0,0,0,92.35,50.92ZM90.49,67.85l0,14.07c-.09,4.65-.07,7.44,0,10.4,0,1.55,0,3.15,0,5.11a51.44,51.44,0,0,1-1.33,10.82L56,112.79c-.17-2-.72-9.46-.72-16.57C56.56,85.06,59,79.43,63.16,72.43a39.6,39.6,0,0,1,13.33-10l1.69-.64A64.12,64.12,0,0,0,87.05,58a14,14,0,0,0,4.49-4.14C91.18,58,90.49,66.2,90.49,67.85Z" style="fill:#455a64"/><path d="M88.09,68.1S90,57,91.54,57.21c-1.37,2.8-1.38,10.43-1.38,10.43s0,7.79,0,16.17c.43,20.23-1.14,22-1.14,22L76.4,108.54s7.31-12.75,9.5-22A90.89,90.89,0,0,0,88.09,68.1Z" style="fill-rule:evenodd;opacity:0.119999997317791;isolation:isolate"/><path d="M88.66,172.3s-4-20.35-4-32.43c-.89-12.09,0-18.43,0-18.43s4.13-4.36,5.57-7.64-.07-7.34-.07-7.34L57.4,113s1.24,3,3,7.13l-4.18-7.46s3.41,31.65,5.91,39.14c2.84,14,2.91,32.62,7.84,32.62,3.57,0,2.49-18.7,2.49-18.7l1-14.59c3.66,9.43,8.28,20.5,8.28,20.5s7.56,18.3,9.44,18.18S88.66,172.3,88.66,172.3Z" style="fill:#d8d8d8;fill-rule:evenodd"/><path d="M89.16,172.2c0-.2-4-20.43-4-32.37a100.12,100.12,0,0,1,0-18.16c.69-.75,4.21-4.62,5.55-7.67,1.49-3.43,0-7.54-.06-7.71l-.14-.41L59,112.14H55.67l.06.55c.14,1.3,3.45,31.79,5.92,39.19.9,4.42,1.51,9.26,2.1,13.94,1.36,10.66,2.43,19.08,6.23,19.08a1.62,1.62,0,0,0,1.2-.56c2.63-2.78,1.88-17.05,1.79-18.61l.85-12.37c3.48,8.84,7.41,18.29,7.47,18.44,2.86,6.92,7.94,18.5,9.91,18.5h0a.81.81,0,0,0,.61-.34C93.1,188.21,90.1,175.91,89.16,172.2ZM72,165.72c.25,4.27.46,15.83-1.52,17.93a.62.62,0,0,1-.47.24c-2.92,0-4.1-9.26-5.23-18.21-.6-4.69-1.22-9.55-2.14-14.07-2.27-6.81-5.35-34.22-5.82-38.48h.14v0c.08.2,8.32,19.95,12.4,28.16.79,2.43,2.14,6,3.65,9.9Zm19.12,23.51c-1.32-.9-5.48-9.61-8.87-17.83-.09-.22-9.22-22.14-12-30.47-3.7-7.46-10.78-24.31-12.16-27.6L89.78,107c.32,1.07,1,4.08,0,6.56-1.38,3.16-5.43,7.46-5.47,7.5l-.11.12,0,.15c0,.07-.89,6.53,0,18.5,0,12,4,32.32,4.06,32.55C90.05,179.76,91.6,187.86,91.09,189.23Z" style="fill:#455a64"/><path d="M88.34,93.06C88.16,98,84.11,109.33,82.67,114c-1.19,3.83-4.74,9.33-2.07-.09.55-1.92,4.47-14.82,5.2-19.08C87.17,86.72,77.42,66,77.42,66l2-1.78S88.71,82.88,88.34,93.06Z" style="fill:#455a64;fill-rule:evenodd"/><path d="M84.83,53c-2-3.29-3.76-4.21-5.85-7.2s-4.51-7.35-4.21-12.58,3.1-9.35,6.87-12.69,4.72-2.84,7-3,1.71,5.56,5,7.19c.63.3,1.18.57,1.67.79S92,33,92.34,33.18c3.41-.61,6.52-6.9,6.52-6.9S92.14,46.7,89.72,52.34c-1,2.36,1.77,0,1.77,0l9.74-26.83s3.34-7.47.22-11.93-6.34-3.19-5.7-7.38c-14,1.18-6.22,8.83-7.59,9.26-2.53.79-4.34.82-7.4,3.73s-7.32,7.1-7.66,13.85S76,44.3,77.64,46.68s5,5.16,5.91,7.15c.52,1.18-1.89,5.31,0,4.16C84.42,57.42,85.62,54.17,84.83,53Zm-4-11.6c2.22,0,4.56-3.87,4.53-5.55-3.74,1.63-7.53-.07-9.58-1.53-1.44.58.66,4.7,1.43,5.63S78.58,41.33,80.81,41.36Z" style="fill:#455a64;fill-rule:evenodd"/><path d="M30.31,9.74c-4.41-.51-14.18-.16-18,.23-.49,0-2.14,2.15-.63,2,3.92-.4,14.48-.38,17.67-.26C30.54,11.76,31.5,9.88,30.31,9.74Zm.45,5.07c-4.35-.52-13.12.16-18.38.16-.5,0-1.78,2-.44,2,4.6,0,13.83-.7,18.46-.23C30.9,16.79,32.92,15.07,30.76,14.81Zm-1.07,6.85c.5.06,3-1.67.75-1.92-5.15-.57-12-.06-17.19.35-.5,0-2.19,2.07-.79,1.88A85.91,85.91,0,0,1,29.69,21.66ZM40,15c0,7.73-8.51,14-19,14S2,22.73,2,15A10.45,10.45,0,0,1,6.17,6.61c.41-.28,4.51-1.34,2.9-.16-3.25,2.39-5.72,6.23-5.4,10.09.57,6.86,8.65,11.79,18,11s16.57-7,16-13.82-8.41-11.59-18-11a21.9,21.9,0,0,0-7.6,1.95c-.43.22-3.46-.5-1.51-1.36A27.8,27.8,0,0,1,21,1C31.49,1,40,7.27,40,15Z" style="fill:#455a64;fill-rule:evenodd"/></svg>