<svg xmlns="http://www.w3.org/2000/svg" viewBox="0 0 80 152"><path d="M36.15,149.28c18,0,32.5-4.48,32.5-10s-14.55-10-32.5-10-32.5,4.47-32.5,10S18.2,149.28,36.15,149.28Z" style="fill:#424242;fill-rule:evenodd;opacity:0.800000011920929;isolation:isolate"/><path d="M30.48,83.55S30.11,67.2,34.59,58c3.74-10.07,0-23.34,0-23.34s2.21,2.28,6.26.9,3.37-2.24,3.37-2.24S54.64,42.1,57.59,48.66A88,88,0,0,1,62.32,63a55.64,55.64,0,0,1-.5,14.23c-1.29,6.92-1.8,6.33-1.8,6.33Z" style="fill:#90caf9;fill-rule:evenodd"/><path d="M30.7,83.21V79s16.5,3.53,24-2.63,5.46-22,5.46-22,3.51,9.46,2.18,16.25-2.18,12.67-2.18,12.67-2.1.87-11.59.42S30.7,83.21,30.7,83.21Z" style="fill-rule:evenodd;opacity:0.119999997317791;isolation:isolate"/><path d="M44.1,29.62c-2.29,4,1.88,2.91-1.45,5.25-2.15,1.52-5.59,1.38-6.72.61-4.1-2.79-6.12-12.26-2.36-17.46,5.11-7.06,9.35-7.73,13.51-5.32,3.13,1.8,5.11,2.59,4.17,6.87C50.94,21,44.9,28.23,44.1,29.62Z" style="fill:#c6c6c6"/><path d="M60.26,84.34h0l-30,0v-.48c0-.65-.5-15.87,3.81-25.56,4.17-9.42-.53-24.39-.58-24.54l.9-.41c.09.14,2.18,3.41,5.77,2.12,3.23-1.17,3.23-2.09,3.23-2.1l.81-.5c.46.4,11.2,9.91,14.28,16.44a59.27,59.27,0,0,1,4.24,13.82A72.42,72.42,0,0,1,62,77.65C60.89,84.3,60.76,84.34,60.26,84.34Zm-29-1H59.92c.13-.49.44-1.9,1.11-5.84a71,71,0,0,0,.68-14.26,57.45,57.45,0,0,0-4.15-13.51C55,44.24,46.47,36.27,44.13,34.14c-.5.8-1.72,1.56-3.64,2.25a5.47,5.47,0,0,1-5.49-1c1.16,4.48,3.42,15.47,0,23.24C31.18,67.22,31.19,80.62,31.23,83.32Z" style="fill:#607d8b"/><path d="M59.48,83.84S61.12,91,60,97.11s-7,9.36-7,9.36L50.13,133.3s-.47,3.94-2.25,3.94-1.79-3.94-1.79-3.94l-1.5-29.38L43.21,83.84Z" style="fill:#9e9e9e;fill-rule:evenodd"/><path d="M47.88,137.74c-2.23,0-2.29-4-2.29-4.44L44.09,104,42.68,83.34h17.2l.09.39c.07.29,1.64,7.35.53,13.47-1,5.64-5.86,8.88-7,9.57l-2.89,26.58C50.57,133.81,50,137.74,47.88,137.74Zm-4.13-53.4,1.34,19.55,1.5,29.38c0,1.15.32,3.47,1.29,3.47s1.62-2.36,1.75-3.5l2.95-27.08.23-.13s5.66-3.22,6.71-9c.93-5.12-.13-11.12-.45-12.68Z" style="fill:#455a64"/><path d="M56.12,83.86s4,6.41,2.5,13A11.18,11.18,0,0,1,51,105l-4.9,15.3-1.69,16s-.45,9.86-3.94,9.86-4.19-9.86-4.19-9.86l-3.07-30.8L31,88.15l1.66-4.29Z" style="fill:#9e9e9e;fill-rule:evenodd"/><path d="M40.42,146.62c-3.84,0-4.62-9.27-4.69-10.33l-3.07-30.78L30.52,88.09l1.84-4.73h24l.15.24c.17.26,4.12,6.66,2.56,13.38a11.57,11.57,0,0,1-7.77,8.42l-4.8,15-1.68,15.91C44.81,137.34,44.27,146.62,40.42,146.62ZM31.55,88.21l2.11,17.19,3.06,30.81c.18,2.45,1.24,9.41,3.7,9.41s3.33-7,3.44-9.39l1.71-16.09,5-15.56.27-.07a10.6,10.6,0,0,0,7.32-7.76c1.3-5.62-1.62-11.19-2.3-12.39H33Z" style="fill:#455a64"/><path d="M19.51,30a5.62,5.62,0,0,1-4,2.23A2.26,2.26,0,0,1,14,31.69a2.7,2.7,0,0,1-.76-2.61A6.65,6.65,0,0,1,14.77,26a15.82,15.82,0,0,1,3.47-2.92c1.7-1,2.91-1.28,3.6-.7C23.4,23.69,20.91,28.29,19.51,30Z" style="fill:#9e9e9e"/><path d="M74.45,38.25a2.85,2.85,0,0,1-1-.18,5.18,5.18,0,0,1-2.19-1.58c-1.1-1.32-3-5-1.78-6s4.5,1.48,5.6,2.8c1.39,1.65,1.63,3.65.56,4.55A1.85,1.85,0,0,1,74.45,38.25Z" style="fill:#9e9e9e"/><path d="M65.64,32.74a2.28,2.28,0,0,1-.75-.13,4,4,0,0,1-1.66-1.21h0c-.8-.95-2.36-3.71-1.3-4.6.47-.4,1.24-.27,2.29.38a8.75,8.75,0,0,1,2,1.69,3.94,3.94,0,0,1,.9,1.85,1.77,1.77,0,0,1-.5,1.68A1.52,1.52,0,0,1,65.64,32.74Z" style="fill:#9e9e9e"/><path d="M35.8,102.4a1.25,1.25,0,0,1-1.2-.88l-2.47-8.11a1.22,1.22,0,0,1,.09-1,1.24,1.24,0,0,1,2.29.22h0L37,100.79a1.25,1.25,0,0,1-.83,1.56A1.12,1.12,0,0,1,35.8,102.4Z" style="fill:#607d8b"/><path d="M36,99.6c-1.4.89-1.4-.58-1.4-.58a35.71,35.71,0,0,0,9.46-13c3.21-8,.5-37.24.5-37.24l3-1.19S49.86,78.67,46.52,86A30.51,30.51,0,0,1,36,99.6Z" style="fill:#455a64;fill-rule:evenodd"/><path d="M35.06,35.48s-.87-3-1.43-4.75c-1.05-3.36-1.72-4.92-1-8.7s3.09-6.48,6.12-8.5S42.39,12,44,12.08s.72,4.25,3,5.81l1.13.77c.32.21-5.27,5-5,5.13,2,1.19,7.49-4.11,7.49-4.11L42.46,31.37l.62,1.23,9.29-13.2s3.09-5.08,1.26-8.69-7.44-3.43-8.25-7-.47,6.7-1.5,6.87c-1.89.29-3.2.1-5.67,1.89s-5.93,4.37-6.8,9.26.24,7.67,1.22,9.59a21,21,0,0,1,1.48,4.78Z" style="fill:#607d8b;fill-rule:evenodd"/></svg>