<svg xmlns="http://www.w3.org/2000/svg" viewBox="0 0 80 200"><path d="M35.39,70.51c.35.55-2.13,2.35-4.7,4.11-2.2,1.49-.9-6.9-2.93-4.84-.73.74-4.14.93-5.42,0-2-1.52-3.68-2.56-4.32-8.31-1.21-10.64-1.39-12.63,3.68-14.49,3.16-1.16,7.56-1.68,10.46,1.14C33.91,49.76,32.85,66.62,35.39,70.51Z" style="fill:#dbdbdb"/><path d="M40,190.08c18,0,32.5-4.48,32.5-10s-14.55-10-32.5-10-32.5,4.47-32.5,10S22.05,190.08,40,190.08Z" style="fill:#212121;fill-rule:evenodd;opacity:0.16;isolation:isolate"/><path d="M37.55,71.44S46,72.54,48,87.56c.6,4.52.72,11.8,1.2,14.75,1.32,8.06,1.92,12.59,1.92,12.59s1.08,4,0,15.07c1.08,11.41,4,14.25,4,14.25s-12.82,5.56-32.69-.87c.18.06-2.3-2-2.3-2s14.16-30,13.59-37.67A9.9,9.9,0,0,0,28.27,97l-4.8-7.11,2.68-7.18,1.29-5.62,3.9-2.26,4.36-4.08Z" style="fill:#ffb5af;fill-rule:evenodd"/><path d="M33.26,97.11h-.12c-2.07-.55-3.79-6.27-4.11-7.42a.5.5,0,0,1,1-.27c.74,2.61,2.29,6.43,3.4,6.72a.5.5,0,0,1,.36.61A.5.5,0,0,1,33.26,97.11Z" style="fill:#607d8b"/><path d="M47.38,146.58c.59,1.45.43,6.89,0,8.58-1.08,4.25,0,25.7,0,25.7s-.17,1.9-.94,1.9-1.42-1.9-1.42-1.9-5.53-23-6-25.7a25.73,25.73,0,0,1,0-8.08s2.32.08,4.21,0A33.58,33.58,0,0,0,47.38,146.58Z" style="fill:#f5f5f5;fill-rule:evenodd"/><path d="M37.2,146.78c.31,1.83-.53,4.14-1.33,6-1.53,3.6,2.19,28.24,2.19,28.24s.37,1.7-.86,1.7-1.73-1.7-1.73-1.7-7.22-25.37-7.28-28.24c0-2.14.07-2.76,0-7.61a34.27,34.27,0,0,0,3.63.83C34.06,146.43,37.2,146.78,37.2,146.78Z" style="fill:#f5f5f5;fill-rule:evenodd"/><path d="M46.44,183.26c-1,0-1.72-1.71-1.9-2.24-.24-1-5.55-23.11-6-25.77a26.16,26.16,0,0,1,0-8.25l.07-.44.44,0s2.32.08,4.17,0a35,35,0,0,0,4.1-.49l.4-.08.15.38c.64,1.56.48,7.1,0,8.89-1.06,4.13,0,25.34,0,25.55C47.83,181.46,47.58,183.26,46.44,183.26Zm-7-35.67a25.26,25.26,0,0,0,.07,7.48c.47,2.64,6,25.44,6,25.67a3.14,3.14,0,0,0,.94,1.52,2.89,2.89,0,0,0,.44-1.45c0-.81-1.07-21.5,0-25.78a27,27,0,0,0,.13-7.88,31.79,31.79,0,0,1-3.8.43C41.84,147.63,40.2,147.61,39.43,147.59Z" style="fill:#607d8b"/><path d="M37.2,183.25c-1.6,0-2.19-2-2.21-2.06-.3-1-7.24-25.47-7.3-28.37,0-.91,0-1.55,0-2.36,0-1.1,0-2.47,0-5.26v-.69l.66.21a34.61,34.61,0,0,0,3.57.82c2.2.39,5.31.74,5.34.75l.37,0,.07.37c.33,1.94-.5,4.27-1.36,6.3-1.21,2.85,1.2,21.16,2.23,28a2.37,2.37,0,0,1-.3,1.79A1.28,1.28,0,0,1,37.2,183.25Zm-8.5-37.39c0,2.36,0,3.6,0,4.62,0,.79,0,1.42,0,2.32,0,2.22,4.77,19.36,7.26,28.12,0,0,.42,1.33,1.25,1.33.2,0,.26-.08.28-.11a1.41,1.41,0,0,0,.09-1c-.15-1-3.73-24.86-2.16-28.55a12.9,12.9,0,0,0,1.34-5.37c-.92-.12-3.25-.41-5-.72C30.39,146.28,29.33,146,28.7,145.86Z" style="fill:#607d8b"/><path d="M55,144.61s-.93-2.58-2.25-7.05a57.7,57.7,0,0,1-1.62-10.91c.07-.58,1.71-14.16-.75-19.23-1.42-2.93-1.51-7.92-1.59-12.74a71.68,71.68,0,0,0-.55-9.39C47.14,78,41,72.14,37.23,70.85c-3.21-1.08-2.58-6.4-2.57-6.46a.51.51,0,0,0-.43-.56.49.49,0,0,0-.56.44c0,.2-.49,4.1,1.41,6.31a.58.58,0,0,0-.18.11,39.76,39.76,0,0,1-7.77,5.85l-.25.13-.09,2.84c-1.48,3.49-3.91,9.32-3.87,10s1.83,3,5.38,7.45l4,3.7a47.49,47.49,0,0,1,.9,5.78C31.62,116.91,20,140.86,19.83,141.1l-.06.12v.13c0,.26.27,1.59,3.45,2.57a46.26,46.26,0,0,0,17.63,3.45,43,43,0,0,0,13.88-2.12l.46-.17ZM35.61,71.4a.67.67,0,0,0,.13-.21,4,4,0,0,0,1.17.61l.28.11c-.28.83-2.15,5.5-9.38,6.49l.06-1.13A39.5,39.5,0,0,0,35.61,71.4ZM23.57,143c-2.1-.65-2.63-1.38-2.76-1.62C22,139,32.64,116.85,34.19,106.52a50.23,50.23,0,0,0-.94-6.23l0-.15L29,96.27c-2.39-3-5-6.37-5.11-6.79.06-.57,2-5.41,3.82-9.66l0-.4c7.7-1,9.91-5.87,10.34-7.09a19.43,19.43,0,0,1,9.19,13.12,70.76,70.76,0,0,1,.54,9.25c0,1.41.05,2.79.1,4.12a.86.86,0,0,0-.07.1s-1.54,3.08-8,5.42a.5.5,0,0,0,.17,1,.51.51,0,0,0,.17,0c4.58-1.66,6.83-3.65,7.84-4.85a20.59,20.59,0,0,0,1.51,7.42c2.34,4.81.67,18.53.65,18.76a57.82,57.82,0,0,0,1.66,11.23c1,3.39,1.77,5.69,2.1,6.63A45.8,45.8,0,0,1,23.57,143Z" style="fill:#607d8b"/><path d="M37.09,46.91c-6.31-7.8-13.91-2.87-14.91-2.17a8.23,8.23,0,0,0-4.5,2.55,5.51,5.51,0,0,0-1.13,5.25l0,.11a.35.35,0,0,0,0,.14c0,.5,0,12.12,4.19,16.29A5.85,5.85,0,0,0,24.87,71h.19a5.92,5.92,0,0,0,3.31-1.29l.93,5.51,1-.17-1-6.16a.5.5,0,0,0-.78-.61A5.44,5.44,0,0,1,25,70a4.85,4.85,0,0,1-3.57-1.64c-3.92-3.87-3.89-15.45-3.89-15.57a.48.48,0,0,0-.07-.24l0-.06a3.64,3.64,0,0,1,1.24-1.83,4.74,4.74,0,0,1,2-.81c1,.55,7.62,4.3,4.85,10.92-.68,1.63-.62,2.88.16,3.72a4.85,4.85,0,0,0,3.54,1.06,31.57,31.57,0,0,0,8.74-1.77l.16,0,.09-.14C38.38,63.51,43.76,55.14,37.09,46.91Z" style="fill:#607d8b"/><path d="M25.12,122.87c-1.13.78-1.13-.51-1.13-.51s8-5.85,10.63-12.78S37,83.48,37,83.48h1.92s0,19.39-2.73,25.81C33.77,116.15,26.26,122.09,25.12,122.87Z" style="fill:#607d8b;fill-rule:evenodd"/><path d="M35.29,15.5a6.88,6.88,0,0,1-1,3.57,7.8,7.8,0,0,1-1,1.31c-.31.33-1.2,1.11-2.66,2.36Q28.06,25,28.05,26.66a8.23,8.23,0,0,0,.43,2,1,1,0,0,1,0,.33c0,.21-.1.32-.29.32s-.52-.35-.77-1a6.3,6.3,0,0,1-.38-2.13,6.41,6.41,0,0,1,.58-2.71,16.85,16.85,0,0,1,2.12-3.26q2.29-3,2.3-5.11a4.42,4.42,0,0,0-1-3.12,4,4,0,0,0-5.62,0,4.1,4.1,0,0,0-1.11,2.93c0,.27,0,.4.1.4l.22-.36A1.37,1.37,0,0,1,26,14.24a1.45,1.45,0,0,1,1.62,1.66c0,1.15-.62,1.73-1.87,1.73A2.23,2.23,0,0,1,24,16.89a2.83,2.83,0,0,1-.65-2,4.55,4.55,0,0,1,1.6-3.6,6.06,6.06,0,0,1,4.16-1.41,6.53,6.53,0,0,1,4.52,1.53A5.17,5.17,0,0,1,35.29,15.5ZM30.17,33.68a1.89,1.89,0,0,1-.55,1.37,1.84,1.84,0,0,1-1.39.58,2,2,0,0,1-1.37-3.33,2,2,0,0,1,1.41-.56,1.8,1.8,0,0,1,1.35.58A1.89,1.89,0,0,1,30.17,33.68Z" style="fill:#212121;opacity:0.6"/></svg>