<svg xmlns="http://www.w3.org/2000/svg" viewBox="0 0 943 325"><path d="M464.16,55.27c-.56,9-.73,16.29.23,17.27.57.59-4.54,4.11-8.41,2.38-3.56-1.59-6.93-5.84-8.62-9.44-3.52-7.5-.89-16,4.29-18.43S464.67,47,464.16,55.27Z" style="fill:#8d6e63"/><path d="M525.5,286.4a1,1,0,0,1-1-.8c-.1-.5-3.3-12.8-.1-29.6,3-15.5,12.2-37.9,39.4-56.3,51.7-35,146.7-41.3,147.7-41.4a1,1,0,1,1,.2,2c-1,.1-95.4,6.3-146.7,41-26.6,18-35.6,39.8-38.5,54.9a72.48,72.48,0,0,0,0,28.9,1,1,0,0,1-.7,1.2A.77.77,0,0,1,525.5,286.4Zm-74.1,38.2c.3-.4,31.5-43.2,23.6-82.4-3.6-17.6-14.4-31.9-32.2-42.5C374.3,159,292.8,159,292,159a1,1,0,0,0,0,2c.8,0,81.8-.1,149.8,40.4,17.3,10.3,27.8,24.1,31.2,41.2,4,20-2.5,40.8-8.6,54.8a154.49,154.49,0,0,1-14.6,26,1.08,1.08,0,0,0,.2,1.4,1.42,1.42,0,0,0,.6.2A1.23,1.23,0,0,0,451.4,324.6Zm217-166.3c-.8,0-81.6,2.6-121,22.9-32.1,16.5-43.4,30.1-46.6,35-2.2-3.1-11.8-14.5-45.1-35.4-38.7-24.2-133.3-24.5-134.3-24.5a1,1,0,0,0,0,2c1,0,95.1.3,133.3,24.2s45,35.4,45,35.5v.1a1,1,0,0,0,.5,1.3.6.6,0,0,0,.4.1,1,1,0,0,0,.9-.6c.1-.2,8.1-16,46.9-36,39.1-20.1,119.4-22.7,120.2-22.7a1,1,0,0,0,1-1A1.4,1.4,0,0,0,668.4,158.3Z" style="fill:#bcaaa4"/><path d="M255.4,143s-9.4-10.5-29.6-17.7-40.9-21.5-60.5-32.1a35.77,35.77,0,0,0-26.9,0c-14.1,5.9-22.9,13.7-40.3,15.7s-28.2,15-52.4,24.8A125.45,125.45,0,0,1,0,142.9H255.4" style="fill:#dadada"/><path d="M98.4,109c17.5-2,26.2-9.8,40.3-15.7a36.2,36.2,0,0,1,24.5-.9s.9,8.9-15.3,12-28.3,6.9-40.4,12.5S37.5,144.2,4.6,143A128.11,128.11,0,0,0,46,133.9C70.2,124,80.9,110.9,98.4,109Z" style="fill:#ededed"/><path d="M392.7,133.6c-20.2-7.2-42.2-23.2-61.8-33.7,0,0-11.5-4.7-25.7,1.2s-22.8,14.2-40.3,16.1-28.2,15-52.4,24.9-40.9,9.2-40.9,9.2H422.2S412.8,140.9,392.7,133.6Z" style="fill:#dadada"/><path d="M305.6,100.4a36.2,36.2,0,0,1,24.5-.9s.9,8.9-15.3,12-28.3,7-40.4,12.5-68.2,28.5-101.1,27.3c7.5-.3,21.8-3.1,39.5-10.2,24.2-9.8,35-22.9,52.4-24.9S291.4,106.3,305.6,100.4Z" style="fill:#ededed"/><path d="M199.4,26.2c0,14.5,12,26.2,26.8,26.2S253,40.7,253,26.2,241,0,226.2,0,199.4,11.7,199.4,26.2Z" style="fill:#c9c9c9"/><path d="M226.2,0C241.1.2,253,11.8,253,26.2s-12,26-26.8,26.2Z" style="fill:#ebebeb"/><path d="M179.7,42.2l-.2,110.3h70Z" style="fill:#ededed"/><path d="M179.6,42.1,101.4,152.5h78.2Z" style="fill:#bfbfbf"/><path d="M322,160.6l-52.6-81v79.7l52.8,1.6Z" style="fill:#ededed"/><path d="M269.4,79.7l-56,79.7h56Z" style="fill:#bfbfbf"/><path d="M685.9,84v75h-34V103.6Zm30,1.5,20-11.6V27l-46,26.6V159h26Zm24-9.3V159h28V60Zm-4,2.3-16,9.3V159h16Z" style="fill:#2962ff"/><path d="M739.9,52.2a3.81,3.81,0,0,1,1.7.8,82.46,82.46,0,0,0,14.7,9.2l-16.4,9.4ZM938.7,82c-32.1-5.3-51-10.7-59.4-14.8s-17.2,3.6-29.1,7.7-22-4.2-35.6-10.1S795,73.1,775.4,69a35.89,35.89,0,0,1-3.5-.8V159h171V82.7C941.5,82.5,940.1,82.2,938.7,82ZM647.9,101.3l38-21.9V74.5a45.15,45.15,0,0,1-9-.2c-20.2-2.4-33.2,36.9-43.3,31.6s-23.2,25.1-40,30.9c-16.6,5.7-19.8,16.7-29.9,14.9-3.2-.6-11.2,3.1-15.7,7.3H648V101.3Z" style="fill:#eceff1"/><path d="M942.9,104.2V159h-171V82.4h6.2v10h8.7V77.7H799V89h2.1V82.4h3.8v10h1.7V89.9h2.5V82.2h5.3v7.7h2.4V82h1V80.1h4.7V82h5.1V92.4h5.3v57h4V101.6H838V91.2h10.2v10.4h2.3v47.7h3v-65h10.3v16.6H870V75.6h13.5v9.6h17.7v7.5h10.7v56.6h21.3V104.2Z" style="fill:#b0bec5"/><path d="M852.4,108.8h15.8v27h10V91.9h15.2V132H902v17.4h3.2V101.9h23v24.9h14.7V159h-171V91h12.6v45.3h17.8v-41h20.4v37.3h8.9V119.7h14.3v29.7h6.6Z" style="fill:#90a4ae"/><path d="M942.9,56V54q-4.5-4.2-8.7-8.7V43h-2.6v1.8H918.7V43h-2.6v2.2a250,250,0,0,1-43,35.8,311.4,311.4,0,0,1-54.6,28.5H771.9V111h4v5.5h-4V118h5.7v11.2h-4v2.4h-1.7V159h171V144.7h-3.2v-6.2h-5.5V118.1h8.7v-8.5h-8.7v-47c2.8,2.7,5.7,5.2,8.7,7.7V68.4q-4.5-3.75-8.7-7.8V47.5C937,50.4,939.9,53.2,942.9,56ZM818.8,111.1h4.8v5.5h-4.8Zm-11.9,0h4.8v5.5h-4.8Zm-6,0h4.8v5.5h-4.8Zm9.4,7,1.1,1.1-6.1,6.1-6.1-6.1,1.1-1.1Zm-11,15.4,6.1-6.1,6.1,6.1-6.1,6.1Zm5,7.2-5.4,5.3V135.2Zm-5.4-8.9V121l5.4,5.4Zm-4-20.7h4.8v5.5h-4.8Zm-6,0h4.8v5.5h-4.8Zm-7,5.5h-4.8v-5.5h4.8Zm1.2-5.5h4.8v5.5h-4.8ZM796.3,153h-5.5V129.3h-7.3V118.1h12.8Zm2.6,0v-3.5l3.5,3.5Zm4.7-5.6v4.7l-4.3-4.3,6.1-6.1,5.7,5.6h-7.5Zm8.2-1.3-5.4-5.4,5.4-5.4Zm0-14.3-5.4-5.4,5.4-5.4Zm1-20.7h4.8v5.5h-4.7ZM916,138.6h-3.7V124.5H900.4v25.1h-3.1V136.4H886.7v-7.9H873.9v21.1h-6.6v3.5h-6.2V127.6H840v16.3H828.6v-19H814.9v22.5h-.6V118.2H915.9Zm-91.2-22v-5.5h4.8v5.5Zm6,0v-5.5h4.8v5.5Zm6,0v-5.5h4.8v5.5Zm6,0v-5.5h4.8v5.5Zm6,0v-5.5h4.8v5.5Zm6,0v-5.5h4.8v5.5Zm6,0v-5.5h4.8v5.5Zm6,0v-5.5h4.8v5.5Zm6,0v-5.5h4.8v5.5Zm6,0v-5.5h4.8v5.5Zm6,0v-5.5h4.8v5.5Zm6,0v-5.5h4.8v5.5Zm6,0v-5.5h4.8v5.5Zm6,0v-5.5h4.8v5.5Zm6,0v-5.5h4.8v5.5Zm7.8,0h-1.8v-5.5h1.8Zm0-7H839.8a264.1,264.1,0,0,0,34-16.1,218,218,0,0,0,42.3-31Zm0-49.1a219,219,0,0,1-43,31.7,259,259,0,0,1-37.4,17.4H822.3a312.72,312.72,0,0,0,51.5-27.2A252.61,252.61,0,0,0,916,47.5Zm3.4-13h11.3l.4.4L925.1,54,919,47.9Zm2.2,69.1,3.5-3.5,3.5,3.5Zm8.4,1.5,1.1,1.1-6.1,6.1-6.1-6.1,1.1-1.1Zm-6.4-8.5L919,105l6.1-6.1,6.1,6.1-4.7,4.7Zm1.4-12.8-6.1-6.1,6.1-6.1,6.1,6.1Zm0-14.3-6.1-6.1,6.1-6.1,6.1,6.1Zm0-14.3-6.1-6.1,6.1-6.1,6.1,6.1Zm-6.4-18.5,4.9,5.3-5.4,5.4Zm0,14.2,5.4,5.4-5.4,5.4Zm0,14.3,5.4,5.4L918.7,89Zm0,14.3,5.4,5.4-5.4,5.4Zm0,14.2,2.9,2.9h-2.9Zm0,4.4h4.4l1,1-4.5,4.5h-.9Zm0,9.9,5.4,5.4-5.4,5.4Zm0,17.6v-3.3l3.3,3.3Zm5.4,0-5-5,6.1-6.1,6.1,6.1-5,5Zm7.5,0h-3.3l3.3-3.3Zm0-6.8-5.4-5.4,5.4-5.4Zm0-15.2h-.9l-4.5-4.5,1-1h4.4Zm0-7h-2.9l2.9-2.9Zm0-6.4-5.4-5.4,5.4-5.4Zm0-14.2-5.4-5.4,5.4-5.4Zm0-14.3-5.4-5.4,5.4-5.4Zm0-14.3L926.2,55l5.4-5.4Zm6.5,50.7h4.3v5.5h-4.8Zm-1.2,0v5.5h-2.7v-5.5Z" style="fill:#607d8b"/><path d="M460.1,204.2c20.9,0,37.9-3.6,37.9-8s-17-8-37.9-8-37.9,3.6-37.9,8S439.2,204.2,460.1,204.2Z" style="fill:#e0e0e0;opacity:0.800000011920929;isolation:isolate"/><path d="M453.6,100.6c-5,11-4.4,28.9-4.4,28.9h34.4s.1.8,1.5-7.1,2.5-33-18.5-49l-2.1-1.5s.6,1.4-4.1,3.1-7.4-2.6-7.4-2.6S458.6,89.5,453.6,100.6Z" style="fill:#bbdefb;stroke:#607d8b"/><path d="M450.8,124v4h32.1a63.55,63.55,0,0,0,1.8-13.7,52.41,52.41,0,0,0-2.9-17.6s2.9,21.1-4.6,24.5C468.4,128.2,450.8,124,450.8,124Z" style="opacity:0.119999997317791;isolation:isolate"/><path d="M482.7,129.8s1.9,8.2.6,15.1-8.1,10.6-8.1,10.6l-3.4,30.6s-.5,4.5-2.6,4.5-2.1-4.5-2.1-4.5l-1.8-33.4-1.6-22.9Z" style="fill:#f5f5f5;stroke:#607d8b"/><path d="M483.5,129.1a81,81,0,0,1-1.8,15.5,13,13,0,0,1-9,9.3L467,171.3l-2,18.2s-.5,11.2-4.6,11.2-4.9-11.2-4.9-11.2l-4.2-31.3s-2.8-16.5-3.5-21-.2-8,1.8-8Z" style="fill:#f5f5f5;stroke:#607d8b"/><path d="M431.47,71a2.54,2.54,0,0,1-1.69-.59,2.75,2.75,0,0,1-.93-2A6.29,6.29,0,0,1,430.63,64c1.5-1.68,6.27-5.46,8.07-4.07a1.57,1.57,0,0,1,.57,1.13c.2,1.94-1.82,5.68-3.29,7.39A6.44,6.44,0,0,1,431.47,71Zm6.23-10.38c-1.27,0-4.48,2-6.33,4a5.44,5.44,0,0,0-1.53,3.69,1.87,1.87,0,0,0,.58,1.3c1.05.88,3.16.07,4.8-1.85h0c1.5-1.75,3.21-5.16,3-6.64a.64.64,0,0,0-.17-.43A.61.61,0,0,0,437.7,60.59Z" style="fill:#637d89"/><path d="M500.16,77.83a5.22,5.22,0,0,1-3.64-2c-1.14-1.31-2.65-4.12-2.51-5.72a1.37,1.37,0,0,1,.48-1c1.47-1.18,5.21,1.82,6.39,3.16a5.11,5.11,0,0,1,1.4,3.59,2,2,0,0,1-2.12,2Zm-4.8-8a.37.37,0,0,0-.25.07.54.54,0,0,0-.11.31c-.1,1.16,1.17,3.7,2.28,5h0c1.2,1.38,2.86,2,3.61,1.44a1.19,1.19,0,0,0,.39-.84,4.1,4.1,0,0,0-1.16-2.84C498.7,71.3,496.24,69.82,495.36,69.82Z" style="fill:#637d89"/><path d="M489.8,71.56A3.72,3.72,0,0,1,487.12,70c-.69-.83-2.75-4.07-1.54-5.1a1.11,1.11,0,0,1,.86-.24c1.23.1,3.22,1.61,4,2.6A3.89,3.89,0,0,1,491.54,70a1.62,1.62,0,0,1-.64,1.16A1.81,1.81,0,0,1,489.8,71.56Zm-3.47-5.89a.18.18,0,0,0-.11,0c-.22.31.54,2.35,1.66,3.69.83,1,1.87,1.43,2.42,1a.65.65,0,0,0,.25-.48,3,3,0,0,0-.83-2A7.12,7.12,0,0,0,486.33,65.67Z" style="fill:#637d89"/><path d="M455.3,147.7c-1.6,1-1.6-.7-1.6-.7a41.3,41.3,0,0,0,11-14.8c3.7-9.1.1-42.4.1-42.4a2.18,2.18,0,0,1,1.8-2.3c1.9-.3,2.3,1.5,2.3,2.3s2.6,34-1.3,42.4A35.38,35.38,0,0,1,455.3,147.7Z" style="fill:#8d6e63"/><path d="M447.1,64.1c1.7,4.1,3.3,5.1,6.5,7.7,0,0,1.6,2.5-.6,1.2a20.57,20.57,0,0,1-7.2-8.5c-2.2-5.2-.9-9.4.4-12.7s3.2-4.2,4.9-5.7c.9-.8-5.8-10.4-2.8-7.5s8.5-.6,12.5,1.6,4.2,9.1,4.2,9.1l-.9,18.3-1.4-.8.7-16.2s-2.1,8.5-4.8,8.5c-.3,0,2.2-8,1.7-8h-1.6c-3.2-.1-4.9-4.7-6.6-3.8a10,10,0,0,0-4.9,5A14.29,14.29,0,0,0,447.1,64.1Z" style="fill:#5d4037"/><path d="M455.08,150.93a1.61,1.61,0,0,1-1.37-.88l-.06-.15-2.89-9.15a1.52,1.52,0,0,1,.79-1.84l.21-.11H452a1.58,1.58,0,0,1,1.49.85l.06.15,2.89,9.15a1.52,1.52,0,0,1-.79,1.84A1.2,1.2,0,0,1,455.08,150.93Z" style="fill:#607d8b"/><path d="M114.2,169c0,.9,16.5,1.7,36.8,1.7s36.8-.8,36.8-1.7-16.4-1.7-36.8-1.7S114.2,168,114.2,169Z" style="fill:#eee"/><path d="M208.7,114.2a1.37,1.37,0,0,0-.4-1.2c-1.2-.6-1.4-.4-2.3-1.6s-3.1-1.7-5.3-1.4-2.8.4-5.7-.9a7,7,0,0,0-5.1-.5c-.4-.7-1.8-.5-1.8-.5a13.2,13.2,0,0,0,.2,2.8,10.53,10.53,0,0,0-2.9,1.7c-1.3,1.1-1.3,2.7-1.8,3.8a3.21,3.21,0,0,0,.8,3.1c.4.2,0,1.6-.4,3.8a7.14,7.14,0,0,1-1.4,3.2s-1,1-1.8,1a6.16,6.16,0,0,1-4.9-2.4c-1.5-2-2.4-8.3-7.3-8.9-2.9-.4-5.1-4.3-8.7-8.7s-11.3-3.1-13.8,1.4c-1.7,3.1-5.9,8.9-10.5,11.9s-3.9,6.4-4.1,8.5-3.1,8.9-3.1,9.8,2.1,1.1,2.1,1.1c-.5.7.8,5.8-.8,9a10.22,10.22,0,0,0-.3,6.9s.1,7.3,0,8.8a4.17,4.17,0,0,0,1.8,3.3c.7.5,1,2.6,1,2.6h6.1a25.72,25.72,0,0,0-3.3-3.3c-1.5-1.1-2.2-4.1-2.3-7.9s-.1-7.4,1.6-9.6a38.28,38.28,0,0,0,3.7-6.9s.2,5.2-.6,6.8-.5,3,.3,4.7,4.3,8.5,4.2,9.8a4.72,4.72,0,0,0,1.2,3.2,11.07,11.07,0,0,1,1.2,2.7h5.6a8.91,8.91,0,0,0-2.8-3c-1.8-1.1-2.4-4.3-3.7-6.9s-2.7-5.9-2.4-8.1,1.2-2.8,2.7-6.5a41.3,41.3,0,0,0,2.4-8.3c1.6-.2,5.4,1.7,8.8,2.6s6,.2,6.4.7.9,5.7.1,7-1.6,6.8-1.8,8.9a28.16,28.16,0,0,1-1.4,6.4,4.42,4.42,0,0,0,0,3.2,12.65,12.65,0,0,1,.3,2.8h5.6c-.8-2.2-3.1-1.7-3.3-4.6a16.35,16.35,0,0,1,1.6-8.1,41.68,41.68,0,0,0,2.5-6.7c.6-2.4,2.4-3.5,2.4-.6s1.4,7.8,1.6,8.9,1.2,4.8.8,5.7-.8,2.8,0,3,1.5,1.9,1.5,1.9a8.49,8.49,0,0,0,.9,2.2h5.1a2.71,2.71,0,0,0-1.9-2.1c-1.7-.5-2-.9-3.1-5a12.61,12.61,0,0,1-.4-6.8c.2-1.6-.3-2.3-.5-3.5a56.71,56.71,0,0,1,0-5.9c.2-2,0-7,0-7a36,36,0,0,0,4-2.8c18.8,1.7,18.5-9.7,19.6-11.1,2.1-2.6,1.7-5.8,1.6-7.7.5.6,3.8,1.3,5,0s4.2-2.6,5-2.9,2.4.4,2.4-.1-.7-.7-.8-.9S208.6,114.8,208.7,114.2Z" style="fill:#9e9e9e"/><path d="M134,166.3c-1.6-1.1-2.3-4.1-2.4-7.8s-.1-7.3,1.7-9.5a40.43,40.43,0,0,0,3.9-6.7s.5-1.9,0-1.1-2.9,5.4-4,6.5a12.62,12.62,0,0,0-2.4,4.4c-.6,1.7.3,8.4.6,10.4a6,6,0,0,0,2.3,4.3,7.55,7.55,0,0,1,2.1,2.6h1.8C136.5,168.4,135.3,167.3,134,166.3Z" style="fill:#d8d7d8"/><path d="M146.3,166.6c-1.9-1.1-2.6-4.3-3.9-6.9s-2.9-5.9-2.6-8.1,1.2-2.8,2.9-6.6a40.62,40.62,0,0,0,2.5-8.4c-.8,2.9-4.8,11.7-5.9,13.1s-.3,4.1.8,6.5a76.93,76.93,0,0,1,3.1,7.4,6.84,6.84,0,0,0,2.5,3.7,6.3,6.3,0,0,1,2,2.3h1.6A9.55,9.55,0,0,0,146.3,166.6Z" style="fill:#d8d7d8"/><path d="M160.5,163.9a18.55,18.55,0,0,1,1.5-8.1,42.3,42.3,0,0,0,2.4-6.8,4.27,4.27,0,0,1,1.1-2.1c-.4.3-1.5,1.2-1.6,2a79.52,79.52,0,0,1-2.9,7.6,24.74,24.74,0,0,0-1.3,6c-.1,1.7.1,3.2.7,3.7a21.1,21.1,0,0,1,1.9,2.3h1.4C163,166.3,160.7,166.8,160.5,163.9Z" style="fill:#d8d7d8"/><path d="M175.3,167.5c-1.7-.5-2-.9-3.1-4.9a12.25,12.25,0,0,1-.4-6.7c.2-1.5-.3-2.2-.5-3.4a54.76,54.76,0,0,1,0-5.8c.2-2,0-6.9,0-6.9a36,36,0,0,0,4-2.8c18.8,1.7,18.4-9.6,19.6-10.9,2.1-2.6,1.7-5.7,1.5-7.6.5.6,3.8,1.3,5,0s4.2-2.6,5-2.9,2.4.4,2.4-.1a.68.68,0,0,0-.4-.6,14.77,14.77,0,0,1-2.1.1,7.23,7.23,0,0,0-4.1,2,4.34,4.34,0,0,1-4.3,1.2c-1.7-.5-1.9,0-1.9,0,0,1.1-.5,5.4-1.2,6.7-.4.7-.9,1.5-1.4,2.2-.8,3.7-5.2,7.8-9,9s-9.3.7-9.3.7c-.5.5-4.2,2.6-4.6,3s.1,8.3,0,9.9a45.73,45.73,0,0,0,.5,5.2c.1,1.2,0,4,0,5.1a26.36,26.36,0,0,0,1.5,5.5,4.67,4.67,0,0,0,2.5,3,5.26,5.26,0,0,1,1.4,1.2h.9A2.67,2.67,0,0,0,175.3,167.5Z" style="fill:#d8d7d8"/><path d="M175.8,124.9c-1.5-2-2.4-8.2-7.3-8.9-2.9-.4-5.1-4.3-8.7-8.7s-11.3-3.1-13.8,1.3l-.3.6a2.51,2.51,0,0,0,.7-.4,18.61,18.61,0,0,1,7.9-2.7c2.5,0,5.6,3,8.1,6.7s7,4.3,8.3,5.4,2.3,4.9,4.7,7.3a5.68,5.68,0,0,0,5.4,1.6A5.21,5.21,0,0,1,175.8,124.9Z" style="fill:#d8d7d8"/><path d="M133,215c-2.8,0-5.2-.1-7.3-.1h-5.6c0,4.6-.1,8.4,0,11.3s.1,4.8.1,5.6h-5.4c0-.8,0-2.7.1-5.9s.1-6.8.1-11l-20.2.1-2.3-4.2c6-6.6,11.3-12.5,15.9-17.9s7.2-8.3,7.7-8.9l4.1,2.4c-.1,4-.1,8.9-.2,14.8v9.3h4.5c1.8,0,4.6-.1,8.4-.1V215Zm-17.9-23.6-16.5,19,.1.1h16.4v-9C115.1,198.8,115,195.4,115.1,191.4Z" style="opacity:0.540000021457672;isolation:isolate"/><path d="M174.4,202.9a22.05,22.05,0,0,1-1.4,7.8,15.82,15.82,0,0,1-4,6,16.41,16.41,0,0,1-5.9,3.7,20.59,20.59,0,0,1-14.4,0,18.53,18.53,0,0,1-5.8-3.7,17,17,0,0,1-4-6.2,21.1,21.1,0,0,1-1.4-7.7,19.5,19.5,0,0,1,1.3-7.4,19,19,0,0,1,3.7-5.9,16.65,16.65,0,0,1,5.9-4A19.09,19.09,0,0,1,156,184a20,20,0,0,1,7.5,1.4,15.42,15.42,0,0,1,5.7,3.8,17.05,17.05,0,0,1,3.8,6A21.5,21.5,0,0,1,174.4,202.9Zm-5.7.4a18.11,18.11,0,0,0-1-6.3,13.48,13.48,0,0,0-3-4.9,12.25,12.25,0,0,0-3.8-2.6,13,13,0,0,0-4.9-.9,11.32,11.32,0,0,0-5.1,1,13.57,13.57,0,0,0-3.6,2.5,14.08,14.08,0,0,0-3,4.8,18.14,18.14,0,0,0-1.1,6,17.54,17.54,0,0,0,1,6.2,13.64,13.64,0,0,0,3.3,5,12,12,0,0,0,8.4,3.3,12.8,12.8,0,0,0,4.8-.9,13.6,13.6,0,0,0,3.8-2.4,14,14,0,0,0,3.2-4.7A15.35,15.35,0,0,0,168.7,203.3Z" style="opacity:0.540000021457672;isolation:isolate"/><path d="M220.2,215c-2.8,0-5.2-.1-7.3-.1h-5.6c0,4.6-.1,8.4,0,11.3s.1,4.8.1,5.6H202c0-.8,0-2.7.1-5.9s.1-6.8.1-11L182,215l-2.3-4.2c6-6.6,11.3-12.5,15.9-17.9s7.2-8.3,7.7-8.9l4.1,2.4c-.1,4-.1,8.9-.2,14.8v9.3h4.5c1.8,0,4.6-.1,8.4-.1V215Zm-17.9-23.6-16.5,19,.1.1h16.4V191.4Z" style="opacity:0.540000021457672;isolation:isolate"/></svg>