<svg xmlns="http://www.w3.org/2000/svg" viewBox="0 0 80 152"><path d="M40,146.65c18,0,32.5-4.48,32.5-10s-14.55-10-32.5-10-32.5,4.48-32.5,10S22.05,146.65,40,146.65Z" style="fill-rule:evenodd;opacity:0.119999997317791;isolation:isolate"/><path d="M34.33,80.92S34,64.58,38.43,55.41c3.74-10.07.2-21.7.2-21.7s2,.63,6.07-.75,3.36-2.24,3.36-2.24S58.49,39.48,61.44,46a88,88,0,0,1,4.73,14.33,55.65,55.65,0,0,1-.5,14.23c-1.29,6.92-1.8,6.33-1.8,6.33Z" style="fill:#90caf9;fill-rule:evenodd"/><path d="M34.54,80.58V76.33s16.51,3.53,24-2.63,5.47-22,5.47-22,3.5,9.46,2.18,16.26S64,80.58,64,80.58s-2.1.87-11.59.42S34.54,80.58,34.54,80.58Z" style="fill-rule:evenodd;opacity:0.119999997317791;isolation:isolate"/><path d="M46.55,24.62a11.67,11.67,0,0,1,1.54,5.13c.25,2.63-1,1.94-2.15,2.63-7,4.06-13.06.44-14.83-4.91-2.75-8.28-.93-13.19,3.45-15.16,3.29-1.48,5.1-2.63,8,.63C43.55,14,45.88,23.16,46.55,24.62Z" style="fill:#dbdbdb"/><path d="M63.33,81.21s1.64,7.18.53,13.28-7,9.35-7,9.35L54,130.67s-.47,4-2.26,4-1.78-4-1.78-4l-1.5-29.38L47.06,81.21Z" style="fill:#f5f5f5;fill-rule:evenodd"/><path d="M51.72,135.11c-2.22,0-2.28-4-2.28-4.44l-1.5-29.35L46.52,80.71H63.73l.09.39c.06.3,1.64,7.35.53,13.47-1,5.64-5.86,8.89-7,9.57l-2.9,26.59C54.42,131.18,53.89,135.11,51.72,135.11Zm-4.13-53.4,1.35,19.55,1.5,29.39c0,1.15.31,3.46,1.28,3.46s1.62-2.35,1.76-3.5l3-27.08.22-.13c.06,0,5.67-3.22,6.72-9,.93-5.13-.14-11.12-.45-12.69Z" style="fill:#607d8b"/><path d="M60,81.23s4,6.41,2.5,13a11.2,11.2,0,0,1-7.68,8.13l-4.9,15.3-1.68,16s-.45,9.87-3.94,9.87-4.2-9.87-4.2-9.87L37,102.83,34.88,85.52l1.67-4.29Z" style="fill:#f5f5f5;fill-rule:evenodd"/><path d="M44.27,144c-3.84,0-4.62-9.27-4.7-10.33l-3.06-30.78L34.37,85.46l1.84-4.73h24l.15.24c.16.27,4.11,6.66,2.56,13.38a11.59,11.59,0,0,1-7.77,8.43l-4.8,15-1.68,15.91C48.66,134.71,48.12,144,44.27,144ZM35.4,85.59l2.1,17.18,3.07,30.81c.18,2.45,1.24,9.41,3.7,9.41s3.33-7,3.44-9.38l1.71-16.09,5-15.57.27-.07A10.56,10.56,0,0,0,62,94.12c1.3-5.62-1.61-11.19-2.29-12.39H36.89Z" style="fill:#607d8b"/><path d="M39.65,99.78a1.26,1.26,0,0,1-1.2-.89L36,90.79a1.3,1.3,0,0,1,.09-1,1.21,1.21,0,0,1,.74-.61,1.25,1.25,0,0,1,1.56.83h0l2.48,8.1A1.25,1.25,0,0,1,40,99.72,1.13,1.13,0,0,1,39.65,99.78Z" style="fill:#607d8b"/><path d="M48,30.29a13.22,13.22,0,0,1-5.84,3c-3.48.73-5.76,0-8.42-2.89S30.29,23.81,30.4,20s.85-4.09,1.89-5.47,3.87,1.92,6.43.91c.49-.19.91-.37,1.28-.53s1,7.55,1.27,7.42c2.11-1,1-8.94,1-8.94l4.79,14,1.36.19L43.06,11.67S40.72,6,36.73,5.39s-7.09,4.4-10.43,3,5.17,4.41,4.71,5.39c-.86,1.82-1.77,2.84-1.74,6.05s.12,7.74,3.58,11.42A9.75,9.75,0,0,0,42,34.54c1.84-.23,6.64-3,6.64-3Z" style="fill:#607d8b;fill-rule:evenodd"/><path d="M48,30.29l-.06.89.33.63s10.63,10,13.11,15.27a58.15,58.15,0,0,1,4.15,13.51,71,71,0,0,1-.68,14.26c-.67,4-1,5.35-1.12,5.84H35.08c0-2.7,0-16.1,3.74-24.64,3.1-7,1.48-17.07.3-22.19A10.75,10.75,0,0,1,38,33.71c1.15,4.9,2.89,15.12-.14,21.94-4.3,9.69-3.83,24.92-3.81,25.56l0,.48,30,0h0c.51,0,.64,0,1.76-6.69a72.42,72.42,0,0,0,.69-14.54,58.18,58.18,0,0,0-4.24-13.82c-3.08-6.53-13.77-16-14.23-16.4Z" style="fill:#607d8b"/><path d="M39.84,97c-1.39.89-1.39-.58-1.39-.58a35.63,35.63,0,0,0,9.45-13c3.21-8,.51-37.24.51-37.24l3-1.19s2.28,31.08-1.07,38.43A30.37,30.37,0,0,1,39.84,97Z" style="fill:#607d8b;fill-rule:evenodd"/></svg>