<svg width="860" height="193" viewBox="0 0 860 193" fill="none" xmlns="http://www.w3.org/2000/svg">
<path d="M109.635 150.063V71.0622L113.94 66.2034L118.329 71.736V150.063H109.635Z" stroke="#637D89" stroke-width="2"/>
<path d="M93 84.0942V76.5974L106.447 78.3384V85.8352L93 84.0942Z" stroke="#637D89" stroke-width="2"/>
<path d="M118.5 80.0971L182.072 85.9957L183.165 86.0971V85V81.9841L191.159 89.382L182.165 95.5458V93.5135V92.6029L181.258 92.5179L170.593 91.5179L169.5 91.4154V91.5861L168.605 91.5165L130.04 88.5165L128.772 88.4179L128.975 89.6734L129.439 92.5367L128.623 89.2709L128.452 88.5884L127.752 88.5185L118.5 87.5949V80.0971Z" stroke="#637D89" stroke-width="2"/>
<path fill-rule="evenodd" clip-rule="evenodd" d="M175.177 99.4568L124.592 97.3514V140.162H174.498L175.177 99.4568Z" fill="#667D87"/>
<path opacity="0.6" fill-rule="evenodd" clip-rule="evenodd" d="M239.601 82.4764L210.233 150.428H275.262L239.601 82.4764Z" fill="url(#paint0_linear)"/>
<path d="M241.443 83.955L239.984 84.3157V83.866L239.616 83.7901L239.966 83.1129L296.278 90.0438L333.893 149.629L275.915 149.43L241.443 83.955ZM229.235 103.913L209.575 149.43L205.746 149.444L229.235 103.913Z" fill="white" stroke="#607D8B" stroke-width="2"/>
<path fill-rule="evenodd" clip-rule="evenodd" d="M301.9 145.527L243.249 84.8221L294.139 145.981L275.513 150.492L301.9 145.527Z" fill="#DCE1E3"/>
<path d="M277.824 149.067L248.014 92.2258L290.56 143.153L277.824 149.067Z" fill="white" stroke="#637D89" stroke-width="2"/>
<path opacity="0.6" fill-rule="evenodd" clip-rule="evenodd" d="M499.794 104.088L479.635 150.839H524.272L499.794 104.088Z" fill="url(#paint1_linear)"/>
<path d="M563.712 150H524.609L501.358 105.021L538.415 109.593C538.538 109.87 538.707 110.249 538.919 110.716C539.392 111.758 540.08 113.236 540.94 114.988C542.658 118.489 545.071 123.095 547.839 127.49C551.78 133.746 556.065 139.779 559.362 144.244C561.012 146.477 562.415 148.32 563.407 149.606C563.514 149.744 563.615 149.875 563.712 150ZM500.223 104.881L501.248 105.007L500.37 105.221L500.37 105.062L500.153 105.017L500.223 104.881ZM488.769 127.136L478.976 149.86L477.07 149.867L488.769 127.136Z" fill="#FAFAFA" stroke="#607D8B" stroke-width="2"/>
<path opacity="0.2012" fill-rule="evenodd" clip-rule="evenodd" d="M539.995 147.003C539.995 147.003 531.687 140.288 519.956 128.228C509.555 117.536 500.494 105.477 500.494 105.477L516.789 128.228L534.588 145.696L524.443 150.883L539.995 147.003Z" fill="#607D8B"/>
<path fill-rule="evenodd" clip-rule="evenodd" d="M487.252 128.563L475.864 150.72H475.208L486.679 128.563H487.252Z" fill="#FAFAFA"/>
<path opacity="0.6" fill-rule="evenodd" clip-rule="evenodd" d="M582.985 122.053L570.802 150.309H597.78L582.985 122.053Z" fill="url(#paint2_linear)"/>
<path d="M598.405 149.743L584.632 123.523L606.057 126.166C606.118 126.302 606.19 126.462 606.272 126.643C606.56 127.276 606.977 128.173 607.499 129.236C608.541 131.359 610.006 134.156 611.689 136.828C614.078 140.621 616.674 144.276 618.67 146.978C619.506 148.111 620.239 149.078 620.807 149.82L598.405 149.743ZM571.385 146.86L570.143 149.743L569.901 149.744L571.385 146.86Z" fill="#FAFAFA" stroke="#607D8B" stroke-width="2"/>
<path opacity="0.2012" fill-rule="evenodd" clip-rule="evenodd" d="M607.283 147.991C607.283 147.991 602.261 143.932 595.171 136.644C588.885 130.181 583.408 122.893 583.408 122.893L593.257 136.644L604.015 147.201L597.883 150.336L607.283 147.991Z" fill="#607D8B"/>
<path fill-rule="evenodd" clip-rule="evenodd" d="M575.405 136.846L568.522 150.237H568.126L575.059 136.846H575.405Z" fill="#FAFAFA"/>
<path fill-rule="evenodd" clip-rule="evenodd" d="M327.376 18.8223L270.887 149.827H395.968L327.376 18.8223Z" fill="url(#paint3_linear)"/>
<path d="M327.187 41.0417L328.207 150H327.187V41.0417ZM327.003 21.2979L327.015 22.6386L326.383 22.5083L327.003 21.2979ZM327.173 20.9658L327.553 20.2228L436.839 33.705C436.918 33.8873 437.018 34.1152 437.137 34.3863C437.483 35.1712 437.993 36.3186 438.653 37.7712C439.973 40.6764 441.892 44.8031 444.293 49.6936C449.093 59.4715 455.822 72.3163 463.533 84.5585C474.54 102.035 486.208 118.796 495.122 131.186C499.58 137.382 503.35 142.486 506.006 146.042C507.262 147.724 508.269 149.059 508.982 150H397.103L328.885 20.5338L327.173 20.9658ZM261.135 150L318.704 37.5141L270.23 150L261.135 150Z" fill="#FAFAFA" stroke="#607D8B" stroke-width="2"/>
<path opacity="0.2012" fill-rule="evenodd" clip-rule="evenodd" d="M440.028 139.077C440.028 139.077 416.746 120.261 383.873 86.4675C354.728 56.5062 329.337 22.7125 329.337 22.7125L375 86.4675L424.876 135.416L396.449 149.951L440.028 139.077Z" fill="#607D8B"/>
<path d="M421.297 132.701C422.58 133.865 423.598 134.775 424.301 135.398L397.166 149.171L339.759 37.8082C341.28 40.0059 342.957 42.4041 344.772 44.9643C353.776 57.6608 366.188 74.349 379.812 90.2974C390.537 102.854 401.937 114.372 410.65 122.748C415.008 126.937 418.697 130.342 421.297 132.701Z" fill="white" stroke="#607D8B" stroke-width="2"/>
<path fill-rule="evenodd" clip-rule="evenodd" d="M292.232 87.4062L260.318 149.493H258.482L290.625 87.4062H292.232Z" fill="#FAFAFA"/>
<path d="M759.324 2C742.052 2 728 16.07 728 33.3651C728 50.6593 742.052 64.7297 759.324 64.7297C776.597 64.7297 790.648 50.6598 790.648 33.3651C790.648 16.07 776.597 2 759.324 2Z" fill="white" stroke="#667D87" stroke-width="3"/>
<path d="M731.226 122.73H732.726V121.23V34.2595V34.2474L732.725 34.2352L731.226 34.2595C732.725 34.2352 732.725 34.2346 732.725 34.234L732.725 34.2327L732.725 34.2298L732.725 34.2226L732.725 34.2035C732.724 34.1886 732.724 34.1695 732.723 34.1464C732.721 34.1003 732.717 34.0381 732.712 33.9621C732.701 33.8106 732.681 33.6017 732.644 33.3539C732.572 32.8659 732.43 32.1897 732.144 31.4931C731.859 30.8002 731.402 30.0175 730.662 29.401C729.894 28.7623 728.899 28.3676 727.685 28.3676C726.47 28.3676 725.476 28.7637 724.722 29.4284C723.998 30.0668 723.583 30.8729 723.341 31.5745C723.098 32.2804 723 32.9625 722.96 33.4513C722.94 33.7 722.934 33.9095 722.933 34.0613C722.932 34.1374 722.933 34.1997 722.934 34.2458C722.935 34.2586 722.935 34.2701 722.935 34.2804C722.935 34.2831 722.936 34.2857 722.936 34.2882V109.652H713.049V62.3557V62.248L713.033 62.1414L711.549 62.3557C713.033 62.1414 713.033 62.1405 713.033 62.1396L713.033 62.1376L713.032 62.1332L713.03 62.1222L713.026 62.0922C713.024 62.0799 713.021 62.0658 713.018 62.0498C713.016 62.035 713.013 62.0186 713.01 62.0007C712.996 61.9262 712.976 61.8251 712.947 61.7012C712.89 61.4538 712.8 61.113 712.661 60.7098C712.385 59.907 711.91 58.8338 711.109 57.755C709.464 55.5391 706.542 53.4429 701.61 53.4429C696.671 53.4429 693.862 55.5492 692.352 57.8183C691.623 58.9144 691.226 60.0017 691.01 60.811C690.902 61.2179 690.837 61.5615 690.799 61.8108C690.78 61.9357 690.768 62.0376 690.76 62.1127C690.758 62.1246 690.757 62.1358 690.756 62.1464C690.754 62.1692 690.752 62.1888 690.751 62.2051L690.748 62.2356L690.747 62.2467L690.747 62.2513L690.747 62.2533C690.747 62.2542 690.747 62.2551 692.243 62.3557L690.747 62.2551L690.744 62.3019L690.743 62.3488L690.502 115.541H680.384L680.164 90.6787L680.16 90.1546L679.83 89.7475L678.664 90.692C679.83 89.7475 679.829 89.7472 679.829 89.7469L679.829 89.7463L679.827 89.7448L679.825 89.7414L679.817 89.7322L679.794 89.7045C679.775 89.6822 679.75 89.652 679.718 89.6151C679.654 89.5415 679.564 89.4406 679.451 89.3213C679.228 89.0848 678.907 88.7666 678.517 88.4444C677.808 87.8591 676.577 87.0101 675.148 87.0101C673.676 87.0101 672.524 87.8997 671.879 88.5173C671.528 88.8535 671.248 89.1845 671.057 89.43C670.961 89.554 670.885 89.6593 670.83 89.7367C670.803 89.7755 670.781 89.8075 670.765 89.8316L670.745 89.8618L670.738 89.8722L670.736 89.8762L670.734 89.8779L670.734 89.8787C670.734 89.8791 670.734 89.8794 671.994 90.692L670.734 89.8794L670.494 90.2505V90.692V120.249C670.494 124.747 674.163 128.395 678.664 128.395H689.008C689.834 128.395 690.495 129.061 690.495 129.872V150.353V151.853H691.995H711.548H713.048V150.353V122.73H731.226Z" fill="white" stroke="white" stroke-width="3"/>
<path fill-rule="evenodd" clip-rule="evenodd" d="M720.781 107.175V30.3008C720.781 30.3008 722.49 24.5726 728.549 24.5726C734.607 24.5726 736.881 30.3008 736.881 30.3008V43.9102L740.131 46.0244L736.881 48.3408V117.293C736.881 117.891 736.894 118.447 736.906 118.963C736.997 122.895 737.035 124.527 730.914 124.527H717.203V149.353H719.111C720.76 149.353 720.76 150.945 719.111 150.945C719.111 150.945 695.255 151.017 683.25 150.945C659.565 150.804 612.041 150.305 612.041 150.305V149.353H624.612L620.417 140.963L628.834 145.142C628.834 145.142 630.172 136.338 631.821 136.338C633.47 136.338 634.807 145.142 634.807 145.142L643.225 140.963L639.03 149.353H651.54L647.346 140.963L655.763 145.142L658.749 136.338L661.736 145.142L670.153 140.963L665.958 149.353H688.34V130.528H679.665C672.693 130.528 668.34 126.196 668.34 119.249V88.1819C668.34 88.1819 669.819 82.4678 676.134 82.4678C682.45 82.4678 684.552 88.1819 684.552 88.1819V113.064H688.34L688.34 60.9581C688.34 60.9581 690.798 50.1957 702.498 49.4199C714.197 48.644 717.203 59.044 717.203 59.044L717.203 107.175H720.781ZM714.548 122.23H734.226V33.2595C734.226 33.2595 734.36 26.8676 728.685 26.8676C723.01 26.8676 723.436 33.2595 723.436 33.2595V110.152H714.549V61.3557C714.549 61.3557 711.479 51.9429 702.61 51.9429C693.741 51.9429 691.243 61.3557 691.243 61.3557L690.995 116.041H681.897L681.664 89.692C681.664 89.692 680.828 85.5101 676.148 85.5101C671.468 85.5101 670.994 89.692 670.994 89.692V119.249C670.994 123.618 674.202 127.895 679.664 127.895H688.008C689.657 127.895 690.995 129.228 690.995 130.872V149.353H714.548V122.23Z" fill="#637D89"/>
<path d="M695.345 103.48C695.344 103.48 695.343 103.48 695.343 103.48C694.246 103.48 693.356 104.797 693.355 106.422L693.33 142.792C693.329 144.419 694.218 145.739 695.315 145.74C695.316 145.74 695.316 145.74 695.317 145.74C696.414 145.74 697.303 144.423 697.305 142.799L697.33 106.428C697.331 104.802 696.442 103.482 695.345 103.48Z" fill="#667D87"/>
<path d="M695.326 91.5946C694.224 91.5946 693.33 92.3409 693.33 93.2612V93.928C693.33 94.8483 694.224 95.5946 695.326 95.5946C696.429 95.5946 697.323 94.8483 697.323 93.928V93.2612C697.323 92.3408 696.429 91.5946 695.326 91.5946Z" fill="#667D87"/>
<path d="M695.326 85.5946C694.224 85.5946 693.33 86.3409 693.33 87.2612V87.928C693.33 88.8483 694.224 89.5946 695.326 89.5946C696.429 89.5946 697.323 88.8483 697.323 87.928V87.2612C697.323 86.3408 696.429 85.5946 695.326 85.5946Z" fill="#667D87"/>
<path d="M695.326 80.5946C694.224 80.5946 693.33 81.3409 693.33 82.2612V82.928C693.33 83.8483 694.224 84.5946 695.326 84.5946C696.429 84.5946 697.323 83.8483 697.323 82.928V82.2612C697.323 81.3408 696.429 80.5946 695.326 80.5946Z" fill="#667D87"/>
<path d="M139.001 120.425H140.945V122.52H139.001V126H136.391V122.52H129.634L129.559 120.93L136.305 110.359H139.001V120.425ZM132.298 120.425H136.391V113.894L136.197 114.237L132.298 120.425ZM154.303 119.415C154.303 121.664 153.881 123.361 153.036 124.507C152.198 125.646 150.919 126.215 149.201 126.215C147.511 126.215 146.236 125.66 145.376 124.55C144.524 123.433 144.087 121.782 144.066 119.598V116.891C144.066 114.642 144.485 112.955 145.323 111.831C146.168 110.707 147.453 110.145 149.179 110.145C150.891 110.145 152.166 110.692 153.003 111.788C153.848 112.884 154.282 114.524 154.303 116.708V119.415ZM151.693 116.493C151.693 115.025 151.492 113.951 151.091 113.271C150.69 112.583 150.053 112.239 149.179 112.239C148.327 112.239 147.7 112.565 147.299 113.217C146.898 113.861 146.687 114.871 146.666 116.246V119.791C146.666 121.252 146.87 122.34 147.278 123.057C147.686 123.773 148.327 124.131 149.201 124.131C150.039 124.131 150.658 123.801 151.059 123.143C151.46 122.477 151.671 121.438 151.693 120.027V116.493ZM166.877 120.425H168.821V122.52H166.877V126H164.267V122.52H157.51L157.435 120.93L164.181 110.359H166.877V120.425ZM160.174 120.425H164.267V113.894L164.073 114.237L160.174 120.425Z" fill="white"/>
<path opacity="0.616735" fill-rule="evenodd" clip-rule="evenodd" d="M525 149.827H270.412L229 191.827H472.017L525 149.827Z" fill="url(#paint4_linear)"/>
<path opacity="0.616735" fill-rule="evenodd" clip-rule="evenodd" d="M118.5 151H108L65 193H73.2322L118.5 151Z" fill="url(#paint5_linear)"/>
<path fill-rule="evenodd" clip-rule="evenodd" d="M0 150C0 149.448 0.447715 149 1 149H859C859.552 149 860 149.448 860 150C860 150.552 859.552 151 859 151H0.99998C0.447695 151 0 150.552 0 150Z" fill="url(#paint6_linear)"/>
<defs>
<linearGradient id="paint0_linear" x1="210.233" y1="82.4764" x2="210.233" y2="150.428" gradientUnits="userSpaceOnUse">
<stop stop-color="#565656"/>
<stop offset="0.786292" stop-color="#A2A2A2"/>
<stop offset="1" stop-color="#E2E2E2"/>
</linearGradient>
<linearGradient id="paint1_linear" x1="479.635" y1="104.088" x2="479.635" y2="150.839" gradientUnits="userSpaceOnUse">
<stop stop-color="#565656"/>
<stop offset="0.786292" stop-color="#A2A2A2"/>
<stop offset="1" stop-color="#E2E2E2"/>
</linearGradient>
<linearGradient id="paint2_linear" x1="570.802" y1="122.053" x2="570.802" y2="150.309" gradientUnits="userSpaceOnUse">
<stop stop-color="#565656"/>
<stop offset="0.786292" stop-color="#A2A2A2"/>
<stop offset="1" stop-color="#E2E2E2"/>
</linearGradient>
<linearGradient id="paint3_linear" x1="270.887" y1="18.8223" x2="270.887" y2="149.827" gradientUnits="userSpaceOnUse">
<stop stop-color="#565656"/>
<stop offset="0.594444" stop-color="#929292"/>
<stop offset="0.844444" stop-color="#E2E2E2"/>
<stop offset="1" stop-color="#E2E2E2"/>
</linearGradient>
<linearGradient id="paint4_linear" x1="525" y1="149.827" x2="525" y2="191.827" gradientUnits="userSpaceOnUse">
<stop stop-color="#989898"/>
<stop offset="0.328025" stop-color="#B2B2B2" stop-opacity="0.6"/>
<stop offset="1" stop-color="#ABABAB" stop-opacity="0.01"/>
</linearGradient>
<linearGradient id="paint5_linear" x1="118" y1="151" x2="118" y2="193" gradientUnits="userSpaceOnUse">
<stop stop-color="#989898"/>
<stop offset="0.328025" stop-color="#B2B2B2" stop-opacity="0.6"/>
<stop offset="1" stop-color="#ABABAB" stop-opacity="0.01"/>
</linearGradient>
<linearGradient id="paint6_linear" x1="843.947" y1="151.006" x2="17.2005" y2="149.688" gradientUnits="userSpaceOnUse">
<stop stop-color="#607D8B" stop-opacity="0"/>
<stop offset="0.144444" stop-color="#607D8B"/>
<stop offset="0.844444" stop-color="#607D8B" stop-opacity="0.873786"/>
<stop offset="1" stop-color="#607D8B" stop-opacity="0"/>
</linearGradient>
</defs>
</svg>
