<svg width="230" height="374" viewBox="0 0 230 374" fill="none" xmlns="http://www.w3.org/2000/svg">
<g transform="translate(0 50)"><path fill-rule="evenodd" clip-rule="evenodd" d="M120.959 201.285C120.959 201.285 119.022 188.346 118.957 175.973C120.738 159.486 124.989 151.261 131.097 140.983C131.339 139.96 134.986 137.895 139.27 132.778C141.518 130.522 146.766 127.61 150.392 126.651C153.358 125.867 156.572 122.796 159.986 122.237C167.249 121.047 174.126 120.591 174.126 120.591C174.126 120.591 172.131 131.802 172.148 135.014C172.17 139.138 172.211 146.91 172.257 155.635C172.139 165.976 172.332 169.959 172.376 178.318C172.42 186.677 170.409 194.804 170.409 194.804L120.959 201.285Z" fill="#92CDF4"/>
<path fill-rule="evenodd" clip-rule="evenodd" d="M120.963 201.291C120.963 201.291 119.028 188.353 118.964 175.983C120.748 159.499 124.999 151.275 131.108 140.998C131.35 139.975 137.227 132.783 145.422 128.702C149.519 126.662 153.617 124.621 159.997 122.251C166.377 119.882 174.135 120.604 174.135 120.604C174.135 120.604 172.139 131.814 172.155 135.025C172.177 139.149 172.217 146.918 172.261 155.642C172.143 165.981 172.335 169.964 172.378 178.321C172.421 186.678 170.409 194.804 170.409 194.804L120.963 201.291Z" stroke="#607D8B"/>
<path fill-rule="evenodd" clip-rule="evenodd" d="M166.326 200.102L147.09 246.377L169.462 299.533C169.462 299.533 169.471 307.735 163.318 301.577C153.492 290.626 150.087 270.857 135.753 249.192C127.645 234.081 121.18 200.072 121.18 200.072L166.326 200.102Z" fill="#FAFAFA" stroke="#607D8B"/>
<path opacity="0.12" fill-rule="evenodd" clip-rule="evenodd" d="M167.8 133.832C167.8 133.832 171.49 119.334 173.656 119.686C171.707 123.729 171.652 135.83 171.652 135.83C171.652 135.83 171.606 145.914 171.55 158.015C171.431 184.235 168.732 190.298 168.732 190.298L154.012 194.402C154.012 194.402 156.737 177.63 163.811 162.086C170.885 146.542 167.8 133.832 167.8 133.832Z" fill="black"/>
<path fill-rule="evenodd" clip-rule="evenodd" d="M170.587 191.653C170.587 191.653 172.763 197.576 170.653 202.371C168.544 207.166 162.49 213.555 162.49 213.555C162.49 213.555 161.167 222.812 162.419 240.459C162.373 258.11 177.127 301.27 177.127 301.27C177.127 301.27 179.742 307.539 177.127 307.969C174.513 308.398 162.419 287.534 162.419 287.534C162.419 287.534 144.756 254.614 140.779 242.396C134.746 230.199 122.731 201.264 122.731 201.264L170.587 191.653Z" fill="#F5F5F5" stroke="#607D8B"/>
<path fill-rule="evenodd" clip-rule="evenodd" d="M164.306 114.83C162.61 110.694 159.552 108.714 157.547 103.751C155.542 98.7881 153.028 93.3897 155.179 86.0191C157.33 78.6484 162.681 73.681 169.179 70.1525C175.676 66.6239 176.848 67.6454 180.159 68.0962C183.47 68.5471 180.777 76.6064 184.981 80.0307C185.778 80.68 186.484 81.2393 187.11 81.7201C187.716 82.1862 179.811 91.4836 180.275 91.8129C185.34 92.076 191.872 84.1097 191.872 84.1097L170.204 119.763L171.914 120.158L195.489 83.8381C195.489 83.8381 202.728 74.2707 199.734 66.8594C196.82 59.6473 191.729 60.2093 194.031 54.4334C173.596 51.4954 182.233 65.0059 180.136 65.1664C176.264 65.4628 173.66 64.8921 168.331 68.053C163.001 71.2139 156.173 76.0993 153.457 85.6216C150.742 95.1438 154.402 100.815 155.994 104.755C157.586 108.696 162.59 115.234 162.59 115.234L162.497 118.868C162.497 118.868 163.411 120.032 164.147 119.249C164.883 118.467 164.738 115.883 164.306 114.83Z" fill="#607D8B"/>
<path opacity="0.09" fill-rule="evenodd" clip-rule="evenodd" d="M155.717 312.929C185.486 312.929 209.618 310.918 209.618 308.437C209.618 305.956 185.486 303.945 155.717 303.945C125.947 303.945 101.815 305.956 101.815 308.437C101.815 310.918 125.947 312.929 155.717 312.929Z" fill="black"/>
<path d="M154.706 140.544C154.706 140.544 131.778 160.591 117.239 167.909C106.191 173.47 90.9418 162.058 81.8743 145.545C77.827 138.298 77.827 132.284 77.827 132.284" stroke="#607D8B" stroke-linecap="round"/>
<path d="M135.632 135.424C135.632 135.424 129.53 142.347 114.232 153.531C104.923 160.337 92.8155 144.859 92.8155 135.424" stroke="#607D8B" stroke-linecap="round"/>
<path fill-rule="evenodd" clip-rule="evenodd" d="M155.82 88.7996C151.88 90.8927 153.663 92.1737 154.501 99.7042C164.694 95.3378 165.247 99.9239 170.282 102.521C174.183 100.945 168.335 90.7012 167.861 90.8927C164.572 88.2027 159.761 86.7065 155.82 88.7996Z" fill="#607D8B"/>
<path d="M124.265 67.5748L123.943 67.9579L123.522 67.6047L123.913 67.2187L124.265 67.5748ZM133.06 66.447L132.917 66.926L132.917 66.926L133.06 66.447ZM134.496 76.1529L134.817 75.7697L135.215 76.1033L134.867 76.4883L134.496 76.1529ZM127.517 83.8683L127.888 84.2037L127.56 84.567L127.19 84.2459L127.517 83.8683ZM118.3 75.8673L117.802 75.8204L117.893 74.8522L118.628 75.4897L118.3 75.8673ZM126.731 90.7211L126.887 90.2461L126.914 90.2551L126.94 90.2671L126.731 90.7211ZM142.824 88.6633L143.196 88.9981L143.196 88.9981L142.824 88.6633ZM141.652 71.6396L142.044 71.3292L142.053 71.3409L142.062 71.3532L141.652 71.6396ZM131.432 94.8931L131.723 94.4863L132.171 94.8066L131.809 95.2218L131.432 94.8931ZM127.36 99.5604L127.737 99.889L127.429 100.242L127.057 99.958L127.36 99.5604ZM121.683 87.9273L121.464 87.478L121.732 87.3473L121.974 87.5205L121.683 87.9273ZM117.083 90.1732L117.303 90.6225L117.083 90.7299L116.863 90.6221L117.083 90.1732ZM112.228 87.7908L111.841 87.4737L112.092 87.1675L112.448 87.3419L112.228 87.7908ZM104.018 97.798L103.654 98.1404L103.353 97.8203L103.632 97.4808L104.018 97.798ZM111.153 105.391L111.517 105.048L110.9 105.822L111.153 105.391ZM105.763 102.24L105.388 101.909L105.66 101.601L106.015 101.808L105.763 102.24ZM69.0554 143.803L68.6452 143.517L68.6616 143.493L68.6807 143.472L69.0554 143.803ZM69.0554 152.687L68.6958 153.035V153.035L69.0554 152.687ZM78.9261 151.535L79.3203 151.843L79.2821 151.892L79.2329 151.93L78.9261 151.535ZM113.772 106.883L113.378 106.575L113.741 106.11L114.14 106.545L113.772 106.883ZM116.937 110.33L117.278 110.696L116.909 111.039L116.569 110.668L116.937 110.33ZM121.118 106.433L121.485 106.093L121.823 106.458L121.459 106.798L121.118 106.433ZM117.881 102.939L117.514 103.279L117.225 102.967L117.486 102.632L117.881 102.939ZM123.06 96.2812L122.665 95.9742L122.969 95.5833L123.363 95.8836L123.06 96.2812ZM123.355 98.0885L122.938 97.8124L123.273 97.3066L123.706 97.732L123.355 98.0885ZM126.31 100.994L126.66 100.638L127.005 100.977L126.678 101.332L126.31 100.994ZM119.994 103.163L119.632 103.508L119.357 103.219L119.577 102.887L119.994 103.163ZM122.195 105.474L122.563 105.813L122.202 106.206L121.833 105.819L122.195 105.474ZM120.773 87.4747L121.157 87.1536L121.567 87.6431L120.993 87.9238L120.773 87.4747ZM117.698 83.8044L117.321 83.4759L117.705 83.0348L118.081 83.4832L117.698 83.8044ZM116.856 89.3922L117.076 89.8412L116.789 89.9819L116.541 89.78L116.856 89.3922ZM114.499 87.4747L114.184 87.8626L113.782 87.5362L114.122 87.1463L114.499 87.4747ZM124.265 67.5748C123.913 67.2187 123.914 67.2185 123.914 67.2183C123.914 67.2182 123.914 67.2179 123.915 67.2177C123.915 67.2173 123.915 67.2169 123.916 67.2164C123.917 67.2155 123.918 67.2144 123.919 67.2131C123.922 67.2105 123.925 67.2072 123.93 67.2033C123.938 67.1954 123.949 67.185 123.963 67.1722C123.992 67.1465 124.032 67.1114 124.084 67.0686C124.187 66.983 124.338 66.8667 124.537 66.735C124.934 66.4715 125.521 66.1454 126.299 65.8791C127.862 65.3442 130.167 65.0594 133.203 65.9679L132.917 66.926C130.083 66.0779 127.991 66.3571 126.623 66.8252C125.936 67.0604 125.425 67.3457 125.09 67.5681C124.922 67.6793 124.799 67.7747 124.72 67.84C124.68 67.8726 124.652 67.8977 124.634 67.9135C124.626 67.9213 124.62 67.9269 124.617 67.9298C124.615 67.9313 124.614 67.9322 124.614 67.9323C124.614 67.9324 124.614 67.9323 124.614 67.9321C124.614 67.932 124.615 67.9318 124.615 67.9316C124.615 67.9315 124.615 67.9313 124.615 67.9312C124.615 67.931 124.616 67.9308 124.265 67.5748ZM134.175 76.536L123.943 67.9579L124.586 67.1916L134.817 75.7697L134.175 76.536ZM127.147 83.5329L134.125 75.8175L134.867 76.4883L127.888 84.2037L127.147 83.5329ZM118.628 75.4897L127.845 83.4907L127.19 84.2459L117.972 76.2449L118.628 75.4897ZM119.603 85.5393C118.425 83.4646 117.982 81.0253 117.826 79.133C117.748 78.1821 117.742 77.358 117.755 76.7707C117.761 76.4768 117.773 76.2417 117.783 76.0788C117.788 75.9974 117.793 75.934 117.796 75.8904C117.798 75.8686 117.799 75.8517 117.8 75.84C117.801 75.8341 117.801 75.8295 117.801 75.8262C117.802 75.8246 117.802 75.8233 117.802 75.8223C117.802 75.8218 117.802 75.8214 117.802 75.8211C117.802 75.8209 117.802 75.8208 117.802 75.8207C117.802 75.8205 117.802 75.8204 118.3 75.8673C118.798 75.9141 118.798 75.914 118.798 75.914C118.798 75.914 118.798 75.9139 118.798 75.9139C118.798 75.9139 118.798 75.914 118.798 75.9142C118.798 75.9146 118.798 75.9152 118.797 75.9162C118.797 75.9182 118.797 75.9216 118.797 75.9261C118.796 75.9353 118.795 75.9495 118.793 75.9687C118.79 76.0069 118.786 76.0647 118.781 76.1402C118.772 76.2914 118.761 76.5136 118.755 76.7933C118.742 77.3533 118.748 78.1417 118.823 79.0511C118.973 80.8796 119.398 83.1529 120.473 85.0457L119.603 85.5393ZM126.731 90.7211C126.574 91.196 126.574 91.196 126.574 91.1959C126.574 91.1959 126.574 91.1958 126.574 91.1957C126.573 91.1956 126.573 91.1955 126.572 91.1953C126.571 91.195 126.57 91.1946 126.569 91.1941C126.566 91.1931 126.562 91.1918 126.557 91.19C126.547 91.1866 126.532 91.1816 126.514 91.1752C126.477 91.1623 126.425 91.1433 126.358 91.1181C126.225 91.0675 126.034 90.9916 125.8 90.8883C125.331 90.6818 124.685 90.3647 123.966 89.9198C122.532 89.0324 120.784 87.6208 119.603 85.5393L120.473 85.0457C121.543 86.9316 123.142 88.2343 124.492 89.0694C125.164 89.4856 125.769 89.7818 126.203 89.9732C126.42 90.0689 126.594 90.1381 126.713 90.183C126.772 90.2054 126.817 90.2217 126.847 90.2322C126.861 90.2374 126.872 90.2411 126.879 90.2434C126.883 90.2446 126.885 90.2454 126.886 90.2458C126.887 90.2461 126.887 90.2462 126.887 90.2462C126.887 90.2463 126.887 90.2463 126.887 90.2462C126.887 90.2462 126.887 90.2462 126.887 90.2462C126.887 90.2461 126.887 90.2461 126.731 90.7211ZM143.196 88.9981C140.027 92.5134 135.814 93.0338 132.463 92.7025C130.785 92.5366 129.304 92.1562 128.244 91.8182C127.713 91.649 127.286 91.4897 126.99 91.3722C126.842 91.3133 126.726 91.2649 126.647 91.2307C126.608 91.2136 126.577 91.2001 126.556 91.1907C126.545 91.186 126.537 91.1822 126.531 91.1796C126.528 91.1783 126.526 91.1772 126.524 91.1765C126.523 91.1761 126.523 91.1758 126.522 91.1755C126.522 91.1754 126.522 91.1753 126.522 91.1752C126.521 91.1751 126.521 91.175 126.731 90.7211C126.94 90.2671 126.94 90.2671 126.94 90.267C126.94 90.267 126.94 90.267 126.94 90.267C126.94 90.2671 126.94 90.2672 126.941 90.2673C126.942 90.2677 126.943 90.2683 126.945 90.2692C126.949 90.271 126.955 90.2738 126.964 90.2777C126.981 90.2854 127.008 90.2971 127.043 90.3124C127.114 90.343 127.22 90.3877 127.359 90.4428C127.636 90.5529 128.042 90.7041 128.548 90.8654C129.561 91.1886 130.971 91.5501 132.561 91.7073C135.748 92.0224 139.581 91.5138 142.453 88.3285L143.196 88.9981ZM141.652 71.6396C142.062 71.3532 142.062 71.3534 142.062 71.3536C142.062 71.3538 142.062 71.354 142.062 71.3543C142.063 71.3548 142.063 71.3554 142.064 71.3563C142.065 71.3579 142.066 71.3601 142.068 71.363C142.072 71.3688 142.078 71.377 142.085 71.3877C142.1 71.409 142.121 71.44 142.148 71.4804C142.201 71.561 142.278 71.6788 142.373 71.8304C142.564 72.1335 142.827 72.5721 143.124 73.1189C143.716 74.2108 144.445 75.742 144.981 77.4921C146.049 80.9748 146.392 85.4529 143.196 88.9981L142.453 88.3285C145.298 85.173 145.054 81.1393 144.025 77.7853C143.514 76.1171 142.816 74.6488 142.245 73.5957C141.96 73.07 141.707 72.6498 141.526 72.3622C141.436 72.2184 141.364 72.1079 141.315 72.034C141.29 71.9971 141.272 71.9694 141.259 71.9512C141.253 71.9422 141.248 71.9355 141.246 71.9313C141.244 71.9292 141.243 71.9277 141.242 71.9268C141.242 71.9263 141.242 71.9261 141.242 71.9259C141.242 71.9259 141.242 71.9259 141.242 71.9259C141.242 71.9259 141.242 71.926 141.652 71.6396ZM133.203 65.9679C136.205 66.8661 138.406 68.1951 139.86 69.3044C140.588 69.8591 141.128 70.359 141.49 70.7231C141.67 70.9052 141.806 71.0535 141.898 71.1578C141.944 71.21 141.979 71.2512 142.004 71.2802C142.016 71.2947 142.025 71.3061 142.032 71.3143C142.035 71.3184 142.038 71.3217 142.04 71.3242C142.041 71.3255 142.042 71.3265 142.042 71.3273C142.043 71.3277 142.043 71.3281 142.043 71.3284C142.043 71.3286 142.043 71.3288 142.043 71.3288C142.044 71.329 142.044 71.3292 141.652 71.6396C141.26 71.9501 141.26 71.9502 141.26 71.9503C141.26 71.9504 141.26 71.9505 141.26 71.9505C141.26 71.9506 141.26 71.9507 141.26 71.9507C141.26 71.9507 141.26 71.9505 141.26 71.95C141.259 71.9492 141.258 71.9476 141.256 71.9451C141.252 71.9402 141.245 71.9321 141.236 71.921C141.217 71.8988 141.188 71.8645 141.148 71.8193C141.069 71.7288 140.946 71.5949 140.78 71.4275C140.447 71.0925 139.941 70.6236 139.254 70.0996C137.88 69.0517 135.785 67.7844 132.917 66.926L133.203 65.9679ZM131.809 95.2218L127.737 99.889L126.984 99.2317L131.055 94.5644L131.809 95.2218ZM121.974 87.5205L131.723 94.4863L131.141 95.2999L121.393 88.3341L121.974 87.5205ZM116.864 89.7239L121.464 87.478L121.903 88.3766L117.303 90.6225L116.864 89.7239ZM112.448 87.3419L117.303 89.7243L116.863 90.6221L112.008 88.2397L112.448 87.3419ZM103.632 97.4808L111.841 87.4737L112.614 88.1079L104.405 98.1151L103.632 97.4808ZM110.788 105.733L103.654 98.1404L104.383 97.4556L111.517 105.048L110.788 105.733ZM106.015 101.808L111.405 104.959L110.9 105.822L105.511 102.672L106.015 101.808ZM68.6807 143.472L105.388 101.909L106.138 102.571L69.4302 144.134L68.6807 143.472ZM68.6958 153.035C66.7316 151.002 66.7486 148.574 67.2222 146.725C67.459 145.8 67.8128 145.002 68.1057 144.437C68.2526 144.154 68.3852 143.927 68.4821 143.77C68.5305 143.691 68.5701 143.63 68.5982 143.587C68.6122 143.566 68.6234 143.549 68.6313 143.537C68.6353 143.531 68.6385 143.527 68.6408 143.523C68.642 143.522 68.6429 143.52 68.6436 143.519C68.644 143.519 68.6443 143.518 68.6446 143.518C68.6447 143.518 68.6449 143.518 68.6449 143.517C68.6451 143.517 68.6452 143.517 69.0554 143.803C69.4656 144.089 69.4657 144.089 69.4658 144.089C69.4658 144.088 69.4659 144.088 69.4659 144.088C69.466 144.088 69.466 144.088 69.4659 144.088C69.4658 144.089 69.4654 144.089 69.4649 144.09C69.4638 144.092 69.4618 144.094 69.4591 144.098C69.4537 144.106 69.4451 144.119 69.4336 144.137C69.4108 144.171 69.3766 144.224 69.3337 144.294C69.2479 144.433 69.1277 144.639 68.9935 144.898C68.7243 145.417 68.4037 146.142 68.1909 146.973C67.7654 148.635 67.7823 150.65 69.415 152.34L68.6958 153.035ZM78.9261 151.535C79.2329 151.93 79.2328 151.93 79.2326 151.93C79.2325 151.93 79.2323 151.93 79.2321 151.93C79.2318 151.931 79.2313 151.931 79.2308 151.931C79.2297 151.932 79.2282 151.933 79.2263 151.935C79.2226 151.938 79.2174 151.942 79.2107 151.947C79.1973 151.957 79.178 151.972 79.153 151.99C79.1031 152.027 79.0307 152.08 78.9379 152.146C78.7523 152.277 78.4847 152.458 78.1528 152.664C77.4909 153.073 76.5639 153.584 75.5145 153.975C73.4454 154.748 70.7108 155.12 68.6958 153.035L69.415 152.34C70.997 153.977 73.1978 153.773 75.1648 153.039C76.1334 152.677 76.9998 152.201 77.6265 151.813C77.939 151.62 78.1897 151.45 78.3612 151.329C78.447 151.268 78.5128 151.22 78.5566 151.187C78.5785 151.171 78.5948 151.159 78.6054 151.151C78.6107 151.147 78.6145 151.144 78.6168 151.142C78.618 151.141 78.6188 151.141 78.6192 151.14C78.6194 151.14 78.6196 151.14 78.6196 151.14C78.6196 151.14 78.6195 151.14 78.6195 151.14C78.6195 151.14 78.6194 151.14 78.9261 151.535ZM114.166 107.191L79.3203 151.843L78.532 151.227L113.378 106.575L114.166 107.191ZM116.569 110.668L113.404 107.221L114.14 106.545L117.305 109.992L116.569 110.668ZM121.459 106.798L117.278 110.696L116.596 109.964L120.777 106.067L121.459 106.798ZM118.247 102.599L121.485 106.093L120.751 106.772L117.514 103.279L118.247 102.599ZM123.454 96.5882L118.275 103.246L117.486 102.632L122.665 95.9742L123.454 96.5882ZM127.057 99.958L122.756 96.6788L123.363 95.8836L127.664 99.1627L127.057 99.958ZM123.706 97.732L126.66 100.638L125.959 101.351L123.004 98.4449L123.706 97.732ZM119.577 102.887L122.938 97.8124L123.772 98.3646L120.411 103.439L119.577 102.887ZM121.833 105.819L119.632 103.508L120.356 102.818L122.557 105.13L121.833 105.819ZM126.678 101.332L122.563 105.813L121.827 105.136L125.941 100.656L126.678 101.332ZM120.39 87.7959L117.314 84.1255L118.081 83.4832L121.157 87.1536L120.39 87.7959ZM116.637 88.9431L120.553 87.0257L120.993 87.9238L117.076 89.8412L116.637 88.9431ZM114.815 87.0869L117.172 89.0043L116.541 89.78L114.184 87.8626L114.815 87.0869ZM118.074 84.1328L114.876 87.8032L114.122 87.1463L117.321 83.4759L118.074 84.1328Z" fill="#607D8B"/>
<path fill-rule="evenodd" clip-rule="evenodd" d="M164.109 64.2383C167.395 63.0424 168.969 59.8244 166.99 54.385C165.01 48.9457 158.231 44.0708 156.94 44.5407C155.649 45.0106 153.883 52.9954 155.863 58.4348C157.843 63.8741 160.824 65.4342 164.109 64.2383Z" fill="#92CDF4" stroke="#607D8B"/>
<path fill-rule="evenodd" clip-rule="evenodd" d="M138.996 58.5432C141.035 57.8009 142.012 55.8037 140.784 52.4278C139.555 49.0518 135.347 46.0263 134.546 46.3179C133.745 46.6095 132.649 51.5653 133.878 54.9412C135.107 58.3171 136.957 59.2854 138.996 58.5432Z" fill="#92CDF4" stroke="#607D8B"/>
<path fill-rule="evenodd" clip-rule="evenodd" d="M136.702 42.3463C138.111 41.8338 138.785 40.4546 137.937 38.1235C137.089 35.7923 134.183 33.7031 133.63 33.9045C133.077 34.1058 132.32 37.5279 133.168 39.8591C134.017 42.1902 135.294 42.8588 136.702 42.3463Z" fill="#92CDF4" stroke="#607D8B"/>
<path fill-rule="evenodd" clip-rule="evenodd" d="M126.978 33.1389C128.386 32.6264 129.061 31.2472 128.212 28.9161C127.364 26.5849 124.458 24.4957 123.905 24.6971C123.352 24.8984 122.595 28.3205 123.444 30.6517C124.292 32.9828 125.57 33.6514 126.978 33.1389Z" fill="#92CDF4" stroke="#607D8B"/>
<path fill-rule="evenodd" clip-rule="evenodd" d="M116.208 38.7503C117.209 38.9999 118.126 38.4723 118.539 36.8145C118.952 35.1566 118.098 32.8446 117.705 32.7465C117.311 32.6484 115.561 34.311 115.148 35.9689C114.734 37.6268 115.206 38.5006 116.208 38.7503Z" fill="#92CDF4" stroke="#607D8B"/>
<path fill-rule="evenodd" clip-rule="evenodd" d="M148.677 47.6777C150.339 47.0728 151.135 45.4451 150.134 42.6938C149.133 39.9426 145.704 37.4768 145.051 37.7145C144.398 37.9522 143.505 41.991 144.506 44.7422C145.507 47.4935 147.015 48.2825 148.677 47.6777Z" fill="#92CDF4" stroke="#607D8B"/>
<path fill-rule="evenodd" clip-rule="evenodd" d="M175.038 19.9624L174.951 6.13458H146.496L116.268 8.38633L37.1234 7.19758L27.0241 6.88907C27.0241 6.88907 15.4486 5.67155 9.8479 11.7939C4.24721 17.9163 5.0439 26.9165 5.0439 26.9165L6.73638 36.7021L6.75466 159.591L6.89868 220.438L6.06378 324L8.02822 322.621L8.69643 202.566L8.9143 159.279L8.8273 36.5398L7.40679 27.0379C7.40679 27.0379 5.59764 19.3322 11.7629 13.087C17.9281 6.84173 27.0987 9.36161 27.0987 9.36161H36.8003L116.492 9.97382L125.585 7.84387L146.496 8.38633L173.459 7.84387L173.712 18.3328L147.039 18.4776L125.585 22.5595H116.268L36.8515 19.0756L27.0987 20.1656C27.0987 20.1656 21.8287 19.9764 19.9896 23.8364C18.1506 27.6963 19.5063 36.2671 19.5063 36.2671L19.4383 160.649L19.0333 243.485L19.1766 321.454L21.3304 319.217L21.1981 243.6L21.3019 160.567L21.4591 36.2379C21.4591 36.2379 19.4383 28.2304 21.1981 24.3982C22.9579 20.566 28.1208 21.7309 28.1208 21.7309L36.7016 21.0005L116.268 23.8364L147.038 20.1725L175.038 19.9624Z" fill="#607D8B"/>
<mask id="path-19-inside-1" fill="white">
<path fill-rule="evenodd" clip-rule="evenodd" d="M116.743 0L125.334 2.62656L117.892 26.9679L109.301 24.3414L116.743 0ZM137.749 0H146.733V25.4536H137.749V22.459H125.771V2.99452H137.749V0Z"/>
</mask>
<path fill-rule="evenodd" clip-rule="evenodd" d="M116.743 0L125.334 2.62656L117.892 26.9679L109.301 24.3414L116.743 0ZM137.749 0H146.733V25.4536H137.749V22.459H125.771V2.99452H137.749V0Z" fill="#F5F5F5"/>
<path d="M125.334 2.62656L126.29 2.91893L126.583 1.96262L125.626 1.67025L125.334 2.62656ZM116.743 0L117.035 -0.956305L116.079 -1.24867L115.787 -0.292374L116.743 0ZM117.892 26.9679L117.6 27.9242L118.556 28.2166L118.848 27.2603L117.892 26.9679ZM109.301 24.3414L108.345 24.049L108.052 25.0053L109.009 25.2977L109.301 24.3414ZM146.733 0H147.733V-1H146.733V0ZM137.749 0V-1H136.749V0H137.749ZM146.733 25.4536V26.4536H147.733V25.4536H146.733ZM137.749 25.4536H136.749V26.4536H137.749V25.4536ZM137.749 22.459H138.749V21.459H137.749V22.459ZM125.771 22.459H124.771V23.459H125.771V22.459ZM125.771 2.99452V1.99452H124.771V2.99452H125.771ZM137.749 2.99452V3.99452H138.749V2.99452H137.749ZM125.626 1.67025L117.035 -0.956305L116.451 0.956305L125.042 3.58286L125.626 1.67025ZM118.848 27.2603L126.29 2.91893L124.378 2.33418L116.936 26.6756L118.848 27.2603ZM109.009 25.2977L117.6 27.9242L118.185 26.0116L109.593 23.3851L109.009 25.2977ZM115.787 -0.292374L108.345 24.049L110.257 24.6337L117.699 0.292374L115.787 -0.292374ZM146.733 -1H137.749V1H146.733V-1ZM147.733 25.4536V0H145.733V25.4536H147.733ZM137.749 26.4536H146.733V24.4536H137.749V26.4536ZM136.749 22.459V25.4536H138.749V22.459H136.749ZM137.749 21.459H125.771V23.459H137.749V21.459ZM126.771 22.459V2.99452H124.771V22.459H126.771ZM125.771 3.99452H137.749V1.99452H125.771V3.99452ZM136.749 0V2.99452H138.749V0H136.749Z" fill="#607D8B" mask="url(#path-19-inside-1)"/>
<mask id="path-21-inside-2" fill="white">
<path fill-rule="evenodd" clip-rule="evenodd" d="M37.432 0H28.4484V25.4536H37.432V0ZM26.951 26.9508H0.00012207V37.4317H26.951V26.9508Z"/>
</mask>
<path fill-rule="evenodd" clip-rule="evenodd" d="M37.432 0H28.4484V25.4536H37.432V0ZM26.951 26.9508H0.00012207V37.4317H26.951V26.9508Z" fill="#F5F5F5"/>
<path d="M28.4484 0V-1H27.4484V0H28.4484ZM37.432 0H38.432V-1H37.432V0ZM28.4484 25.4536H27.4484V26.4536H28.4484V25.4536ZM37.432 25.4536V26.4536H38.432V25.4536H37.432ZM0.00012207 26.9508V25.9508H-0.999878V26.9508H0.00012207ZM26.951 26.9508H27.951V25.9508H26.951V26.9508ZM0.00012207 37.4317H-0.999878V38.4317H0.00012207V37.4317ZM26.951 37.4317V38.4317H27.951V37.4317H26.951ZM28.4484 1H37.432V-1H28.4484V1ZM29.4484 25.4536V0H27.4484V25.4536H29.4484ZM37.432 24.4536H28.4484V26.4536H37.432V24.4536ZM36.432 0V25.4536H38.432V0H36.432ZM0.00012207 27.9508H26.951V25.9508H0.00012207V27.9508ZM1.00012 37.4317V26.9508H-0.999878V37.4317H1.00012ZM26.951 36.4317H0.00012207V38.4317H26.951V36.4317ZM25.951 26.9508V37.4317H27.951V26.9508H25.951Z" fill="#607D8B" mask="url(#path-21-inside-2)"/>
<mask id="path-23-inside-3" fill="white">
<path fill-rule="evenodd" clip-rule="evenodd" d="M25.4536 158.71V167.694L22.4591 167.694L22.4592 172.186H28.4483V169.191H38.9292V172.186V190.153V194.645H28.4483V190.153H22.4592L22.4591 194.645H2.99457V167.694L0 167.694V158.71H25.4536ZM25.4536 203.629L25.4536 194.645H0V203.629H25.4536Z"/>
</mask>
<path fill-rule="evenodd" clip-rule="evenodd" d="M25.4536 158.71V167.694L22.4591 167.694L22.4592 172.186H28.4483V169.191H38.9292V172.186V190.153V194.645H28.4483V190.153H22.4592L22.4591 194.645H2.99457V167.694L0 167.694V158.71H25.4536ZM25.4536 203.629L25.4536 194.645H0V203.629H25.4536Z" fill="#F5F5F5"/>
<path d="M25.4536 167.694L25.4536 168.694L26.4536 168.694V167.694H25.4536ZM25.4536 158.71H26.4536V157.71H25.4536V158.71ZM22.4591 167.694L22.4591 166.694L21.4591 166.694L21.4591 167.694L22.4591 167.694ZM22.4592 172.186L21.4592 172.186L21.4592 173.186H22.4592V172.186ZM28.4483 172.186V173.186H29.4483V172.186H28.4483ZM28.4483 169.191V168.191H27.4483V169.191H28.4483ZM38.9292 169.191H39.9292V168.191H38.9292V169.191ZM38.9292 194.645V195.645H39.9292V194.645H38.9292ZM28.4483 194.645H27.4483V195.645H28.4483V194.645ZM28.4483 190.153H29.4483V189.153H28.4483V190.153ZM22.4592 190.153V189.153H21.4592L21.4592 190.153L22.4592 190.153ZM22.4591 194.645V195.645H23.4591L23.4591 194.645L22.4591 194.645ZM2.99457 194.645H1.99457V195.645H2.99457V194.645ZM2.99457 167.694H3.99457V166.694L2.99455 166.694L2.99457 167.694ZM0 167.694H-1V168.694L1.90735e-05 168.694L0 167.694ZM0 158.71V157.71H-1V158.71H0ZM25.4536 194.645H26.4536V193.645H25.4536V194.645ZM25.4536 203.629V204.629H26.4536V203.629H25.4536ZM0 194.645V193.645H-1V194.645H0ZM0 203.629H-1V204.629H0V203.629ZM26.4536 167.694V158.71H24.4536V167.694H26.4536ZM22.4591 168.694L25.4536 168.694L25.4536 166.694L22.4591 166.694L22.4591 168.694ZM23.4592 172.186L23.4591 167.694L21.4591 167.694L21.4592 172.186L23.4592 172.186ZM28.4483 171.186H22.4592V173.186H28.4483V171.186ZM27.4483 169.191V172.186H29.4483V169.191H27.4483ZM38.9292 168.191H28.4483V170.191H38.9292V168.191ZM39.9292 172.186V169.191H37.9292V172.186H39.9292ZM39.9292 190.153V172.186H37.9292V190.153H39.9292ZM39.9292 194.645V190.153H37.9292V194.645H39.9292ZM28.4483 195.645H38.9292V193.645H28.4483V195.645ZM27.4483 190.153V194.645H29.4483V190.153H27.4483ZM22.4592 191.153H28.4483V189.153H22.4592V191.153ZM23.4591 194.645L23.4592 190.153L21.4592 190.153L21.4591 194.645L23.4591 194.645ZM2.99457 195.645H22.4591V193.645H2.99457V195.645ZM1.99457 167.694V194.645H3.99457V167.694H1.99457ZM1.90735e-05 168.694L2.99459 168.694L2.99455 166.694L-1.90735e-05 166.694L1.90735e-05 168.694ZM-1 158.71V167.694H1V158.71H-1ZM25.4536 157.71H0V159.71H25.4536V157.71ZM24.4536 194.645L24.4536 203.629H26.4536L26.4536 194.645H24.4536ZM0 195.645H25.4536V193.645H0V195.645ZM1 203.629V194.645H-1V203.629H1ZM25.4536 202.629H0V204.629H25.4536V202.629Z" fill="#607D8B" mask="url(#path-23-inside-3)"/>
</g>
<path transform="translate(35 15)" d="M10.3582 33.96C8.08619 33.96 6.15019 33.544 4.55019 32.712C2.95019 31.88 1.44619 30.616 0.0381863 28.92L0.950186 28.104C2.16619 29.448 3.47819 30.44 4.88619 31.08C6.29419 31.72 7.87819 32.04 9.63819 32.04C11.7182 32.04 13.4302 31.384 14.7742 30.072C16.1502 28.728 16.8382 26.744 16.8382 24.12C16.8382 21.656 16.1662 19.8 14.8222 18.552C13.5102 17.304 11.6222 16.68 9.15819 16.68C7.59019 16.68 5.59019 16.84 3.15819 17.16L1.23819 15.24L1.71819 1.32H19.7182V3.24H5.65419L5.22219 15L6.75819 14.904C8.58219 14.808 9.70219 14.76 10.1182 14.76C13.1902 14.76 15.8782 15.464 18.1822 16.872C20.4862 18.248 21.6382 20.664 21.6382 24.12C21.6382 26.648 21.0142 28.648 19.7662 30.12C18.5502 31.56 17.0942 32.552 15.3982 33.096C13.7022 33.672 12.0222 33.96 10.3582 33.96ZM37.9713 33.96C30.2913 33.96 26.4513 28.36 26.4513 17.16C26.4513 5.96 30.2913 0.36 37.9713 0.36C45.6513 0.36 49.4913 5.96 49.4913 17.16C49.4913 28.36 45.6513 33.96 37.9713 33.96ZM37.9713 32.04C39.6993 32.04 41.0433 31.512 42.0033 30.456C42.9953 29.4 43.6833 27.8 44.0673 25.656C44.4833 23.48 44.6913 20.648 44.6913 17.16C44.6913 13.672 44.4833 10.856 44.0673 8.712C43.6833 6.536 42.9953 4.92 42.0033 3.864C41.0433 2.808 39.6993 2.28 37.9713 2.28C36.2433 2.28 34.8833 2.808 33.8913 3.864C32.9313 4.92 32.2433 6.536 31.8273 8.712C31.4433 10.856 31.2513 13.672 31.2513 17.16C31.2513 20.648 31.4433 23.48 31.8273 25.656C32.2433 27.8 32.9313 29.4 33.8913 30.456C34.8833 31.512 36.2433 32.04 37.9713 32.04ZM66.4826 33.96C58.8026 33.96 54.9626 28.36 54.9626 17.16C54.9626 5.96 58.8026 0.36 66.4826 0.36C74.1626 0.36 78.0026 5.96 78.0026 17.16C78.0026 28.36 74.1626 33.96 66.4826 33.96ZM66.4826 32.04C68.2106 32.04 69.5546 31.512 70.5146 30.456C71.5066 29.4 72.1946 27.8 72.5786 25.656C72.9946 23.48 73.2026 20.648 73.2026 17.16C73.2026 13.672 72.9946 10.856 72.5786 8.712C72.1946 6.536 71.5066 4.92 70.5146 3.864C69.5546 2.808 68.2106 2.28 66.4826 2.28C64.7546 2.28 63.3946 2.808 62.4026 3.864C61.4426 4.92 60.7546 6.536 60.3386 8.712C59.9546 10.856 59.7626 13.672 59.7626 17.16C59.7626 20.648 59.9546 23.48 60.3386 25.656C60.7546 27.8 61.4426 29.4 62.4026 30.456C63.3946 31.512 64.7546 32.04 66.4826 32.04Z" fill="black"/>
</svg>
