<svg xmlns="http://www.w3.org/2000/svg" width="80" height="80" viewBox="0 0 80 80" xmlns:xlink="http://www.w3.org/1999/xlink">
  <defs>
    <rect id="a" width="80" height="80" rx="40"/>
    <mask id="c" width="80" height="80" x="0" y="0" fill="white">
      <use xlink:href="#a"/>
    </mask>
    <path id="b" d="M48.0049157,42 L50,42 L50,26.0734683 L42.9899499,26.0156353 L42.9899499,19 L22.0133955,19.0630512 L20,21.0749219 L20,56.8806759 L22.1209303,59 L40.9718002,59 L40.9718002,57.0936904 L23.0111702,57.0936904 L21.9220794,56.0054244 L21.9220794,21.8872086 L22.9250101,21.0044672 L41.0362816,21.0044672 L41.0362816,28.0109167 L48.0458951,28.0109167 L48.0049157,42 Z M44,25 L44,20 L49,25 L44,25 Z"/>
    <mask id="d" width="30" height="40" x="0" y="0" fill="white">
      <use xlink:href="#b"/>
    </mask>
  </defs>
  <g fill="none" fill-rule="evenodd">
    <use stroke="#000000" stroke-width="4" mask="url(#c)" xlink:href="#a"/>
    <rect width="48" height="48" x="16" y="16" fill="#000000" opacity="0"/>
    <use stroke="#000000" stroke-width="4" mask="url(#d)" xlink:href="#b"/>
    <path fill="#000000" d="M26 48L38 48 38 50 26 50 26 48zM26 42L44 42 44 44 26 44 26 42zM32.9786222 32.0106889C36.2093914 32.0106889 39.9786222 33.2106889 39.9786222 38.0106889L25.9786222 38.0106889C25.9786222 33.2106889 29.7478529 32.0106889 32.9786222 32.0106889zM32.9839666 25C34.9169583 25 36.4839666 26.5670083 36.4839666 28.5 36.4839666 30.4329917 34.9169583 32 32.9839666 32 31.050975 32 29.4839666 30.4329917 29.4839666 28.5 29.4839666 26.5670083 31.050975 25 32.9839666 25zM51 44C46.0361 44 42 48.036095 42 53 42 57.963905 46.0361 62 51 62 55.9639 62 60 57.963905 60 53 60 48.036095 55.9639 44 51 44zM51 46C47.1391888 46 44 49.139185 44 53 44 56.860815 47.1391888 60 51 60 54.8608112 60 58 56.860815 58 53 58 49.139185 54.8608112 46 51 46z"/>
    <path fill="#000000" d="M55.114569,50.0003568 C55.4691534,49.9903408 55.7937361,50.1919474 55.9319675,50.5080639 C56.070199,50.8241805 55.9937337,51.1899846 55.7394045,51.4292707 L50.234108,56.7563118 C49.8981707,57.0812294 49.3536647,57.0812294 49.0177274,56.7563118 L46.2648658,54.0925847 C46.0399315,53.8838613 45.949244,53.5737492 46.027802,53.2819285 C46.1063601,52.9901079 46.3418782,52.7622156 46.6434639,52.6862012 C46.9450495,52.6101868 47.2655387,52.6979379 47.4812465,52.9155891 L49.6259177,54.9908182 L54.5230237,50.2522751 C54.6788746,50.0971015 54.8910445,50.0067458 55.114569,50.0003568 L55.114569,50.0003568 Z"/>
  </g>
</svg>
