<svg width="74" height="81" viewBox="0 0 74 81" fill="none" xmlns="http://www.w3.org/2000/svg">
<mask id="path-1-inside-1" fill="white">
<path fill-rule="evenodd" clip-rule="evenodd" d="M62.9952 20.2844L44.9639 38.3157V40H43.2796L34.2796 49H57V52H31.2796L21.2796 62H44V65H18.2796L9.61742 73.6622L12.0323 76.1021H60.9075L62.9952 73.0383V79H10L7.1218 76.1578L3.13115 80.1484L0.830078 77.8473L6 72.6774V3.95L10 0H50V16H62.6774L70.8336 7.84377L73.1347 10.1449L66 17.2796V75.05L62.9952 79V20.2844ZM59.675 19.0025H47V3H11.0323L9 4.99588V69.6774L26.6774 52H18V49H29.6774L38.6774 40H37.0334V30.6667H30.99V40H23.0271V26H18L34 12L50 26H44.9639V33.7136L59.675 19.0025ZM52 14V2L64 14H52Z"/>
</mask>
<path fill-rule="evenodd" clip-rule="evenodd" d="M62.9952 20.2844L44.9639 38.3157V40H43.2796L34.2796 49H57V52H31.2796L21.2796 62H44V65H18.2796L9.61742 73.6622L12.0323 76.1021H60.9075L62.9952 73.0383V79H10L7.1218 76.1578L3.13115 80.1484L0.830078 77.8473L6 72.6774V3.95L10 0H50V16H62.6774L70.8336 7.84377L73.1347 10.1449L66 17.2796V75.05L62.9952 79V20.2844ZM59.675 19.0025H47V3H11.0323L9 4.99588V69.6774L26.6774 52H18V49H29.6774L38.6774 40H37.0334V30.6667H30.99V40H23.0271V26H18L34 12L50 26H44.9639V33.7136L59.675 19.0025ZM52 14V2L64 14H52Z" fill="black"/>
<path d="M44.9639 38.3157L43.5496 36.9015L42.9639 37.4873V38.3157H44.9639ZM44.9639 40V42H46.9639V40H44.9639ZM43.2796 40V38H42.4511L41.8654 38.5858L43.2796 40ZM34.2796 49L32.8654 47.5858L29.4511 51H34.2796V49ZM57 49H59V47H57V49ZM57 52V54H59V52H57ZM31.2796 52V50H30.4512L29.8654 50.5858L31.2796 52ZM21.2796 62L19.8654 60.5858L16.4511 64H21.2796V62ZM44 62H46V60H44V62ZM44 65V67H46V65H44ZM18.2796 65V63H17.4512L16.8654 63.5858L18.2796 65ZM9.61742 73.6622L8.20321 72.2479L6.79627 73.6549L8.19592 75.069L9.61742 73.6622ZM12.0323 76.1021L10.6108 77.509L11.1978 78.1021H12.0323V76.1021ZM60.9075 76.1021V78.1021H61.9648L62.5602 77.2283L60.9075 76.1021ZM62.9952 73.0383H64.9952V66.5515L61.3424 71.9121L62.9952 73.0383ZM62.9952 79V81H64.9952V79H62.9952ZM10 79L8.5947 80.4231L9.17893 81H10V79ZM7.1218 76.1578L8.52709 74.7347L7.11293 73.3382L5.70758 74.7436L7.1218 76.1578ZM3.13115 80.1484L1.71694 81.5626L3.13115 82.9769L4.54537 81.5626L3.13115 80.1484ZM0.830078 77.8473L-0.584135 76.4331L-1.99835 77.8473L-0.584136 79.2616L0.830078 77.8473ZM6 72.6774L7.41421 74.0916L8 73.5059V72.6774H6ZM6 3.95L4.5947 2.52692L4 3.1142V3.95H6ZM10 0V-2H9.17893L8.5947 -1.42308L10 0ZM50 0H52V-2H50V0ZM50 16H48V18H50V16ZM62.6774 16V18H63.5058L64.0916 17.4142L62.6774 16ZM70.8336 7.84377L72.2479 6.42956L70.8336 5.01535L69.4194 6.42956L70.8336 7.84377ZM73.1347 10.1449L74.5489 11.5591L75.9632 10.1448L74.5489 8.73064L73.1347 10.1449ZM66 17.2796L64.5858 15.8654L64 16.4512V17.2796H66ZM66 75.05L67.5918 76.2609L68 75.7243V75.05H66ZM62.9952 79H60.9952V84.9325L64.5869 80.2109L62.9952 79ZM47 19.0025H45V21.0025H47V19.0025ZM47 3H49V1H47V3ZM11.0323 3V1H10.2145L9.63096 1.57305L11.0323 3ZM9 4.99588L7.59864 3.56893L7 4.15683V4.99588H9ZM9 69.6774H7V74.5059L10.4142 71.0916L9 69.6774ZM26.6774 52L28.0916 53.4142L31.5059 50H26.6774V52ZM18 52H16V54H18V52ZM18 49V47H16V49H18ZM29.6774 49V51H30.5059L31.0916 50.4142L29.6774 49ZM38.6774 40L40.0916 41.4142L43.5059 38H38.6774V40ZM37.0334 40H35.0334V42H37.0334V40ZM37.0334 30.6667H39.0334V28.6667H37.0334V30.6667ZM30.99 30.6667V28.6667H28.99V30.6667H30.99ZM30.99 40V42H32.99V40H30.99ZM23.0271 40H21.0271V42H23.0271V40ZM23.0271 26H25.0271V24H23.0271V26ZM18 26L16.683 24.4948L12.6771 28H18V26ZM34 12L35.317 10.4948L34 9.34246L32.683 10.4948L34 12ZM50 26V28H55.3229L51.317 24.4948L50 26ZM44.9639 26V24H42.9639V26H44.9639ZM44.9639 33.7136H42.9639V38.542L46.3781 35.1278L44.9639 33.7136ZM52 14H50V16H52V14ZM52 2L53.4142 0.585786L50 -2.82843V2H52ZM64 14V16H68.8284L65.4142 12.5858L64 14ZM61.581 18.8702L43.5496 36.9015L46.3781 39.7299L64.4094 21.6986L61.581 18.8702ZM42.9639 38.3157V40H46.9639V38.3157H42.9639ZM44.9639 38H43.2796V42H44.9639V38ZM41.8654 38.5858L32.8654 47.5858L35.6938 50.4142L44.6938 41.4142L41.8654 38.5858ZM34.2796 51H57V47H34.2796V51ZM55 49V52H59V49H55ZM57 50H31.2796V54H57V50ZM29.8654 50.5858L19.8654 60.5858L22.6938 63.4142L32.6938 53.4142L29.8654 50.5858ZM21.2796 64H44V60H21.2796V64ZM42 62V65H46V62H42ZM44 63H18.2796V67H44V63ZM16.8654 63.5858L8.20321 72.2479L11.0316 75.0764L19.6938 66.4142L16.8654 63.5858ZM8.19592 75.069L10.6108 77.509L13.4538 74.6952L11.0389 72.2553L8.19592 75.069ZM12.0323 78.1021H60.9075V74.1021H12.0323V78.1021ZM62.5602 77.2283L64.6479 74.1645L61.3424 71.9121L59.2547 74.9759L62.5602 77.2283ZM60.9952 73.0383V79H64.9952V73.0383H60.9952ZM62.9952 77H10V81H62.9952V77ZM11.4053 77.5769L8.52709 74.7347L5.71651 77.5809L8.5947 80.4231L11.4053 77.5769ZM5.70758 74.7436L1.71694 78.7342L4.54537 81.5626L8.53601 77.572L5.70758 74.7436ZM4.54537 78.7342L2.24429 76.4331L-0.584136 79.2616L1.71694 81.5626L4.54537 78.7342ZM2.24429 79.2616L7.41421 74.0916L4.58578 71.2632L-0.584135 76.4331L2.24429 79.2616ZM8 72.6774V3.95H4V72.6774H8ZM7.40529 5.37308L11.4053 1.42308L8.5947 -1.42308L4.5947 2.52692L7.40529 5.37308ZM10 2H50V-2H10V2ZM48 0V16H52V0H48ZM50 18H62.6774V14H50V18ZM64.0916 17.4142L72.2479 9.25799L69.4194 6.42956L61.2632 14.5858L64.0916 17.4142ZM69.4194 9.25799L71.7205 11.5591L74.5489 8.73064L72.2479 6.42956L69.4194 9.25799ZM71.7205 8.73064L64.5858 15.8654L67.4142 18.6938L74.5489 11.5591L71.7205 8.73064ZM64 17.2796V75.05H68V17.2796H64ZM64.4082 73.8391L61.4034 77.7891L64.5869 80.2109L67.5918 76.2609L64.4082 73.8391ZM64.9952 79V20.2844H60.9952V79H64.9952ZM59.675 17.0025H47V21.0025H59.675V17.0025ZM49 19.0025V3H45V19.0025H49ZM47 1H11.0323V5H47V1ZM9.63096 1.57305L7.59864 3.56893L10.4014 6.42283L12.4337 4.42695L9.63096 1.57305ZM7 4.99588V69.6774H11V4.99588H7ZM10.4142 71.0916L28.0916 53.4142L25.2632 50.5858L7.58579 68.2632L10.4142 71.0916ZM26.6774 50H18V54H26.6774V50ZM20 52V49H16V52H20ZM18 51H29.6774V47H18V51ZM31.0916 50.4142L40.0916 41.4142L37.2632 38.5858L28.2632 47.5858L31.0916 50.4142ZM38.6774 38H37.0334V42H38.6774V38ZM39.0334 40V30.6667H35.0334V40H39.0334ZM37.0334 28.6667H30.99V32.6667H37.0334V28.6667ZM28.99 30.6667V40H32.99V30.6667H28.99ZM30.99 38H23.0271V42H30.99V38ZM25.0271 40V26H21.0271V40H25.0271ZM23.0271 24H18V28H23.0271V24ZM19.317 27.5052L35.317 13.5052L32.683 10.4948L16.683 24.4948L19.317 27.5052ZM32.683 13.5052L48.683 27.5052L51.317 24.4948L35.317 10.4948L32.683 13.5052ZM50 24H44.9639V28H50V24ZM42.9639 26V33.7136H46.9639V26H42.9639ZM46.3781 35.1278L61.0892 20.4167L58.2607 17.5882L43.5497 32.2993L46.3781 35.1278ZM54 14V2H50V14H54ZM50.5858 3.41421L62.5858 15.4142L65.4142 12.5858L53.4142 0.585786L50.5858 3.41421ZM64 12H52V16H64V12Z" fill="black" mask="url(#path-1-inside-1)"/>
</svg>