<svg xmlns="http://www.w3.org/2000/svg" width="80" height="80" viewBox="0 0 80 80" xmlns:xlink="http://www.w3.org/1999/xlink">
  <defs>
    <rect id="a" width="80" height="80" rx="40"/>
    <mask id="b" width="80" height="80" x="0" y="0" fill="white">
      <use xlink:href="#a"/>
    </mask>
  </defs>
  <g fill="none" fill-rule="evenodd">
    <use stroke="#000000" stroke-width="4" mask="url(#b)" xlink:href="#a"/>
    <path fill="#000000" d="M19,58 L17,56 L17,20 L19,18 L38,18 L40,20 L19,20 L19,58 Z M49,41 L51,41 L51,29 L44,29 L44,22 L23,22 L21,24 L21,60 L23,62 L49,62 L51,60 L51,57 L49,57 L49,59 L48,60 L24,60 L23,59 L23,25 L24,24 L42,24 L42,31 L49,31 L49,41 Z M45,28 L45,23 L50,28 L45,28 Z M27,43 L45,43 L45,45 L27,45 L27,43 Z M33,40 L33,36 L35,36 L35,40 L39,40 L39,34 L41,34 L34,28 L27,34 L29,34 L29,40 L33,40 Z M44.5055069,49.9172099 C44.4820273,49.9263725 44.4654198,49.9475611 44.4631291,49.9727583 L44.00041,55.0591643 C43.9981193,55.0786349 44.0055641,55.0975329 44.0193082,55.1118495 C44.0324797,55.1250208 44.0519505,55.1318927 44.0714214,55.1301747 L49.1573229,54.6674618 C49.1830931,54.6645985 49.2048547,54.6491366 49.2134448,54.624512 C49.2220348,54.6010328 49.2163081,54.5741175 49.1991279,54.5569376 L44.5748002,49.9326718 C44.5564747,49.9143465 44.5295591,49.9080472 44.5055069,49.9172099 Z M51.5407651,53.371173 L59.6324904,45.2798592 C59.6587351,45.2530173 59.6587351,45.2100704 59.6324904,45.1838251 L54.8153907,40.3684048 C54.789146,40.3409665 54.7462001,40.3409665 54.7199554,40.3684048 L46.6288265,48.4579292 C46.6019854,48.4853675 46.6019854,48.5283144 46.6288265,48.5557527 L51.4447332,53.371173 C51.4715744,53.3980148 51.5139239,53.3980148 51.5407651,53.371173 Z M59.1735187,36.0200913 C59.1473291,35.9933029 59.1050685,35.9933029 59.0776885,36.0200913 L56.1944481,38.9037155 C56.167068,38.9299086 56.167068,38.9733654 56.1944481,38.9995585 L60.9996503,43.8059956 C61.0264352,43.8327841 61.0692909,43.8327841 61.0960758,43.8059956 L63.9799114,40.9223715 C64.0066962,40.8955831 64.0066962,40.8527216 63.9799114,40.8265285 L59.1735187,36.0200913 Z M26.75,55 L30.5,55 C30.623476,55.1580925 30.8754482,54.8292923 31.25,54 C30.8754482,52.4863559 31.536218,51.4749038 32,51 C32.4972508,51.4749038 32.7956012,51.6966091 32.75,52 C33.2426488,52.4775879 33.5003586,53.1859175 33.5,54 C33.5003586,55.1518297 33.6404494,55.7818735 34.25,56 C34.1802534,56.7250604 34.5794884,57 35,57 C35.7461152,57 36.5001195,56.1150577 36.5,54 C36.5001195,53.6675315 36.7243605,53.3155587 36.5,53 C36.9399952,53.3155587 37.0083672,53.3756822 37.25,53 C37.136983,53.5998926 37.2502988,53.87859 37.25,54 C37.2502988,55.1518297 37.3903897,55.7818735 38,56 C37.9306718,56.7250604 38.3294286,57 38.75,57 C39.3784365,57 40.0138656,56.3705824 40.25,55 L43.25,55 C43.7480277,55.1580925 44,54.8292923 44,54 C44,54.0151203 43.7485059,53.6844413 43.25,54 L39.5,54 C39.3779584,53.6844413 39.1259861,54.0144941 39.5,54 C39.1259861,55.1756285 38.901267,55.5276013 38.75,56 C38.5990916,55.5276013 38.3753287,55.1756285 38.75,54 C38.3753287,52.7287286 37.6213244,51.8431601 36.5,52 C36.1295721,51.8431601 35.3750896,52.7287286 35.75,54 C35.3750896,55.1756285 35.1508487,55.5276013 35,56 C34.8491513,55.5276013 34.6253885,55.1756285 35,54 C34.6253885,51.383466 33.3617021,50 32,50 C31.1130767,50 29.9641406,51.1592556 29.75,54 L26.75,54 C26.2519723,53.6844413 26,54.0144941 26,54 C26.0004781,54.8292923 26.2519723,55.1580925 26.75,55 Z"/>
  </g>
</svg>
