<svg xmlns="http://www.w3.org/2000/svg" width="80" height="80" viewBox="0 0 80 80" xmlns:xlink="http://www.w3.org/1999/xlink">
  <defs>
    <rect id="a" width="80" height="80" rx="40"/>
    <mask id="e" width="80" height="80" x="0" y="0" fill="white">
      <use xlink:href="#a"/>
    </mask>
    <path id="b" d="M35,22 C35.0914144,20.3693495 33.6964275,19 32,19 L22,19 C20.4483812,19 19,20.5120422 19,22 L19,30 L56,30 L56,24 C56.0004809,23.1551121 54.1281316,22.1026906 53,22 L35,22 Z"/>
    <mask id="f" width="37" height="11" x="0" y="0" fill="white">
      <use xlink:href="#b"/>
    </mask>
    <path id="c" d="M56,40 L56,29 C56.0239765,28.6331944 55.9594189,28.4046197 56,28 C55.6691525,28.0922817 55.4478122,28 55,28 L20,28 C19.549912,28 19.3290571,28.0922817 19,28 C19.0387907,28.4046197 18.9786017,28.6327211 19,29 L19,51 C19.0844179,51.4339085 20.1045479,52 21,52 L41,52 C40.9503786,51.3917792 41,50 41,50 L21,50 L21,30 L54,30 L54,40 L56,40 Z"/>
    <mask id="g" width="37.01" height="24" x="0" y="0" fill="white">
      <use xlink:href="#c"/>
    </mask>
    <path id="d" d="M52,42 C47.0361,42 43,46.036095 43,51 C43,55.963905 47.0361,60 52,60 C56.9639,60 61,55.963905 61,51 C61,46.036095 56.9639,42 52,42 Z"/>
    <mask id="h" width="18" height="18" x="0" y="0" fill="white">
      <use xlink:href="#d"/>
    </mask>
  </defs>
  <g fill="none" fill-rule="evenodd">
    <use stroke="#000000" stroke-width="4" mask="url(#e)" xlink:href="#a"/>
    <rect width="48" height="48" x="16" y="16" fill="#000000" opacity="0"/>
    <use stroke="#000000" stroke-width="4" mask="url(#f)" xlink:href="#b"/>
    <use stroke="#000000" stroke-width="4" mask="url(#g)" xlink:href="#c"/>
    <use stroke="#000000" stroke-width="4" mask="url(#h)" xlink:href="#d"/>
    <path fill="#000000" d="M56.114569,48.0003568 C56.4691534,47.9903408 56.7937361,48.1919474 56.9319675,48.5080639 C57.070199,48.8241805 56.9937337,49.1899846 56.7394045,49.4292707 L51.234108,54.7563118 C50.8981707,55.0812294 50.3536647,55.0812294 50.0177274,54.7563118 L47.2648658,52.0925847 C47.0399315,51.8838613 46.949244,51.5737492 47.027802,51.2819285 C47.1063601,50.9901079 47.3418782,50.7622156 47.6434639,50.6862012 C47.9450495,50.6101868 48.2655387,50.6979379 48.4812465,50.9155891 L50.6259177,52.9908182 L55.5230237,48.2522751 C55.6788746,48.0971015 55.8910445,48.0067458 56.114569,48.0003568 L56.114569,48.0003568 Z"/>
  </g>
</svg>
