<svg xmlns="http://www.w3.org/2000/svg" viewBox="0 0 389 351"><title>in-the-computer</title><path d="M245,329.5H148.3c-.5,0-.5,0-.5-5V300.7H11.1C6,300.7.5,297,.5,291.6V38.6c0-5.4,5.5-9.1,10.6-9.1H378c5.1,0,10.5,3.6,10.5,9.1V291.5c0,5.5-5.4,9.1-10.5,9.1H245.1c.2,28.5.2,28.5,0,28.6Zm-96.2-1h95.5c0-3-.1-19.3-.2-28.3v-.5H378c4.6,0,9.5-3.3,9.5-8.1V38.6c0-4.8-4.9-8.1-9.5-8.1H11.1c-4.6,0-9.6,3.2-9.6,8.1V291.5c0,4.9,5,8.1,9.6,8.1H148.6v.5C148.7,309.1,148.7,325.5,148.8,328.5Zm218.5-61.4H21.7a4,4,0,0,1-4-4V52.6a4,4,0,0,1,4-4H367.3a4,4,0,0,1,4,4V263.2A4,4,0,0,1,367.3,267.1ZM21.7,49.6a2.9,2.9,0,0,0-3,3V263.2a2.9,2.9,0,0,0,3,3H367.3a2.9,2.9,0,0,0,3-3V52.6a2.9,2.9,0,0,0-3-3Z" style="fill:#607d8b"/><path d="M194.5,350c77.9,0,141-2.2,141-5s-63.1-5-141-5-141,2.2-141,5S116.6,350,194.5,350Z" style="fill:#d8d8d8;fill-rule:evenodd"/><path d="M128.1,321H260.8a11,11,0,1,1,0,22H128.1a11,11,0,1,1,0-22Z" style="fill:#cfd8dc;stroke:#607d8b"/><path d="M243.1,111.3h81.3V93H243.1v18.3Z" style="fill:#d65d67;fill-rule:evenodd"/><path d="M258.1,162c-10,0-18.1,10.7-18.1,23.9v.6h36.1v-.6c0-13.2-8.1-23.9-18-23.9m1.4-6.7a7.6,7.6,0,1,0-7.5-7.6,7.5,7.5,0,0,0,7.5,7.6" style="fill:#f5a623;fill-rule:evenodd"/><path d="M343,234.1H224.5V103.7h17.7v7a1.2,1.2,0,0,0,1.2,1.2H324a1.2,1.2,0,0,0,1.2-1.2v-7H343ZM244.7,109.5h78.1v-14H244.7v14Zm99.5-8.2h-19v-7a1.2,1.2,0,0,0-1.2-1.2H243.5a1.2,1.2,0,0,0-1.2,1.2v7h-19a1.2,1.2,0,0,0-1.2,1.2V235.3a1.2,1.2,0,0,0,1.2,1.2h121a1.2,1.2,0,0,0,1.2-1.2V102.5A1.3,1.3,0,0,0,344.2,101.3ZM290,153.5a1.4,1.4,0,0,0,1.2,1.5h41.6a1.5,1.5,0,0,0,0-3H291.2a1.4,1.4,0,0,0-1.2,1.5M332.8,168H291.2a1.4,1.4,0,0,0-1.2,1.5,1.4,1.4,0,0,0,1.2,1.5h41.6a1.5,1.5,0,0,0,0-3m0,16H291.2a1.4,1.4,0,0,0-1.2,1.5,1.4,1.4,0,0,0,1.2,1.5h41.6a1.5,1.5,0,0,0,0-3m-76.2-44.4a8,8,0,0,1,7.9,8.1,8.1,8.1,0,0,1-7.9,8.1,8.1,8.1,0,0,1,0-16.2Zm0,18.8a10.7,10.7,0,1,0-10.5-10.7A10.6,10.6,0,0,0,256.6,158.4Zm16.8,27.7H236.7v-.6c0-13.4,8.3-24.4,18.4-24.4s18.4,10.9,18.4,24.4A1.3,1.3,0,0,1,273.4,186.1Zm-18.3-27.7c-11.6,0-21.1,12.2-21.1,27.2a10.9,10.9,0,0,0,.1,1.8v.2a1.3,1.3,0,0,0,1.3,1.4h39.4a1.3,1.3,0,0,0,1.3-1.4c0-.6.1-1.3.1-2,0-15-9.5-27.2-21.1-27.2Z" style="fill:#607d8b;fill-rule:evenodd"/><path d="M45.9,116.3C63.9,104.8,88.4,99,88.4,99s5,15.2,13.6,25.5a45,45,0,0,0,19.1,13.4s3.8,25.2-4,49.2-28.4,50.2-28.4,50.2l-68-9.1V138.9c5.3-6.3,14.2-15.6,25.2-22.6Z" style="fill:#92cdf4;fill-rule:evenodd"/><path d="M119.8,137.1a39,39,0,0,1-8.4-3.7,36,36,0,0,1-7-5.9s1.8,27.8-7.3,55.1-28.5,51.7-28.5,51.7l19.9,2.8s18.9-17.1,28.4-50.7S119.8,137.1,119.8,137.1Z" style="fill:#8ab3d4;fill-rule:evenodd"/><path d="M87,54.6l20.1-22.9,21.7,10.9L150,73l1.9,20-10.4,21-17.6,18.2-7,2.6-14.5-10.6L90.5,102.6l1.7-5.2L77.5,68.5,75.4,56.8Z" style="fill:#fff;fill-rule:evenodd"/><path d="M88.9,237.8l-68.2-9.1v-1l67.8,9.1c2-2.6,20.8-27.4,28.1-49.9s4.4-45.8,4-48.7a46.2,46.2,0,0,1-19-13.4c-7.7-9.2-12.6-22.6-13.5-25.2-3.4.8-25.5,6.6-41.9,17.1-11.1,7.1-20.2,16.7-25.4,23v-1.5c5.4-6.3,14.2-15.4,24.9-22.3,17.9-11.4,42.4-17.3,42.7-17.4h.4v.4c0,.2,5,15.3,13.5,25.3a43.8,43.8,0,0,0,18.8,13.2h.3v.3c0,.3,3.7,25.6-4,49.5s-28.2,50.1-28.4,50.4l-.2.2Z" style="fill:#607d8b"/><path d="M82.7,264.1H30.1c-5.2,0-9.4-5.2-9.4-11.5V238H88.5S86.1,249.8,82.7,264.1Z" style="fill:#fafafa;fill-rule:evenodd"/><path d="M82.1,264.1c3-12.4,5.2-23.1,5.7-25.7H20.7v-1H89.1v.6c0,.2-2.4,12-5.8,26.1Z" style="fill:#607d8b"/><path d="M109.3,264.1H30.1c-5.2,0-9.4-5.2-9.4-11.5V227l65.2,12.4C85.9,239.3,100.5,249.9,109.3,264.1Z" style="fill:#f5f5f5;fill-rule:evenodd"/><path d="M109.8,264.1h-1.2c-8.3-13.2-21.7-23.4-22.9-24.3l-65-12.4v-1l65.4,12.4h.1C86.5,239.1,101.1,249.8,109.8,264.1ZM40.9,253.7c4-5.7,3-10.7,2.9-10.9l-1,.2s1,4.8-2.8,10.1a14.7,14.7,0,0,1-8.6,6.1v1C31.9,260.2,36.9,259.4,40.9,253.7ZM141.4,213c-63-11.1-75.1-71.1-75.1-71.1l7.1-.7S82,197.4,142.3,208s107-21.5,107-21.5,3.1,7.3-1.5,8.4S200.9,223.5,141.4,213ZM181,141.6s-15.9,7-28.4,7.2-34.9-8.1-34.9-8.1l-.8-6s20.5,8.8,36,8.9c9.5.1,18.5-3.1,24.1-5.5.8-.4,47.2-40.9,50.1-40s1.3,4,1.3,4L181,141.6Zm-64.6,5.5s-10.7-1.6-23.1-15.1-14.6-27.3-14.6-27.3l4.8-1.6s.5,12.2,12,25.5,19.8,13.9,19.8,13.9Zm6.5-11s12.8-9.8,17.6-16.7,14.5-16.5,13.2-36.3-14.1-32.2-23.2-40.9S116,33.4,108.5,31c-4.1-1.3,1.9-41.3-2.9-27.9S78,12.4,69.1,25s1.1,35,1.1,35l23,44.1,3.1-4.4-19-37.4s19.8,24.5,28.4,21.1c1.1-.4-19.3-22.9-17.9-23.5l4.9-2.3c9.8-4.6,7.9-21.6,14.6-20.9s9.5-.7,20.8,9.2S147.8,68,148.9,83.3s-6.2,24.6-12.2,33.3-19.8,16.9-19.8,16.9Zm.8-75.5c-1.8-3.1-4.4-4.9-5.6-4.2s-.8,3.9,1.1,6.9,4.4,4.9,5.6,4.2S125.5,63.7,123.7,60.6Zm9-6.4c-1.8-3.1-4.4-4.9-5.6-4.2s-.8,3.9,1.1,6.9,4.4,4.9,5.6,4.2S134.5,57.3,132.7,54.2Zm3.6,36c-8.8-1.4,2.7,4,6.1,4s6.1-1.8,6.1-4,1.5-3.8-1.8-3.8-1.6,5.1-10.4,3.8Z" style="fill:#607d8b"/></svg>