<svg width="943" height="325" viewBox="0 0 943 325" fill="none" xmlns="http://www.w3.org/2000/svg">
<path d="M525.5 286.4C525 286.4 524.6 286.1 524.5 285.6C524.4 285.1 521.2 272.8 524.4 256C527.4 240.5 536.6 218.1 563.8 199.7C615.5 164.7 710.5 158.4 711.5 158.3C712.1 158.3 712.5 158.7 712.6 159.2C712.6 159.8 712.2 160.2 711.7 160.3C710.7 160.4 616.3 166.6 565 201.3C538.4 219.3 529.4 241.1 526.5 256.2C523.3 272.6 526.5 284.9 526.5 285.1C526.6 285.6 526.3 286.2 525.8 286.3C525.6 286.4 525.5 286.4 525.5 286.4ZM451.4 324.6C451.7 324.2 482.9 281.4 475 242.2C471.4 224.6 460.6 210.3 442.8 199.7C374.3 159 292.8 159 292 159C291.4 159 291 159.4 291 160C291 160.6 291.4 161 292 161C292.8 161 373.8 160.9 441.8 201.4C459.1 211.7 469.6 225.5 473 242.6C477 262.6 470.5 283.4 464.4 297.4C460.4 306.5 455.5 315.2 449.8 323.4C449.5 323.8 449.6 324.5 450 324.8C450.2 324.9 450.4 325 450.6 325C450.9 325 451.2 324.8 451.4 324.6ZM668.4 158.3C667.6 158.3 586.8 160.9 547.4 181.2C515.3 197.7 504 211.3 500.8 216.2C498.6 213.1 489 201.7 455.7 180.8C417 156.6 322.4 156.3 321.4 156.3C320.8 156.3 320.4 156.7 320.4 157.3C320.4 157.9 320.8 158.3 321.4 158.3C322.4 158.3 416.5 158.6 454.7 182.5C492.9 206.4 499.7 217.9 499.7 218V218.1C499.5 218.6 499.7 219.2 500.2 219.4C500.3 219.5 500.5 219.5 500.6 219.5C501 219.5 501.3 219.3 501.5 218.9C501.6 218.7 509.6 202.9 548.4 182.9C587.5 162.8 667.8 160.2 668.6 160.2C669.2 160.2 669.6 159.7 669.6 159.2C669.4 158.7 668.9 158.3 668.4 158.3Z" fill="#BCAAA4"/>
<path d="M255.4 143C255.4 143 246 132.5 225.8 125.3C205.6 118.1 184.9 103.8 165.3 93.2C156.7 89.7 147 89.7 138.4 93.2C124.3 99.1 115.5 106.9 98.1 108.9C80.7 110.9 69.9 123.9 45.7 133.7C31.2 139.6 15.7 142.7 0 142.9H255.4" fill="#DADADA"/>
<path d="M98.4 109C115.9 107 124.6 99.2 138.7 93.3C146.5 90.2 155.2 89.8 163.2 92.4C163.2 92.4 164.1 101.3 147.9 104.4C131.7 107.5 119.6 111.3 107.5 116.9C95.4 122.5 37.5 144.2 4.59998 143C18.8 142.3 32.8 139.2 46 133.9C70.2 124 80.9 110.9 98.4 109Z" fill="#EDEDED"/>
<path d="M392.7 133.6C372.5 126.4 350.5 110.4 330.9 99.9C330.9 99.9 319.4 95.2 305.2 101.1C291 107 282.4 115.3 264.9 117.2C247.4 119.1 236.7 132.2 212.5 142.1C188.3 152 171.6 151.3 171.6 151.3H422.2C422.2 151.3 412.8 140.9 392.7 133.6Z" fill="#DADADA"/>
<path d="M305.6 100.4C313.4 97.3 322.1 96.9 330.1 99.5C330.1 99.5 331 108.4 314.8 111.5C298.6 114.6 286.5 118.5 274.4 124C262.3 129.5 206.2 152.5 173.3 151.3C180.8 151 195.1 148.2 212.8 141.1C237 131.3 247.8 118.2 265.2 116.2C282.6 114.2 291.4 106.3 305.6 100.4Z" fill="#EDEDED"/>
<path d="M199.4 26.2C199.4 40.7 211.4 52.4 226.2 52.4C241 52.4 253 40.7 253 26.2C253 11.7 241 0 226.2 0C211.4 0 199.4 11.7 199.4 26.2Z" fill="#C9C9C9"/>
<path d="M226.2 0C241.1 0.2 253 11.8 253 26.2C253 40.6 241 52.2 226.2 52.4V0Z" fill="#EBEBEB"/>
<path d="M179.7 42.2L179.5 152.5H249.5L179.7 42.2Z" fill="#EDEDED"/>
<path d="M179.6 42.1L101.4 152.5H179.6V42.1Z" fill="#BFBFBF"/>
<path d="M322 160.6L269.4 79.6V159.3L322.2 160.9L322 160.6Z" fill="#EDEDED"/>
<path d="M269.4 79.7L213.4 159.4H269.4V79.7Z" fill="#BFBFBF"/>
<path d="M685.9 84V159H651.9V103.6L685.9 84ZM715.9 85.5L735.9 73.9V27L689.9 53.6V159H715.9V85.5ZM739.9 76.2V159H767.9V60L739.9 76.2ZM735.9 78.5L719.9 87.8V159H735.9V78.5Z" fill="#2962FF"/>
<path d="M739.9 52.2C740.5 52.3 741.1 52.6 741.6 53C746.1 56.6 751.1 59.6 756.3 62.2L739.9 71.6V52.2ZM938.7 82C906.6 76.7 887.7 71.3 879.3 67.2C870.9 63.1 862.1 70.8 850.2 74.9C838.3 79 828.2 70.7 814.6 64.8C801 58.9 795 73.1 775.4 69C774.2 68.8 773 68.5 771.9 68.2V159H942.9V82.7C941.5 82.5 940.1 82.2 938.7 82ZM647.9 101.3L685.9 79.4V74.5C682.9 74.7 679.9 74.7 676.9 74.3C656.7 71.9 643.7 111.2 633.6 105.9C623.5 100.6 610.4 131 593.6 136.8C577 142.5 573.8 153.5 563.7 151.7C560.5 151.1 552.5 154.8 548 159H648V101.3H647.9Z" fill="#ECEFF1"/>
<path d="M942.9 104.2V159H771.9V82.4H778.1V92.4H786.8V77.7H799V89H801.1V82.4H804.9V92.4H806.6V89.9H809.1V82.2H814.4V89.9H816.8V82H817.8V80.1H822.5V82H827.6V92.4H832.9V149.4H836.9V101.6H838V91.2H848.2V101.6H850.5V149.3H853.5V84.3H863.8V100.9H870V75.6H883.5V85.2H901.2V92.7H911.9V149.3H933.2V104.2H942.9Z" fill="#B0BEC5"/>
<path d="M852.4 108.8H868.2V135.8H878.2V91.9H893.4V132H902V149.4H905.2V101.9H928.2V126.8H942.9V159H771.9V91H784.5V136.3H802.3V95.3H822.7V132.6H831.6V119.7H845.9V149.4H852.5L852.4 108.8Z" fill="#90A4AE"/>
<path d="M942.9 56V54C939.9 51.2 937 48.3 934.2 45.3V43H931.6V44.8H918.7V43H916.1V45.2C903.2 58.7 888.7 70.7 873.1 81C855.9 92.3 837.6 101.8 818.5 109.5H771.9V111H775.9V116.5H771.9V118H777.6V129.2H773.6V131.6H771.9V159H942.9V144.7H939.7V138.5H934.2V118.1H942.9V109.6H934.2V62.6C937 65.3 939.9 67.8 942.9 70.3V68.4C939.9 65.9 937 63.3 934.2 60.6V47.5C937 50.4 939.9 53.2 942.9 56ZM818.8 111.1H823.6V116.6H818.8V111.1ZM806.9 111.1H811.7V116.6H806.9V111.1ZM800.9 111.1H805.7V116.6H800.9V111.1ZM810.3 118.1L811.4 119.2L805.3 125.3L799.2 119.2L800.3 118.1H810.3ZM799.3 133.5L805.4 127.4L811.5 133.5L805.4 139.6L799.3 133.5ZM804.3 140.7L798.9 146V135.2L804.3 140.7ZM798.9 131.8V121L804.3 126.4L798.9 131.8ZM794.9 111.1H799.7V116.6H794.9V111.1ZM788.9 111.1H793.7V116.6H788.9V111.1ZM781.9 116.6H777.1V111.1H781.9V116.6ZM783.1 111.1H787.9V116.6H783.1V111.1ZM796.3 153H790.8V129.3H783.5V118.1H796.3V153ZM798.9 153V149.5L802.4 153H798.9ZM803.6 147.4V152.1L799.3 147.8L805.4 141.7L811.1 147.3H803.6V147.4ZM811.8 146.1L806.4 140.7L811.8 135.3V146.1ZM811.8 131.8L806.4 126.4L811.8 121V131.8ZM812.8 111.1H817.6V116.6H812.9L812.8 111.1ZM916 138.6H912.3V124.5H900.4V149.6H897.3V136.4H886.7V128.5H873.9V149.6H867.3V153.1H861.1V127.6H840V143.9H828.6V124.9H814.9V147.4H814.3V118.2H915.9L916 138.6ZM824.8 116.6V111.1H829.6V116.6H824.8ZM830.8 116.6V111.1H835.6V116.6H830.8ZM836.8 116.6V111.1H841.6V116.6H836.8ZM842.8 116.6V111.1H847.6V116.6H842.8ZM848.8 116.6V111.1H853.6V116.6H848.8ZM854.8 116.6V111.1H859.6V116.6H854.8ZM860.8 116.6V111.1H865.6V116.6H860.8ZM866.8 116.6V111.1H871.6V116.6H866.8ZM872.8 116.6V111.1H877.6V116.6H872.8ZM878.8 116.6V111.1H883.6V116.6H878.8ZM884.8 116.6V111.1H889.6V116.6H884.8ZM890.8 116.6V111.1H895.6V116.6H890.8ZM896.8 116.6V111.1H901.6V116.6H896.8ZM902.8 116.6V111.1H907.6V116.6H902.8ZM908.8 116.6V111.1H913.6V116.6H908.8ZM916.6 116.6H914.8V111.1H916.6V116.6ZM916.6 109.6H839.8C851.5 105 862.9 99.7 873.8 93.5C889.1 84.9 903.3 74.5 916.1 62.5L916.6 109.6ZM916.6 60.5C903.6 72.8 889.2 83.4 873.6 92.2C861.6 99 849.1 104.8 836.2 109.6H822.3C840.3 102.2 857.5 93 873.8 82.4C889.1 72.3 903.3 60.6 916 47.5L916.6 60.5ZM920 47.5H931.3L931.7 47.9L925.1 54L919 47.9L920 47.5ZM922.2 116.6L925.7 113.1L929.2 116.6H922.2ZM930.6 118.1L931.7 119.2L925.6 125.3L919.5 119.2L920.6 118.1H930.6ZM924.2 109.6L919 105L925.1 98.9L931.2 105L926.5 109.7L924.2 109.6ZM925.6 96.8L919.5 90.7L925.6 84.6L931.7 90.7L925.6 96.8ZM925.6 82.5L919.5 76.4L925.6 70.3L931.7 76.4L925.6 82.5ZM925.6 68.2L919.5 62.1L925.6 56L931.7 62.1L925.6 68.2ZM919.2 49.7L924.1 55L918.7 60.4L919.2 49.7ZM919.2 63.9L924.6 69.3L919.2 74.7V63.9ZM919.2 78.2L924.6 83.6L918.7 89L919.2 78.2ZM919.2 92.5L924.6 97.9L919.2 103.3V92.5ZM919.2 106.7L922.1 109.6H919.2V106.7ZM919.2 111.1H923.6L924.6 112.1L920.1 116.6H919.2V111.1ZM919.2 121L924.6 126.4L919.2 131.8V121ZM919.2 138.6V135.3L922.5 138.6H919.2ZM924.6 138.6L919.6 133.6L925.7 127.5L931.8 133.6L926.8 138.6H924.6ZM932.1 138.6H928.8L932.1 135.3V138.6ZM932.1 131.8L926.7 126.4L932.1 121V131.8ZM932.1 116.6H931.2L926.7 112.1L927.7 111.1H932.1V116.6ZM932.1 109.6H929.2L932.1 106.7V109.6ZM932.1 103.2L926.7 97.8L932.1 92.4V103.2ZM932.1 89L926.7 83.6L932.1 78.2V89ZM932.1 74.7L926.7 69.3L932.1 63.9V74.7ZM932.1 60.4L926.2 55L931.6 49.6L932.1 60.4ZM938.6 111.1H942.9V116.6H938.1L938.6 111.1ZM937.4 111.1V116.6H934.7V111.1H937.4Z" fill="#607D8B"/>
<path opacity="0.8" d="M460.1 204.2C481 204.2 498 200.6 498 196.2C498 191.8 481 188.2 460.1 188.2C439.2 188.2 422.2 191.8 422.2 196.2C422.2 200.6 439.2 204.2 460.1 204.2Z" fill="#E0E0E0"/>
<path d="M453.6 100.6C448.6 111.6 449.2 129.5 449.2 129.5H483.6C483.6 129.5 483.7 130.3 485.1 122.4C486.5 114.5 487.6 89.4 466.6 73.4L464.5 71.9C464.5 71.9 465.1 73.3 460.4 75C455.7 76.7 453 72.4 453 72.4C453 72.4 458.6 89.5 453.6 100.6Z" fill="#BBDEFB" stroke="#607D8B"/>
<path opacity="0.12" d="M450.8 124V128H482.9C484 123.5 484.6 118.9 484.7 114.3C484.7 108.3 483.8 102.3 481.8 96.7C481.8 96.7 484.7 117.8 477.2 121.2C468.4 128.2 450.8 124 450.8 124Z" fill="black"/>
<path d="M482.7 129.8C482.7 129.8 484.6 138 483.3 144.9C482 151.8 475.2 155.5 475.2 155.5L471.8 186.1C471.8 186.1 471.3 190.6 469.2 190.6C467.1 190.6 467.1 186.1 467.1 186.1L465.3 152.7L463.7 129.8H482.7Z" fill="#F5F5F5" stroke="#607D8B"/>
<path d="M483.5 129.1C483.4 134.3 482.8 139.5 481.7 144.6C480.6 149.1 477.1 152.6 472.7 153.9L467 171.3L465 189.5C465 189.5 464.5 200.7 460.4 200.7C456.3 200.7 455.5 189.5 455.5 189.5L451.3 158.2C451.3 158.2 448.5 141.7 447.8 137.2C447.1 132.7 447.6 129.2 449.6 129.2L483.5 129.1Z" fill="#F5F5F5" stroke="#607D8B"/>
<path d="M435.6 68.1C437.4 66 439.7 61.3 438.4 60.3C437.1 59.3 432.8 62.3 431 64.3C429.2 66.3 428.8 68.9 430.1 70C431.4 71.1 433.8 70.2 435.6 68.1Z" stroke="#637D89"/>
<path d="M496.9 75.5C495.5 73.9 493.8 70.3 494.8 69.5C495.8 68.7 499.1 71 500.5 72.6C501.9 74.2 502.2 76.2 501.2 77C500.2 77.8 498.3 77.1 496.9 75.5Z" stroke="#637D89"/>
<path d="M487.5 69.7C486.5 68.5 485.2 65.9 485.9 65.3C486.6 64.7 489.1 66.4 490.1 67.6C491.1 68.8 491.4 70.2 490.6 70.8C489.8 71.4 488.5 70.9 487.5 69.7Z" stroke="#637D89"/>
<path d="M455.3 147.7C453.7 148.7 453.7 147 453.7 147C458.4 143 462.2 137.9 464.7 132.2C468.4 123.1 464.8 89.8 464.8 89.8C464.7 88.7 465.5 87.7 466.6 87.5C468.5 87.2 468.9 89 468.9 89.8C468.9 90.6 471.5 123.8 467.6 132.2C465 138.5 460.8 143.8 455.3 147.7Z" fill="#607D8B"/>
<path d="M447.1 64.1C448.8 68.2 450.4 69.2 453.6 71.8C453.6 71.8 455.2 74.3 453 73C449.9 70.9 447.4 68 445.8 64.5C443.6 59.3 444.9 55.1 446.2 51.8C447.5 48.5 449.4 47.6 451.1 46.1C452 45.3 445.3 35.7 448.3 38.6C451.3 41.5 456.8 38 460.8 40.2C464.8 42.4 465 49.3 465 49.3L464.1 67.6L462.7 66.8L463.4 50.6C463.4 50.6 461.3 59.1 458.6 59.1C458.3 59.1 460.8 51.1 460.3 51.1H458.7C455.5 51 453.8 46.4 452.1 47.3C449.9 48.3 448.2 50.1 447.2 52.3C445.5 56.2 445.4 60.4 447.1 64.1Z" fill="#607D8B"/>
<path d="M452.6 140.1L455.5 149.3C455.6 149.5 455.4 149.8 455.2 149.9C455 150 454.7 149.8 454.6 149.6L451.7 140.4C451.6 140.2 451.8 139.9 452 139.8C452.3 139.8 452.5 139.9 452.6 140.1Z" stroke="#607D8B" stroke-width="2"/>
<path d="M114.2 169C114.2 169.9 130.7 170.7 151 170.7C171.3 170.7 187.8 169.9 187.8 169C187.8 168.1 171.4 167.3 151 167.3C130.6 167.3 114.2 168 114.2 169Z" fill="#EEEEEE"/>
<path d="M208.7 114.2C208.8 113.8 208.6 113.3 208.3 113C207.1 112.4 206.9 112.6 206 111.4C205.1 110.2 202.9 109.7 200.7 110C198.5 110.3 197.9 110.4 195 109.1C193.4 108.3 191.6 108.1 189.9 108.6C189.5 107.9 188.1 108.1 188.1 108.1C188.1 109 188.1 110 188.3 110.9C187.2 111.3 186.3 111.9 185.4 112.6C184.1 113.7 184.1 115.3 183.6 116.4C183.3 117.5 183.6 118.7 184.4 119.5C184.8 119.7 184.4 121.1 184 123.3C183.8 124.5 183.3 125.6 182.6 126.5C182.6 126.5 181.6 127.5 180.8 127.5C178.9 127.5 177 126.6 175.9 125.1C174.4 123.1 173.5 116.8 168.6 116.2C165.7 115.8 163.5 111.9 159.9 107.5C156.3 103.1 148.6 104.4 146.1 108.9C144.4 112 140.2 117.8 135.6 120.8C131 123.8 131.7 127.2 131.5 129.3C131.2 131.5 128.4 138.2 128.4 139.1C128.4 140 130.5 140.2 130.5 140.2C130 140.9 131.3 146 129.7 149.2C128.8 151.4 128.7 153.8 129.4 156.1C129.4 156.1 129.5 163.4 129.4 164.9C129.3 166.4 130.5 167.7 131.2 168.2C131.9 168.7 132.2 170.8 132.2 170.8H138.3C137.3 169.6 136.2 168.5 135 167.5C133.5 166.4 132.8 163.4 132.7 159.6C132.6 155.8 132.6 152.2 134.3 150C135.8 147.8 137 145.5 138 143.1C138 143.1 138.2 148.3 137.4 149.9C136.6 151.5 136.9 152.9 137.7 154.6C138.5 156.3 142 163.1 141.9 164.4C141.9 165.6 142.3 166.7 143.1 167.6C143.6 168.4 144 169.3 144.3 170.3H149.9C149.2 169.1 148.3 168.1 147.1 167.3C145.3 166.2 144.7 163 143.4 160.4C142.1 157.8 140.7 154.5 141 152.3C141.3 150.1 142.2 149.5 143.7 145.8C144.8 143.1 145.6 140.3 146.1 137.5C147.7 137.3 151.5 139.2 154.9 140.1C158.3 141 160.9 140.3 161.3 140.8C161.7 141.3 162.2 146.5 161.4 147.8C160.6 149.1 159.8 154.6 159.6 156.7C159.4 158.9 158.9 161 158.2 163.1C157.8 164.1 157.8 165.3 158.2 166.3C158.4 167.2 158.5 168.1 158.5 169.1H164.1C163.3 166.9 161 167.4 160.8 164.5C160.6 161.7 161.2 159 162.4 156.4C163.4 154.2 164.3 152 164.9 149.7C165.5 147.3 167.3 146.2 167.3 149.1C167.3 152 168.7 156.9 168.9 158C169.1 159.1 170.1 162.8 169.7 163.7C169.3 164.6 168.9 166.5 169.7 166.7C170.5 166.9 171.2 168.6 171.2 168.6C171.4 169.4 171.7 170.1 172.1 170.8H177.2C177 169.8 176.3 169 175.3 168.7C173.6 168.2 173.3 167.8 172.2 163.7C171.1 159.6 171.6 158.5 171.8 156.9C172 155.3 171.5 154.6 171.3 153.4C171.1 152.2 171.3 147.5 171.3 147.5C171.5 145.5 171.3 140.5 171.3 140.5C172.7 139.7 174 138.7 175.3 137.7C194.1 139.4 193.8 128 194.9 126.6C197 124 196.6 120.8 196.5 118.9C197 119.5 200.3 120.2 201.5 118.9C202.7 117.6 205.7 116.3 206.5 116C207.3 115.7 208.9 116.4 208.9 115.9C208.9 115.4 208.2 115.2 208.1 115C208 114.8 208.6 114.8 208.7 114.2Z" fill="#9E9E9E"/>
<path d="M134 166.3C132.4 165.2 131.7 162.2 131.6 158.5C131.5 154.8 131.5 151.2 133.3 149C134.8 146.9 136.1 144.7 137.2 142.3C137.2 142.3 137.7 140.4 137.2 141.2C136.7 142 134.3 146.6 133.2 147.7C132.1 149 131.3 150.5 130.8 152.1C130.2 153.8 131.1 160.5 131.4 162.5C131.5 164.2 132.4 165.8 133.7 166.8C134.6 167.5 135.3 168.4 135.8 169.4H137.6C136.5 168.4 135.3 167.3 134 166.3Z" fill="#D8D7D8"/>
<path d="M146.3 166.6C144.4 165.5 143.7 162.3 142.4 159.7C141.1 157.1 139.5 153.8 139.8 151.6C140.1 149.4 141 148.8 142.7 145C143.8 142.3 144.7 139.5 145.2 136.6C144.4 139.5 140.4 148.3 139.3 149.7C138.2 151.1 139 153.8 140.1 156.2C141.2 158.6 142.9 162.4 143.2 163.6C143.6 165.1 144.5 166.4 145.7 167.3C146.6 167.9 147.2 168.7 147.7 169.6H149.3C148.5 168.4 147.5 167.3 146.3 166.6Z" fill="#D8D7D8"/>
<path d="M160.5 163.9C160.4 161.1 160.9 158.3 162 155.8C163 153.6 163.8 151.3 164.4 149C164.6 148.2 164.9 147.5 165.5 146.9C165.1 147.2 164 148.1 163.9 148.9C163.7 149.9 161.8 154.7 161 156.5C160.3 158.4 159.9 160.5 159.7 162.5C159.6 164.2 159.8 165.7 160.4 166.2C161.1 166.9 161.7 167.7 162.3 168.5H163.7C163 166.3 160.7 166.8 160.5 163.9Z" fill="#D8D7D8"/>
<path d="M175.3 167.5C173.6 167 173.3 166.6 172.2 162.6C171.1 158.6 171.6 157.4 171.8 155.9C172 154.4 171.5 153.7 171.3 152.5C171.1 151.3 171.3 146.7 171.3 146.7C171.5 144.7 171.3 139.8 171.3 139.8C172.7 139 174 138 175.3 137C194.1 138.7 193.7 127.4 194.9 126.1C197 123.5 196.6 120.4 196.4 118.5C196.9 119.1 200.2 119.8 201.4 118.5C202.6 117.2 205.6 115.9 206.4 115.6C207.2 115.3 208.8 116 208.8 115.5C208.8 115.2 208.6 115 208.4 114.9C207.7 115 207 115 206.3 115C204.8 115.2 203.3 115.9 202.2 117C201.1 118.2 199.4 118.6 197.9 118.2C196.2 117.7 196 118.2 196 118.2C196 119.3 195.5 123.6 194.8 124.9C194.4 125.6 193.9 126.4 193.4 127.1C192.6 130.8 188.2 134.9 184.4 136.1C180.6 137.3 175.1 136.8 175.1 136.8C174.6 137.3 170.9 139.4 170.5 139.8C170.1 140.2 170.6 148.1 170.5 149.7C170.6 151.4 170.7 153.2 171 154.9C171.1 156.1 171 158.9 171 160C171.3 161.9 171.8 163.7 172.5 165.5C172.8 166.8 173.8 167.9 175 168.5C175.5 168.8 176 169.2 176.4 169.7H177.3C177.1 168.6 176.4 167.8 175.3 167.5Z" fill="#D8D7D8"/>
<path d="M175.8 124.9C174.3 122.9 173.4 116.7 168.5 116C165.6 115.6 163.4 111.7 159.8 107.3C156.2 102.9 148.5 104.2 146 108.6L145.7 109.2C145.9 109.1 146.2 109 146.4 108.8C148.8 107.3 151.5 106.4 154.3 106.1C156.8 106.1 159.9 109.1 162.4 112.8C164.9 116.5 169.4 117.1 170.7 118.2C172 119.3 173 123.1 175.4 125.5C176.8 126.9 178.8 127.6 180.8 127.1C178.8 127.4 177 126.5 175.8 124.9Z" fill="#D8D7D8"/>
<path opacity="0.54" d="M133 215C130.2 215 127.8 214.9 125.7 214.9C123.7 214.9 121.8 214.9 120.1 214.9C120.1 219.5 120 223.3 120.1 226.2C120.1 229.2 120.2 231 120.2 231.8H114.8C114.8 231 114.8 229.1 114.9 225.9C114.9 222.7 115 219.1 115 214.9L94.8 215L92.5 210.8C98.5 204.2 103.8 198.3 108.4 192.9C113 187.5 115.6 184.6 116.1 184L120.2 186.4C120.1 190.4 120.1 195.3 120 201.2C120 207 120 210.1 120 210.5C121.2 210.5 122.6 210.5 124.5 210.5C126.3 210.5 129.1 210.4 132.9 210.4V215H133ZM115.1 191.4L98.6 210.4L98.7 210.5C99 210.5 99.7 210.5 100.9 210.5C102.1 210.5 103.9 210.5 106.3 210.5C107.2 210.5 108.5 210.5 110 210.5C111.5 210.5 113.2 210.5 115.1 210.5C115.1 207.2 115.1 204.2 115.1 201.5C115.1 198.8 115 195.4 115.1 191.4Z" fill="black"/>
<path opacity="0.54" d="M174.4 202.9C174.4 205.7 173.9 208.3 173 210.7C172.1 213.1 170.7 215.1 169 216.7C167.3 218.3 165.4 219.6 163.1 220.4C160.9 221.3 158.5 221.7 155.9 221.7C153.3 221.7 150.9 221.3 148.7 220.4C146.5 219.5 144.6 218.3 142.9 216.7C141.1 214.9 139.8 212.9 138.9 210.5C138 208.2 137.5 205.6 137.5 202.8C137.5 200.1 137.9 197.6 138.8 195.4C139.7 193.2 140.9 191.2 142.5 189.5C144.1 187.8 146 186.5 148.4 185.5C150.7 184.5 153.3 184 156 184C158.7 184 161.3 184.5 163.5 185.4C165.8 186.3 167.7 187.6 169.2 189.2C170.9 190.9 172.1 192.9 173 195.2C173.9 197.6 174.4 200.1 174.4 202.9ZM168.7 203.3C168.7 201 168.4 198.9 167.7 197C167 195.1 166 193.4 164.7 192.1C163.6 191 162.3 190.1 160.9 189.5C159.4 188.9 157.8 188.6 156 188.6C154 188.6 152.3 188.9 150.9 189.6C149.5 190.3 148.3 191.1 147.3 192.1C146.1 193.3 145.1 194.9 144.3 196.9C143.6 198.9 143.2 200.9 143.2 202.9C143.2 205.2 143.5 207.2 144.2 209.1C144.9 211 146 212.6 147.5 214.1C148.5 215.1 149.8 215.9 151.2 216.5C152.6 217.1 154.2 217.4 155.9 217.4C157.6 217.4 159.2 217.1 160.7 216.5C162.1 215.9 163.4 215.1 164.5 214.1C165.9 212.8 166.9 211.2 167.7 209.4C168.5 207.6 168.7 205.4 168.7 203.3Z" fill="black"/>
<path opacity="0.54" d="M220.2 215C217.4 215 215 214.9 212.9 214.9C210.9 214.9 209 214.9 207.3 214.9C207.3 219.5 207.2 223.3 207.3 226.2C207.3 229.2 207.4 231 207.4 231.8H202C202 231 202 229.1 202.1 225.9C202.1 222.7 202.2 219.1 202.2 214.9L182 215L179.7 210.8C185.7 204.2 191 198.3 195.6 192.9C200.2 187.5 202.8 184.6 203.3 184L207.4 186.4C207.3 190.4 207.3 195.3 207.2 201.2C207.2 207 207.2 210.1 207.2 210.5C208.4 210.5 209.8 210.5 211.7 210.5C213.5 210.5 216.3 210.4 220.1 210.4V215H220.2ZM202.3 191.4L185.8 210.4L185.9 210.5C186.2 210.5 186.9 210.5 188.1 210.5C189.3 210.5 191.1 210.5 193.5 210.5C194.4 210.5 195.7 210.5 197.2 210.5C198.7 210.5 200.4 210.5 202.3 210.5C202.3 207.2 202.3 204.2 202.3 201.5C202.3 198.8 202.3 195.4 202.3 191.4Z" fill="black"/>
</svg>
