<svg width="141" height="185" viewBox="0 0 141 185" fill="none" xmlns="http://www.w3.org/2000/svg">
<path opacity="0.0878057" fill-rule="evenodd" clip-rule="evenodd" d="M28.9015 185C15.7581 185 5.10333 183.602 5.10333 181.877C5.10333 180.152 15.7581 178.754 28.9015 178.754C42.0449 178.754 52.6997 180.152 52.6997 181.877C52.6997 183.602 42.0449 185 28.9015 185Z" fill="black"/>
<path fill-rule="evenodd" clip-rule="evenodd" d="M43.4955 121.179C43.4955 121.179 42.5211 104.103 39.3704 95.4946C36.2197 86.8864 39.3722 71.991 39.3722 71.991C39.3722 71.991 37.1497 74.2872 33.0764 72.8976C29.0031 71.5079 29.8543 70.3883 29.8543 70.3883C29.8543 70.3883 19.2252 79.458 16.2541 86.0594C13.283 92.6609 11.0589 100.356 11.0589 100.356C11.0589 100.356 10.703 107.847 12.0022 114.809C13.3014 121.772 13.8108 121.181 13.8108 121.181L43.4955 121.179Z" fill="#90CAF9"/>
<path opacity="0.12" fill-rule="evenodd" clip-rule="evenodd" d="M43.2868 120.83L43.284 116.552C43.284 116.552 26.6961 120.089 19.16 113.889C11.624 107.69 13.6546 91.7053 13.6546 91.7053C13.6546 91.7053 10.1341 101.221 11.4704 108.062C12.8067 114.902 13.6737 120.81 13.6737 120.81C13.6737 120.81 15.7783 121.686 25.3208 121.237C34.8634 120.787 43.2868 120.83 43.2868 120.83Z" fill="black"/>
<path fill-rule="evenodd" clip-rule="evenodd" d="M43.2358 121.17C43.2358 121.17 43.7771 105.423 39.4537 95.6603C35.1303 85.8972 40.0142 70.605 40.0142 70.605C40.0142 70.605 37.6687 74.4091 33.6203 72.9486C29.5719 71.488 30.0644 70.2389 30.0644 70.2389C30.0644 70.2389 18.9279 80.0739 15.8421 86.6224C12.7563 93.171 11.6218 100.405 11.6218 100.405C11.6218 100.405 11.1353 107.888 12.3128 114.873C13.4903 121.857 13.6052 121.173 13.6052 121.173L43.2358 121.17Z" stroke="#607D8B"/>
<path fill-rule="evenodd" clip-rule="evenodd" d="M14.3401 121.437C14.3401 121.437 12.6929 128.653 13.8061 134.78C14.9193 140.907 20.8117 144.182 20.8117 144.182L23.748 171.157C23.748 171.157 24.2183 175.121 26.0162 175.121C27.8141 175.121 27.8141 171.157 27.8141 171.157L29.3224 141.623L30.7095 121.437H14.3401Z" fill="#F5F5F5" stroke="#607D8B"/>
<path fill-rule="evenodd" clip-rule="evenodd" d="M17.7172 121.458C17.7172 121.458 13.6682 127.9 15.2033 134.529C16.7383 141.157 22.9276 142.706 22.9276 142.706L27.8568 158.085L29.5501 174.129C29.5501 174.129 30.0074 184.048 33.5147 184.048C37.0221 184.048 37.7384 174.129 37.7384 174.129L40.8217 143.172L42.959 125.77L41.2823 121.458H17.7172Z" fill="#F5F5F5" stroke="#607D8B"/>
<path fill-rule="evenodd" clip-rule="evenodd" d="M39.5514 71.0253C39.5514 71.0253 39.7779 69.5603 40.3378 67.773C41.3976 64.3898 42.0738 62.8279 41.3737 59.0195C40.6737 55.2112 38.2694 52.4963 35.2262 50.4653C32.183 48.4344 31.5521 48.9063 29.8899 49.0084C28.2276 49.1105 29.1621 53.2877 26.9103 54.8592C26.4833 55.1572 26.1058 55.4131 25.7722 55.6324C25.4488 55.8451 31.0651 60.6459 30.8189 60.7948C28.8294 61.9979 23.2953 56.6597 23.2953 56.6597L31.233 68.8535L30.8392 69.6624L21.5175 56.3849C21.5175 56.3849 18.406 51.2724 20.2563 47.6391C22.0568 44.1034 27.7332 44.1794 28.5454 40.6232C29.3576 37.0671 29.0159 47.3671 30.0465 47.528C31.9495 47.825 33.2675 47.6354 35.7503 49.4361C38.2332 51.2368 41.4628 54.1563 42.1365 58.8381C42.8102 63.52 42.0057 66.2519 41.1213 67.9781C40.2368 69.7043 39.7544 72.72 39.7544 72.72L39.5514 71.0253Z" fill="#607D8B"/>
<path d="M24.3706 88.0034C24.3706 88.0034 40.9626 93.0928 49.3941 92.1641C54.794 91.5694 60.1111 81.7199 63.2365 74.7139C63.2365 74.7139 68.4801 72.0974 68.4801 72.0974" stroke="#607D8B" stroke-linecap="round"/>
<path fill-rule="evenodd" clip-rule="evenodd" d="M89.9084 60.098L84.22 62.8223L83.5542 60.4954L82.0619 60.6533L83.3864 65.2663L89.9967 61.4378L89.9084 60.098Z" fill="#607D8B"/>
<path fill-rule="evenodd" clip-rule="evenodd" d="M79.0339 82.2393L73.3455 84.9637L72.6797 82.6367L71.1874 82.7946L72.5119 87.4077L79.1222 83.5791L79.0339 82.2393Z" fill="#607D8B"/>
<path d="M92.8999 64.9968L111.477 72.1828L110.571 74.4847L91.9938 67.2988L92.8999 64.9968Z" fill="#607D8B"/>
<path d="M88.4517 75.7544L107.029 82.9403L106.123 85.2423L87.5455 78.0563L88.4517 75.7544Z" fill="#607D8B"/>
<path d="M84.0054 86.5122L102.583 93.6982L101.677 96.0001L83.0992 88.8142L84.0054 86.5122Z" fill="#607D8B"/>
<rect x="-0.19209" y="-0.492485" width="5.7284" height="5.69902" transform="matrix(0.917006 0.398874 -0.404765 0.914421 77.4078 69.6934)" stroke="#607D8B" stroke-width="0.75"/>
<path fill-rule="evenodd" clip-rule="evenodd" d="M114.441 64.9399L109.784 63.2919L119.435 36.6648L114.441 64.9399Z" fill="#90CAF9"/>
<path fill-rule="evenodd" clip-rule="evenodd" d="M106.286 61.929L102.53 60.6088L115.677 26.3127L106.286 61.929Z" fill="#90CAF9"/>
<path fill-rule="evenodd" clip-rule="evenodd" d="M98.5646 59.4369L96.2134 58.5932L114.847 8.00781L98.5646 59.4369Z" fill="#90CAF9"/>
</svg>

