<svg xmlns="http://www.w3.org/2000/svg" viewBox="0 0 161 196"><path d="M35,196c19.4,0,35-1.8,35-4s-15.6-4-35-4-35,1.8-35,4S15.6,196,35,196Z" style="fill-rule:evenodd;opacity:0.07000000029802322;isolation:isolate"/><path d="M35.4,153.14c-.6,3.6-8,34.4-8.2,35s-.4,1.6-.8,1.6-.4-.6-.4-1.6,1.4-29.2,0-35a32.37,32.37,0,0,1-.2-10.8,80.92,80.92,0,0,0,9.6.2A36.91,36.91,0,0,1,35.4,153.14Zm14.6-3c0,3-6.2,28.8-9.8,38.2,0,0-.8,1.4-1.4,1.4s-.2-1.2.4-4.8,4.4-30.2,2.4-35.2a19.17,19.17,0,0,1-1.8-7.4,78.11,78.11,0,0,0,10.2-1.6v6A19.3,19.3,0,0,1,50,150.14Z" style="fill:#f5f5f5"/><path d="M41.4,51.16c2.69,4.93,11.82,13,12.2,14.28a63.83,63.83,0,0,1-3.8,6.5,22.27,22.27,0,0,1-1.8,2.6,3.68,3.68,0,0,1-.39.3L46.19,76A10.38,10.38,0,0,0,44,78.34a14.84,14.84,0,0,0-1.4,9c1.5,13.66,16.2,43,18.2,47.2a18.36,18.36,0,0,1-3.6,2,69.44,69.44,0,0,1-40.6,2c.4-1.4,1.4-4.4,2.6-8.6a53.93,53.93,0,0,0,2.6-15.4,40,40,0,0,0-.4-5c-.6-6.4-.8-16,1.2-20.4a26.41,26.41,0,0,0,1.51-4.53l.49-2.21A62.2,62.2,0,0,0,25.6,71c0-4.21-.48-8.25,0-12.43.34-7.7-.46-14.28,2.22-17.07l1.8-1.14,1.18-.59a63.34,63.34,0,0,0,10.6,7.8l-.24,1.65Z" style="fill:#92cdf4"/><path d="M28.07,40.51s-1.6-.88-3.1,7.12c0,6,.11,24.83-.49,28.83-1.8,11-4.43,15.16-4.63,20s0,6.48.55,21.48c-.92,5.71-2.91,16.13-4.79,21.6,10.4,2,16.89,2.59,27.69,1.19,0,0-12-41-12-51.6A93.9,93.9,0,0,0,30.5,76c-.4-2.2-.79-9.51-1-12a60.26,60.26,0,0,1,0-8.5,73.41,73.41,0,0,1,1-9c.11-.49,0-2.57-.85-3.33A14.35,14.35,0,0,1,28.07,40.51Z" style="fill:#8ab3d4;fill-rule:evenodd;opacity:0.5;isolation:isolate"/><path d="M14,140.14c3.26.45,6.45,1.78,9.8,2a49,49,0,0,0,.4,12.4c1.4,5.6-.2,32.6-.2,33.6s.6,3.8,2.2,3.8,2.8-2.2,3-3.4,7.6-31.4,8.2-35a40.52,40.52,0,0,0,0-11h.4a22.44,22.44,0,0,0,2,8c1.4,3.4-.6,24.4-3.4,37.6-.17,1.48.4,3.65,2.2,3.6,1.6-.2,2.6-1.8,3.4-3.2s9.8-34.6,9.8-38.6c.18-2.08-.1-7.79,0-10,3.05-.86,10.35-2.81,11-5.56.25-1.09-26.5-47.59-15.51-56.92C52.63,84.05,68.77,91.76,70,92.34s.84-.82.84-.82S53.7,82.93,48.62,76.29l.38-.35c2.21-2.53,6-8.16,6.5-11-2.16-3.46-8.27-8.52-11.19-12.73,3.32-1,12.8-3.52,19.48-3.5,8.22,0,16.9,4.47,16.9,4.47s1.44-.43.17-1.16c-11.27-7.17-25.15-5.53-37.65-1.69,0,0,0-4,0-4l-3.2-2,1-6.8c3,2.6,7.82,1.83,10.4-1,6.61-8.12,5.78-22.55,6-26.6-.73-3.81-4.35-6.27-8-7a14.68,14.68,0,0,0-20.6,3,20.48,20.48,0,0,0-1.6,23.2l4.8,1.6c.2,1.8-1,6.8-3.4,7.6-3.88,2-4.1,3.78-4.6,8.28C23.59,53.44,23,63.44,23.4,71c0,6.4,0,11.77-2.8,17.37-3.39,7-1.71,18.18-1,26.2C20.13,120.52,15.06,136.92,14,140.14Zm20-109a26.38,26.38,0,0,0,5.6.6,7.44,7.44,0,0,0,5-1.4,4.81,4.81,0,0,0,.2-5.4c-3.6-8.6,4.8-13.6,6.4-14.4a4.75,4.75,0,0,1,2.6,1,4,4,0,0,1,1.4,2.2c0,12-2,18.2-5.2,21.4a5.59,5.59,0,0,1-2.06,1.54,5.68,5.68,0,0,1-2.54.46A6.61,6.61,0,0,1,43,36.48a6.46,6.46,0,0,1-2-1.54,1,1,0,0,0-1.4,0,1.17,1.17,0,0,0-.4.6c-.15,1.92-1.2,7.6-1.2,7.6a41.08,41.08,0,0,1-5.8-4.8A12.83,12.83,0,0,0,34,31.14Zm-3.2,8.6a63.34,63.34,0,0,0,10.6,7.8l-.24,1.65a12.73,12.73,0,0,1-11.54-8.86Zm4.6,113.4c-.6,3.6-8,34.4-8.2,35s-.4,1.6-.8,1.6-.4-.6-.4-1.6,1.4-29.2,0-35a32.37,32.37,0,0,1-.2-10.8,80.92,80.92,0,0,0,9.6.2A36.91,36.91,0,0,1,35.4,153.14Zm14.6-3c0,3-6.2,28.8-9.8,38.2,0,0-.8,1.4-1.4,1.4s-.2-1.2.4-4.8,4.4-30.2,2.4-35.2a19.17,19.17,0,0,1-1.8-7.4,78.11,78.11,0,0,0,10.2-1.6v6A19.3,19.3,0,0,1,50,150.14ZM35.1,89.57c.31-.32-.19-1-.6-1.2C29,86,26,83.9,24.6,82.4A62.2,62.2,0,0,0,25.6,71c0-4.21-.48-8.25,0-12.43.34-7.7-.46-14.28,2.22-17.07A15.18,15.18,0,0,0,41.4,51.16c2.69,4.93,11.82,13,12.2,14.28a63.83,63.83,0,0,1-3.8,6.5,22.27,22.27,0,0,1-1.8,2.6,3.68,3.68,0,0,1-.39.3C43.16,68,39.5,57,39.5,57l-2,.68s4.11,12,8.69,18.35A10.38,10.38,0,0,0,44,78.34a14.84,14.84,0,0,0-1.4,9c1.5,13.66,16.2,43,18.2,47.2a18.36,18.36,0,0,1-3.6,2,69.44,69.44,0,0,1-40.6,2c.4-1.4,1.4-4.4,2.6-8.6a53.93,53.93,0,0,0,2.6-15.4,40,40,0,0,0-.4-5c-.6-6.4-.8-16,1.2-20.4a26.41,26.41,0,0,0,1.51-4.53c1,1.43,4.65,4.35,9.19,5.76C34,90.58,34.61,90.07,35.1,89.57Z" style="fill:#90a4ae"/><path d="M155,90H107a3,3,0,0,0-3,3v46.8l7.8-7.8H155a3,3,0,0,0,3-3V93A3,3,0,0,0,155,90Z" style="opacity:0.12"/><path d="M161,93v36a6,6,0,0,1-6,6H113l-12,12V93a6,6,0,0,1,6-6h48A6,6,0,0,1,161,93Zm-6-3H107a3,3,0,0,0-3,3v46.8l7.8-7.8H155a3,3,0,0,0,3-3V93A3,3,0,0,0,155,90Zm-21,21h-6V99h6Zm0,6h-6v6h6Z" style="opacity:0.54"/><path d="M139,28H91a3,3,0,0,0-3,3V77.8L95.8,70H139a3,3,0,0,0,3-3V31A3,3,0,0,0,139,28Z" style="opacity:0.12"/><path d="M145,31V67a6,6,0,0,1-6,6H97L85,85V31a6,6,0,0,1,6-6h48A6,6,0,0,1,145,31Zm-6-3H91a3,3,0,0,0-3,3V77.8L95.8,70H139a3,3,0,0,0,3-3V31A3,3,0,0,0,139,28ZM128.5,54.4v-12a6.6,6.6,0,0,1,3.6,6A7.2,7.2,0,0,1,128.5,54.4Zm-3,6-7.5-6h-4.5v6a1.42,1.42,0,0,1-1.5,1.5h-3a1.42,1.42,0,0,1-1.5-1.5v-6H106a3.23,3.23,0,0,1-3-3v-6a3.23,3.23,0,0,1,3-3h12l7.5-6Z" style="opacity:0.54"/></svg>