<svg width="142" height="146" viewBox="0 0 142 146" fill="none" xmlns="http://www.w3.org/2000/svg">
<path opacity="0.12" fill-rule="evenodd" clip-rule="evenodd" d="M103 145.709C83.67 145.709 68 143.471 68 140.709C68 137.948 83.67 135.709 103 135.709C122.33 135.709 138 137.948 138 140.709C138 143.471 122.33 145.709 103 145.709Z" fill="black"/>
<path fill-rule="evenodd" clip-rule="evenodd" d="M73.1004 66.8396C72.8679 68.4413 74 66.8398 74 66.8398C74 66.8398 82.393 59.5638 90.1041 54.3463C97.3811 48.4851 113.402 42.137 113.402 42.137C113.402 42.137 114.831 42.0172 114.455 40.8503C114.079 39.6834 112.58 40.5423 112.58 40.5423C112.58 40.5423 95.0586 48.9064 88.663 53.7343C82.443 58.2833 73.3328 65.238 73.1004 66.8396Z" fill="#607D8B"/>
<path fill-rule="evenodd" clip-rule="evenodd" d="M104.042 30.5821C100.808 29.3559 99.2013 28.9363 96.7026 26.073C94.2038 23.2096 93.5724 19.6757 93.8513 16.057C94.1302 12.4383 94.873 12.2308 95.9546 10.9906C97.0362 9.75036 99.6764 13.0215 102.241 12.2125C102.727 12.0591 103.151 11.919 103.521 11.7909C103.879 11.6667 104.172 18.9851 104.435 18.8827C106.559 18.0553 105.804 10.4747 105.804 10.4747L109.898 24.0308L111.225 24.2886L106.666 8.91478C106.666 8.91478 104.623 3.36948 100.719 2.61064C96.9199 1.8722 93.5521 6.36563 90.334 4.84041C87.1159 3.31519 95.2231 9.30823 94.7244 10.2135C93.8037 11.8849 92.8628 12.8022 92.7454 15.842C92.6281 18.8818 92.5235 23.1765 95.7687 26.8497C99.014 30.5228 101.839 31.3524 103.914 31.7558C105.99 32.1593 105.751 31.2298 104.042 30.5821Z" fill="#607D8B"/>
<path fill-rule="evenodd" clip-rule="evenodd" d="M98.0479 81.9811C98.0479 81.9811 99.4242 64.7347 102.155 56.4663C104.887 48.198 102.155 33.1183 102.155 33.1183C102.155 33.1183 104.367 35.3991 108.421 34.0183C112.476 32.6375 111.784 31.7768 111.784 31.7768C111.784 31.7768 122.207 40.5344 125.164 47.0919C128.12 53.6494 130.333 61.2936 130.333 61.2936C130.333 61.2936 130.687 68.7347 129.393 75.6514C128.1 82.5682 127.593 81.9811 127.593 81.9811L98.0479 81.9811Z" fill="#90CAF9"/>
<path opacity="0.12" fill-rule="evenodd" clip-rule="evenodd" d="M98.2662 81.6442L98.2662 77.3924C98.2662 77.3924 114.771 80.9189 122.264 74.7623C129.757 68.6057 127.726 52.7186 127.726 52.7186C127.726 52.7186 131.235 62.178 129.91 68.9754C128.585 75.7729 127.726 81.6442 127.726 81.6442C127.726 81.6442 125.633 82.5131 116.14 82.0602C106.646 81.6073 98.2662 81.6442 98.2662 81.6442Z" fill="black"/>
<path fill-rule="evenodd" clip-rule="evenodd" d="M98.3064 81.9725C98.3064 81.9725 97.7692 66.33 102.073 56.631C106.377 46.932 101.518 31.7414 101.518 31.7414C101.518 31.7414 103.852 35.5202 107.881 34.0689C111.911 32.6175 111.421 31.3768 111.421 31.3768C111.421 31.3768 122.504 41.1456 125.574 47.6506C128.645 54.1555 129.773 61.3415 129.773 61.3415C129.773 61.3415 130.257 68.7752 129.084 75.7135C127.912 82.6518 127.797 81.9725 127.797 81.9725L98.3064 81.9725Z" stroke="#607D8B"/>
<path fill-rule="evenodd" clip-rule="evenodd" d="M127.049 82.271C127.049 82.271 128.686 89.449 127.58 95.5444C126.474 101.64 120.617 104.897 120.617 104.897L117.699 131.731C117.699 131.731 117.231 135.674 115.444 135.674C113.657 135.674 113.657 131.731 113.657 131.731L112.158 102.352L110.78 82.271H127.049Z" fill="#F5F5F5" stroke="#607D8B"/>
<path fill-rule="evenodd" clip-rule="evenodd" d="M123.692 82.2927C123.692 82.2927 127.717 88.7005 126.191 95.2944C124.665 101.888 118.514 103.429 118.514 103.429L113.615 118.727L111.932 134.688C111.932 134.688 111.477 144.555 107.991 144.555C104.505 144.555 103.793 134.688 103.793 134.688L100.729 103.893L98.6045 86.582L100.271 82.2927H123.692Z" fill="#F5F5F5" stroke="#607D8B"/>
<path fill-rule="evenodd" clip-rule="evenodd" d="M102.564 98.0279C101.173 98.9216 102.173 97.4489 102.173 97.4489C102.173 97.4489 108.413 92.4097 111.624 84.4614C114.834 76.5132 112.133 47.2175 112.133 47.2175L114.155 46.03C114.155 46.03 116.427 77.1065 113.084 84.4614C110.128 92.3275 103.955 97.1342 102.564 98.0279Z" fill="#607D8B"/>
<path fill-rule="evenodd" clip-rule="evenodd" d="M38.7666 77.0483L41.3413 78.3152L54.8325 66.8953L52.6353 65.8157L38.7666 77.0483ZM49.4409 81.2949L52.0156 82.5618L65.5068 71.1418L63.3096 70.0623L49.4409 81.2949ZM62.5088 87.1802L59.9341 85.9133L73.8027 74.6807L76 75.7603L62.5088 87.1802Z" fill="#607D8B"/>
<path fill-rule="evenodd" clip-rule="evenodd" d="M32.6691 76.9221L34.3251 81.7543L32.4097 82.0733L32.4002 83.2892L36.1979 82.6529L33.7452 76.9759L32.6691 76.9221Z" fill="#607D8B"/>
<path fill-rule="evenodd" clip-rule="evenodd" d="M43.3073 82.2632L44.9633 87.0953L43.0478 87.4144L43.0384 88.6302L46.8361 87.994L44.3834 82.3169L43.3073 82.2632Z" fill="#607D8B"/>
<path fill-rule="evenodd" clip-rule="evenodd" d="M52.172 87.6042L53.828 92.4364L51.9126 92.7554L51.9031 93.9713L55.7008 93.3351L53.2482 87.658L52.172 87.6042Z" fill="#607D8B"/>
<path fill-rule="evenodd" clip-rule="evenodd" d="M33.9092 72.051L35.1416 70.7288L0 52L33.9092 72.051ZM39.9868 66.6355L37.4712 68.5654L15.4082 55.0413L39.9868 66.6355ZM46.2617 62.6394L42.4849 64.8911L26.603 55.5762L46.2617 62.6394Z" fill="#90CAF9"/>
</svg>

