<svg xmlns="http://www.w3.org/2000/svg" viewBox="0 0 96 142"><title>no-search-results</title><path d="M46.6,16.8a4,4,0,0,1,.4-2,4.4,4.4,0,0,1,1.2-1.7,5.4,5.4,0,0,0,1.2-1.4,1.9,1.9,0,0,0,.4-1.2,1.8,1.8,0,0,0-.4-1.4A1.6,1.6,0,0,0,48,8.6a1.8,1.8,0,0,0-1.3.4,1.7,1.7,0,0,0-.5,1.3H43.8A3.4,3.4,0,0,1,45,7.6a4.2,4.2,0,0,1,3-1,4.3,4.3,0,0,1,3.1,1,3.6,3.6,0,0,1,1.1,2.8,4.5,4.5,0,0,1-1.5,3.1l-1.2,1.2a4,4,0,0,0-.7,2.1Zm-.1,3.1a1.7,1.7,0,0,1,.3-1,1.7,1.7,0,0,1,1-.3,1.5,1.5,0,0,1,1,.3,1.8,1.8,0,0,1,.4,1,1.8,1.8,0,0,1-.4.9,1.8,1.8,0,0,1-2,0A1.6,1.6,0,0,1,46.5,19.9Z" style="fill:#90a4ae"/><path d="M70,139c-12.2,0-22-1.1-22-2.5s9.8-2.5,22-2.5,22,1.1,22,2.5S82.2,139,70,139Z" style="fill-rule:evenodd;opacity:0.07000000029802322;isolation:isolate"/><path d="M79.3,93.3v-5s-2.1-11.1-3.9-15.6c-.2-.4-.6-7.3-6.1-9.2l-5.5-1.8s-3.9.5-4,1.8-2.2,20.6,0,24.8a3.9,3.9,0,0,0,2.9,2.3Z" style="fill:#eee"/><path d="M63.5,94l8,18.7v20.8s0,3.3,2.5.8c0-5,.7-10.8,2.3-19,1.4-4.5,2.6-21.2,2.6-21.2Z" style="fill:#fafafa;fill-rule:evenodd"/><path d="M74.5,134.7a3.5,3.5,0,0,1-1.9,1h-.5c-.9-.4-1-1.9-1-2.1V112.9L62.7,93.5H79.5v.6c-.1.6-1.2,16.8-2.6,21.2a97.3,97.3,0,0,0-2.3,19ZM64.3,94.5,72,112.7v20.7c0,.5.2,1.2.4,1.3s.7-.2,1.1-.6a95.6,95.6,0,0,1,2.3-18.9c1.3-4,2.3-17.7,2.5-20.6Z" style="fill:#90a4ae"/><path d="M63.7,62.7l-2.9.8s-1,8.8-1.1,13.6C59.5,87.9,61,89.3,62,89.5l16.7,3.1S70,85.3,67.1,79,63.7,62.7,63.7,62.7Z" style="fill-rule:evenodd;opacity:0.05965130031108856;isolation:isolate"/><path d="M62.8,90.6a6.3,6.3,0,0,0,0,4.3,21.7,21.7,0,0,0,3.4,4.6,64.3,64.3,0,0,1,.1,10.9c.1,7.1-2.5,17.7-2.5,17.7s-3.1,8.3-2,8.4,6.4-7.4,6.4-7.4,5.4-13,6.9-17.9,4.3-17.6,4.3-17.6Z" style="fill:#f5f5f5;fill-rule:evenodd"/><path d="M79.8,93.2v-5c-.1-.5-2.1-11.2-4-15.6v-.4c-.8-4.9-3-8-6.4-9.1l-4.3-1.5A19.2,19.2,0,0,0,69.3,60c1.7-1,1.6-1.9,3.7-5.3s1.7-7,1.1-9.5-1.5-3.1-2.6-4.4,5.3-7,2.8-5.2-6-1.4-9.1-.1-4,6.3-4,6.3L59.8,61.4l.7-.3L62.2,43s.6,6.4,2.5,6.8c.2,0-.7-6.2-.4-6.1h1.2c2.3.2,4-3,5.1-2.1s1.8.9,2.6,3.9.9,6-.8,8.8S71,58,69,59.5a37.4,37.4,0,0,1-5.4,1.7c-1,.1-4.2.7-4.3,2.3a8,8,0,0,0-.1,1.1c-1.3,13.5-1.2,21.3.2,23.9A4.7,4.7,0,0,0,62.2,91a6.5,6.5,0,0,0,.2,4.1,20.3,20.3,0,0,0,3.3,4.6,59.1,59.1,0,0,1,.1,10.7c.1,7-2.5,17.5-2.5,17.5-1,2.9-2.7,7.7-2,8.8a.9.9,0,0,0,.5.3h0c1.2,0,4.4-4.1,6.8-7.6h0c.1-.1,5.4-13.1,7-17.9s4.2-17.2,4.3-17.7v-.5ZM60.3,88c-.9-1.6-1.6-7-.1-23.4,0-.5.1-.9.1-1.1s1.8-1.1,3.5-1.3L69.1,64q4.5,1.5,5.7,8.4a2,2,0,0,0,.1.5c1.8,4.4,3.9,15.4,3.9,15.4v4.4L73,91.8a80.4,80.4,0,0,1-3.5-10.7c-.6-3.3,0-13.4,0-13.5a.5.5,0,0,0-1,0c0,.4-.6,10.3,0,13.6a68,68,0,0,0,3.4,10.4l-9.1-1.5A3.5,3.5,0,0,1,60.3,88Zm14.4,23.1c-1.6,4.6-6.6,16.9-7,17.8a51.3,51.3,0,0,1-5.6,7c0-1.1,1.1-4.6,2.2-7.7,0-.1,2.6-10.7,2.5-17.8a68,68,0,0,0-.1-11h0l-.2-.2a19.5,19.5,0,0,1-3.2-4.4,5.3,5.3,0,0,1-.1-3.5l9.2,1.7c1.6,4.1,3.2,7.8,3.3,8a.5.5,0,0,0,.5.3h.2a.6.6,0,0,0,.2-.7s-1.5-3.4-3.1-7.4l5.3.9C78.5,96.4,76.8,106.7,74.7,111.1Z" style="fill:#90a4ae;fill-rule:evenodd"/><path d="M31.5,122c-9.7,0-17.5-.9-17.5-2s7.8-2,17.5-2,17.5.9,17.5,2S41.2,122,31.5,122Z" style="fill-rule:evenodd;opacity:0.07000000029802322;isolation:isolate"/><path d="M29.1,44.4c2.5.8,6.5,4.7,7.3,9.5s-.2,11.8,1.5,15.2.6,9.6.4,12.9a23.8,23.8,0,0,0,1.2,7.5c.9,3.1,1.5,4.8,1.5,4.8a34.6,34.6,0,0,1-21.2-.9c-2-.7-2.1-1.4-2.1-1.4s8-16.5,9.1-23.7a9.7,9.7,0,0,0-.6-4.1c-.5-.9-2.2-2-2.8-2.6s-3.6-4.4-3.6-4.9S22.4,50,22.4,50V48.2a29.2,29.2,0,0,0,5.8-4.3Z" style="fill:#eee"/><path d="M36.1,95.3a17.8,17.8,0,0,1,0,6.1c-.7,2.9,0,17.5,0,17.5s-.1,1.3-.6,1.3-1-1.3-1-1.3-3.8-15.7-4.1-17.5a23,23,0,0,1,0-5.9Zm-7,.1a9.8,9.8,0,0,1-.8,4.4c-1.1,2.4,1.5,19.2,1.5,19.2s.2,1.2-.6,1.2S28,119,28,119s-4.9-17.2-4.9-19.2,0-2,0-5.3Z" style="fill:#f5f5f5;fill-rule:evenodd"/><path d="M15,31.7c0,.3,0,8.4,2.9,11.3a4.1,4.1,0,0,0,2.9,1.3h.1a3.4,3.4,0,0,0,2.2-.8l.5,3.4-1.6,1v2a59.4,59.4,0,0,0-2.6,6.9c.1.7,2.9,4.3,3.7,5.1l1,.8c.6.6,1.5,1.2,1.7,1.7a8.4,8.4,0,0,1,.6,3.8c-1,7.1-9,23.4-9.1,23.6h0v.2c0,.2.3,1,2.4,1.8l3,.9v3.3a9.7,9.7,0,0,0,0,1.7c0,2,4.5,18.6,4.9,19.3s.9,1.5,1.7,1.6a.9.9,0,0,0,.8-.4,2.2,2.2,0,0,0,.3-1.4C29,112.2,28,101.7,28.7,100a11.2,11.2,0,0,0,1-4h.2a20.1,20.1,0,0,0,0,5.5c.3,1.8,4,16.9,4.1,17.5s.7,1.7,1.5,1.7,1.1-1.4,1.1-1.9-.8-14-.1-16.8a24.5,24.5,0,0,0,.2-6.2,23.7,23.7,0,0,0,4.5-1h.4v-.5s-.7-1.8-1.6-4.8A25.3,25.3,0,0,1,38.8,82c.1-.7.1-1.5.2-2.4.3-3.4.7-7.9-.7-10.7s-1-5.4-1-8.6a62.8,62.8,0,0,0-.4-6.4,14.4,14.4,0,0,0-7.6-10c-1.2-.4-1.8-2.9-1.7-3.8l2.4-.8a10.2,10.2,0,0,0-.8-11.6,7.3,7.3,0,0,0-10.3-1.5,5.9,5.9,0,0,0-3.1,1.7A4.1,4.1,0,0,0,15,31.7Zm1-.1a2,2,0,0,1,.7-1.1A2.4,2.4,0,0,1,18,30c.8.4,5,2.9,3.2,7.2a2.4,2.4,0,0,0,.1,2.7,3.7,3.7,0,0,0,2.5.7,13.3,13.3,0,0,0,2.8-.3,6.4,6.4,0,0,0,.9,3.6,20.5,20.5,0,0,1-2.9,2.4L24,42.5h0c0-.1-.1-.2-.2-.3a.5.5,0,0,0-.7,0,3.2,3.2,0,0,1-2.2,1.1,2.8,2.8,0,0,1-2.3-1C17,40.7,16,37.6,16,31.6ZM28.7,95.9a9.6,9.6,0,0,1-.9,3.7c-1,2.5.9,15.8,1.2,17.6s.5,2.4.2,2.4-.7-.7-.7-.7c-1.8-4.7-4.9-17.6-4.9-19.1a9.7,9.7,0,0,1,0-1.7v-3A38.9,38.9,0,0,0,28.7,95.9Zm7,0a16.2,16.2,0,0,1-.1,5.4c-.7,2.9,0,17,0,17.5s0,.8-.2.8-.3-.5-.4-.8-3.8-15.7-4.1-17.5a18.6,18.6,0,0,1,0-5.3A39.6,39.6,0,0,0,35.7,95.9ZM20,93a8.9,8.9,0,0,1-1.8-1c1-2.1,8.1-16.8,9.1-23.6a10.1,10.1,0,0,0-.7-4.5,9.2,9.2,0,0,0-2-1.9l-.9-.8a33.1,33.1,0,0,1-3.4-4.5c.2-.7,1.6-4.1,2.6-6.5V48.5a31.5,31.5,0,0,0,5.3-3.9l.6.3c2.4.8,6.3,4.5,7,9.1a60.7,60.7,0,0,1,.4,6.3c0,3.5.1,6.8,1.1,9s.9,7,.6,10.2c-.1.9-.1,1.8-.2,2.5A25.4,25.4,0,0,0,39,89.7c.6,2.1,1.1,3.6,1.3,4.3A34.7,34.7,0,0,1,20,93Z" style="fill:#90a4ae"/><path d="M29.6,45.7s5.3,2.4,6.3,9.6c.4,3.1-.2,7.2.1,9.2.9,5.5,1.7,7.1,1.8,9.5s-.8,3.9-.2,11.4a50.5,50.5,0,0,0,2.1,8.4c-5.2,1-6.7,1.4-12.1.7,0,0,6-20.5,6-25.8,0-2.7-.6-4.9-.4-6s-.2-4.7,0-5.9-.4-3.7-.5-4.8-1.6-2.2-2.2-3.4a14.8,14.8,0,0,0-1.9-1.8Z" style="fill:#e0e0e0;fill-rule:evenodd"/><path d="M26.6,62h-.4c-1.4-.5-2.4-4-2.7-5.1a.5.5,0,1,1,.9-.3c.6,2,1.6,4.3,2.2,4.5s.5.3.4.6S26.8,62,26.6,62Zm1.9,8.2c1.9-4.4,1.9-17.5,1.9-17.5H28.8s.1,12.8-1.7,17.5-6.9,8.9-6.9,8.9,0,.9.8.3S26.9,74.9,28.5,70.2ZM36.4,63s-1.1,2.1-5.5,3.7c-.2.1-.4.4-.3.6a.7.7,0,0,0,.5.4h.4c4.8-1.8,5.3-3.8,5.4-3.9ZM29.2,44.5a6.4,6.4,0,0,1-6.7,4.6l.2,1a7.6,7.6,0,0,0,7.5-5.3Z" style="fill:#90a4ae"/></svg>