<?xml version="1.0" encoding="utf-8"?>
<!-- Generator: Adobe Illustrator 24.1.2, SVG Export Plug-In . SVG Version: 6.00 Build 0)  -->
<svg version="1.1" id="mdi-google" xmlns="http://www.w3.org/2000/svg" xmlns:xlink="http://www.w3.org/1999/xlink" x="0px" y="0px"
	 viewBox="0 0 24 24" style="enable-background:new 0 0 24 24;" xml:space="preserve">
<path d="M21.4,11.1h-9.2v2.7h6.5c-0.3,3.8-3.5,5.4-6.5,5.4c-3.8,0-7.2-3-7.2-7.3c0-4.1,3.2-7.3,7.2-7.3c3.1,0,4.9,2,4.9,2l1.9-2
	c0,0-2.4-2.7-6.9-2.7C6.4,2,2,6.8,2,12c0,5,4.1,10,10.2,10c5.4,0,9.2-3.7,9.2-9.1C21.5,11.8,21.4,11.1,21.4,11.1L21.4,11.1z"/>
</svg>
