<?xml version="1.0" encoding="utf-8"?>
<!-- Generator: Adobe Illustrator 24.1.2, SVG Export Plug-In . SVG Version: 6.00 Build 0)  -->
<svg version="1.1" id="mdi-google-my-business" xmlns="http://www.w3.org/2000/svg" xmlns:xlink="http://www.w3.org/1999/xlink"
	 x="0px" y="0px" viewBox="0 0 24 24" style="enable-background:new 0 0 24 24;" xml:space="preserve">
<path d="M22,8.5c0,1.4-1.1,2.5-2.5,2.5S17,9.9,17,8.5c0,1.4-1.1,2.5-2.5,2.5S12,9.9,12,8.5c0,1.4-1.1,2.5-2.5,2.5S7,9.9,7,8.5
	C7,9.9,5.9,11,4.5,11S2,9.9,2,8.5l1.4-5.4c0,0,0.3-1.1,1.3-1.1h14.6c1,0,1.3,1.1,1.3,1.1L22,8.5 M21,12.2V20c0,1.1-0.9,2-2,2H5
	c-1.1,0-2-0.9-2-2v-7.8c0.5,0.2,1,0.3,1.5,0.3c0.9,0,1.8-0.3,2.5-0.9c0.7,0.6,1.6,0.9,2.5,0.9c0.9,0,1.8-0.3,2.5-0.9
	c0.7,0.6,1.6,0.9,2.5,0.9c0.9,0,1.8-0.3,2.5-0.9c0.7,0.6,1.6,0.9,2.5,0.9C20,12.5,20.5,12.4,21,12.2 M19,17.3c0-0.2,0-0.4,0-0.6
	l0-0.2h-3v1.2h1.8c-0.1,0.2-0.1,0.4-0.3,0.6c-0.3,0.3-0.8,0.5-1.3,0.5c-0.5,0-1-0.2-1.4-0.6c-0.7-0.7-0.7-1.9,0-2.6
	c0.7-0.7,1.8-0.7,2.6,0l0.1,0.1l0.8-0.9l-0.2-0.1c-0.6-0.5-1.3-0.8-2.1-0.8h0c-0.8,0-1.6,0.3-2.1,0.9c-0.6,0.6-0.9,1.3-0.9,2.1
	c0,0.8,0.3,1.5,0.9,2.1l0,0c0.6,0.6,1.4,0.9,2.2,0.9h0c0.8,0,1.5-0.3,2-0.8C18.7,18.7,19,18,19,17.3z"/>
</svg>
