<?xml version="1.0" encoding="utf-8"?>
<!-- Generator: Adobe Illustrator 23.0.3, SVG Export Plug-In . SVG Version: 6.00 Build 0)  -->
<svg version="1.1" id="Layer_1" xmlns="http://www.w3.org/2000/svg" xmlns:xlink="http://www.w3.org/1999/xlink" x="0px" y="0px"
	 viewBox="0 0 24 24" style="enable-background:new 0 0 24 24;" xml:space="preserve">
<path style="fill-rule:evenodd;clip-rule:evenodd;" d="M8.11,19.45c-2.17-0.81-3.89-2.67-4.41-5.1L2.05,6.54
	C1.81,5.46,2.5,4.4,3.58,4.17l9.77-2.08h0.02c1.07-0.21,2.11,0.47,2.34,1.54l0.35,1.67l4.35,0.92h0.02
	c1.06,0.24,1.74,1.29,1.51,2.36l-1.66,7.81c-0.8,3.77-4.51,6.19-8.29,5.38C10.42,21.46,9.08,20.61,8.11,19.45L8.11,19.45z
	 M8.57,13.95c-0.55,2.68,1.17,5.32,3.85,5.89c2.7,0.57,5.35-1.15,5.93-3.84L20,8.18L10.23,6.1 M16.01,16.52
	c-0.64,1.05-1.9,1.64-3.18,1.36c-1.27-0.27-2.19-1.32-2.35-2.54L16.01,16.52z M8.47,5.17L4,6.13l1.66,7.81l0.01,0.03
	c0.15,0.71,0.45,1.35,0.86,1.9c-0.1-0.77-0.07-1.57,0.1-2.37l0.42-2.01c-0.45-0.07-0.84-0.32-1.06-0.68
	c0.08-0.61,0.58-1.14,1.27-1.29C7.33,9.5,7.4,9.49,7.48,9.49l0.81-3.8C8.32,5.5,8.38,5.33,8.47,5.17z M15.03,12.23
	c0.32-0.52,0.99-0.81,1.69-0.66c0.69,0.15,1.19,0.68,1.27,1.29c-0.32,0.52-1,0.81-1.69,0.66C15.61,13.37,15.11,12.84,15.03,12.23z
	 M10.15,11.19c0.32-0.52,0.99-0.81,1.69-0.66c0.69,0.15,1.19,0.68,1.27,1.29c-0.32,0.53-1,0.81-1.69,0.67
	C10.73,12.33,10.23,11.8,10.15,11.19z M11.97,4.43l1.96,0.42l-0.17-0.79L11.97,4.43z"/>
</svg>
